<svg version="1.1" id="Layer_1" xmlns="http://www.w3.org/2000/svg" xmlns:xlink="http://www.w3.org/1999/xlink" x="0px" y="0px"
	 width="100%" viewBox="0 0 512 512" enable-background="new 0 0 512 512" xml:space="preserve">
<path fill="#000000" opacity="1.000000" stroke="none" 
	d="
M236.000000,513.000000 
	C157.352402,513.000000 79.204803,513.000000 1.028605,513.000000 
	C1.028605,342.394043 1.028605,171.788086 1.028605,1.091059 
	C171.564285,1.091059 342.128632,1.091059 512.846497,1.091059 
	C512.846497,171.666565 512.846497,342.333252 512.846497,513.000000 
	C420.788055,513.000000 328.644012,513.000000 236.000000,513.000000 
M161.014847,242.231110 
	C160.941650,242.937576 160.868454,243.644043 160.669418,245.564957 
	C153.700821,230.127014 151.387894,214.716049 148.557709,197.724243 
	C147.293152,199.716385 146.788696,200.393631 146.404648,201.133392 
	C137.435608,218.409988 127.831696,235.395432 119.708488,253.061600 
	C112.016418,269.790161 107.481514,287.821014 106.313805,306.149261 
	C105.427261,320.064209 106.353241,334.289001 108.217964,348.140991 
	C111.285759,370.929962 121.536148,390.861633 136.670670,408.058960 
	C151.572098,424.991364 170.139053,436.742981 191.535828,443.684418 
	C201.144470,446.801636 211.058884,449.316071 218.740784,449.026428 
	C215.236023,444.732208 210.482788,439.547668 206.453812,433.850922 
	C194.736008,417.282532 192.560471,399.499573 200.716263,380.726227 
	C208.928040,361.823975 222.419083,346.412140 234.479050,330.069397 
	C242.820602,318.765594 250.943451,307.354767 256.647736,294.317566 
	C260.892303,301.538696 264.615234,308.971344 269.344910,315.695831 
	C280.019562,330.872803 291.434204,345.529907 302.082245,360.724762 
	C310.048309,372.092407 317.132751,384.303925 317.823303,398.497650 
	C318.812439,418.828552 310.816742,435.326874 293.788849,447.057404 
	C293.234497,447.439270 292.858765,448.080414 291.821350,449.256378 
	C308.180664,448.315338 322.781708,444.440765 336.899353,438.090485 
	C354.577637,430.138580 369.535187,418.612854 381.569153,403.673065 
	C393.492371,388.870850 401.513275,371.991302 405.525665,353.174011 
	C408.949371,337.117493 409.234009,320.963837 406.723053,305.022430 
	C403.606110,285.233856 396.234680,266.717438 386.630096,249.026688 
	C373.350067,224.566025 356.663177,202.542938 339.378998,180.906631 
	C329.320404,168.315262 319.175507,155.899109 312.830841,140.751205 
	C306.958252,126.730446 303.358368,112.246307 303.205170,97.199821 
	C303.096863,86.557915 304.902679,75.896530 305.865509,65.115341 
	C305.706329,65.140495 304.863831,65.090393 304.195099,65.407173 
	C295.844208,69.363068 287.375244,73.101807 279.217224,77.425789 
	C263.876099,85.557037 249.694855,95.570099 237.225250,107.558716 
	C226.670685,117.706161 216.775681,128.677902 207.620544,140.111053 
	C193.013382,158.352798 182.553467,179.163269 174.134689,200.846008 
	C168.998489,214.074463 165.398804,227.899521 161.014847,242.231110 
z"/>
<path fill="#FFA000" opacity="1.000000" stroke="none" 
	d="
M161.061920,241.843872 
	C165.398804,227.899521 168.998489,214.074463 174.134689,200.846008 
	C182.553467,179.163269 193.013382,158.352798 207.620544,140.111053 
	C216.775681,128.677902 226.670685,117.706161 237.225250,107.558716 
	C249.694855,95.570099 263.876099,85.557037 279.217224,77.425789 
	C287.375244,73.101807 295.844208,69.363068 304.195099,65.407173 
	C304.863831,65.090393 305.706329,65.140495 305.865509,65.115341 
	C304.902679,75.896530 303.096863,86.557915 303.205170,97.199821 
	C303.358368,112.246307 306.958252,126.730446 312.830841,140.751205 
	C319.175507,155.899109 329.320404,168.315262 339.378998,180.906631 
	C356.663177,202.542938 373.350067,224.566025 386.630096,249.026688 
	C396.234680,266.717438 403.606110,285.233856 406.723053,305.022430 
	C409.234009,320.963837 408.949371,337.117493 405.525665,353.174011 
	C401.513275,371.991302 393.492371,388.870850 381.569153,403.673065 
	C369.535187,418.612854 354.577637,430.138580 336.899353,438.090485 
	C322.781708,444.440765 308.180664,448.315338 291.821350,449.256378 
	C292.858765,448.080414 293.234497,447.439270 293.788849,447.057404 
	C310.816742,435.326874 318.812439,418.828552 317.823303,398.497650 
	C317.132751,384.303925 310.048309,372.092407 302.082245,360.724762 
	C291.434204,345.529907 280.019562,330.872803 269.344910,315.695831 
	C264.615234,308.971344 260.892303,301.538696 256.647736,294.317566 
	C250.943451,307.354767 242.820602,318.765594 234.479050,330.069397 
	C222.419083,346.412140 208.928040,361.823975 200.716263,380.726227 
	C192.560471,399.499573 194.736008,417.282532 206.453812,433.850922 
	C210.482788,439.547668 215.236023,444.732208 218.740784,449.026428 
	C211.058884,449.316071 201.144470,446.801636 191.535828,443.684418 
	C170.139053,436.742981 151.572098,424.991364 136.670670,408.058960 
	C121.536148,390.861633 111.285759,370.929962 108.217964,348.140991 
	C106.353241,334.289001 105.427261,320.064209 106.313805,306.149261 
	C107.481514,287.821014 112.016418,269.790161 119.708488,253.061600 
	C127.831696,235.395432 137.435608,218.409988 146.404648,201.133392 
	C146.788696,200.393631 147.293152,199.716385 148.557709,197.724243 
	C151.387894,214.716049 153.700821,230.127014 160.669418,245.564957 
	C160.868454,243.644043 160.941650,242.937576 161.061920,241.843872 
z"/>
</svg>