<?xml version="1.0" encoding="UTF-8"?>
<svg id="Layer_1" data-name="Layer 1" xmlns="http://www.w3.org/2000/svg" viewBox="0 0 307.32 703.83">
  <defs>
    <style>
      .cls-1 {
        fill: #f6cf55;
      }

      .cls-1, .cls-2, .cls-3, .cls-4, .cls-5, .cls-6, .cls-7, .cls-8, .cls-9 {
        stroke-miterlimit: 10;
      }

      .cls-1, .cls-4, .cls-5 {
        stroke: #b79843;
      }

      .cls-1, .cls-8, .cls-9 {
        stroke-width: 3px;
      }

      .cls-2 {
        fill: #5a3723;
        stroke: #382217;
      }

      .cls-2, .cls-3, .cls-4, .cls-5, .cls-6, .cls-7 {
        stroke-width: 2px;
      }

      .cls-3 {
        fill: #995724;
        stroke: #7a4521;
      }

      .cls-4 {
        fill: #fff;
      }

      .cls-6 {
        fill: #4c893f;
        stroke: #3a5f2d;
      }

      .cls-7 {
        stroke: #2d2d2d;
      }

      .cls-8 {
        fill: #f4a857;
        stroke: #b57243;
      }

      .cls-9 {
        fill: #ed4a24;
        stroke: #a83623;
      }
    </style>
  </defs>
  <g>
    <path class="cls-3" d="M33.83,505.19l34.84,180.45c0,9.49,41.79,17.19,93.34,17.19s93.34-7.7,93.34-17.19l32.74-178.64-254.27-1.81Z"/>
    <ellipse class="cls-3" cx="161.11" cy="462.86" rx="145.21" ry="87.89"/>
    <ellipse class="cls-2" cx="160.71" cy="454.42" rx="138.53" ry="59.32"/>
  </g>
  <g>
    <g>
      <g>
        <path class="cls-6" d="M166.36,453.19s52.98-44.62,78.6-17.66c0,0-10.91,44.07-78.6,17.66Z"/>
        <path class="cls-6" d="M73.77,428.33s10.91,44.07,78.6,17.66c0,0-52.98-44.62-78.6-17.66"/>
      </g>
      <path class="cls-6" d="M133.73,152.41s92.35,254.82-8.09,325.6h16.01s100.94-60.09,7.41-326.66l-15.33,1.06Z"/>
    </g>
    <g>
      <path class="cls-9" d="M113.12,240.74c-19.49,19.49-51.09,19.49-70.57,0-19.49-19.49-19.49-51.09,0-70.57,19.49-19.49,99.1-28.52,99.1-28.52,0,0-9.03,79.61-28.52,99.1Z"/>
      <path class="cls-9" d="M191.55,231.89c0,27.56-22.34,49.9-49.9,49.9s-49.9-22.34-49.9-49.9,49.9-90.24,49.9-90.24c0,0,49.9,62.68,49.9,90.24Z"/>
      <path class="cls-9" d="M240.74,170.17c19.49,19.49,19.49,51.09,0,70.57-19.49,19.49-51.09,19.49-70.57,0-19.49-19.49-28.52-99.1-28.52-99.1,0,0,79.61,9.03,99.1,28.52Z"/>
      <path class="cls-9" d="M231.89,91.74c27.56,0,49.9,22.34,49.9,49.9s-22.34,49.9-49.9,49.9-90.24-49.9-90.24-49.9c0,0,62.68-49.9,90.24-49.9Z"/>
      <path class="cls-9" d="M170.17,42.55c19.49-19.49,51.09-19.49,70.57,0,19.49,19.49,19.49,51.09,0,70.57-19.49,19.49-99.1,28.52-99.1,28.52,0,0,9.03-79.61,28.52-99.1Z"/>
      <path class="cls-9" d="M91.74,51.4c0-27.56,22.34-49.9,49.9-49.9s49.9,22.34,49.9,49.9c0,27.56-49.9,90.24-49.9,90.24,0,0-49.9-62.68-49.9-90.24Z"/>
      <path class="cls-9" d="M42.55,113.12c-19.49-19.49-19.49-51.09,0-70.57,19.49-19.49,51.09-19.49,70.57,0,19.49,19.49,28.52,99.1,28.52,99.1,0,0-79.61-9.03-99.1-28.52Z"/>
      <path class="cls-9" d="M51.4,191.55c-27.56,0-49.9-22.34-49.9-49.9s22.34-49.9,49.9-49.9,90.24,49.9,90.24,49.9c0,0-62.68,49.9-90.24,49.9Z"/>
    </g>
  </g>
  <g>
    <circle class="cls-1" cx="141.64" cy="141.64" r="72.97"/>
    <path class="cls-5" d="M129.87,178.58s30.84,3.09,61.68-22.21c0,0-.83,48.88-30.84,44.3,0,0-20.42-2.5-30.84-22.09Z"/>
    <ellipse class="cls-8" cx="161.79" cy="149.38" rx="20.71" ry="11.07" transform="translate(-48.44 83.86) rotate(-25.41)"/>
    <g>
      <g>
        <ellipse class="cls-4" cx="100.07" cy="112.49" rx="23.76" ry="40.45" transform="translate(-33.87 43.73) rotate(-21.17)"/>
        <path class="cls-7" d="M95.95,86.98c-5.4,2.47-7.46,10.14-5.68,18.76l16.14-1.61-8.05,17.83c5.14,5.74,11.48,8.4,16.39,6.16,6.96-3.18,8.39-14.97,3.2-26.33-5.19-11.36-15.04-17.99-22-14.81Z"/>
      </g>
      <g>
        <ellipse class="cls-4" cx="161.79" cy="88.58" rx="23.76" ry="40.45" transform="translate(-21.07 64.41) rotate(-21.17)"/>
        <path class="cls-7" d="M156.95,61.71c-5.4,2.47-7.46,10.14-5.68,18.76l16.14-1.61-8.05,17.83c5.14,5.74,11.48,8.4,16.39,6.16,6.96-3.18,8.39-14.97,3.2-26.33-5.19-11.36-15.04-17.99-22-14.81Z"/>
      </g>
    </g>
  </g>
</svg>