<svg width="274" height="367" viewBox="0 0 274 367" fill="none" xmlns="http://www.w3.org/2000/svg">
<g clip-path="url(#clip0_4_1832)">
<mask id="mask0_4_1832" style="mask-type:luminance" maskUnits="userSpaceOnUse" x="-152" y="-337" width="578" height="747">
<path d="M-151.124 -337H425.124V409.41H-151.124V-337Z" fill="white"/>
</mask>
<g mask="url(#mask0_4_1832)">
<path d="M17.1568 180.422L49.9643 350.483C49.9643 359.43 89.313 366.683 137.853 366.683C186.394 366.683 225.742 359.43 225.742 350.483L256.571 182.124L17.1568 180.422Z" fill="#985724" stroke="#7A4521" stroke-width="2.66667" stroke-miterlimit="10"/>
</g>
<mask id="mask1_4_1832" style="mask-type:luminance" maskUnits="userSpaceOnUse" x="-152" y="-337" width="578" height="747">
<path d="M-151.124 -337H425.124V409.41H-151.124V-337Z" fill="white"/>
</mask>
<g mask="url(#mask1_4_1832)">
<path d="M273.723 140.532C273.723 186.276 212.51 223.359 137 223.359C61.4905 223.359 0.277374 186.276 0.277374 140.532C0.277374 94.7883 61.4905 57.7053 137 57.7053C212.51 57.7053 273.723 94.7883 273.723 140.532Z" fill="#985724" stroke="#7A4521" stroke-width="2.66667" stroke-miterlimit="10"/>
</g>
<mask id="mask2_4_1832" style="mask-type:luminance" maskUnits="userSpaceOnUse" x="-152" y="-337" width="578" height="747">
<path d="M-151.124 -337H425.124V409.41H-151.124V-337Z" fill="white"/>
</mask>
<g mask="url(#mask2_4_1832)">
<path d="M267.061 132.578C267.061 163.455 208.661 188.486 136.621 188.486C64.5811 188.486 6.18146 163.455 6.18146 132.578C6.18146 101.701 64.5811 76.6694 136.621 76.6694C208.661 76.6694 267.061 101.701 267.061 132.578Z" fill="#5A3723" stroke="#382217" stroke-width="2.66667" stroke-miterlimit="10"/>
</g>
<mask id="mask3_4_1832" style="mask-type:luminance" maskUnits="userSpaceOnUse" x="-152" y="-337" width="578" height="747">
<path d="M-151.124 -337H425.124V409.41H-151.124V-337Z" fill="white"/>
</mask>
<g mask="url(#mask3_4_1832)">
<path d="M137 45.1248C137 45.1248 65.0952 76.6691 103.597 154.806H108.435C108.435 154.806 73.7154 95.4453 137 45.1248Z" fill="#49713E"/>
</g>
<mask id="mask4_4_1832" style="mask-type:luminance" maskUnits="userSpaceOnUse" x="-152" y="-337" width="578" height="747">
<path d="M-151.124 -337H425.124V409.41H-151.124V-337Z" fill="white"/>
</mask>
<g mask="url(#mask4_4_1832)">
<path d="M137 45.1248C137 45.1248 65.0952 76.6691 103.597 154.806H108.435C108.435 154.806 73.7154 95.4453 137 45.1248Z" stroke="#354D2C" stroke-width="2.66667" stroke-miterlimit="10"/>
</g>
<mask id="mask5_4_1832" style="mask-type:luminance" maskUnits="userSpaceOnUse" x="-152" y="-337" width="578" height="747">
<path d="M-151.124 -337H425.124V409.41H-151.124V-337Z" fill="white"/>
</mask>
<g mask="url(#mask5_4_1832)">
<path d="M150.819 9.43797C158.663 2.8805 170.333 3.92849 176.885 11.7799C183.437 19.6304 182.389 31.311 174.545 37.8684C166.702 44.4269 137 45.1243 137 45.1243C137 45.1243 142.976 15.9954 150.819 9.43797Z" fill="#A7B541"/>
</g>
<mask id="mask6_4_1832" style="mask-type:luminance" maskUnits="userSpaceOnUse" x="-152" y="-337" width="578" height="747">
<path d="M-151.124 -337H425.124V409.41H-151.124V-337Z" fill="white"/>
</mask>
<g mask="url(#mask6_4_1832)">
<path d="M150.819 9.43797C158.663 2.8805 170.333 3.92849 176.885 11.7799C183.437 19.6304 182.389 31.311 174.545 37.8684C166.702 44.4269 137 45.1243 137 45.1243C137 45.1243 142.976 15.9954 150.819 9.43797Z" stroke="#898C44" stroke-width="4" stroke-miterlimit="10"/>
</g>
</g>
<defs>
<clipPath id="clip0_4_1832">
<rect width="274" height="367" fill="white"/>
</clipPath>
</defs>
</svg>
