<svg width="274" height="342" viewBox="0 0 274 342" fill="none" xmlns="http://www.w3.org/2000/svg">
<g clip-path="url(#clip0_4_1340)">
<mask id="mask0_4_1340" style="mask-type:luminance" maskUnits="userSpaceOnUse" x="-152" y="-362" width="578" height="747">
<path d="M-151.124 -362H425.124V384.41H-151.124V-362Z" fill="white"/>
</mask>
<g mask="url(#mask0_4_1340)">
<path d="M17.1569 155.422L49.9644 325.483C49.9644 334.43 89.313 341.683 137.853 341.683C186.394 341.683 225.742 334.43 225.742 325.483L256.571 157.124L17.1569 155.422Z" fill="#985724" stroke="#7A4521" stroke-width="2.66667" stroke-miterlimit="10"/>
</g>
<mask id="mask1_4_1340" style="mask-type:luminance" maskUnits="userSpaceOnUse" x="-152" y="-362" width="578" height="747">
<path d="M-151.124 -362H425.124V384.41H-151.124V-362Z" fill="white"/>
</mask>
<g mask="url(#mask1_4_1340)">
<path d="M273.723 115.532C273.723 161.276 212.51 198.359 137 198.359C61.4905 198.359 0.277344 161.276 0.277344 115.532C0.277344 69.7883 61.4905 32.7053 137 32.7053C212.51 32.7053 273.723 69.7883 273.723 115.532Z" fill="#985724" stroke="#7A4521" stroke-width="2.66667" stroke-miterlimit="10"/>
</g>
<mask id="mask2_4_1340" style="mask-type:luminance" maskUnits="userSpaceOnUse" x="-152" y="-362" width="578" height="747">
<path d="M-151.124 -362H425.124V384.41H-151.124V-362Z" fill="white"/>
</mask>
<g mask="url(#mask2_4_1340)">
<path d="M267.061 107.578C267.061 138.455 208.661 163.486 136.621 163.486C64.5811 163.486 6.18146 138.455 6.18146 107.578C6.18146 76.7005 64.5811 51.6694 136.621 51.6694C208.661 51.6694 267.061 76.7005 267.061 107.578Z" fill="#5A3723" stroke="#382217" stroke-width="2.66667" stroke-miterlimit="10"/>
</g>
<mask id="mask3_4_1340" style="mask-type:luminance" maskUnits="userSpaceOnUse" x="-152" y="-362" width="578" height="747">
<path d="M-151.124 -362H425.124V384.41H-151.124V-362Z" fill="white"/>
</mask>
<g mask="url(#mask3_4_1340)">
<path d="M157.055 17.8957C157.055 17.8957 65.095 51.6698 103.598 129.805H108.436C108.436 129.805 77.0304 54.5169 162.138 23.1366L157.055 17.8957Z" fill="#455E3E" stroke="#313F2A" stroke-width="2.66667" stroke-miterlimit="10"/>
</g>
<mask id="mask4_4_1340" style="mask-type:luminance" maskUnits="userSpaceOnUse" x="-152" y="-362" width="578" height="747">
<path d="M-151.124 -362H425.124V384.41H-151.124V-362Z" fill="white"/>
</mask>
<g mask="url(#mask4_4_1340)">
<path d="M192.98 4.78434C203.077 6.36857 209.98 15.8457 208.396 25.9515C206.813 36.0572 197.346 42.9653 187.249 41.381C177.151 39.7968 157.055 17.8955 157.055 17.8955C157.055 17.8955 182.884 3.2001 192.98 4.78434Z" fill="#989E46"/>
</g>
<mask id="mask5_4_1340" style="mask-type:luminance" maskUnits="userSpaceOnUse" x="-152" y="-362" width="578" height="747">
<path d="M-151.124 -362H425.124V384.41H-151.124V-362Z" fill="white"/>
</mask>
<g mask="url(#mask5_4_1340)">
<path d="M192.98 4.78434C203.077 6.36857 209.98 15.8457 208.396 25.9515C206.813 36.0572 197.346 42.9653 187.249 41.381C177.151 39.7968 157.055 17.8955 157.055 17.8955C157.055 17.8955 182.884 3.2001 192.98 4.78434Z" stroke="#727245" stroke-width="4" stroke-miterlimit="10"/>
</g>
</g>
<defs>
<clipPath id="clip0_4_1340">
<rect width="274" height="342" fill="white"/>
</clipPath>
</defs>
</svg>
