<svg width="307" height="704" viewBox="0 0 307 704" fill="none" xmlns="http://www.w3.org/2000/svg">
<g clip-path="url(#clip0_4_1607)">
<path d="M33.7948 505.312L68.5985 685.806C68.5985 695.298 110.345 703 161.841 703C213.338 703 255.084 695.298 255.084 685.806L287.79 507.122L33.7848 505.312H33.7948Z" fill="#995724" stroke="#7A4521" stroke-width="2" stroke-miterlimit="10"/>
<path d="M160.942 550.883C241.056 550.883 306.001 511.524 306.001 462.972C306.001 414.42 241.056 375.061 160.942 375.061C80.8285 375.061 15.8834 414.42 15.8834 462.972C15.8834 511.524 80.8285 550.883 160.942 550.883Z" fill="#995724" stroke="#7A4521" stroke-width="2" stroke-miterlimit="10"/>
<path d="M160.543 513.864C236.971 513.864 298.928 487.299 298.928 454.53C298.928 421.76 236.971 395.195 160.543 395.195C84.1143 395.195 22.1569 421.76 22.1569 454.53C22.1569 487.299 84.1143 513.864 160.543 513.864Z" fill="#5A3723" stroke="#382217" stroke-width="2" stroke-miterlimit="10"/>
<path d="M166.187 453.299C166.187 453.299 219.112 408.668 244.705 435.635C244.705 435.635 233.806 479.716 166.187 453.299Z" fill="#4C893F" stroke="#3A5F2D" stroke-width="2" stroke-miterlimit="10"/>
<path d="M73.6932 428.433C73.6932 428.433 84.5918 472.514 152.211 446.098C152.211 446.098 99.2865 401.467 73.6932 428.433Z" fill="#4C893F" stroke="#3A5F2D" stroke-width="2" stroke-miterlimit="10"/>
<path d="M133.591 152.447C133.591 152.447 225.845 407.328 125.509 478.125H141.502C141.502 478.125 242.337 418.021 148.905 151.386L133.591 152.447Z" fill="#4C893F" stroke="#3A5F2D" stroke-width="2" stroke-miterlimit="10"/>
<path d="M113.002 240.798C93.5325 260.293 61.9654 260.293 42.5057 240.798C23.036 221.303 23.036 189.696 42.5057 170.211C61.9754 150.716 141.502 141.684 141.502 141.684C141.502 141.684 132.482 221.313 113.012 240.808L113.002 240.798Z" fill="#ED4A24" stroke="#A83623" stroke-width="3" stroke-miterlimit="10"/>
<path d="M191.351 231.946C191.351 259.513 169.034 281.858 141.502 281.858C113.971 281.858 91.6544 259.513 91.6544 231.946C91.6544 204.379 141.502 141.684 141.502 141.684C141.502 141.684 191.351 204.379 191.351 231.946Z" fill="#ED4A24" stroke="#A83623" stroke-width="3" stroke-miterlimit="10"/>
<path d="M240.489 170.211C259.959 189.706 259.959 221.313 240.489 240.798C221.02 260.293 189.453 260.293 169.993 240.798C150.523 221.303 141.503 141.674 141.503 141.674C141.503 141.674 221.03 150.706 240.499 170.201L240.489 170.211Z" fill="#ED4A24" stroke="#A83623" stroke-width="3" stroke-miterlimit="10"/>
<path d="M231.649 91.762C259.18 91.762 281.497 114.107 281.497 141.674C281.497 169.241 259.18 191.586 231.649 191.586C204.117 191.586 141.503 141.674 141.503 141.674C141.503 141.674 204.117 91.762 231.649 91.762Z" fill="#ED4A24" stroke="#A83623" stroke-width="3" stroke-miterlimit="10"/>
<path d="M169.993 42.5602C189.463 23.0655 221.03 23.0655 240.489 42.5602C259.959 62.0549 259.959 93.6626 240.489 113.147C221.02 132.642 141.493 141.674 141.493 141.674C141.493 141.674 150.513 62.0449 169.983 42.5502L169.993 42.5602Z" fill="#ED4A24" stroke="#A83623" stroke-width="3" stroke-miterlimit="10"/>
<path d="M91.6445 51.4123C91.6445 23.8456 113.961 1.50024 141.493 1.50024C169.024 1.50024 191.341 23.8456 191.341 51.4123C191.341 78.979 141.493 141.674 141.493 141.674C141.493 141.674 91.6445 78.979 91.6445 51.4123Z" fill="#ED4A24" stroke="#A83623" stroke-width="3" stroke-miterlimit="10"/>
<path d="M42.5057 113.147C23.036 93.6526 23.036 62.0449 42.5057 42.5602C61.9754 23.0655 93.5425 23.0655 113.002 42.5602C132.472 62.0549 141.493 141.684 141.493 141.684C141.493 141.684 61.9654 132.652 42.4957 113.157L42.5057 113.147Z" fill="#ED4A24" stroke="#A83623" stroke-width="3" stroke-miterlimit="10"/>
<path d="M51.3465 191.596C23.8152 191.596 1.49844 169.251 1.49844 141.684C1.49844 114.117 23.8152 91.772 51.3465 91.772C78.8778 91.772 141.493 141.684 141.493 141.684C141.493 141.684 78.8778 191.596 51.3465 191.596Z" fill="#ED4A24" stroke="#A83623" stroke-width="3" stroke-miterlimit="10"/>
<path d="M141.493 214.662C181.751 214.662 214.387 181.984 214.387 141.674C214.387 101.364 181.751 68.6865 141.493 68.6865C101.234 68.6865 68.5985 101.364 68.5985 141.674C68.5985 181.984 101.234 214.662 141.493 214.662Z" fill="#F6CF55" stroke="#B79843" stroke-width="3" stroke-miterlimit="10"/>
<path d="M129.735 178.623C129.735 178.623 160.543 181.714 191.351 156.408C191.351 156.408 190.521 205.3 160.543 200.718C160.543 200.718 140.144 198.218 129.735 178.623Z" fill="black" stroke="#B79843" stroke-width="2" stroke-miterlimit="10"/>
<path d="M166.373 159.404C176.694 154.495 182.936 146.037 180.315 140.514C177.694 134.99 167.203 134.492 156.883 139.401C146.562 144.31 140.32 152.767 142.941 158.291C145.562 163.815 156.052 164.313 166.373 159.404Z" fill="#F4A857" stroke="#B57243" stroke-width="3" stroke-miterlimit="10"/>
<path d="M114.559 150.246C126.783 145.506 130.159 124.771 122.1 103.934C114.041 83.0965 97.5978 70.0471 85.3739 74.7872C73.1499 79.5273 69.7738 100.262 77.8332 121.099C85.8925 141.936 102.335 154.986 114.559 150.246Z" fill="white" stroke="#B79843" stroke-width="2" stroke-miterlimit="10"/>
<path d="M95.8501 87.001C90.4557 89.4716 88.3979 97.1435 90.176 105.766L106.299 104.155L98.2576 121.989C103.392 127.731 109.726 130.391 114.631 128.151C121.583 124.97 123.012 113.177 117.827 101.815C112.643 90.4519 102.803 83.8203 95.8501 87.001Z" fill="black" stroke="#2D2D2D" stroke-width="2" stroke-miterlimit="10"/>
<path d="M176.215 126.334C188.439 121.594 191.815 100.86 183.756 80.0224C175.696 59.1851 159.253 46.1357 147.03 50.8758C134.806 55.6159 131.429 76.3505 139.489 97.1878C147.548 118.025 163.991 131.074 176.215 126.334Z" fill="white" stroke="#B79843" stroke-width="2" stroke-miterlimit="10"/>
<path d="M156.787 61.7249C151.392 64.1955 149.334 71.8673 151.112 80.4894L167.236 78.879L159.194 96.7133C164.329 102.455 170.662 105.115 175.567 102.875C182.52 99.6941 183.948 87.9012 178.764 76.5385C173.579 65.1757 163.739 58.5441 156.787 61.7249Z" fill="black" stroke="#2D2D2D" stroke-width="2" stroke-miterlimit="10"/>
</g>
<defs>
<clipPath id="clip0_4_1607">
<rect width="307" height="704" fill="white"/>
</clipPath>
</defs>
</svg>
