<svg width="292" height="516" viewBox="0 0 292 516" fill="none" xmlns="http://www.w3.org/2000/svg">
<g clip-path="url(#clip0_4_1366)">
<path d="M18.93 317.37L53.77 497.82C53.77 507.31 95.56 515.01 147.11 515.01C198.66 515.01 240.45 507.31 240.45 497.82L273.19 319.18L18.92 317.37H18.93Z" fill="#995724" stroke="#7A4521" stroke-width="2" stroke-miterlimit="10"/>
<path d="M146.21 362.93C226.407 362.93 291.42 323.58 291.42 275.04C291.42 226.5 226.407 187.15 146.21 187.15C66.0127 187.15 1 226.5 1 275.04C1 323.58 66.0127 362.93 146.21 362.93Z" fill="#995724" stroke="#7A4521" stroke-width="2" stroke-miterlimit="10"/>
<path d="M145.8 325.92C222.308 325.92 284.33 299.361 284.33 266.6C284.33 233.838 222.308 207.28 145.8 207.28C69.292 207.28 7.27 233.838 7.27 266.6C7.27 299.361 69.292 325.92 145.8 325.92Z" fill="#5A3723" stroke="#382217" stroke-width="2" stroke-miterlimit="10"/>
<path d="M133.85 262.87C133.85 262.87 163.22 238.13 177.43 253.08C177.43 253.08 171.38 277.52 133.85 262.87Z" fill="#4C893F" stroke="#3A5F2D" stroke-width="2" stroke-miterlimit="10"/>
<path d="M98.17 253.56C98.17 253.56 103.62 275.6 137.47 262.39C137.47 262.39 110.98 240.08 98.17 253.56Z" fill="#4C893F" stroke="#3A5F2D" stroke-width="2" stroke-miterlimit="10"/>
<path d="M115.28 87.14C115.28 87.14 167.16 246.04 110.74 290.18H119.73C119.73 290.18 176.43 252.71 123.89 86.48L115.28 87.14Z" fill="#4C893F" stroke="#3A5F2D" stroke-width="2" stroke-miterlimit="10"/>
<path d="M118.77 31.06C126.16 13.1 146.7 4.52997 164.65 11.92C182.61 19.31 191.18 39.85 183.79 57.8C176.4 75.76 127.1 103.22 127.1 103.22C127.1 103.22 111.38 49.01 118.77 31.06Z" fill="#ED4A24" stroke="#A83623" stroke-width="3" stroke-miterlimit="10"/>
<path d="M70.9 56.5599C64.02 38.3999 73.16 18.1099 91.32 11.2299C109.48 4.34994 129.77 13.4899 136.65 31.6499C143.53 49.8099 126.3 103.55 126.3 103.55C126.3 103.55 77.78 74.7199 70.9 56.5599Z" fill="#ED4A24" stroke="#A83623" stroke-width="3" stroke-miterlimit="10"/>
<path d="M91.69 39.66C91.69 20.24 107.43 4.5 126.85 4.5C146.27 4.5 162.01 20.24 162.01 39.66C162.01 59.08 126.85 103.23 126.85 103.23C126.85 103.23 91.69 59.07 91.69 39.66Z" fill="#ED4A24" stroke="#A83623" stroke-width="3" stroke-miterlimit="10"/>
</g>
<defs>
<clipPath id="clip0_4_1366">
<rect width="292" height="516" fill="white"/>
</clipPath>
</defs>
</svg>
