<?xml version="1.0" encoding="UTF-8" standalone="no"?>
<svg
   xmlns:dc="http://purl.org/dc/elements/1.1/"
   xmlns:cc="http://creativecommons.org/ns#"
   xmlns:rdf="http://www.w3.org/1999/02/22-rdf-syntax-ns#"
   xmlns:svg="http://www.w3.org/2000/svg"
   xmlns="http://www.w3.org/2000/svg"
   viewBox="0 0 816 1056"
   height="1056"
   width="816"
   xml:space="preserve"
   id="svg2"
   version="1.1"><metadata
     id="metadata8"><rdf:RDF><cc:Work
         rdf:about=""><dc:format>image/svg+xml</dc:format><dc:type
           rdf:resource="http://purl.org/dc/dcmitype/StillImage" /></cc:Work></rdf:RDF></metadata><defs
     id="defs6"><clipPath
       id="clipPath18"
       clipPathUnits="userSpaceOnUse"><path
         id="path16"
         d="M 0,792 H 612 V 0 H 0 Z" /></clipPath></defs><g
     transform="matrix(1.3333333,0,0,-1.3333333,0,1056)"
     id="g10"><g
       id="g12"><g
         clip-path="url(#clipPath18)"
         id="g14"><g
           transform="translate(185.7325,242.6063)"
           id="g20"><path
             id="path22"
             style="fill:#9c5f38;fill-opacity:1;fill-rule:nonzero;stroke:none"
             d="m 0,0 34.843,-180.448 c 0,-9.494 41.79,-17.19 93.342,-17.19 51.552,0 93.342,7.696 93.342,17.19 l 32.741,178.642 z" /></g><g
           transform="translate(185.7325,242.6063)"
           id="g24"><path
             id="path26"
             style="fill:none;stroke:#7f5036;stroke-width:2;stroke-linecap:butt;stroke-linejoin:miter;stroke-miterlimit:10;stroke-dasharray:none;stroke-opacity:1"
             d="m 0,0 34.843,-180.448 c 0,-9.494 41.79,-17.19 93.342,-17.19 51.552,0 93.342,7.696 93.342,17.19 l 32.741,178.642 z" /></g><g
           transform="translate(458.2167,284.9326)"
           id="g28"><path
             id="path30"
             style="fill:#9c5f38;fill-opacity:1;fill-rule:nonzero;stroke:none"
             d="m 0,0 c 0,-48.538 -65.011,-87.886 -145.206,-87.886 -80.194,0 -145.205,39.348 -145.205,87.886 0,48.538 65.011,87.886 145.205,87.886 C -65.011,87.886 0,48.538 0,0" /></g><g
           transform="translate(458.2167,284.9326)"
           id="g32"><path
             id="path34"
             style="fill:none;stroke:#7f5036;stroke-width:2;stroke-linecap:butt;stroke-linejoin:miter;stroke-miterlimit:10;stroke-dasharray:none;stroke-opacity:1"
             d="m 0,0 c 0,-48.538 -65.011,-87.886 -145.206,-87.886 -80.194,0 -145.205,39.348 -145.205,87.886 0,48.538 65.011,87.886 145.205,87.886 C -65.011,87.886 0,48.538 0,0 Z" /></g><g
           transform="translate(451.1412,293.3732)"
           id="g36"><path
             id="path38"
             style="fill:#624537;fill-opacity:1;fill-rule:nonzero;stroke:none"
             d="m 0,0 c 0,-32.763 -62.023,-59.323 -138.532,-59.323 -76.51,0 -138.533,26.56 -138.533,59.323 0,32.763 62.023,59.323 138.533,59.323 C -62.023,59.323 0,32.763 0,0" /></g><g
           transform="translate(451.1412,293.3732)"
           id="g40"><path
             id="path42"
             style="fill:none;stroke:#463731;stroke-width:2;stroke-linecap:butt;stroke-linejoin:miter;stroke-miterlimit:10;stroke-dasharray:none;stroke-opacity:1"
             d="m 0,0 c 0,-32.763 -62.023,-59.323 -138.532,-59.323 -76.51,0 -138.533,26.56 -138.533,59.323 0,32.763 62.023,59.323 138.533,59.323 C -62.023,59.323 0,32.763 0,0 Z" /></g><g
           transform="translate(353.0208,334.0399)"
           id="g44"><path
             id="path46"
             style="fill:#c7734c;fill-opacity:1;fill-rule:nonzero;stroke:none"
             d="m 0,0 c 8.408,9.965 23.302,11.227 33.267,2.819 9.964,-8.408 11.226,-23.302 2.819,-33.267 -8.408,-9.964 -45.572,-17.402 -45.572,-17.402 0,0 1.078,37.885 9.486,47.85" /></g><g
           transform="translate(353.0208,334.0399)"
           id="g48"><path
             id="path50"
             style="fill:none;stroke:#895c47;stroke-width:3;stroke-linecap:butt;stroke-linejoin:miter;stroke-miterlimit:10;stroke-dasharray:none;stroke-opacity:1"
             d="m 0,0 c 8.408,9.965 23.302,11.227 33.267,2.819 9.964,-8.408 11.226,-23.302 2.819,-33.267 -8.408,-9.964 -45.572,-17.402 -45.572,-17.402 0,0 1.078,37.885 9.486,47.85 z" /></g><g
           transform="translate(318.2601,294.6028)"
           id="g52"><path
             id="path54"
             style="fill:#587b4d;fill-opacity:1;fill-rule:nonzero;stroke:none"
             d="M 0,0 C 0,0 52.98,44.62 78.596,17.655 78.596,17.655 67.689,-26.419 0,0" /></g><g
           transform="translate(318.2601,294.6028)"
           id="g56"><path
             id="path58"
             style="fill:none;stroke:#434e3f;stroke-width:2;stroke-linecap:butt;stroke-linejoin:miter;stroke-miterlimit:10;stroke-dasharray:none;stroke-opacity:1"
             d="M 0,0 C 0,0 52.98,44.62 78.596,17.655 78.596,17.655 67.689,-26.419 0,0 Z" /></g><g
           transform="translate(234.0124,315.7874)"
           id="g60"><path
             id="path62"
             style="fill:#587b4d;fill-opacity:1;fill-rule:nonzero;stroke:#434e3f;stroke-width:2;stroke-linecap:butt;stroke-linejoin:miter;stroke-miterlimit:10;stroke-dasharray:none;stroke-opacity:1"
             d="M 0,0 C 0,0 10.908,-44.074 78.596,-17.655 78.596,-17.655 25.617,26.965 0,0" /></g><g
           transform="translate(332.5976,270.8457)"
           id="g64"><path
             id="path66"
             style="fill:#587b4d;fill-opacity:1;fill-rule:nonzero;stroke:none"
             d="M 0,0 C 0,0 -46.158,209.214 54.286,279.997 H 39.435 c 0,0 -83.297,-29.057 -54.766,-281.055 z" /></g><g
           transform="translate(332.5976,270.8457)"
           id="g68"><path
             id="path70"
             style="fill:none;stroke:#434e3f;stroke-width:2;stroke-linecap:butt;stroke-linejoin:miter;stroke-miterlimit:10;stroke-dasharray:none;stroke-opacity:1"
             d="M 0,0 C 0,0 -46.158,209.214 54.286,279.997 H 39.435 c 0,0 -83.297,-29.057 -54.766,-281.055 z" /></g><g
           transform="translate(351.7781,305.8745)"
           id="g72"><path
             id="path74"
             style="fill:#c7734c;fill-opacity:1;fill-rule:nonzero;stroke:none"
             d="M 0,0 C 9.965,-8.408 11.227,-23.302 2.819,-33.267 -5.589,-43.231 -20.483,-44.493 -30.448,-36.086 -2.92,-59.312 -45.854,-0.487 -47.85,9.486 -47.85,9.486 -9.965,8.408 0,0" /></g><g
           transform="translate(351.7781,305.8745)"
           id="g76"><path
             id="path78"
             style="fill:none;stroke:#895c47;stroke-width:3;stroke-linecap:butt;stroke-linejoin:miter;stroke-miterlimit:10;stroke-dasharray:none;stroke-opacity:1"
             d="M 0,0 C 9.965,-8.408 11.227,-23.302 2.819,-33.267 -5.589,-43.231 -20.483,-44.493 -30.448,-36.086 -2.92,-59.312 -45.854,-0.487 -47.85,9.486 -47.85,9.486 -9.965,8.408 0,0 Z" /></g><g
           transform="translate(339.9232,459.3056)"
           id="g80"><path
             id="path82"
             style="fill:#c7734c;fill-opacity:1;fill-rule:nonzero;stroke:none"
             d="m 0,0 c -16.506,-16.506 -43.266,-16.506 -59.772,0 -16.505,16.506 -16.505,43.266 0,59.772 16.506,16.505 83.928,24.156 83.928,24.156 0,0 -7.65,-67.422 -24.156,-83.928" /></g><g
           transform="translate(339.9232,459.3056)"
           id="g84"><path
             id="path86"
             style="fill:none;stroke:#895c47;stroke-width:3;stroke-linecap:butt;stroke-linejoin:miter;stroke-miterlimit:10;stroke-dasharray:none;stroke-opacity:1"
             d="m 0,0 c -16.506,-16.506 -43.266,-16.506 -59.772,0 -16.505,16.506 -16.505,43.266 0,59.772 16.506,16.505 83.928,24.156 83.928,24.156 0,0 -7.65,-67.422 -24.156,-83.928 z" /></g><g
           transform="translate(406.3447,466.8064)"
           id="g88"><path
             id="path90"
             style="fill:#c7734c;fill-opacity:1;fill-rule:nonzero;stroke:none"
             d="m 0,0 c 0,-23.342 -18.923,-42.265 -42.265,-42.265 -23.342,0 -42.265,18.923 -42.265,42.265 0,23.342 42.265,76.427 42.265,76.427 C -42.265,76.427 0,23.342 0,0" /></g><g
           transform="translate(406.3447,466.8064)"
           id="g92"><path
             id="path94"
             style="fill:none;stroke:#895c47;stroke-width:3;stroke-linecap:butt;stroke-linejoin:miter;stroke-miterlimit:10;stroke-dasharray:none;stroke-opacity:1"
             d="m 0,0 c 0,-23.342 -18.923,-42.265 -42.265,-42.265 -23.342,0 -42.265,18.923 -42.265,42.265 0,23.342 42.265,76.427 42.265,76.427 C -42.265,76.427 0,23.342 0,0 Z" /></g><g
           transform="translate(448.0079,519.0774)"
           id="g96"><path
             id="path98"
             style="fill:#c7734c;fill-opacity:1;fill-rule:nonzero;stroke:none"
             d="m 0,0 c 16.506,-16.506 16.506,-43.266 0,-59.772 -16.506,-16.505 -43.266,-16.505 -59.772,0 -16.505,16.506 -24.156,83.928 -24.156,83.928 0,0 67.422,-7.651 83.928,-24.156" /></g><g
           transform="translate(448.0079,519.0774)"
           id="g100"><path
             id="path102"
             style="fill:none;stroke:#895c47;stroke-width:3;stroke-linecap:butt;stroke-linejoin:miter;stroke-miterlimit:10;stroke-dasharray:none;stroke-opacity:1"
             d="m 0,0 c 16.506,-16.506 16.506,-43.266 0,-59.772 -16.506,-16.505 -43.266,-16.505 -59.772,0 -16.505,16.506 -24.156,83.928 -24.156,83.928 0,0 67.422,-7.651 83.928,-24.156 z" /></g><g
           transform="translate(440.507,585.4988)"
           id="g104"><path
             id="path106"
             style="fill:#c7734c;fill-opacity:1;fill-rule:nonzero;stroke:none"
             d="M 0,0 C 23.342,0 42.265,-18.923 42.265,-42.265 42.265,-65.607 23.342,-84.53 0,-84.53 c -23.342,0 -76.427,42.265 -76.427,42.265 0,0 53.085,42.265 76.427,42.265" /></g><g
           transform="translate(440.507,585.4988)"
           id="g108"><path
             id="path110"
             style="fill:none;stroke:#895c47;stroke-width:3;stroke-linecap:butt;stroke-linejoin:miter;stroke-miterlimit:10;stroke-dasharray:none;stroke-opacity:1"
             d="M 0,0 C 23.342,0 42.265,-18.923 42.265,-42.265 42.265,-65.607 23.342,-84.53 0,-84.53 c -23.342,0 -76.427,42.265 -76.427,42.265 0,0 53.085,42.265 76.427,42.265 z" /></g><g
           transform="translate(448.0079,603.0056)"
           id="g112"><path
             id="path114"
             style="fill:#c7734c;fill-opacity:1;fill-rule:nonzero;stroke:none"
             d="m 0,0 c 16.505,-16.505 16.505,-43.266 0,-59.772 -16.506,-16.505 -43.266,-16.505 -59.772,0 -16.505,16.506 -24.156,83.928 -24.156,83.928 0,0 67.422,-7.65 83.928,-24.156" /></g><g
           transform="translate(448.0079,603.0056)"
           id="g116"><path
             id="path118"
             style="fill:none;stroke:#895c47;stroke-width:3;stroke-linecap:butt;stroke-linejoin:miter;stroke-miterlimit:10;stroke-dasharray:none;stroke-opacity:1"
             d="m 0,0 c 16.505,-16.505 16.505,-43.266 0,-59.772 -16.506,-16.505 -43.266,-16.505 -59.772,0 -16.505,16.506 -24.156,83.928 -24.156,83.928 0,0 67.422,-7.65 83.928,-24.156 z" /></g><g
           transform="translate(381.1609,644.845)"
           id="g120"><path
             id="path122"
             style="fill:#c7734c;fill-opacity:1;fill-rule:nonzero;stroke:none"
             d="M 0,0 C 23.342,0 42.265,-18.923 42.265,-42.265 42.265,-65.607 23.342,-84.53 0,-84.53 c -23.342,0 -76.427,42.265 -76.427,42.265 0,0 53.085,42.265 76.427,42.265" /></g><g
           transform="translate(381.1609,644.845)"
           id="g124"><path
             id="path126"
             style="fill:none;stroke:#895c47;stroke-width:3;stroke-linecap:butt;stroke-linejoin:miter;stroke-miterlimit:10;stroke-dasharray:none;stroke-opacity:1"
             d="M 0,0 C 23.342,0 42.265,-18.923 42.265,-42.265 42.265,-65.607 23.342,-84.53 0,-84.53 c -23.342,0 -76.427,42.265 -76.427,42.265 0,0 53.085,42.265 76.427,42.265 z" /></g><g
           transform="translate(305.0344,542.9329)"
           id="g128"><path
             id="path130"
             style="fill:#c7734c;fill-opacity:1;fill-rule:nonzero;stroke:none"
             d="M 0,0 C -23.342,0 -42.265,18.923 -42.265,42.265 -42.265,65.607 -23.342,84.53 0,84.53 23.342,84.53 76.427,42.265 76.427,42.265 76.427,42.265 23.342,0 0,0" /></g><g
           transform="translate(305.0344,542.9329)"
           id="g132"><path
             id="path134"
             style="fill:none;stroke:#895c47;stroke-width:3;stroke-linecap:butt;stroke-linejoin:miter;stroke-miterlimit:10;stroke-dasharray:none;stroke-opacity:1"
             d="M 0,0 C -23.342,0 -42.265,18.923 -42.265,42.265 -42.265,65.607 -23.342,84.53 0,84.53 23.342,84.53 76.427,42.265 76.427,42.265 76.427,42.265 23.342,0 0,0 Z" /></g><g
           transform="translate(339.3245,513.5428)"
           id="g136"><path
             id="path138"
             style="fill:#c7734c;fill-opacity:1;fill-rule:nonzero;stroke:none"
             d="m 0,0 c -7.459,-22.119 -31.436,-34.003 -53.555,-26.544 -22.118,7.459 -34.002,31.436 -26.543,53.555 7.458,22.118 64.47,58.915 64.47,58.915 0,0 23.087,-63.807 15.628,-85.926" /></g><g
           transform="translate(339.3245,513.5428)"
           id="g140"><path
             id="path142"
             style="fill:none;stroke:#895c47;stroke-width:3;stroke-linecap:butt;stroke-linejoin:miter;stroke-miterlimit:10;stroke-dasharray:none;stroke-opacity:1"
             d="m 0,0 c -7.459,-22.119 -31.436,-34.003 -53.555,-26.544 -22.118,7.459 -34.002,31.436 -26.543,53.555 7.458,22.118 64.47,58.915 64.47,58.915 0,0 23.087,-63.807 15.628,-85.926 z" /></g><g
           transform="translate(436.1961,557.5441)"
           id="g144"><path
             id="path146"
             style="fill:#d0af68;fill-opacity:1;fill-rule:nonzero;stroke:none"
             d="m 0,0 c 0,-40.301 -32.67,-72.971 -72.971,-72.971 -40.301,0 -72.971,32.67 -72.971,72.971 0,40.301 32.67,72.971 72.971,72.971 C -32.67,72.971 0,40.301 0,0" /></g><g
           transform="translate(436.1961,557.5441)"
           id="g148"><path
             id="path150"
             style="fill:none;stroke:#8d7b56;stroke-width:3;stroke-linecap:butt;stroke-linejoin:miter;stroke-miterlimit:10;stroke-dasharray:none;stroke-opacity:1"
             d="m 0,0 c 0,-40.301 -32.67,-72.971 -72.971,-72.971 -40.301,0 -72.971,32.67 -72.971,72.971 0,40.301 32.67,72.971 72.971,72.971 C -32.67,72.971 0,40.301 0,0 Z" /></g><g
           transform="translate(419.655,503.2416)"
           id="g152"><path
             id="path154"
             style="fill:#292929;fill-opacity:1;fill-rule:nonzero;stroke:none"
             d="m 0,0 c 9.347,-0.331 -40.189,-6.576 -61.682,-24.21 0,0 7.85,20.244 29.76,31.368 0,0 8.6,5.913 31.922,-7.158" /></g><g
           transform="translate(419.655,503.2416)"
           id="g156"><path
             id="path158"
             style="fill:none;stroke:#b99c4e;stroke-width:2;stroke-linecap:butt;stroke-linejoin:miter;stroke-miterlimit:10;stroke-dasharray:none;stroke-opacity:1"
             d="m 0,0 c 9.347,-0.331 -40.189,-6.576 -61.682,-24.21 0,0 7.85,20.244 29.76,31.368 0,0 8.6,5.913 31.922,-7.158 z" /></g><g
           transform="translate(361.3318,576.5439)"
           id="g160"><path
             id="path162"
             style="fill:#ffffff;fill-opacity:1;fill-rule:nonzero;stroke:none"
             d="m 0,0 c 5.9,-15.233 3.428,-30.391 -5.521,-33.858 -8.95,-3.466 -20.987,6.073 -26.887,21.306 -5.9,15.233 -3.428,30.391 5.521,33.857 C -17.937,24.772 -5.9,15.233 0,0" /></g><g
           transform="translate(361.3318,576.5439)"
           id="g164"><path
             id="path166"
             style="fill:none;stroke:#b99c4e;stroke-width:2;stroke-linecap:butt;stroke-linejoin:miter;stroke-miterlimit:10;stroke-dasharray:none;stroke-opacity:1"
             d="m 0,0 c 5.9,-15.233 3.428,-30.391 -5.521,-33.858 -8.95,-3.466 -20.987,6.073 -26.887,21.306 -5.9,15.233 -3.428,30.391 5.521,33.857 C -17.937,24.772 -5.9,15.233 0,0 Z" /></g><g
           transform="translate(342.1168,588.9216)"
           id="g168"><path
             id="path170"
             style="fill:#292929;fill-opacity:1;fill-rule:nonzero;stroke:none"
             d="m 0,0 c -3.952,-1.807 -5.453,-7.414 -4.152,-13.719 l 11.804,1.176 -5.89,-13.038 c 3.757,-4.199 8.397,-6.142 11.989,-4.501 5.088,2.326 6.135,10.946 2.337,19.252 C 12.291,-2.523 5.088,2.326 0,0" /></g><g
           transform="translate(342.1168,588.9216)"
           id="g172"><path
             id="path174"
             style="fill:none;stroke:#3e3e3d;stroke-width:2;stroke-linecap:butt;stroke-linejoin:miter;stroke-miterlimit:10;stroke-dasharray:none;stroke-opacity:1"
             d="m 0,0 c -3.952,-1.807 -5.453,-7.414 -4.152,-13.719 l 11.804,1.176 -5.89,-13.038 c 3.757,-4.199 8.397,-6.142 11.989,-4.501 5.088,2.326 6.135,10.946 2.337,19.252 C 12.291,-2.523 5.088,2.326 0,0 Z" /></g><g
           transform="translate(406.4662,594.025)"
           id="g176"><path
             id="path178"
             style="fill:#ffffff;fill-opacity:1;fill-rule:nonzero;stroke:none"
             d="m 0,0 c 5.9,-15.233 3.428,-30.391 -5.521,-33.857 -8.95,-3.467 -20.987,6.072 -26.887,21.305 -5.9,15.233 -3.428,30.391 5.521,33.857 C -17.937,24.772 -5.9,15.233 0,0" /></g><g
           transform="translate(406.4662,594.025)"
           id="g180"><path
             id="path182"
             style="fill:none;stroke:#b99c4e;stroke-width:2;stroke-linecap:butt;stroke-linejoin:miter;stroke-miterlimit:10;stroke-dasharray:none;stroke-opacity:1"
             d="m 0,0 c 5.9,-15.233 3.428,-30.391 -5.521,-33.857 -8.95,-3.467 -20.987,6.072 -26.887,21.305 -5.9,15.233 -3.428,30.391 5.521,33.857 C -17.937,24.772 -5.9,15.233 0,0 Z" /></g><g
           transform="translate(387.9126,604.5443)"
           id="g184"><path
             id="path186"
             style="fill:#292929;fill-opacity:1;fill-rule:nonzero;stroke:none"
             d="m 0,0 c -3.952,-1.807 -5.453,-7.414 -4.152,-13.719 l 11.804,1.176 -5.89,-13.038 c 3.757,-4.199 8.397,-6.142 11.989,-4.501 5.088,2.326 6.135,10.946 2.337,19.252 C 12.291,-2.523 5.088,2.326 0,0" /></g><g
           transform="translate(387.9126,604.5443)"
           id="g188"><path
             id="path190"
             style="fill:none;stroke:#3e3e3d;stroke-width:2;stroke-linecap:butt;stroke-linejoin:miter;stroke-miterlimit:10;stroke-dasharray:none;stroke-opacity:1"
             d="m 0,0 c -3.952,-1.807 -5.453,-7.414 -4.152,-13.719 l 11.804,1.176 -5.89,-13.038 c 3.757,-4.199 8.397,-6.142 11.989,-4.501 5.088,2.326 6.135,10.946 2.337,19.252 C 12.291,-2.523 5.088,2.326 0,0 Z" /></g><g
           transform="translate(403.4475,539.062)"
           id="g192"><path
             id="path194"
             style="fill:#d99861;fill-opacity:1;fill-rule:nonzero;stroke:none"
             d="m 0,0 c 2.624,-5.524 -3.625,-13.979 -13.956,-18.886 -10.332,-4.907 -20.834,-4.407 -23.457,1.116 -2.624,5.524 3.625,13.98 13.956,18.887 C -13.126,6.024 -2.624,5.524 0,0" /></g><g
           transform="translate(403.4475,539.062)"
           id="g196"><path
             id="path198"
             style="fill:none;stroke:#a37252;stroke-width:3;stroke-linecap:butt;stroke-linejoin:miter;stroke-miterlimit:10;stroke-dasharray:none;stroke-opacity:1"
             d="m 0,0 c 2.624,-5.524 -3.625,-13.979 -13.956,-18.886 -10.332,-4.907 -20.834,-4.407 -23.457,1.116 -2.624,5.524 3.625,13.98 13.956,18.887 C -13.126,6.024 -2.624,5.524 0,0 Z" /></g><g
           transform="translate(368.8804,253.0791)"
           id="g200"><path
             id="path202"
             style="fill:#c7734c;fill-opacity:1;fill-rule:nonzero;stroke:none"
             d="m 0,0 c -12.991,-1.101 -24.415,8.538 -25.516,21.53 -1.101,12.991 8.538,24.415 21.529,25.516 C 9.005,48.147 40.543,27.128 40.543,27.128 40.543,27.128 12.991,1.101 0,0" /></g><g
           transform="translate(368.8804,253.0791)"
           id="g204"><path
             id="path206"
             style="fill:none;stroke:#895c47;stroke-width:3;stroke-linecap:butt;stroke-linejoin:miter;stroke-miterlimit:10;stroke-dasharray:none;stroke-opacity:1"
             d="m 0,0 c -12.991,-1.101 -24.415,8.538 -25.516,21.53 -1.101,12.991 8.538,24.415 21.529,25.516 C 9.005,48.147 40.543,27.128 40.543,27.128 40.543,27.128 12.991,1.101 0,0 Z" /></g></g></g></g></svg>