<?xml version="1.0" encoding="UTF-8" standalone="no"?>
<svg
   xmlns:dc="http://purl.org/dc/elements/1.1/"
   xmlns:cc="http://creativecommons.org/ns#"
   xmlns:rdf="http://www.w3.org/1999/02/22-rdf-syntax-ns#"
   xmlns:svg="http://www.w3.org/2000/svg"
   xmlns="http://www.w3.org/2000/svg"
   viewBox="0 0 816 1056"
   height="1056"
   width="816"
   xml:space="preserve"
   id="svg2"
   version="1.1"><metadata
     id="metadata8"><rdf:RDF><cc:Work
         rdf:about=""><dc:format>image/svg+xml</dc:format><dc:type
           rdf:resource="http://purl.org/dc/dcmitype/StillImage" /></cc:Work></rdf:RDF></metadata><defs
     id="defs6"><clipPath
       id="clipPath18"
       clipPathUnits="userSpaceOnUse"><path
         id="path16"
         d="M 0,792 H 612 V 0 H 0 Z" /></clipPath></defs><g
     transform="matrix(1.3333333,0,0,-1.3333333,0,1056)"
     id="g10"><g
       id="g12"><g
         clip-path="url(#clipPath18)"
         id="g14"><g
           transform="translate(185.9236,242.9739)"
           id="g20"><path
             id="path22"
             style="fill:#9c5f38;fill-opacity:1;fill-rule:nonzero;stroke:none"
             d="m 0,0 34.843,-180.448 c 0,-9.494 41.79,-17.19 93.342,-17.19 51.552,0 93.342,7.696 93.342,17.19 l 32.741,178.642 z" /></g><g
           transform="translate(185.9236,242.9739)"
           id="g24"><path
             id="path26"
             style="fill:none;stroke:#7f5036;stroke-width:2;stroke-linecap:butt;stroke-linejoin:miter;stroke-miterlimit:10;stroke-dasharray:none;stroke-opacity:1"
             d="m 0,0 34.843,-180.448 c 0,-9.494 41.79,-17.19 93.342,-17.19 51.552,0 93.342,7.696 93.342,17.19 l 32.741,178.642 z" /></g><g
           transform="translate(458.4079,285.3003)"
           id="g28"><path
             id="path30"
             style="fill:#9c5f38;fill-opacity:1;fill-rule:nonzero;stroke:none"
             d="m 0,0 c 0,-48.538 -65.011,-87.886 -145.206,-87.886 -80.194,0 -145.205,39.348 -145.205,87.886 0,48.538 65.011,87.886 145.205,87.886 C -65.011,87.886 0,48.538 0,0" /></g><g
           transform="translate(458.4079,285.3003)"
           id="g32"><path
             id="path34"
             style="fill:none;stroke:#7f5036;stroke-width:2;stroke-linecap:butt;stroke-linejoin:miter;stroke-miterlimit:10;stroke-dasharray:none;stroke-opacity:1"
             d="m 0,0 c 0,-48.538 -65.011,-87.886 -145.206,-87.886 -80.194,0 -145.205,39.348 -145.205,87.886 0,48.538 65.011,87.886 145.205,87.886 C -65.011,87.886 0,48.538 0,0 Z" /></g><g
           transform="translate(451.3323,293.7408)"
           id="g36"><path
             id="path38"
             style="fill:#624537;fill-opacity:1;fill-rule:nonzero;stroke:none"
             d="m 0,0 c 0,-32.763 -62.023,-59.323 -138.532,-59.323 -76.51,0 -138.533,26.56 -138.533,59.323 0,32.763 62.023,59.323 138.533,59.323 C -62.023,59.323 0,32.763 0,0" /></g><g
           transform="translate(451.3323,293.7408)"
           id="g40"><path
             id="path42"
             style="fill:none;stroke:#463731;stroke-width:2;stroke-linecap:butt;stroke-linejoin:miter;stroke-miterlimit:10;stroke-dasharray:none;stroke-opacity:1"
             d="m 0,0 c 0,-32.763 -62.023,-59.323 -138.532,-59.323 -76.51,0 -138.533,26.56 -138.533,59.323 0,32.763 62.023,59.323 138.533,59.323 C -62.023,59.323 0,32.763 0,0 Z" /></g><g
           transform="translate(291.3787,314.1099)"
           id="g44"><path
             id="path46"
             style="fill:#444f41;fill-opacity:1;fill-rule:nonzero;stroke:none"
             d="M 0,0 C 0,0 33.962,-17.928 25.442,-36.708 25.442,-36.708 0.524,-40.283 0,0" /></g><g
           transform="translate(291.3787,314.1099)"
           id="g48"><path
             id="path50"
             style="fill:none;stroke:#363a34;stroke-width:2;stroke-linecap:butt;stroke-linejoin:miter;stroke-miterlimit:10;stroke-dasharray:none;stroke-opacity:1"
             d="M 0,0 C 0,0 33.962,-17.928 25.442,-36.708 25.442,-36.708 0.524,-40.283 0,0 Z" /></g><g
           transform="translate(261.1419,282.7614)"
           id="g52"><path
             id="path54"
             style="fill:#444f41;fill-opacity:1;fill-rule:nonzero;stroke:#363a34;stroke-width:2;stroke-linecap:butt;stroke-linejoin:miter;stroke-miterlimit:10;stroke-dasharray:none;stroke-opacity:1"
             d="M 0,0 C 0,0 21.688,-6.708 27.851,29.096 27.851,29.096 -4.933,17.93 0,0" /></g><g
           transform="translate(308.6581,270.8152)"
           id="g56"><path
             id="path58"
             style="fill:#444f41;fill-opacity:1;fill-rule:nonzero;stroke:none"
             d="m 0,0 c 0,0 -48.022,142.1 81.907,159.968 l -7.694,7.323 c 0,0 -122.235,-5.472 -82.825,-167.951 z" /></g><g
           transform="translate(308.6581,270.8152)"
           id="g60"><path
             id="path62"
             style="fill:none;stroke:#363a34;stroke-width:2;stroke-linecap:butt;stroke-linejoin:miter;stroke-miterlimit:10;stroke-dasharray:none;stroke-opacity:1"
             d="m 0,0 c 0,0 -48.022,142.1 81.907,159.968 l -7.694,7.323 c 0,0 -122.235,-5.472 -82.825,-167.951 z" /></g><g
           transform="translate(347.3144,306.8207)"
           id="g64"><path
             id="path66"
             style="fill:#975853;fill-opacity:1;fill-rule:nonzero;stroke:none"
             d="m 0,0 c -10.319,2.046 -17.733,9.621 -16.56,16.92 1.174,7.299 10.49,11.558 20.809,9.512 C 14.568,24.386 35.912,6.518 35.912,6.518 35.912,6.518 10.319,-2.046 0,0" /></g><g
           transform="translate(347.3144,306.8207)"
           id="g68"><path
             id="path70"
             style="fill:none;stroke:#684946;stroke-width:3;stroke-linecap:butt;stroke-linejoin:miter;stroke-miterlimit:10;stroke-dasharray:none;stroke-opacity:1"
             d="m 0,0 c -10.319,2.046 -17.733,9.621 -16.56,16.92 1.174,7.299 10.49,11.558 20.809,9.512 C 14.568,24.386 35.912,6.518 35.912,6.518 35.912,6.518 10.319,-2.046 0,0 Z" /></g><g
           transform="translate(412.4312,401.0856)"
           id="g72"><path
             id="path74"
             style="fill:#975853;fill-opacity:1;fill-rule:nonzero;stroke:none"
             d="m 0,0 c 2.322,-12.681 -5.625,-24.974 -17.751,-27.458 -12.126,-2.484 -23.839,5.781 -26.162,18.462 -2.322,12.681 14.352,46.017 14.352,46.017 0,0 27.239,-24.34 29.561,-37.021" /></g><g
           transform="translate(412.4312,401.0856)"
           id="g76"><path
             id="path78"
             style="fill:none;stroke:#684946;stroke-width:3;stroke-linecap:butt;stroke-linejoin:miter;stroke-miterlimit:10;stroke-dasharray:none;stroke-opacity:1"
             d="m 0,0 c 2.322,-12.681 -5.625,-24.974 -17.751,-27.458 -12.126,-2.484 -23.839,5.781 -26.162,18.462 -2.322,12.681 14.352,46.017 14.352,46.017 0,0 27.239,-24.34 29.561,-37.021 z" /></g><g
           transform="translate(386.6562,291.008)"
           id="g80"><path
             id="path82"
             style="fill:#975853;fill-opacity:1;fill-rule:nonzero;stroke:none"
             d="m 0,0 c 8.448,-2.096 14.372,-8.307 13.232,-13.874 -1.141,-5.567 -8.914,-8.38 -17.363,-6.285 -8.448,2.096 -25.596,16.941 -25.596,16.941 0,0 21.279,5.314 29.727,3.218" /></g><g
           transform="translate(386.6562,291.008)"
           id="g84"><path
             id="path86"
             style="fill:none;stroke:#684946;stroke-width:3;stroke-linecap:butt;stroke-linejoin:miter;stroke-miterlimit:10;stroke-dasharray:none;stroke-opacity:1"
             d="m 0,0 c 8.448,-2.096 14.372,-8.307 13.232,-13.874 -1.141,-5.567 -8.914,-8.38 -17.363,-6.285 -8.448,2.096 -25.596,16.941 -25.596,16.941 0,0 21.279,5.314 29.727,3.218 z" /></g></g></g></g></svg>