<svg width="274" height="316" viewBox="0 0 274 316" fill="none" xmlns="http://www.w3.org/2000/svg">
<g clip-path="url(#clip0_4_1314)">
<mask id="mask0_4_1314" style="mask-type:luminance" maskUnits="userSpaceOnUse" x="-152" y="-388" width="578" height="747">
<path d="M-151.124 -388H425.124V358.41H-151.124V-388Z" fill="white"/>
</mask>
<g mask="url(#mask0_4_1314)">
<path d="M17.1569 129.422L49.9644 299.483C49.9644 308.43 89.313 315.683 137.853 315.683C186.394 315.683 225.742 308.43 225.742 299.483L256.571 131.124L17.1569 129.422Z" fill="#985724" stroke="#7A4521" stroke-width="2.66667" stroke-miterlimit="10"/>
</g>
<mask id="mask1_4_1314" style="mask-type:luminance" maskUnits="userSpaceOnUse" x="-152" y="-388" width="578" height="747">
<path d="M-151.124 -388H425.124V358.41H-151.124V-388Z" fill="white"/>
</mask>
<g mask="url(#mask1_4_1314)">
<path d="M273.723 89.5323C273.723 135.276 212.51 172.359 137 172.359C61.4905 172.359 0.277344 135.276 0.277344 89.5323C0.277344 43.7883 61.4905 6.70532 137 6.70532C212.51 6.70532 273.723 43.7883 273.723 89.5323Z" fill="#985724" stroke="#7A4521" stroke-width="2.66667" stroke-miterlimit="10"/>
</g>
<mask id="mask2_4_1314" style="mask-type:luminance" maskUnits="userSpaceOnUse" x="-152" y="-388" width="578" height="747">
<path d="M-151.124 -388H425.124V358.41H-151.124V-388Z" fill="white"/>
</mask>
<g mask="url(#mask2_4_1314)">
<path d="M267.061 81.5776C267.061 112.455 208.661 137.486 136.621 137.486C64.5811 137.486 6.18146 112.455 6.18146 81.5776C6.18146 50.7005 64.5811 25.6694 136.621 25.6694C208.661 25.6694 267.061 50.7005 267.061 81.5776Z" fill="#5A3723" stroke="#382217" stroke-width="2.66667" stroke-miterlimit="10"/>
</g>
<mask id="mask3_4_1314" style="mask-type:luminance" maskUnits="userSpaceOnUse" x="-152" y="-388" width="578" height="747">
<path d="M-151.124 -388H425.124V358.41H-151.124V-388Z" fill="white"/>
</mask>
<g mask="url(#mask3_4_1314)">
<path d="M176.704 11.9209C176.704 11.9209 61.7794 -27.8961 103.598 103.805H108.436C108.436 103.805 69.0739 -18.6046 176.704 19.8892V11.9209Z" fill="#374432" stroke="#252C20" stroke-width="2.66667" stroke-miterlimit="10"/>
</g>
<mask id="mask4_4_1314" style="mask-type:luminance" maskUnits="userSpaceOnUse" x="-152" y="-388" width="578" height="747">
<path d="M-151.124 -388H425.124V358.41H-151.124V-388Z" fill="white"/>
</mask>
<g mask="url(#mask4_4_1314)">
<path d="M213.719 21.5252C221.136 28.5633 221.447 40.2872 214.415 47.7099C207.383 55.1334 195.671 55.4454 188.254 48.4063C180.837 41.3682 176.704 11.9208 176.704 11.9208C176.704 11.9208 206.302 14.4871 213.719 21.5252Z" fill="#808245"/>
</g>
<mask id="mask5_4_1314" style="mask-type:luminance" maskUnits="userSpaceOnUse" x="-152" y="-388" width="578" height="747">
<path d="M-151.124 -388H425.124V358.41H-151.124V-388Z" fill="white"/>
</mask>
<g mask="url(#mask5_4_1314)">
<path d="M213.719 21.5252C221.136 28.5633 221.447 40.2872 214.415 47.7099C207.383 55.1334 195.671 55.4454 188.254 48.4063C180.837 41.3682 176.704 11.9208 176.704 11.9208C176.704 11.9208 206.302 14.4871 213.719 21.5252Z" stroke="#5B5A3C" stroke-width="4" stroke-miterlimit="10"/>
</g>
</g>
<defs>
<clipPath id="clip0_4_1314">
<rect width="274" height="316" fill="white"/>
</clipPath>
</defs>
</svg>
