<?xml version="1.0" encoding="UTF-8" standalone="no"?>
<svg
   xmlns:dc="http://purl.org/dc/elements/1.1/"
   xmlns:cc="http://creativecommons.org/ns#"
   xmlns:rdf="http://www.w3.org/1999/02/22-rdf-syntax-ns#"
   xmlns:svg="http://www.w3.org/2000/svg"
   xmlns="http://www.w3.org/2000/svg"
   viewBox="0 0 816 1056"
   height="1056"
   width="816"
   xml:space="preserve"
   id="svg2"
   version="1.1"><metadata
     id="metadata8"><rdf:RDF><cc:Work
         rdf:about=""><dc:format>image/svg+xml</dc:format><dc:type
           rdf:resource="http://purl.org/dc/dcmitype/StillImage" /></cc:Work></rdf:RDF></metadata><defs
     id="defs6"><clipPath
       id="clipPath18"
       clipPathUnits="userSpaceOnUse"><path
         id="path16"
         d="M 0,792 H 612 V 0 H 0 Z" /></clipPath></defs><g
     transform="matrix(1.3333333,0,0,-1.3333333,0,1056)"
     id="g10"><g
       id="g12"><g
         clip-path="url(#clipPath18)"
         id="g14"><g
           transform="translate(185.7325,242.6063)"
           id="g20"><path
             id="path22"
             style="fill:#9c5f38;fill-opacity:1;fill-rule:nonzero;stroke:none"
             d="m 0,0 34.843,-180.448 c 0,-9.494 41.79,-17.19 93.342,-17.19 51.552,0 93.342,7.696 93.342,17.19 l 32.741,178.642 z" /></g><g
           transform="translate(185.7325,242.6063)"
           id="g24"><path
             id="path26"
             style="fill:none;stroke:#7f5036;stroke-width:2;stroke-linecap:butt;stroke-linejoin:miter;stroke-miterlimit:10;stroke-dasharray:none;stroke-opacity:1"
             d="m 0,0 34.843,-180.448 c 0,-9.494 41.79,-17.19 93.342,-17.19 51.552,0 93.342,7.696 93.342,17.19 l 32.741,178.642 z" /></g><g
           transform="translate(458.2167,284.9326)"
           id="g28"><path
             id="path30"
             style="fill:#9c5f38;fill-opacity:1;fill-rule:nonzero;stroke:none"
             d="m 0,0 c 0,-48.538 -65.011,-87.886 -145.206,-87.886 -80.194,0 -145.205,39.348 -145.205,87.886 0,48.538 65.011,87.886 145.205,87.886 C -65.011,87.886 0,48.538 0,0" /></g><g
           transform="translate(458.2167,284.9326)"
           id="g32"><path
             id="path34"
             style="fill:none;stroke:#7f5036;stroke-width:2;stroke-linecap:butt;stroke-linejoin:miter;stroke-miterlimit:10;stroke-dasharray:none;stroke-opacity:1"
             d="m 0,0 c 0,-48.538 -65.011,-87.886 -145.206,-87.886 -80.194,0 -145.205,39.348 -145.205,87.886 0,48.538 65.011,87.886 145.205,87.886 C -65.011,87.886 0,48.538 0,0 Z" /></g><g
           transform="translate(451.1412,293.3732)"
           id="g36"><path
             id="path38"
             style="fill:#624537;fill-opacity:1;fill-rule:nonzero;stroke:none"
             d="m 0,0 c 0,-32.763 -62.023,-59.323 -138.532,-59.323 -76.51,0 -138.533,26.56 -138.533,59.323 0,32.763 62.023,59.323 138.533,59.323 C -62.023,59.323 0,32.763 0,0" /></g><g
           transform="translate(451.1412,293.3732)"
           id="g40"><path
             id="path42"
             style="fill:none;stroke:#463731;stroke-width:2;stroke-linecap:butt;stroke-linejoin:miter;stroke-miterlimit:10;stroke-dasharray:none;stroke-opacity:1"
             d="m 0,0 c 0,-32.763 -62.023,-59.323 -138.532,-59.323 -76.51,0 -138.533,26.56 -138.533,59.323 0,32.763 62.023,59.323 138.533,59.323 C -62.023,59.323 0,32.763 0,0 Z" /></g><g
           transform="translate(318.2601,294.6028)"
           id="g44"><path
             id="path46"
             style="fill:#558449;fill-opacity:1;fill-rule:nonzero;stroke:none"
             d="M 0,0 C 0,0 52.98,44.62 78.596,17.655 78.596,17.655 67.689,-26.419 0,0" /></g><g
           transform="translate(318.2601,294.6028)"
           id="g48"><path
             id="path50"
             style="fill:none;stroke:#455b3e;stroke-width:2;stroke-linecap:butt;stroke-linejoin:miter;stroke-miterlimit:10;stroke-dasharray:none;stroke-opacity:1"
             d="M 0,0 C 0,0 52.98,44.62 78.596,17.655 78.596,17.655 67.689,-26.419 0,0 Z" /></g><g
           transform="translate(234.0124,315.7874)"
           id="g52"><path
             id="path54"
             style="fill:#558449;fill-opacity:1;fill-rule:nonzero;stroke:#455b3e;stroke-width:2;stroke-linecap:butt;stroke-linejoin:miter;stroke-miterlimit:10;stroke-dasharray:none;stroke-opacity:1"
             d="M 0,0 C 0,0 10.908,-44.074 78.596,-17.655 78.596,-17.655 25.617,26.965 0,0" /></g><g
           transform="translate(332.5976,270.8457)"
           id="g56"><path
             id="path58"
             style="fill:#558449;fill-opacity:1;fill-rule:nonzero;stroke:none"
             d="M 0,0 C 0,0 -78.925,237.666 21.519,308.449 H 4.382 c 0,0 -93.247,-42.164 -19.713,-309.507 z" /></g><g
           transform="translate(332.5976,270.8457)"
           id="g60"><path
             id="path62"
             style="fill:none;stroke:#455b3e;stroke-width:2;stroke-linecap:butt;stroke-linejoin:miter;stroke-miterlimit:10;stroke-dasharray:none;stroke-opacity:1"
             d="M 0,0 C 0,0 -78.925,237.666 21.519,308.449 H 4.382 c 0,0 -93.247,-42.164 -19.713,-309.507 z" /></g><g
           transform="translate(305.4508,487.9368)"
           id="g64"><path
             id="path66"
             style="fill:#de753e;fill-opacity:1;fill-rule:nonzero;stroke:none"
             d="m 0,0 c -19.489,-19.489 -51.086,-19.489 -70.575,0 -19.489,19.489 -19.489,51.086 0,70.575 19.489,19.489 99.098,28.522 99.098,28.522 C 28.523,99.097 19.489,19.489 0,0" /></g><g
           transform="translate(305.4508,487.9368)"
           id="g68"><path
             id="path70"
             style="fill:none;stroke:#9e5d3d;stroke-width:3;stroke-linecap:butt;stroke-linejoin:miter;stroke-miterlimit:10;stroke-dasharray:none;stroke-opacity:1"
             d="m 0,0 c -19.489,-19.489 -51.086,-19.489 -70.575,0 -19.489,19.489 -19.489,51.086 0,70.575 19.489,19.489 99.098,28.522 99.098,28.522 C 28.523,99.097 19.489,19.489 0,0 Z" /></g><g
           transform="translate(383.8774,496.7933)"
           id="g72"><path
             id="path74"
             style="fill:#de753e;fill-opacity:1;fill-rule:nonzero;stroke:none"
             d="m 0,0 c 0,-27.561 -22.343,-49.904 -49.904,-49.904 -27.561,0 -49.904,22.343 -49.904,49.904 0,27.561 49.904,90.241 49.904,90.241 C -49.904,90.241 0,27.561 0,0" /></g><g
           transform="translate(383.8774,496.7933)"
           id="g76"><path
             id="path78"
             style="fill:none;stroke:#9e5d3d;stroke-width:3;stroke-linecap:butt;stroke-linejoin:miter;stroke-miterlimit:10;stroke-dasharray:none;stroke-opacity:1"
             d="m 0,0 c 0,-27.561 -22.343,-49.904 -49.904,-49.904 -27.561,0 -49.904,22.343 -49.904,49.904 0,27.561 49.904,90.241 49.904,90.241 C -49.904,90.241 0,27.561 0,0 Z" /></g><g
           transform="translate(433.0708,558.5117)"
           id="g80"><path
             id="path82"
             style="fill:#de753e;fill-opacity:1;fill-rule:nonzero;stroke:none"
             d="m 0,0 c 19.489,-19.489 19.489,-51.086 0,-70.575 -19.489,-19.489 -51.086,-19.489 -70.575,0 -19.489,19.489 -28.522,99.098 -28.522,99.098 0,0 79.608,-9.034 99.097,-28.523" /></g><g
           transform="translate(433.0708,558.5117)"
           id="g84"><path
             id="path86"
             style="fill:none;stroke:#9e5d3d;stroke-width:3;stroke-linecap:butt;stroke-linejoin:miter;stroke-miterlimit:10;stroke-dasharray:none;stroke-opacity:1"
             d="m 0,0 c 19.489,-19.489 19.489,-51.086 0,-70.575 -19.489,-19.489 -51.086,-19.489 -70.575,0 -19.489,19.489 -28.522,99.098 -28.522,99.098 0,0 79.608,-9.034 99.097,-28.523 z" /></g><g
           transform="translate(424.2143,636.9383)"
           id="g88"><path
             id="path90"
             style="fill:#de753e;fill-opacity:1;fill-rule:nonzero;stroke:none"
             d="m 0,0 c 27.561,0 49.904,-22.343 49.904,-49.904 0,-27.561 -22.343,-49.904 -49.904,-49.904 -27.561,0 -90.241,49.904 -90.241,49.904 0,0 62.68,49.904 90.241,49.904" /></g><g
           transform="translate(424.2143,636.9383)"
           id="g92"><path
             id="path94"
             style="fill:none;stroke:#9e5d3d;stroke-width:3;stroke-linecap:butt;stroke-linejoin:miter;stroke-miterlimit:10;stroke-dasharray:none;stroke-opacity:1"
             d="m 0,0 c 27.561,0 49.904,-22.343 49.904,-49.904 0,-27.561 -22.343,-49.904 -49.904,-49.904 -27.561,0 -90.241,49.904 -90.241,49.904 0,0 62.68,49.904 90.241,49.904 z" /></g><g
           transform="translate(362.4959,686.1317)"
           id="g96"><path
             id="path98"
             style="fill:#de753e;fill-opacity:1;fill-rule:nonzero;stroke:none"
             d="m 0,0 c 19.489,19.489 51.086,19.489 70.575,0 19.489,-19.489 19.489,-51.086 0,-70.575 -19.489,-19.489 -99.098,-28.522 -99.098,-28.522 0,0 9.034,79.608 28.523,99.097" /></g><g
           transform="translate(362.4959,686.1317)"
           id="g100"><path
             id="path102"
             style="fill:none;stroke:#9e5d3d;stroke-width:3;stroke-linecap:butt;stroke-linejoin:miter;stroke-miterlimit:10;stroke-dasharray:none;stroke-opacity:1"
             d="m 0,0 c 19.489,19.489 51.086,19.489 70.575,0 19.489,-19.489 19.489,-51.086 0,-70.575 -19.489,-19.489 -99.098,-28.522 -99.098,-28.522 0,0 9.034,79.608 28.523,99.097 z" /></g><g
           transform="translate(284.0693,677.2752)"
           id="g104"><path
             id="path106"
             style="fill:#de753e;fill-opacity:1;fill-rule:nonzero;stroke:none"
             d="M 0,0 C 0,27.561 22.343,49.904 49.904,49.904 77.465,49.904 99.808,27.561 99.808,0 99.808,-27.561 49.904,-90.241 49.904,-90.241 49.904,-90.241 0,-27.561 0,0" /></g><g
           transform="translate(284.0693,677.2752)"
           id="g108"><path
             id="path110"
             style="fill:none;stroke:#9e5d3d;stroke-width:3;stroke-linecap:butt;stroke-linejoin:miter;stroke-miterlimit:10;stroke-dasharray:none;stroke-opacity:1"
             d="M 0,0 C 0,27.561 22.343,49.904 49.904,49.904 77.465,49.904 99.808,27.561 99.808,0 99.808,-27.561 49.904,-90.241 49.904,-90.241 49.904,-90.241 0,-27.561 0,0 Z" /></g><g
           transform="translate(234.8759,615.5568)"
           id="g112"><path
             id="path114"
             style="fill:#de753e;fill-opacity:1;fill-rule:nonzero;stroke:none"
             d="m 0,0 c -19.489,19.489 -19.489,51.086 0,70.575 19.489,19.489 51.086,19.489 70.575,0 19.489,-19.489 28.522,-99.098 28.522,-99.098 0,0 -79.608,9.034 -99.097,28.523" /></g><g
           transform="translate(234.8759,615.5568)"
           id="g116"><path
             id="path118"
             style="fill:none;stroke:#9e5d3d;stroke-width:3;stroke-linecap:butt;stroke-linejoin:miter;stroke-miterlimit:10;stroke-dasharray:none;stroke-opacity:1"
             d="m 0,0 c -19.489,19.489 -19.489,51.086 0,70.575 19.489,19.489 51.086,19.489 70.575,0 19.489,-19.489 28.522,-99.098 28.522,-99.098 0,0 -79.608,9.034 -99.097,28.523 z" /></g><g
           transform="translate(243.7324,537.1302)"
           id="g120"><path
             id="path122"
             style="fill:#de753e;fill-opacity:1;fill-rule:nonzero;stroke:none"
             d="m 0,0 c -27.561,0 -49.904,22.343 -49.904,49.904 0,27.561 22.343,49.904 49.904,49.904 27.561,0 90.241,-49.904 90.241,-49.904 C 90.241,49.904 27.561,0 0,0" /></g><g
           transform="translate(243.7324,537.1302)"
           id="g124"><path
             id="path126"
             style="fill:none;stroke:#9e5d3d;stroke-width:3;stroke-linecap:butt;stroke-linejoin:miter;stroke-miterlimit:10;stroke-dasharray:none;stroke-opacity:1"
             d="m 0,0 c -27.561,0 -49.904,22.343 -49.904,49.904 0,27.561 22.343,49.904 49.904,49.904 27.561,0 90.241,-49.904 90.241,-49.904 C 90.241,49.904 27.561,0 0,0 Z" /></g><g
           transform="translate(406.9442,587.0342)"
           id="g128"><path
             id="path130"
             style="fill:#e5c05e;fill-opacity:1;fill-rule:nonzero;stroke:none"
             d="m 0,0 c 0,-40.301 -32.67,-72.971 -72.971,-72.971 -40.301,0 -72.971,32.67 -72.971,72.971 0,40.301 32.67,72.971 72.971,72.971 C -32.67,72.971 0,40.301 0,0" /></g><g
           transform="translate(406.9442,587.0342)"
           id="g132"><path
             id="path134"
             style="fill:none;stroke:#ab9052;stroke-width:3;stroke-linecap:butt;stroke-linejoin:miter;stroke-miterlimit:10;stroke-dasharray:none;stroke-opacity:1"
             d="m 0,0 c 0,-40.301 -32.67,-72.971 -72.971,-72.971 -40.301,0 -72.971,32.67 -72.971,72.971 0,40.301 32.67,72.971 72.971,72.971 C -32.67,72.971 0,40.301 0,0 Z" /></g><g
           transform="translate(331.3036,539.3541)"
           id="g136"><path
             id="path138"
             style="fill:#292929;fill-opacity:1;fill-rule:nonzero;stroke:none"
             d="m 0,0 c 0,0 30.841,-3.093 61.682,22.21 0,0 -0.833,-48.883 -30.841,-44.299 0,0 -20.422,2.501 -30.841,22.089" /></g><g
           transform="translate(331.3036,539.3541)"
           id="g140"><path
             id="path142"
             style="fill:none;stroke:#b99c4e;stroke-width:2;stroke-linecap:butt;stroke-linejoin:miter;stroke-miterlimit:10;stroke-dasharray:none;stroke-opacity:1"
             d="m 0,0 c 0,0 30.841,-3.093 61.682,22.21 0,0 -0.833,-48.883 -30.841,-44.299 0,0 -20.422,2.501 -30.841,22.089 z" /></g><g
           transform="translate(381.932,577.4372)"
           id="g144"><path
             id="path146"
             style="fill:#f3ab5f;fill-opacity:1;fill-rule:nonzero;stroke:none"
             d="m 0,0 c 2.624,-5.524 -3.625,-13.979 -13.956,-18.886 -10.332,-4.907 -20.834,-4.407 -23.457,1.116 -2.624,5.524 3.625,13.98 13.956,18.887 C -13.126,6.024 -2.624,5.524 0,0" /></g><g
           transform="translate(381.932,577.4372)"
           id="g148"><path
             id="path150"
             style="fill:none;stroke:#b7784f;stroke-width:3;stroke-linecap:butt;stroke-linejoin:miter;stroke-miterlimit:10;stroke-dasharray:none;stroke-opacity:1"
             d="m 0,0 c 2.624,-5.524 -3.625,-13.979 -13.956,-18.886 -10.332,-4.907 -20.834,-4.407 -23.457,1.116 -2.624,5.524 3.625,13.98 13.956,18.887 C -13.126,6.024 -2.624,5.524 0,0 Z" /></g><g
           transform="translate(323.6635,614.0318)"
           id="g152"><path
             id="path154"
             style="fill:#ffffff;fill-opacity:1;fill-rule:nonzero;stroke:none"
             d="m 0,0 c 8.068,-20.831 4.687,-41.56 -7.551,-46.3 -12.238,-4.74 -28.699,8.304 -36.767,29.135 -8.068,20.831 -4.687,41.56 7.551,46.3 C -24.529,33.875 -8.068,20.831 0,0" /></g><g
           transform="translate(323.6635,614.0318)"
           id="g156"><path
             id="path158"
             style="fill:none;stroke:#b99c4e;stroke-width:2;stroke-linecap:butt;stroke-linejoin:miter;stroke-miterlimit:10;stroke-dasharray:none;stroke-opacity:1"
             d="m 0,0 c 8.068,-20.831 4.687,-41.56 -7.551,-46.3 -12.238,-4.74 -28.699,8.304 -36.767,29.135 -8.068,20.831 -4.687,41.56 7.551,46.3 C -24.529,33.875 -8.068,20.831 0,0 Z" /></g><g
           transform="translate(297.3872,630.9583)"
           id="g160"><path
             id="path162"
             style="fill:#292929;fill-opacity:1;fill-rule:nonzero;stroke:none"
             d="m 0,0 c -5.405,-2.471 -7.457,-10.138 -5.678,-18.761 l 16.142,1.608 -8.054,-17.828 c 5.138,-5.743 11.483,-8.4 16.394,-6.156 6.958,3.181 8.389,14.968 3.197,26.328 C 16.808,-3.45 6.958,3.181 0,0" /></g><g
           transform="translate(297.3872,630.9583)"
           id="g164"><path
             id="path166"
             style="fill:none;stroke:#3e3e3d;stroke-width:2;stroke-linecap:butt;stroke-linejoin:miter;stroke-miterlimit:10;stroke-dasharray:none;stroke-opacity:1"
             d="m 0,0 c -5.405,-2.471 -7.457,-10.138 -5.678,-18.761 l 16.142,1.608 -8.054,-17.828 c 5.138,-5.743 11.483,-8.4 16.394,-6.156 6.958,3.181 8.389,14.968 3.197,26.328 C 16.808,-3.45 6.958,3.181 0,0 Z" /></g><g
           transform="translate(385.3841,637.937)"
           id="g168"><path
             id="path170"
             style="fill:#ffffff;fill-opacity:1;fill-rule:nonzero;stroke:none"
             d="m 0,0 c 8.068,-20.831 4.688,-41.56 -7.55,-46.3 -12.238,-4.74 -28.7,8.305 -36.768,29.135 -8.068,20.831 -4.687,41.56 7.551,46.3 C -24.529,33.875 -8.068,20.831 0,0" /></g><g
           transform="translate(385.3841,637.937)"
           id="g172"><path
             id="path174"
             style="fill:none;stroke:#b99c4e;stroke-width:2;stroke-linecap:butt;stroke-linejoin:miter;stroke-miterlimit:10;stroke-dasharray:none;stroke-opacity:1"
             d="m 0,0 c 8.068,-20.831 4.688,-41.56 -7.55,-46.3 -12.238,-4.74 -28.7,8.305 -36.768,29.135 -8.068,20.831 -4.687,41.56 7.551,46.3 C -24.529,33.875 -8.068,20.831 0,0 Z" /></g><g
           transform="translate(360.0124,652.322)"
           id="g176"><path
             id="path178"
             style="fill:#292929;fill-opacity:1;fill-rule:nonzero;stroke:none"
             d="m 0,0 c -5.405,-2.471 -7.457,-10.138 -5.678,-18.761 l 16.142,1.608 -8.054,-17.828 c 5.138,-5.743 11.483,-8.4 16.394,-6.156 6.958,3.181 8.389,14.968 3.197,26.328 C 16.808,-3.45 6.958,3.181 0,0" /></g><g
           transform="translate(360.0124,652.322)"
           id="g180"><path
             id="path182"
             style="fill:none;stroke:#3e3e3d;stroke-width:2;stroke-linecap:butt;stroke-linejoin:miter;stroke-miterlimit:10;stroke-dasharray:none;stroke-opacity:1"
             d="m 0,0 c -5.405,-2.471 -7.457,-10.138 -5.678,-18.761 l 16.142,1.608 -8.054,-17.828 c 5.138,-5.743 11.483,-8.4 16.394,-6.156 6.958,3.181 8.389,14.968 3.197,26.328 C 16.808,-3.45 6.958,3.181 0,0 Z" /></g></g></g></g></svg>