<?xml version="1.0" encoding="UTF-8"?>
<svg id="Layer_1" data-name="Layer 1" xmlns="http://www.w3.org/2000/svg" viewBox="0 0 292.41 513.01">
  <defs>
    <style>
      .cls-1 {
        fill: #5a3723;
        stroke: #382217;
      }

      .cls-1, .cls-2, .cls-3 {
        stroke-width: 2px;
      }

      .cls-1, .cls-2, .cls-3, .cls-4 {
        stroke-miterlimit: 10;
      }

      .cls-2 {
        fill: #995724;
        stroke: #7a4521;
      }

      .cls-3 {
        fill: #4c893f;
        stroke: #3a5f2d;
      }

      .cls-4 {
        fill: #ed4a24;
        stroke: #a83623;
        stroke-width: 3px;
      }
    </style>
  </defs>
  <g>
    <path class="cls-2" d="M18.93,314.37l34.84,180.45c0,9.49,41.79,17.19,93.34,17.19s93.34-7.7,93.34-17.19l32.74-178.64-254.27-1.81Z"/>
    <ellipse class="cls-2" cx="146.21" cy="272.04" rx="145.21" ry="87.89"/>
    <ellipse class="cls-1" cx="145.8" cy="263.6" rx="138.53" ry="59.32"/>
  </g>
  <g>
    <g>
      <g>
        <path class="cls-3" d="M133.85,259.87s29.37-24.74,43.58-9.79c0,0-6.05,24.44-43.58,9.79Z"/>
        <path class="cls-3" d="M98.17,250.56s5.45,22.04,39.3,8.83c0,0-26.49-22.31-39.3-8.83"/>
      </g>
      <path class="cls-3" d="M115.28,84.14s51.88,158.9-4.54,203.04h8.99s56.7-37.47,4.16-203.7l-8.61.66Z"/>
    </g>
    <g>
      <path class="cls-4" d="M118.77,28.06c7.39-17.96,27.93-26.53,45.88-19.14,17.96,7.39,26.53,27.93,19.14,45.88-7.39,17.96-56.69,45.42-56.69,45.42,0,0-15.72-54.21-8.33-72.16Z"/>
      <path class="cls-4" d="M70.9,53.56c-6.88-18.16,2.26-38.45,20.42-45.33,18.16-6.88,38.45,2.26,45.33,20.42,6.88,18.16-10.35,71.9-10.35,71.9,0,0-48.52-28.83-55.4-46.99Z"/>
      <path class="cls-4" d="M91.69,36.66c0-19.42,15.74-35.16,35.16-35.16s35.16,15.74,35.16,35.16-35.16,63.57-35.16,63.57c0,0-35.16-44.16-35.16-63.57Z"/>
    </g>
  </g>
</svg>