<svg width="288" height="647" viewBox="0 0 288 647" fill="none" xmlns="http://www.w3.org/2000/svg">
<g clip-path="url(#clip0_4_1518)">
<mask id="mask0_4_1518" style="mask-type:luminance" maskUnits="userSpaceOnUse" x="-159" y="-57" width="577" height="747">
<path d="M-158.118 -57H417.882V689.41H-158.118V-57Z" fill="white"/>
</mask>
<g mask="url(#mask0_4_1518)">
<path d="M16.6894 460.769L49.4828 630.829C49.4828 639.777 88.8146 647.03 137.334 647.03C185.854 647.03 225.185 639.777 225.185 630.829L256 462.471L16.6894 460.769Z" fill="#9C5F38"/>
<path d="M16.6894 460.769L49.4828 630.829C49.4828 639.777 88.8146 647.03 137.334 647.03C185.854 647.03 225.185 639.777 225.185 630.829L256 462.471L16.6894 460.769Z" stroke="#7F5036" stroke-width="2.66667" stroke-miterlimit="10"/>
<path d="M273.145 420.879C273.145 466.623 211.958 503.706 136.481 503.706C61.0039 503.706 -0.182892 466.623 -0.182892 420.879C-0.182892 375.135 61.0039 338.052 136.481 338.052C211.958 338.052 273.145 375.135 273.145 420.879Z" fill="#9C5F38"/>
<path d="M273.145 420.879C273.145 466.623 211.958 503.706 136.481 503.706C61.0039 503.706 -0.182892 466.623 -0.182892 420.879C-0.182892 375.135 61.0039 338.052 136.481 338.052C211.958 338.052 273.145 375.135 273.145 420.879Z" stroke="#7F5036" stroke-width="2.66667" stroke-miterlimit="10"/>
<path d="M266.486 412.924C266.486 443.801 208.111 468.832 136.103 468.832C64.0934 468.832 5.71878 443.801 5.71878 412.924C5.71878 382.047 64.0934 357.016 136.103 357.016C208.111 357.016 266.486 382.047 266.486 412.924Z" fill="#624537"/>
<path d="M266.486 412.924C266.486 443.801 208.111 468.832 136.103 468.832C64.0934 468.832 5.71878 443.801 5.71878 412.924C5.71878 382.047 64.0934 357.016 136.103 357.016C208.111 357.016 266.486 382.047 266.486 412.924Z" stroke="#463731" stroke-width="2.66667" stroke-miterlimit="10"/>
<path d="M141.421 411.765C141.421 411.765 191.285 369.714 215.394 395.126C215.394 395.126 205.129 436.663 141.421 411.765Z" fill="#558449"/>
<path d="M141.421 411.765C141.421 411.765 191.285 369.714 215.394 395.126C215.394 395.126 205.129 436.663 141.421 411.765Z" stroke="#455B3E" stroke-width="2.66667" stroke-miterlimit="10"/>
<path d="M62.1293 391.8C62.1293 391.8 72.3957 433.337 136.102 408.439C136.102 408.439 86.2395 366.387 62.1293 391.8Z" fill="#558449" stroke="#455B3E" stroke-width="2.66667" stroke-miterlimit="10"/>
<path d="M154.915 434.155C154.915 434.155 80.633 210.17 175.169 143.461H159.04C159.04 143.461 71.2778 183.198 140.486 435.152L154.915 434.155Z" fill="#558449"/>
<path d="M154.915 434.155C154.915 434.155 80.633 210.17 175.169 143.461H159.04C159.04 143.461 71.2778 183.198 140.486 435.152L154.915 434.155Z" stroke="#455B3E" stroke-width="2.66667" stroke-miterlimit="10"/>
<path d="M129.365 229.56C111.023 247.927 81.2845 247.927 62.9419 229.56C44.5994 211.193 44.5994 181.415 62.9419 163.048C81.2845 144.681 156.211 136.167 156.211 136.167C156.211 136.167 147.708 211.193 129.365 229.56Z" fill="#DE753E"/>
<path d="M129.365 229.56C111.023 247.927 81.2845 247.927 62.9419 229.56C44.5994 211.193 44.5994 181.415 62.9419 163.048C81.2845 144.681 156.211 136.167 156.211 136.167C156.211 136.167 147.708 211.193 129.365 229.56Z" stroke="#9E5D3D" stroke-width="4" stroke-miterlimit="10"/>
<path d="M203.179 221.214C203.179 247.188 182.15 268.245 156.21 268.245C130.27 268.245 109.242 247.188 109.242 221.214C109.242 195.239 156.21 136.167 156.21 136.167C156.21 136.167 203.179 195.239 203.179 221.214Z" fill="#DE753E"/>
<path d="M203.179 221.214C203.179 247.188 182.15 268.245 156.21 268.245C130.27 268.245 109.242 247.188 109.242 221.214C109.242 195.239 156.21 136.167 156.21 136.167C156.21 136.167 203.179 195.239 203.179 221.214Z" stroke="#9E5D3D" stroke-width="4" stroke-miterlimit="10"/>
<path d="M249.478 163.048C267.821 181.415 267.821 211.193 249.478 229.56C231.136 247.927 201.397 247.927 183.055 229.56C164.712 211.193 156.211 136.167 156.211 136.167C156.211 136.167 231.136 144.681 249.478 163.048Z" fill="#DE753E"/>
<path d="M249.478 163.048C267.821 181.415 267.821 211.193 249.478 229.56C231.136 247.927 201.397 247.927 183.055 229.56C164.712 211.193 156.211 136.167 156.211 136.167C156.211 136.167 231.136 144.681 249.478 163.048Z" stroke="#9E5D3D" stroke-width="4" stroke-miterlimit="10"/>
<path d="M241.143 89.1358C267.083 89.1358 288.111 110.193 288.111 136.167C288.111 162.142 267.083 183.198 241.143 183.198C215.203 183.198 156.21 136.167 156.21 136.167C156.21 136.167 215.203 89.1358 241.143 89.1358Z" fill="#DE753E"/>
<path d="M241.143 89.1358C267.083 89.1358 288.111 110.193 288.111 136.167C288.111 162.142 267.083 183.198 241.143 183.198C215.203 183.198 156.21 136.167 156.21 136.167C156.21 136.167 215.203 89.1358 241.143 89.1358Z" stroke="#9E5D3D" stroke-width="4" stroke-miterlimit="10"/>
<path d="M183.055 42.7741C201.398 24.407 231.136 24.407 249.478 42.7741C267.821 61.1413 267.821 90.9194 249.478 109.287C231.136 127.654 156.21 136.167 156.21 136.167C156.21 136.167 164.712 61.1413 183.055 42.7741Z" fill="#DE753E"/>
<path d="M183.055 42.7741C201.398 24.407 231.136 24.407 249.478 42.7741C267.821 61.1413 267.821 90.9194 249.478 109.287C231.136 127.654 156.21 136.167 156.21 136.167C156.21 136.167 164.712 61.1413 183.055 42.7741Z" stroke="#9E5D3D" stroke-width="4" stroke-miterlimit="10"/>
<path d="M109.242 51.1208C109.242 25.1463 130.27 4.08949 156.21 4.08949C182.15 4.08949 203.179 25.1463 203.179 51.1208C203.179 77.0953 156.21 136.167 156.21 136.167C156.21 136.167 109.242 77.0953 109.242 51.1208Z" fill="#DE753E"/>
<path d="M109.242 51.1208C109.242 25.1463 130.27 4.08949 156.21 4.08949C182.15 4.08949 203.179 25.1463 203.179 51.1208C203.179 77.0953 156.21 136.167 156.21 136.167C156.21 136.167 109.242 77.0953 109.242 51.1208Z" stroke="#9E5D3D" stroke-width="4" stroke-miterlimit="10"/>
<path d="M62.942 109.286C44.5994 90.9192 44.5994 61.1411 62.942 42.7739C81.2846 24.4068 111.023 24.4068 129.366 42.7739C147.708 61.1411 156.21 136.167 156.21 136.167C156.21 136.167 81.2846 127.654 62.942 109.286Z" fill="#DE753E"/>
<path d="M62.942 109.286C44.5994 90.9192 44.5994 61.1411 62.942 42.7739C81.2846 24.4068 111.023 24.4068 129.366 42.7739C147.708 61.1411 156.21 136.167 156.21 136.167C156.21 136.167 81.2846 127.654 62.942 109.286Z" stroke="#9E5D3D" stroke-width="4" stroke-miterlimit="10"/>
<path d="M71.2776 183.198C45.3378 183.198 24.3091 162.142 24.3091 136.167C24.3091 110.193 45.3378 89.1358 71.2776 89.1358C97.2173 89.1358 156.21 136.167 156.21 136.167C156.21 136.167 97.2173 183.198 71.2776 183.198Z" fill="#DE753E"/>
<path d="M71.2776 183.198C45.3378 183.198 24.3091 162.142 24.3091 136.167C24.3091 110.193 45.3378 89.1358 71.2776 89.1358C97.2173 89.1358 156.21 136.167 156.21 136.167C156.21 136.167 97.2173 183.198 71.2776 183.198Z" stroke="#9E5D3D" stroke-width="4" stroke-miterlimit="10"/>
<path d="M224.889 136.167C224.889 174.148 194.14 204.938 156.21 204.938C118.28 204.938 87.5315 174.148 87.5315 136.167C87.5315 98.1861 118.28 67.3967 156.21 67.3967C194.14 67.3967 224.889 98.1861 224.889 136.167Z" fill="#E5C05E"/>
<path d="M224.889 136.167C224.889 174.148 194.14 204.938 156.21 204.938C118.28 204.938 87.5315 174.148 87.5315 136.167C87.5315 98.1861 118.28 67.3967 156.21 67.3967C194.14 67.3967 224.889 98.1861 224.889 136.167Z" stroke="#AB9052" stroke-width="4" stroke-miterlimit="10"/>
<path d="M153.698 181.103C153.698 181.103 182.724 184.018 211.751 160.171C211.751 160.171 210.967 206.24 182.724 201.92C182.724 201.92 163.504 199.563 153.698 181.103Z" fill="#292929"/>
<path d="M153.698 181.103C153.698 181.103 182.724 184.018 211.751 160.171C211.751 160.171 210.967 206.24 182.724 201.92C182.724 201.92 163.504 199.563 153.698 181.103Z" stroke="#B99C4E" stroke-width="2.66667" stroke-miterlimit="10"/>
<path d="M201.348 145.212C203.817 150.418 197.936 158.386 188.213 163.011C178.488 167.635 168.604 167.164 166.136 161.959C163.666 156.753 169.547 148.784 179.271 144.159C188.994 139.534 198.878 140.006 201.348 145.212Z" fill="#F3AB5F"/>
<path d="M201.348 145.212C203.817 150.418 197.936 158.386 188.213 163.011C178.488 167.635 168.604 167.164 166.136 161.959C163.666 156.753 169.547 148.784 179.271 144.159C188.994 139.534 198.878 140.006 201.348 145.212Z" stroke="#B7784F" stroke-width="4" stroke-miterlimit="10"/>
<path d="M146.507 110.724C154.1 130.356 150.918 149.891 139.4 154.359C127.882 158.826 112.389 146.533 104.796 126.901C97.2024 107.269 100.384 87.733 111.903 83.2658C123.421 78.7987 138.913 91.0918 146.507 110.724Z" fill="white"/>
<path d="M146.507 110.724C154.1 130.356 150.918 149.891 139.4 154.359C127.882 158.826 112.389 146.533 104.796 126.901C97.2024 107.269 100.384 87.733 111.903 83.2658C123.421 78.7987 138.913 91.0918 146.507 110.724Z" stroke="#B99C4E" stroke-width="2.66667" stroke-miterlimit="10"/>
<path d="M121.776 94.7714C116.689 97.1001 114.758 104.326 116.432 112.452L131.625 110.937L124.044 127.739C128.88 133.151 134.852 135.655 139.474 133.54C146.023 130.543 147.37 119.434 142.483 108.728C137.595 98.0228 128.325 91.7735 121.776 94.7714Z" fill="#292929"/>
<path d="M121.776 94.7714C116.689 97.1001 114.758 104.326 116.432 112.452L131.625 110.937L124.044 127.739C128.88 133.151 134.852 135.655 139.474 133.54C146.023 130.543 147.37 119.434 142.483 108.728C137.595 98.0228 128.325 91.7735 121.776 94.7714Z" stroke="#3E3E3D" stroke-width="2.66667" stroke-miterlimit="10"/>
<path d="M204.597 88.1945C212.19 107.826 209.009 127.362 197.491 131.829C185.973 136.296 170.479 124.002 162.886 104.371C155.292 84.7395 158.474 65.2037 169.993 60.7366C181.511 56.2694 197.003 68.5626 204.597 88.1945Z" fill="white"/>
<path d="M204.597 88.1945C212.19 107.826 209.009 127.362 197.491 131.829C185.973 136.296 170.479 124.002 162.886 104.371C155.292 84.7395 158.474 65.2037 169.993 60.7366C181.511 56.2694 197.003 68.5626 204.597 88.1945Z" stroke="#B99C4E" stroke-width="2.66667" stroke-miterlimit="10"/>
<path d="M180.718 74.6376C175.631 76.9664 173.699 84.192 175.374 92.3186L190.566 90.8032L182.986 107.605C187.822 113.017 193.793 115.521 198.415 113.407C204.964 110.409 206.311 99.3002 201.424 88.5941C196.537 77.889 187.266 71.6397 180.718 74.6376Z" fill="#292929"/>
<path d="M180.718 74.6376C175.631 76.9664 173.699 84.192 175.374 92.3186L190.566 90.8032L182.986 107.605C187.822 113.017 193.793 115.521 198.415 113.407C204.964 110.409 206.311 99.3002 201.424 88.5941C196.537 77.889 187.266 71.6397 180.718 74.6376Z" stroke="#3E3E3D" stroke-width="2.66667" stroke-miterlimit="10"/>
</g>
</g>
<defs>
<clipPath id="clip0_4_1518">
<rect width="288" height="647" fill="white"/>
</clipPath>
</defs>
</svg>
