<svg width="274" height="376" viewBox="0 0 274 376" fill="none" xmlns="http://www.w3.org/2000/svg">
<g clip-path="url(#clip0_4_1477)">
<mask id="mask0_4_1477" style="mask-type:luminance" maskUnits="userSpaceOnUse" x="-159" y="-328" width="579" height="747">
<path d="M-158.594 -328H419.142V418.41H-158.594V-328Z" fill="white"/>
</mask>
<g mask="url(#mask0_4_1477)">
<path d="M16.9202 189.422L49.8124 359.483C49.8124 368.43 89.2628 375.683 137.929 375.683C186.594 375.683 226.045 368.43 226.045 359.483L256.953 191.124L16.9202 189.422Z" fill="#9C5F38"/>
<path d="M16.9202 189.422L49.8124 359.483C49.8124 368.43 89.2628 375.683 137.929 375.683C186.594 375.683 226.045 368.43 226.045 359.483L256.953 191.124L16.9202 189.422Z" stroke="#7F5036" stroke-width="2.66667" stroke-miterlimit="10"/>
<path d="M274.149 149.532C274.149 195.276 212.778 232.359 137.073 232.359C61.3684 232.359 -0.00292969 195.276 -0.00292969 149.532C-0.00292969 103.788 61.3684 66.7054 137.073 66.7054C212.778 66.7054 274.149 103.788 274.149 149.532Z" fill="#9C5F38"/>
<path d="M274.149 149.532C274.149 195.276 212.778 232.359 137.073 232.359C61.3684 232.359 -0.00292969 195.276 -0.00292969 149.532C-0.00292969 103.788 61.3684 66.7054 137.073 66.7054C212.778 66.7054 274.149 103.788 274.149 149.532Z" stroke="#7F5036" stroke-width="2.66667" stroke-miterlimit="10"/>
<path d="M267.47 141.578C267.47 172.455 208.919 197.486 136.693 197.486C64.467 197.486 5.91644 172.455 5.91644 141.578C5.91644 110.701 64.467 85.6695 136.693 85.6695C208.919 85.6695 267.47 110.701 267.47 141.578Z" fill="#624537"/>
<path d="M267.47 141.578C267.47 172.455 208.919 197.486 136.693 197.486C64.467 197.486 5.91644 172.455 5.91644 141.578C5.91644 110.701 64.467 85.6695 136.693 85.6695C208.919 85.6695 267.47 110.701 267.47 141.578Z" stroke="#463731" stroke-width="2.66667" stroke-miterlimit="10"/>
<path d="M116.471 122.381C116.471 122.381 148.532 139.277 140.489 156.976C140.489 156.976 116.966 160.345 116.471 122.381Z" fill="#444F41"/>
<path d="M116.471 122.381C116.471 122.381 148.532 139.277 140.489 156.976C140.489 156.976 116.966 160.345 116.471 122.381Z" stroke="#363A34" stroke-width="2.66667" stroke-miterlimit="10"/>
<path d="M87.9272 151.925C87.9272 151.925 108.401 158.247 114.219 124.504C114.219 124.504 83.2704 135.027 87.9272 151.925Z" fill="#444F41" stroke="#363A34" stroke-width="2.66667" stroke-miterlimit="10"/>
<path d="M132.783 163.184C132.783 163.184 87.4498 29.2634 210.105 12.424L202.841 5.52252C202.841 5.52252 87.4498 10.6795 124.653 163.806L132.783 163.184Z" fill="#444F41"/>
<path d="M132.783 163.184C132.783 163.184 87.4498 29.2634 210.105 12.424L202.841 5.52252C202.841 5.52252 87.4498 10.6795 124.653 163.806L132.783 163.184Z" stroke="#363A34" stroke-width="2.66667" stroke-miterlimit="10"/>
<path d="M169.275 129.251C159.534 127.322 152.535 120.184 153.642 113.305C154.751 106.426 163.545 102.412 173.286 104.34C183.028 106.268 203.177 123.108 203.177 123.108C203.177 123.108 179.017 131.179 169.275 129.251Z" fill="#975853"/>
<path d="M169.275 129.251C159.534 127.322 152.535 120.184 153.642 113.305C154.751 106.426 163.545 102.412 173.286 104.34C183.028 106.268 203.177 123.108 203.177 123.108C203.177 123.108 179.017 131.179 169.275 129.251Z" stroke="#684946" stroke-width="4" stroke-miterlimit="10"/>
<path d="M230.746 40.412C232.938 52.363 225.436 63.9484 213.989 66.2894C202.542 68.6304 191.485 60.8412 189.292 48.8901C187.1 36.9391 202.84 5.52203 202.84 5.52203C202.84 5.52203 228.554 28.4609 230.746 40.412Z" fill="#975853"/>
<path d="M230.746 40.412C232.938 52.363 225.436 63.9484 213.989 66.2894C202.542 68.6304 191.485 60.8412 189.292 48.8901C187.1 36.9391 202.84 5.52203 202.84 5.52203C202.84 5.52203 228.554 28.4609 230.746 40.412Z" stroke="#684946" stroke-width="4" stroke-miterlimit="10"/>
<path d="M206.415 144.153C214.39 146.129 219.982 151.982 218.906 157.229C217.829 162.475 210.491 165.126 202.515 163.152C194.54 161.176 178.352 147.186 178.352 147.186C178.352 147.186 198.439 142.178 206.415 144.153Z" fill="#975853"/>
<path d="M206.415 144.153C214.39 146.129 219.982 151.982 218.906 157.229C217.829 162.475 210.491 165.126 202.515 163.152C194.54 161.176 178.352 147.186 178.352 147.186C178.352 147.186 198.439 142.178 206.415 144.153Z" stroke="#684946" stroke-width="4" stroke-miterlimit="10"/>
</g>
</g>
<defs>
<clipPath id="clip0_4_1477">
<rect width="274" height="376" fill="white"/>
</clipPath>
</defs>
</svg>
