<svg width="274" height="486" viewBox="0 0 274 486" fill="none" xmlns="http://www.w3.org/2000/svg">
<g clip-path="url(#clip0_4_1381)">
<mask id="mask0_4_1381" style="mask-type:luminance" maskUnits="userSpaceOnUse" x="-159" y="-218" width="579" height="747">
<path d="M-158.594 -218H419.142V528.41H-158.594V-218Z" fill="white"/>
</mask>
<g mask="url(#mask0_4_1381)">
<path d="M16.9201 299.422L49.8124 469.483C49.8124 478.43 89.2627 485.683 137.928 485.683C186.594 485.683 226.045 478.43 226.045 469.483L256.953 301.124L16.9201 299.422Z" fill="#985724" stroke="#7A4521" stroke-width="2.66667" stroke-miterlimit="10"/>
</g>
<mask id="mask1_4_1381" style="mask-type:luminance" maskUnits="userSpaceOnUse" x="-159" y="-218" width="579" height="747">
<path d="M-158.594 -218H419.142V528.41H-158.594V-218Z" fill="white"/>
</mask>
<g mask="url(#mask1_4_1381)">
<path d="M274.149 259.532C274.149 305.276 212.778 342.359 137.073 342.359C61.3684 342.359 -0.00292969 305.276 -0.00292969 259.532C-0.00292969 213.788 61.3684 176.705 137.073 176.705C212.778 176.705 274.149 213.788 274.149 259.532Z" fill="#985724" stroke="#7A4521" stroke-width="2.66667" stroke-miterlimit="10"/>
</g>
<mask id="mask2_4_1381" style="mask-type:luminance" maskUnits="userSpaceOnUse" x="-159" y="-218" width="579" height="747">
<path d="M-158.594 -218H419.142V528.41H-158.594V-218Z" fill="white"/>
</mask>
<g mask="url(#mask2_4_1381)">
<path d="M267.47 251.578C267.47 282.455 208.919 307.486 136.693 307.486C64.467 307.486 5.91644 282.455 5.91644 251.578C5.91644 220.701 64.467 195.67 136.693 195.67C208.919 195.67 267.47 220.701 267.47 251.578Z" fill="#5A3723" stroke="#382217" stroke-width="2.66667" stroke-miterlimit="10"/>
</g>
<mask id="mask3_4_1381" style="mask-type:luminance" maskUnits="userSpaceOnUse" x="-159" y="-218" width="579" height="747">
<path d="M-158.594 -218H419.142V528.41H-158.594V-218Z" fill="white"/>
</mask>
<g mask="url(#mask3_4_1381)">
<path d="M117.467 239.612C117.467 239.612 153.663 237.554 155.928 256.856C155.928 256.856 137.527 271.867 117.467 239.612Z" fill="#49783F" stroke="#334C2A" stroke-width="2.66667" stroke-miterlimit="10"/>
</g>
<mask id="mask4_4_1381" style="mask-type:luminance" maskUnits="userSpaceOnUse" x="-159" y="-218" width="579" height="747">
<path d="M-158.594 -218H419.142V528.41H-158.594V-218Z" fill="white"/>
</mask>
<g mask="url(#mask4_4_1381)">
<path d="M83.5342 255.588C83.5342 255.588 99.7986 269.519 118.583 240.872C118.583 240.872 85.9962 238.235 83.5342 255.588Z" fill="#49783F" stroke="#334C2A" stroke-width="2.66667" stroke-miterlimit="10"/>
</g>
<mask id="mask5_4_1381" style="mask-type:luminance" maskUnits="userSpaceOnUse" x="-159" y="-218" width="579" height="747">
<path d="M-158.594 -218H419.142V528.41H-158.594V-218Z" fill="white"/>
</mask>
<g mask="url(#mask5_4_1381)">
<path d="M132.783 273.184C132.783 273.184 83.8078 123.427 137.073 81.8276H128.583C128.583 81.8276 75.0549 117.143 124.653 273.806L132.783 273.184Z" fill="#49783F" stroke="#334C2A" stroke-width="2.66667" stroke-miterlimit="10"/>
</g>
<mask id="mask6_4_1381" style="mask-type:luminance" maskUnits="userSpaceOnUse" x="-159" y="-218" width="579" height="747">
<path d="M-158.594 -218H419.142V528.41H-158.594V-218Z" fill="white"/>
</mask>
<g mask="url(#mask6_4_1381)">
<path d="M162.589 33.4205C176.88 24.9452 195.347 29.6413 203.837 43.9089C212.326 58.1764 207.622 76.6124 193.331 85.0877C179.039 93.5621 131.168 87.0027 131.168 87.0027C131.168 87.0027 148.298 41.8958 162.589 33.4205Z" fill="#D34F32"/>
</g>
<mask id="mask7_4_1381" style="mask-type:luminance" maskUnits="userSpaceOnUse" x="-159" y="-218" width="579" height="747">
<path d="M-158.594 -218H419.142V528.41H-158.594V-218Z" fill="white"/>
</mask>
<g mask="url(#mask7_4_1381)">
<path d="M162.589 33.4205C176.88 24.9452 195.347 29.6413 203.837 43.9089C212.326 58.1764 207.622 76.6124 193.331 85.0877C179.039 93.5621 131.168 87.0027 131.168 87.0027C131.168 87.0027 148.298 41.8958 162.589 33.4205Z" stroke="#933B2E" stroke-width="4" stroke-miterlimit="10"/>
</g>
<mask id="mask8_4_1381" style="mask-type:luminance" maskUnits="userSpaceOnUse" x="-159" y="-218" width="579" height="747">
<path d="M-158.594 -218H419.142V528.41H-158.594V-218Z" fill="white"/>
</mask>
<g mask="url(#mask8_4_1381)">
<path d="M116.712 26.2599C121.344 10.3223 138.041 1.15149 154.004 5.77602C169.968 10.4006 179.155 27.0685 174.523 43.006C169.891 58.9436 130.451 86.8152 130.451 86.8152C130.451 86.8152 112.08 42.1974 116.712 26.2599Z" fill="#D34F32" stroke="#933B2E" stroke-width="4" stroke-miterlimit="10"/>
</g>
<mask id="mask9_4_1381" style="mask-type:luminance" maskUnits="userSpaceOnUse" x="-159" y="-218" width="579" height="747">
<path d="M-158.594 -218H419.142V528.41H-158.594V-218Z" fill="white"/>
</mask>
<g mask="url(#mask9_4_1381)">
<path d="M139.638 25.3861C149.626 12.1213 168.494 9.45142 181.782 19.4224C195.069 29.3934 197.743 48.2298 187.755 61.4946C177.768 74.7604 130.995 86.8726 130.995 86.8726C130.995 86.8726 129.65 38.6509 139.638 25.3861Z" fill="#D34F32"/>
</g>
<mask id="mask10_4_1381" style="mask-type:luminance" maskUnits="userSpaceOnUse" x="-159" y="-218" width="579" height="747">
<path d="M-158.594 -218H419.142V528.41H-158.594V-218Z" fill="white"/>
</mask>
<g mask="url(#mask10_4_1381)">
<path d="M139.638 25.3861C149.626 12.1213 168.494 9.45141 181.782 19.4224C195.069 29.3934 197.743 48.2298 187.755 61.4946C177.768 74.7604 130.995 86.8726 130.995 86.8726C130.995 86.8726 129.65 38.6509 139.638 25.3861Z" stroke="#933B2E" stroke-width="4" stroke-miterlimit="10"/>
</g>
</g>
<defs>
<clipPath id="clip0_4_1381">
<rect width="274" height="486" fill="white"/>
</clipPath>
</defs>
</svg>
