<svg width="386" height="440" viewBox="0 0 386 440" fill="none" xmlns="http://www.w3.org/2000/svg">
<g clip-path="url(#clip0_4_1739)">
<mask id="mask0_4_1739" style="mask-type:luminance" maskUnits="userSpaceOnUse" x="-159" y="-264" width="578" height="747">
<path d="M-158.359 -264H418.52V482.41H-158.359V-264Z" fill="white"/>
</mask>
<g mask="url(#mask0_4_1739)">
<path d="M16.7148 253.769L49.5583 423.829C49.5583 432.777 88.9501 440.03 137.544 440.03C186.137 440.03 225.529 432.777 225.529 423.829L256.391 255.471L16.7148 253.769Z" fill="#9C5F38"/>
<path d="M16.7148 253.769L49.5583 423.829C49.5583 432.777 88.9501 440.03 137.544 440.03C186.137 440.03 225.529 432.777 225.529 423.829L256.391 255.471L16.7148 253.769Z" stroke="#7F5036" stroke-width="2.66667" stroke-miterlimit="10"/>
<path d="M273.562 213.879C273.562 259.623 212.282 296.706 136.689 296.706C61.097 296.706 -0.183228 259.623 -0.183228 213.879C-0.183228 168.135 61.097 131.052 136.689 131.052C212.282 131.052 273.562 168.135 273.562 213.879Z" fill="#9C5F38"/>
<path d="M273.562 213.879C273.562 259.623 212.282 296.706 136.689 296.706C61.097 296.706 -0.183228 259.623 -0.183228 213.879C-0.183228 168.135 61.097 131.052 136.689 131.052C212.282 131.052 273.562 168.135 273.562 213.879Z" stroke="#7F5036" stroke-width="2.66667" stroke-miterlimit="10"/>
<path d="M266.892 205.924C266.892 236.801 208.429 261.832 136.31 261.832C64.1911 261.832 5.72742 236.801 5.72742 205.924C5.72742 175.047 64.1911 150.016 136.31 150.016C208.429 150.016 266.892 175.047 266.892 205.924Z" fill="#624537"/>
<path d="M266.892 205.924C266.892 236.801 208.429 261.832 136.31 261.832C64.1911 261.832 5.72742 236.801 5.72742 205.924C5.72742 175.047 64.1911 150.016 136.31 150.016C208.429 150.016 266.892 175.047 266.892 205.924Z" stroke="#463731" stroke-width="2.66667" stroke-miterlimit="10"/>
<path d="M174.403 167.598C182.328 158.207 196.368 157.018 205.761 164.942C215.153 172.866 216.343 186.902 208.418 196.294C200.493 205.684 165.461 212.694 165.461 212.694C165.461 212.694 166.477 176.99 174.403 167.598Z" fill="#AB6C53"/>
<path d="M174.403 167.598C182.328 158.207 196.368 157.018 205.761 164.942C215.153 172.866 216.343 186.902 208.418 196.294C200.493 205.684 165.461 212.694 165.461 212.694C165.461 212.694 166.477 176.99 174.403 167.598Z" stroke="#644E46" stroke-width="4" stroke-miterlimit="10"/>
<path d="M154.631 188.019C154.631 188.019 218.761 200.273 214.25 235.033C214.25 235.033 175.518 253.236 154.631 188.019Z" fill="#50624A"/>
<path d="M154.631 188.019C154.631 188.019 218.761 200.273 214.25 235.033C214.25 235.033 175.518 253.236 154.631 188.019Z" stroke="#3A3E38" stroke-width="2.66667" stroke-miterlimit="10"/>
<path d="M86.3804 224.125C86.3804 224.125 118.833 252.021 156.404 194.764C156.404 194.764 91.3319 189.424 86.3804 224.125Z" fill="#50624A" stroke="#3A3E38" stroke-width="2.66667" stroke-miterlimit="10"/>
<path d="M155.152 227.155C155.152 227.155 192.749 -23.3392 280.212 60.9938L266.893 61.7638C266.893 61.7638 194.022 -45.3668 140.701 228.152L155.152 227.155Z" fill="#50624A"/>
<path d="M155.152 227.155C155.152 227.155 192.749 -23.3392 280.212 60.9938L266.893 61.7638C266.893 61.7638 194.022 -45.3668 140.701 228.152L155.152 227.155Z" stroke="#3A3E38" stroke-width="2.66667" stroke-miterlimit="10"/>
<path d="M173.232 194.142C182.625 202.066 183.814 216.103 175.889 225.494C167.963 234.885 153.924 236.074 144.531 228.151C170.479 250.04 130.009 194.601 128.128 185.202C128.128 185.202 163.838 186.218 173.232 194.142Z" fill="#AB6C53"/>
<path d="M173.232 194.142C182.625 202.066 183.814 216.103 175.889 225.494C167.963 234.885 153.924 236.074 144.531 228.151C170.479 250.04 130.009 194.601 128.128 185.202C128.128 185.202 163.838 186.218 173.232 194.142Z" stroke="#644E46" stroke-width="4" stroke-miterlimit="10"/>
<path d="M241.057 132.042C225.499 147.598 200.274 147.598 184.715 132.042C169.157 116.487 169.157 91.2669 184.715 75.711C200.274 60.1561 263.827 52.9455 263.827 52.9455C263.827 52.9455 256.616 116.487 241.057 132.042Z" fill="#AB6C53"/>
<path d="M241.057 132.042C225.499 147.598 200.274 147.598 184.715 132.042C169.157 116.487 169.157 91.2669 184.715 75.711C200.274 60.1561 263.827 52.9455 263.827 52.9455C263.827 52.9455 256.616 116.487 241.057 132.042Z" stroke="#644E46" stroke-width="4" stroke-miterlimit="10"/>
<path d="M245.307 221.046C245.307 230.841 237.366 238.781 227.569 238.781C217.772 238.781 209.83 230.841 209.83 221.046C209.83 211.251 227.569 188.976 227.569 188.976C227.569 188.976 245.307 211.251 245.307 221.046Z" fill="#AB6C53"/>
<path d="M245.307 221.046C245.307 230.841 237.366 238.781 227.569 238.781C217.772 238.781 209.83 230.841 209.83 221.046C209.83 211.251 227.569 188.976 227.569 188.976C227.569 188.976 245.307 211.251 245.307 221.046Z" stroke="#644E46" stroke-width="4" stroke-miterlimit="10"/>
<path d="M342.939 75.7113C358.497 91.2671 358.497 116.487 342.939 132.043C327.381 147.597 302.156 147.597 286.597 132.043C271.039 116.487 263.827 52.9458 263.827 52.9458C263.827 52.9458 327.381 60.1554 342.939 75.7113Z" fill="#AB6C53"/>
<path d="M342.939 75.7112C358.497 91.2671 358.497 116.487 342.939 132.043C327.381 147.597 302.156 147.597 286.597 132.043C271.039 116.487 263.827 52.9458 263.827 52.9458C263.827 52.9458 327.381 60.1554 342.939 75.7112Z" stroke="#644E46" stroke-width="4" stroke-miterlimit="10"/>
<path d="M301.571 403.641C314.027 403.641 324.125 408.688 324.125 414.916C324.125 421.144 314.027 426.191 301.571 426.191C289.114 426.191 260.785 414.916 260.785 414.916C260.785 414.916 289.114 403.641 301.571 403.641Z" fill="#AB6C53"/>
<path d="M301.571 403.641C314.027 403.641 324.125 408.688 324.125 414.916C324.125 421.144 314.027 426.191 301.571 426.191C289.114 426.191 260.785 414.916 260.785 414.916C260.785 414.916 289.114 403.641 301.571 403.641Z" stroke="#644E46" stroke-width="4" stroke-miterlimit="10"/>
<path d="M374.159 39.1475C389.718 54.7034 389.718 79.923 374.159 95.4788C358.601 111.034 333.376 111.034 317.817 95.4788C302.26 79.923 295.048 16.382 295.048 16.382C295.048 16.382 358.601 23.5926 374.159 39.1475Z" fill="#AB6C53"/>
<path d="M374.159 39.1475C389.718 54.7034 389.718 79.923 374.159 95.4788C358.601 111.034 333.376 111.034 317.817 95.4788C302.26 79.923 295.048 16.382 295.048 16.382C295.048 16.382 358.601 23.5926 374.159 39.1475Z" stroke="#644E46" stroke-width="4" stroke-miterlimit="10"/>
<path d="M105.635 155.281C114.337 155.281 121.392 162.334 121.392 171.035C121.392 179.736 114.337 186.79 105.635 186.79C96.9329 186.79 77.1418 171.035 77.1418 171.035C77.1418 171.035 96.9329 155.281 105.635 155.281Z" fill="#AB6C53"/>
<path d="M105.635 155.281C114.337 155.281 121.392 162.334 121.392 171.035C121.392 179.736 114.337 186.79 105.635 186.79C96.9329 186.79 77.1418 171.035 77.1418 171.035C77.1418 171.035 96.9329 155.281 105.635 155.281Z" stroke="#644E46" stroke-width="4" stroke-miterlimit="10"/>
<path d="M222.641 86.6606C207.082 102.216 181.858 102.216 166.299 86.6606C150.741 71.1048 150.741 45.8852 166.299 30.3293C181.858 14.7744 245.411 7.5638 245.411 7.5638C245.411 7.5638 238.2 71.1057 222.641 86.6606Z" fill="#AB6C53"/>
<path d="M222.641 86.6606C207.082 102.216 181.858 102.216 166.299 86.6606C150.741 71.1048 150.741 45.8852 166.299 30.3293C181.858 14.7744 245.411 7.5638 245.411 7.5638C245.411 7.5638 238.2 71.1057 222.641 86.6606Z" stroke="#644E46" stroke-width="4" stroke-miterlimit="10"/>
<path d="M219.056 216.635C207.747 212.822 201.67 200.565 205.484 189.258C209.298 177.951 221.558 171.877 232.866 175.69C244.175 179.502 262.988 208.646 262.988 208.646C262.988 208.646 230.364 220.448 219.056 216.635Z" fill="#AB6C53"/>
<path d="M219.056 216.635C207.747 212.822 201.67 200.565 205.484 189.258C209.298 177.951 221.558 171.877 232.866 175.69C244.175 179.502 262.988 208.646 262.988 208.646C262.988 208.646 230.364 220.448 219.056 216.635Z" stroke="#644E46" stroke-width="4" stroke-miterlimit="10"/>
<path d="M324.512 61.7633C324.512 93.58 298.715 119.373 266.892 119.373C235.07 119.373 209.273 93.58 209.273 61.7633C209.273 29.9466 235.07 4.15405 266.892 4.15405C298.715 4.15405 324.512 29.9466 324.512 61.7633Z" fill="#B49A6D"/>
<path d="M324.512 61.7633C324.512 93.58 298.715 119.373 266.892 119.373C235.07 119.373 209.273 93.58 209.273 61.7633C209.273 29.9467 235.07 4.15405 266.892 4.15405C298.715 4.15405 324.512 29.9467 324.512 61.7633Z" stroke="#736852" stroke-width="4" stroke-miterlimit="10"/>
<path d="M311.451 104.634C318.832 104.895 279.717 109.826 262.745 123.747C262.745 123.747 268.944 107.765 286.244 98.9831C286.244 98.9831 293.035 94.3152 311.451 104.634Z" fill="#292929"/>
<path d="M311.451 104.634C318.832 104.895 279.717 109.826 262.745 123.747C262.745 123.747 268.944 107.765 286.244 98.9831C286.244 98.9831 293.035 94.3152 311.451 104.634Z" stroke="#B99C4E" stroke-width="2.66667" stroke-miterlimit="10"/>
<path d="M298.653 76.3546C300.725 80.7152 295.79 87.3914 287.633 91.2648C279.475 95.1392 271.182 94.7443 269.111 90.3837C267.039 86.0221 271.972 79.3468 280.131 75.4724C288.289 71.599 296.581 71.9939 298.653 76.3546Z" fill="#D99861"/>
<path d="M298.653 76.3546C300.725 80.7152 295.79 87.3914 287.633 91.2648C279.475 95.1392 271.182 94.7443 269.111 90.3837C267.039 86.0221 271.972 79.3468 280.131 75.4724C288.289 71.599 296.581 71.9939 298.653 76.3546Z" stroke="#A37252" stroke-width="4" stroke-miterlimit="10"/>
<path d="M98.0935 258.256C85.848 259.294 75.0796 250.209 74.0418 237.965C73.004 225.722 82.0898 214.956 94.3353 213.918C106.582 212.88 136.31 232.69 136.31 232.69C136.31 232.69 110.339 257.218 98.0935 258.256Z" fill="#AB6C53"/>
<path d="M98.0935 258.256C85.848 259.294 75.0796 250.209 74.0418 237.965C73.004 225.722 82.0898 214.956 94.3353 213.918C106.582 212.88 136.31 232.69 136.31 232.69C136.31 232.69 110.339 257.218 98.0935 258.256Z" stroke="#644E46" stroke-width="4" stroke-miterlimit="10"/>
<path d="M257.684 40.3948C256.017 39.6201 253.56 46.2973 251.866 55.8065C242.982 52.0113 236.051 50.4054 235.784 52.2243C235.518 54.0432 242.008 58.6715 250.801 63.084C249.672 72.8551 249.986 80.8197 251.654 81.5943C253.321 82.3681 255.778 75.6909 257.472 66.1817C266.356 69.9779 273.287 71.5838 273.554 69.7649C273.82 67.945 267.33 63.3177 258.537 58.9052C259.666 49.1331 259.352 41.1695 257.684 40.3948Z" fill="#292929"/>
<path d="M257.684 40.3948C256.017 39.6201 253.56 46.2973 251.866 55.8065C242.982 52.0113 236.051 50.4054 235.784 52.2243C235.518 54.0432 242.008 58.6715 250.801 63.084C249.672 72.8551 249.986 80.8197 251.654 81.5943C253.321 82.3681 255.778 75.6909 257.472 66.1817C266.356 69.9779 273.287 71.5838 273.554 69.7649C273.82 67.945 267.33 63.3177 258.537 58.9052C259.666 49.1331 259.352 41.1695 257.684 40.3948Z" stroke="#3E3E3D" stroke-width="2.66667" stroke-miterlimit="10"/>
<path d="M295.47 25.6043C293.803 24.8296 291.346 31.5067 289.652 41.0159C280.769 37.2207 273.837 35.6148 273.57 37.4337C273.304 39.2526 279.794 43.88 288.587 48.2934C287.458 58.0646 287.772 66.0291 289.44 66.8038C291.107 67.5776 293.564 60.9004 295.258 51.3912C304.142 55.1873 311.074 56.7933 311.34 54.9744C311.606 53.1545 305.116 48.5272 296.323 44.1147C297.452 34.3425 297.138 26.379 295.47 25.6043Z" fill="#292929"/>
<path d="M295.47 25.6043C293.803 24.8296 291.346 31.5067 289.652 41.0159C280.769 37.2207 273.837 35.6148 273.57 37.4337C273.304 39.2526 279.794 43.88 288.587 48.2934C287.458 58.0646 287.772 66.0291 289.44 66.8038C291.107 67.5776 293.564 60.9004 295.258 51.3912C304.142 55.1873 311.074 56.7933 311.34 54.9744C311.606 53.1545 305.116 48.5272 296.324 44.1147C297.452 34.3425 297.138 26.379 295.47 25.6043Z" stroke="#3E3E3D" stroke-width="2.66667" stroke-miterlimit="10"/>
</g>
</g>
<defs>
<clipPath id="clip0_4_1739">
<rect width="386" height="440" fill="white"/>
</clipPath>
</defs>
</svg>
