<svg width="297" height="569" viewBox="0 0 297 569" fill="none" xmlns="http://www.w3.org/2000/svg">
<g clip-path="url(#clip0_4_1638)">
<mask id="mask0_4_1638" style="mask-type:luminance" maskUnits="userSpaceOnUse" x="-159" y="-135" width="578" height="747">
<path d="M-158.4 -135H418.629V611.41H-158.4V-135Z" fill="white"/>
</mask>
<g mask="url(#mask0_4_1638)">
<path d="M16.7192 382.769L49.5711 552.829C49.5711 561.777 88.9731 569.03 137.579 569.03C186.185 569.03 225.587 561.777 225.587 552.829L256.458 384.471L16.7192 382.769Z" fill="#9C5F38"/>
<path d="M16.7192 382.769L49.5711 552.829C49.5711 561.777 88.9731 569.03 137.579 569.03C186.185 569.03 225.587 561.777 225.587 552.829L256.458 384.471L16.7192 382.769Z" stroke="#7F5036" stroke-width="2.66667" stroke-miterlimit="10"/>
<path d="M273.633 342.879C273.633 388.623 212.337 425.706 136.724 425.706C61.1129 425.706 -0.183228 388.623 -0.183228 342.879C-0.183228 297.135 61.1129 260.052 136.724 260.052C212.337 260.052 273.633 297.135 273.633 342.879Z" fill="#9C5F38"/>
<path d="M273.633 342.879C273.633 388.623 212.337 425.706 136.724 425.706C61.1129 425.706 -0.183228 388.623 -0.183228 342.879C-0.183228 297.135 61.1129 260.052 136.724 260.052C212.337 260.052 273.633 297.135 273.633 342.879Z" stroke="#7F5036" stroke-width="2.66667" stroke-miterlimit="10"/>
<path d="M266.962 334.924C266.962 365.801 208.483 390.832 136.346 390.832C64.2078 390.832 5.72894 365.801 5.72894 334.924C5.72894 304.047 64.2078 279.016 136.346 279.016C208.483 279.016 266.962 304.047 266.962 334.924Z" fill="#624537"/>
<path d="M266.962 334.924C266.962 365.801 208.483 390.832 136.346 390.832C64.2078 390.832 5.72894 365.801 5.72894 334.924C5.72894 304.047 64.2078 279.016 136.346 279.016C208.483 279.016 266.962 304.047 266.962 334.924Z" stroke="#463731" stroke-width="2.66667" stroke-miterlimit="10"/>
<path d="M174.448 296.598C182.376 287.207 196.419 286.018 205.814 293.942C215.209 301.866 216.399 315.902 208.472 325.294C200.545 334.684 165.504 341.694 165.504 341.694C165.504 341.694 166.521 305.99 174.448 296.598Z" fill="#C7734C"/>
<path d="M174.448 296.598C182.376 287.207 196.419 286.018 205.814 293.942C215.209 301.866 216.399 315.902 208.472 325.294C200.545 334.684 165.504 341.694 165.504 341.694C165.504 341.694 166.521 305.99 174.448 296.598Z" stroke="#895C47" stroke-width="4" stroke-miterlimit="10"/>
<path d="M141.674 333.765C141.674 333.765 191.626 291.714 215.779 317.126C215.779 317.126 205.495 358.663 141.674 333.765Z" fill="#587B4D"/>
<path d="M141.674 333.765C141.674 333.765 191.626 291.714 215.779 317.126C215.779 317.126 205.495 358.663 141.674 333.765Z" stroke="#434E3F" stroke-width="2.66667" stroke-miterlimit="10"/>
<path d="M62.2402 313.8C62.2402 313.8 72.5249 355.337 136.345 330.439C136.345 330.439 86.3934 288.387 62.2402 313.8Z" fill="#587B4D" stroke="#434E3F" stroke-width="2.66667" stroke-miterlimit="10"/>
<path d="M155.192 356.155C155.192 356.155 111.672 158.984 206.376 92.2754H192.374C192.374 92.2754 113.836 119.66 140.737 357.152L155.192 356.155Z" fill="#587B4D"/>
<path d="M155.192 356.155C155.192 356.155 111.672 158.984 206.376 92.2754H192.374C192.374 92.2754 113.836 119.66 140.737 357.152L155.192 356.155Z" stroke="#434E3F" stroke-width="2.66667" stroke-miterlimit="10"/>
<path d="M173.276 323.142C182.672 331.066 183.862 345.103 175.934 354.494C168.007 363.885 153.964 365.074 144.568 357.151C170.523 379.04 130.043 323.601 128.161 314.202C128.161 314.202 163.881 315.218 173.276 323.142Z" fill="#C7734C"/>
<path d="M173.276 323.142C182.672 331.066 183.862 345.103 175.934 354.494C168.007 363.885 153.964 365.074 144.568 357.151C170.523 379.04 130.043 323.601 128.161 314.202C128.161 314.202 163.881 315.218 173.276 323.142Z" stroke="#895C47" stroke-width="4" stroke-miterlimit="10"/>
<path d="M162.099 178.543C146.536 194.099 121.305 194.099 105.743 178.543C90.1807 162.987 90.1807 137.768 105.743 122.212C121.305 106.657 184.875 99.4465 184.875 99.4465C184.875 99.4465 177.662 162.987 162.099 178.543Z" fill="#C7734C"/>
<path d="M162.099 178.543C146.536 194.099 121.305 194.099 105.743 178.543C90.1807 162.987 90.1807 137.768 105.743 122.212C121.305 106.657 184.875 99.4465 184.875 99.4465C184.875 99.4465 177.662 162.987 162.099 178.543Z" stroke="#895C47" stroke-width="4" stroke-miterlimit="10"/>
<path d="M224.725 171.474C224.725 193.473 206.883 211.306 184.875 211.306C162.867 211.306 145.025 193.473 145.025 171.474C145.025 149.476 184.875 99.4467 184.875 99.4467C184.875 99.4467 224.725 149.476 224.725 171.474Z" fill="#C7734C"/>
<path d="M224.725 171.474C224.725 193.473 206.883 211.306 184.875 211.306C162.867 211.306 145.025 193.473 145.025 171.474C145.025 149.476 184.875 99.4467 184.875 99.4467C184.875 99.4467 224.725 149.476 224.725 171.474Z" stroke="#895C47" stroke-width="4" stroke-miterlimit="10"/>
<path d="M264.007 122.212C279.57 137.768 279.57 162.988 264.007 178.544C248.445 194.098 223.214 194.098 207.651 178.544C192.089 162.988 184.875 99.4467 184.875 99.4467C184.875 99.4467 248.445 106.657 264.007 122.212Z" fill="#C7734C"/>
<path d="M264.007 122.212C279.57 137.768 279.57 162.988 264.007 178.544C248.445 194.098 223.214 194.098 207.651 178.544C192.089 162.988 184.875 99.4467 184.875 99.4467C184.875 99.4467 248.445 106.657 264.007 122.212Z" stroke="#895C47" stroke-width="4" stroke-miterlimit="10"/>
<path d="M256.935 59.6142C278.943 59.6142 296.785 77.4479 296.785 99.4462C296.785 121.445 278.943 139.278 256.935 139.278C234.927 139.278 184.875 99.4462 184.875 99.4462C184.875 99.4462 234.927 59.6142 256.935 59.6142Z" fill="#C7734C"/>
<path d="M256.935 59.6142C278.943 59.6142 296.785 77.4479 296.785 99.4462C296.785 121.445 278.943 139.278 256.935 139.278C234.927 139.278 184.875 99.4462 184.875 99.4462C184.875 99.4462 234.927 59.6142 256.935 59.6142Z" stroke="#895C47" stroke-width="4" stroke-miterlimit="10"/>
<path d="M264.007 43.1151C279.569 58.67 279.569 83.8905 264.007 99.4464C248.445 115.001 223.214 115.001 207.651 99.4464C192.089 83.8905 184.875 20.3496 184.875 20.3496C184.875 20.3496 248.445 27.5592 264.007 43.1151Z" fill="#C7734C"/>
<path d="M264.007 43.1151C279.569 58.67 279.569 83.8905 264.007 99.4464C248.445 115.001 223.214 115.001 207.651 99.4464C192.089 83.8905 184.875 20.3496 184.875 20.3496C184.875 20.3496 248.445 27.5592 264.007 43.1151Z" stroke="#895C47" stroke-width="4" stroke-miterlimit="10"/>
<path d="M200.98 3.68424C222.988 3.68424 240.83 21.518 240.83 43.5163C240.83 65.5147 222.988 83.3484 200.98 83.3484C178.972 83.3484 128.92 43.5163 128.92 43.5163C128.92 43.5163 178.972 3.68424 200.98 3.68424Z" fill="#C7734C"/>
<path d="M200.98 3.68424C222.988 3.68424 240.83 21.518 240.83 43.5163C240.83 65.5147 222.988 83.3484 200.98 83.3484C178.972 83.3484 128.92 43.5163 128.92 43.5163C128.92 43.5163 178.972 3.68424 200.98 3.68424Z" stroke="#895C47" stroke-width="4" stroke-miterlimit="10"/>
<path d="M129.204 99.73C107.196 99.73 89.354 81.8963 89.354 59.8979C89.354 37.8996 107.196 20.0658 129.204 20.0658C151.212 20.0658 201.264 59.8979 201.264 59.8979C201.264 59.8979 151.212 99.73 129.204 99.73Z" fill="#C7734C"/>
<path d="M129.204 99.73C107.196 99.73 89.354 81.8963 89.354 59.8979C89.354 37.8996 107.196 20.0658 129.204 20.0658C151.212 20.0658 201.264 59.8979 201.264 59.8979C201.264 59.8979 151.212 99.73 129.204 99.73Z" stroke="#895C47" stroke-width="4" stroke-miterlimit="10"/>
<path d="M161.535 127.428C154.502 148.274 131.895 159.474 111.04 152.444C90.1857 145.415 78.9808 122.818 86.0135 101.972C93.0454 81.1273 146.8 46.4484 146.8 46.4484C146.8 46.4484 168.567 106.582 161.535 127.428Z" fill="#C7734C"/>
<path d="M161.535 127.428C154.502 148.274 131.895 159.474 111.04 152.444C90.1857 145.415 78.9808 122.818 86.0135 101.972C93.0454 81.1273 146.8 46.4484 146.8 46.4484C146.8 46.4484 168.567 106.582 161.535 127.428Z" stroke="#895C47" stroke-width="4" stroke-miterlimit="10"/>
<path d="M252.871 85.9597C252.871 123.941 222.067 154.73 184.069 154.73C146.071 154.73 115.268 123.941 115.268 85.9597C115.268 47.9786 146.071 17.1892 184.069 17.1892C222.067 17.1892 252.871 47.9786 252.871 85.9597Z" fill="#D0AF68"/>
<path d="M252.871 85.9597C252.871 123.941 222.067 154.73 184.069 154.73C146.071 154.73 115.268 123.941 115.268 85.9597C115.268 47.9786 146.071 17.1892 184.069 17.1892C222.067 17.1892 252.871 47.9786 252.871 85.9597Z" stroke="#8D7B56" stroke-width="4" stroke-miterlimit="10"/>
<path d="M237.275 137.136C246.088 137.448 199.382 143.334 179.117 159.953C179.117 159.953 186.519 140.874 207.177 130.39C207.177 130.39 215.285 124.818 237.275 137.136Z" fill="#292929"/>
<path d="M237.275 137.136C246.088 137.448 199.382 143.334 179.117 159.953C179.117 159.953 186.519 140.874 207.177 130.39C207.177 130.39 215.285 124.818 237.275 137.136Z" stroke="#B99C4E" stroke-width="2.66667" stroke-miterlimit="10"/>
<path d="M182.284 68.0536C187.847 82.4097 185.516 96.6952 177.079 99.9626C168.64 103.229 157.291 94.2392 151.728 79.883C146.165 65.5269 148.496 51.2415 156.934 47.975C165.372 44.7076 176.721 53.6975 182.284 68.0536Z" fill="white"/>
<path d="M182.284 68.0536C187.847 82.4097 185.516 96.6952 177.079 99.9626C168.64 103.229 157.291 94.2392 151.728 79.883C146.165 65.5269 148.496 51.2415 156.934 47.975C165.372 44.7075 176.721 53.6975 182.284 68.0536Z" stroke="#B99C4E" stroke-width="2.66667" stroke-miterlimit="10"/>
<path d="M164.167 56.3884C160.441 58.0914 159.026 63.3756 160.253 69.3177L171.382 68.2094L165.829 80.4968C169.371 84.4541 173.746 86.2853 177.132 84.7387C181.93 82.5466 182.917 74.4228 179.336 66.595C175.756 58.7661 168.965 54.1963 164.167 56.3884Z" fill="#292929"/>
<path d="M164.167 56.3884C160.441 58.0914 159.026 63.3756 160.253 69.3177L171.382 68.2094L165.829 80.4968C169.371 84.4541 173.746 86.2853 177.132 84.7387C181.93 82.5466 182.917 74.4228 179.336 66.595C175.756 58.7661 168.965 54.1963 164.167 56.3884Z" stroke="#3E3E3D" stroke-width="2.66667" stroke-miterlimit="10"/>
<path d="M224.839 51.5788C230.402 65.935 228.072 80.2204 219.634 83.4869C211.195 86.7543 199.846 77.7644 194.283 63.4083C188.721 49.0522 191.051 34.7667 199.489 31.5002C207.927 28.2328 219.277 37.2227 224.839 51.5788Z" fill="white"/>
<path d="M224.839 51.5788C230.402 65.935 228.072 80.2204 219.634 83.4869C211.195 86.7543 199.846 77.7644 194.283 63.4083C188.721 49.0522 191.051 34.7667 199.489 31.5002C207.927 28.2328 219.277 37.2227 224.839 51.5788Z" stroke="#B99C4E" stroke-width="2.66667" stroke-miterlimit="10"/>
<path d="M207.346 41.665C203.62 43.368 202.205 48.6522 203.431 54.5943L214.561 53.486L209.007 65.7734C212.55 69.7307 216.925 71.5619 220.311 70.0154C225.109 67.8232 226.096 59.6994 222.515 51.8716C218.935 44.0427 212.143 39.4729 207.346 41.665Z" fill="#292929"/>
<path d="M207.346 41.665C203.62 43.368 202.205 48.6522 203.431 54.5943L214.561 53.486L209.007 65.7734C212.55 69.7307 216.925 71.5619 220.311 70.0154C225.109 67.8232 226.096 59.6994 222.515 51.8716C218.935 44.0427 212.143 39.4729 207.346 41.665Z" stroke="#3E3E3D" stroke-width="2.66667" stroke-miterlimit="10"/>
<path d="M221.993 103.378C224.467 108.584 218.575 116.552 208.835 121.177C199.093 125.801 189.191 125.33 186.718 120.125C184.244 114.919 190.136 106.95 199.877 102.325C209.617 97.7007 219.519 98.1719 221.993 103.378Z" fill="#D99861"/>
<path d="M221.993 103.378C224.467 108.584 218.575 116.552 208.835 121.177C199.093 125.801 189.191 125.33 186.718 120.125C184.244 114.919 190.136 106.95 199.877 102.325C209.617 97.7007 219.519 98.1719 221.993 103.378Z" stroke="#A37252" stroke-width="4" stroke-miterlimit="10"/>
<path d="M189.401 372.899C177.153 373.936 166.382 364.852 165.344 352.608C164.305 340.365 173.394 329.598 185.642 328.561C197.892 327.523 227.628 347.332 227.628 347.332C227.628 347.332 201.65 371.861 189.401 372.899Z" fill="#C7734C"/>
<path d="M189.401 372.899C177.153 373.936 166.382 364.852 165.344 352.608C164.305 340.365 173.394 329.598 185.642 328.561C197.892 327.523 227.628 347.332 227.628 347.332C227.628 347.332 201.65 371.861 189.401 372.899Z" stroke="#895C47" stroke-width="4" stroke-miterlimit="10"/>
</g>
</g>
<defs>
<clipPath id="clip0_4_1638">
<rect width="297" height="569" fill="white"/>
</clipPath>
</defs>
</svg>
