<svg width="274" height="403" viewBox="0 0 274 403" fill="none" xmlns="http://www.w3.org/2000/svg">
<g clip-path="url(#clip0_4_1427)">
<mask id="mask0_4_1427" style="mask-type:luminance" maskUnits="userSpaceOnUse" x="-159" y="-301" width="579" height="747">
<path d="M-158.594 -301H419.142V445.41H-158.594V-301Z" fill="white"/>
</mask>
<g mask="url(#mask0_4_1427)">
<path d="M16.9202 216.422L49.8124 386.483C49.8124 395.43 89.2628 402.683 137.929 402.683C186.594 402.683 226.045 395.43 226.045 386.483L256.953 218.124L16.9202 216.422Z" fill="#985724" stroke="#7A4521" stroke-width="2.66667" stroke-miterlimit="10"/>
</g>
<mask id="mask1_4_1427" style="mask-type:luminance" maskUnits="userSpaceOnUse" x="-159" y="-301" width="579" height="747">
<path d="M-158.594 -301H419.142V445.41H-158.594V-301Z" fill="white"/>
</mask>
<g mask="url(#mask1_4_1427)">
<path d="M274.149 176.532C274.149 222.276 212.778 259.359 137.073 259.359C61.3684 259.359 -0.00292969 222.276 -0.00292969 176.532C-0.00292969 130.788 61.3684 93.7052 137.073 93.7052C212.778 93.7052 274.149 130.788 274.149 176.532Z" fill="#985724" stroke="#7A4521" stroke-width="2.66667" stroke-miterlimit="10"/>
</g>
<mask id="mask2_4_1427" style="mask-type:luminance" maskUnits="userSpaceOnUse" x="-159" y="-301" width="579" height="747">
<path d="M-158.594 -301H419.142V445.41H-158.594V-301Z" fill="white"/>
</mask>
<g mask="url(#mask2_4_1427)">
<path d="M267.47 168.578C267.47 199.455 208.919 224.486 136.693 224.486C64.467 224.486 5.91644 199.455 5.91644 168.578C5.91644 137.701 64.467 112.67 136.693 112.67C208.919 112.67 267.47 137.701 267.47 168.578Z" fill="#5A3723" stroke="#382217" stroke-width="2.66667" stroke-miterlimit="10"/>
</g>
<mask id="mask3_4_1427" style="mask-type:luminance" maskUnits="userSpaceOnUse" x="-159" y="-301" width="579" height="747">
<path d="M-158.594 -301H419.142V445.41H-158.594V-301Z" fill="white"/>
</mask>
<g mask="url(#mask3_4_1427)">
<path d="M117.467 156.612C117.467 156.612 153.663 154.554 155.928 173.856C155.928 173.856 137.527 188.867 117.467 156.612Z" fill="#44613D" stroke="#2C3A25" stroke-width="2.66667" stroke-miterlimit="10"/>
</g>
<mask id="mask4_4_1427" style="mask-type:luminance" maskUnits="userSpaceOnUse" x="-159" y="-301" width="579" height="747">
<path d="M-158.594 -301H419.142V445.41H-158.594V-301Z" fill="white"/>
</mask>
<g mask="url(#mask4_4_1427)">
<path d="M83.5342 172.588C83.5342 172.588 99.7986 186.519 118.583 157.872C118.583 157.872 85.9962 155.235 83.5342 172.588Z" fill="#44613D" stroke="#2C3A25" stroke-width="2.66667" stroke-miterlimit="10"/>
</g>
<mask id="mask5_4_1427" style="mask-type:luminance" maskUnits="userSpaceOnUse" x="-159" y="-301" width="579" height="747">
<path d="M-158.594 -301H419.142V445.41H-158.594V-301Z" fill="white"/>
</mask>
<g mask="url(#mask5_4_1427)">
<path d="M132.783 190.184C132.783 190.184 67.4905 39.4136 176.273 8.43009H159.584C159.584 8.43009 64.1666 28.3881 124.653 190.806L132.783 190.184Z" fill="#44613D" stroke="#2C3A25" stroke-width="2.66667" stroke-miterlimit="10"/>
</g>
<mask id="mask6_4_1427" style="mask-type:luminance" maskUnits="userSpaceOnUse" x="-159" y="-301" width="579" height="747">
<path d="M-158.594 -301H419.142V445.41H-158.594V-301Z" fill="white"/>
</mask>
<g mask="url(#mask6_4_1427)">
<path d="M220.275 25.5814C230.409 37.0735 229.746 54.748 218.795 65.0582C207.844 75.3675 190.751 74.41 180.617 62.9179C170.484 51.4259 167.267 6.62245 167.267 6.62245C167.267 6.62245 210.142 14.0894 220.275 25.5814Z" fill="#B35040"/>
</g>
<mask id="mask7_4_1427" style="mask-type:luminance" maskUnits="userSpaceOnUse" x="-159" y="-301" width="579" height="747">
<path d="M-158.594 -301H419.142V445.41H-158.594V-301Z" fill="white"/>
</mask>
<g mask="url(#mask7_4_1427)">
<path d="M220.275 25.5814C230.409 37.0735 229.746 54.748 218.795 65.0582C207.844 75.3675 190.751 74.41 180.617 62.9179C170.484 51.4259 167.267 6.62245 167.267 6.62245C167.267 6.62245 210.142 14.0894 220.275 25.5814Z" stroke="#773D38" stroke-width="4" stroke-miterlimit="10"/>
</g>
<mask id="mask8_4_1427" style="mask-type:luminance" maskUnits="userSpaceOnUse" x="-159" y="-301" width="579" height="747">
<path d="M-158.594 -301H419.142V445.41H-158.594V-301Z" fill="white"/>
</mask>
<g mask="url(#mask8_4_1427)">
<path d="M205.282 40.4722C211.567 54.0056 205.418 70.4699 191.545 77.2461C177.674 84.0222 161.333 78.5447 155.047 65.0104C148.762 51.477 159.584 8.42935 159.584 8.42935C159.584 8.42935 198.997 26.9388 205.282 40.4722Z" fill="#B35040"/>
</g>
<mask id="mask9_4_1427" style="mask-type:luminance" maskUnits="userSpaceOnUse" x="-159" y="-301" width="579" height="747">
<path d="M-158.594 -301H419.142V445.41H-158.594V-301Z" fill="white"/>
</mask>
<g mask="url(#mask9_4_1427)">
<path d="M205.282 40.4722C211.567 54.0056 205.418 70.4699 191.545 77.2461C177.674 84.0222 161.333 78.5447 155.047 65.0104C148.762 51.477 159.584 8.42935 159.584 8.42935C159.584 8.42935 198.997 26.9388 205.282 40.4722Z" stroke="#773D38" stroke-width="4" stroke-miterlimit="10"/>
</g>
<mask id="mask10_4_1427" style="mask-type:luminance" maskUnits="userSpaceOnUse" x="-159" y="-301" width="579" height="747">
<path d="M-158.594 -301H419.142V445.41H-158.594V-301Z" fill="white"/>
</mask>
<g mask="url(#mask10_4_1427)">
<path d="M206.415 171.153C214.39 173.128 219.982 178.982 218.906 184.228C217.829 189.475 210.491 192.126 202.515 190.152C194.54 188.176 178.352 174.186 178.352 174.186C178.352 174.186 198.439 169.178 206.415 171.153Z" fill="#B35040"/>
</g>
<mask id="mask11_4_1427" style="mask-type:luminance" maskUnits="userSpaceOnUse" x="-159" y="-301" width="579" height="747">
<path d="M-158.594 -301H419.142V445.41H-158.594V-301Z" fill="white"/>
</mask>
<g mask="url(#mask11_4_1427)">
<path d="M206.415 171.153C214.39 173.128 219.982 178.982 218.906 184.228C217.829 189.475 210.491 192.126 202.515 190.152C194.54 188.176 178.352 174.186 178.352 174.186C178.352 174.186 198.439 169.178 206.415 171.153Z" stroke="#773D38" stroke-width="4" stroke-miterlimit="10"/>
</g>
</g>
<defs>
<clipPath id="clip0_4_1427">
<rect width="274" height="403" fill="white"/>
</clipPath>
</defs>
</svg>
