<?xml version="1.0" encoding="UTF-8" standalone="no"?>
<svg
   xmlns:dc="http://purl.org/dc/elements/1.1/"
   xmlns:cc="http://creativecommons.org/ns#"
   xmlns:rdf="http://www.w3.org/1999/02/22-rdf-syntax-ns#"
   xmlns:svg="http://www.w3.org/2000/svg"
   xmlns="http://www.w3.org/2000/svg"
   viewBox="0 0 816 1056"
   height="1056"
   width="816"
   xml:space="preserve"
   id="svg2"
   version="1.1"><metadata
     id="metadata8"><rdf:RDF><cc:Work
         rdf:about=""><dc:format>image/svg+xml</dc:format><dc:type
           rdf:resource="http://purl.org/dc/dcmitype/StillImage" /></cc:Work></rdf:RDF></metadata><defs
     id="defs6"><clipPath
       id="clipPath18"
       clipPathUnits="userSpaceOnUse"><path
         id="path16"
         d="M 0,792 H 612 V 0 H 0 Z" /></clipPath></defs><g
     transform="matrix(1.3333333,0,0,-1.3333333,0,1056)"
     id="g10"><g
       id="g12"><g
         clip-path="url(#clipPath18)"
         id="g14"><g
           transform="translate(185.7325,242.6063)"
           id="g20"><path
             id="path22"
             style="fill:#9c5f38;fill-opacity:1;fill-rule:nonzero;stroke:none"
             d="m 0,0 34.843,-180.448 c 0,-9.494 41.79,-17.19 93.342,-17.19 51.552,0 93.342,7.696 93.342,17.19 l 32.741,178.642 z" /></g><g
           transform="translate(185.7325,242.6063)"
           id="g24"><path
             id="path26"
             style="fill:none;stroke:#7f5036;stroke-width:2;stroke-linecap:butt;stroke-linejoin:miter;stroke-miterlimit:10;stroke-dasharray:none;stroke-opacity:1"
             d="m 0,0 34.843,-180.448 c 0,-9.494 41.79,-17.19 93.342,-17.19 51.552,0 93.342,7.696 93.342,17.19 l 32.741,178.642 z" /></g><g
           transform="translate(458.2167,284.9326)"
           id="g28"><path
             id="path30"
             style="fill:#9c5f38;fill-opacity:1;fill-rule:nonzero;stroke:none"
             d="m 0,0 c 0,-48.538 -65.011,-87.886 -145.206,-87.886 -80.194,0 -145.205,39.348 -145.205,87.886 0,48.538 65.011,87.886 145.205,87.886 C -65.011,87.886 0,48.538 0,0" /></g><g
           transform="translate(458.2167,284.9326)"
           id="g32"><path
             id="path34"
             style="fill:none;stroke:#7f5036;stroke-width:2;stroke-linecap:butt;stroke-linejoin:miter;stroke-miterlimit:10;stroke-dasharray:none;stroke-opacity:1"
             d="m 0,0 c 0,-48.538 -65.011,-87.886 -145.206,-87.886 -80.194,0 -145.205,39.348 -145.205,87.886 0,48.538 65.011,87.886 145.205,87.886 C -65.011,87.886 0,48.538 0,0 Z" /></g><g
           transform="translate(451.1412,293.3732)"
           id="g36"><path
             id="path38"
             style="fill:#624537;fill-opacity:1;fill-rule:nonzero;stroke:none"
             d="m 0,0 c 0,-32.763 -62.023,-59.323 -138.532,-59.323 -76.51,0 -138.533,26.56 -138.533,59.323 0,32.763 62.023,59.323 138.533,59.323 C -62.023,59.323 0,32.763 0,0" /></g><g
           transform="translate(451.1412,293.3732)"
           id="g40"><path
             id="path42"
             style="fill:none;stroke:#463731;stroke-width:2;stroke-linecap:butt;stroke-linejoin:miter;stroke-miterlimit:10;stroke-dasharray:none;stroke-opacity:1"
             d="m 0,0 c 0,-32.763 -62.023,-59.323 -138.532,-59.323 -76.51,0 -138.533,26.56 -138.533,59.323 0,32.763 62.023,59.323 138.533,59.323 C -62.023,59.323 0,32.763 0,0 Z" /></g><g
           transform="translate(353.0208,334.0399)"
           id="g44"><path
             id="path46"
             style="fill:#ab6c53;fill-opacity:1;fill-rule:nonzero;stroke:none"
             d="m 0,0 c 8.408,9.965 23.302,11.227 33.267,2.819 9.964,-8.408 11.226,-23.302 2.819,-33.267 -8.408,-9.964 -45.572,-17.402 -45.572,-17.402 0,0 1.078,37.885 9.486,47.85" /></g><g
           transform="translate(353.0208,334.0399)"
           id="g48"><path
             id="path50"
             style="fill:none;stroke:#644e46;stroke-width:3;stroke-linecap:butt;stroke-linejoin:miter;stroke-miterlimit:10;stroke-dasharray:none;stroke-opacity:1"
             d="m 0,0 c 8.408,9.965 23.302,11.227 33.267,2.819 9.964,-8.408 11.226,-23.302 2.819,-33.267 -8.408,-9.964 -45.572,-17.402 -45.572,-17.402 0,0 1.078,37.885 9.486,47.85 z" /></g><g
           transform="translate(332.0449,312.3719)"
           id="g52"><path
             id="path54"
             style="fill:#50624a;fill-opacity:1;fill-rule:nonzero;stroke:none"
             d="M 0,0 C 0,0 68.035,-13.002 63.249,-49.886 63.249,-49.886 22.159,-69.2 0,0" /></g><g
           transform="translate(332.0449,312.3719)"
           id="g56"><path
             id="path58"
             style="fill:none;stroke:#3a3e38;stroke-width:2;stroke-linecap:butt;stroke-linejoin:miter;stroke-miterlimit:10;stroke-dasharray:none;stroke-opacity:1"
             d="M 0,0 C 0,0 68.035,-13.002 63.249,-49.886 63.249,-49.886 22.159,-69.2 0,0 Z" /></g><g
           transform="translate(259.6394,274.0604)"
           id="g60"><path
             id="path62"
             style="fill:#50624a;fill-opacity:1;fill-rule:nonzero;stroke:#3a3e38;stroke-width:2;stroke-linecap:butt;stroke-linejoin:miter;stroke-miterlimit:10;stroke-dasharray:none;stroke-opacity:1"
             d="M 0,0 C 0,0 34.428,-29.6 74.287,31.154 74.287,31.154 5.253,36.82 0,0" /></g><g
           transform="translate(332.5976,270.8457)"
           id="g64"><path
             id="path66"
             style="fill:#50624a;fill-opacity:1;fill-rule:nonzero;stroke:none"
             d="m 0,0 c 0,0 39.886,265.794 132.674,176.31 l -14.13,-0.817 c 0,0 -77.307,113.674 -133.875,-176.551 z" /></g><g
           transform="translate(332.5976,270.8457)"
           id="g68"><path
             id="path70"
             style="fill:none;stroke:#3a3e38;stroke-width:2;stroke-linecap:butt;stroke-linejoin:miter;stroke-miterlimit:10;stroke-dasharray:none;stroke-opacity:1"
             d="m 0,0 c 0,0 39.886,265.794 132.674,176.31 l -14.13,-0.817 c 0,0 -77.307,113.674 -133.875,-176.551 z" /></g><g
           transform="translate(351.7781,305.8745)"
           id="g72"><path
             id="path74"
             style="fill:#ab6c53;fill-opacity:1;fill-rule:nonzero;stroke:none"
             d="M 0,0 C 9.965,-8.408 11.227,-23.302 2.819,-33.267 -5.589,-43.231 -20.483,-44.493 -30.448,-36.086 -2.92,-59.312 -45.854,-0.487 -47.85,9.486 -47.85,9.486 -9.965,8.408 0,0" /></g><g
           transform="translate(351.7781,305.8745)"
           id="g76"><path
             id="path78"
             style="fill:none;stroke:#644e46;stroke-width:3;stroke-linecap:butt;stroke-linejoin:miter;stroke-miterlimit:10;stroke-dasharray:none;stroke-opacity:1"
             d="M 0,0 C 9.965,-8.408 11.227,-23.302 2.819,-33.267 -5.589,-43.231 -20.483,-44.493 -30.448,-36.086 -2.92,-59.312 -45.854,-0.487 -47.85,9.486 -47.85,9.486 -9.965,8.408 0,0 Z" /></g><g
           transform="translate(423.7327,371.7676)"
           id="g80"><path
             id="path82"
             style="fill:#ab6c53;fill-opacity:1;fill-rule:nonzero;stroke:none"
             d="m 0,0 c -16.505,-16.506 -43.266,-16.506 -59.772,0 -16.505,16.505 -16.505,43.266 0,59.772 16.506,16.505 83.928,24.156 83.928,24.156 0,0 -7.65,-67.423 -24.156,-83.928" /></g><g
           transform="translate(423.7327,371.7676)"
           id="g84"><path
             id="path86"
             style="fill:none;stroke:#644e46;stroke-width:3;stroke-linecap:butt;stroke-linejoin:miter;stroke-miterlimit:10;stroke-dasharray:none;stroke-opacity:1"
             d="m 0,0 c -16.505,-16.506 -43.266,-16.506 -59.772,0 -16.505,16.505 -16.505,43.266 0,59.772 16.506,16.505 83.928,24.156 83.928,24.156 0,0 -7.65,-67.423 -24.156,-83.928 z" /></g><g
           transform="translate(428.242,277.3272)"
           id="g88"><path
             id="path90"
             style="fill:#ab6c53;fill-opacity:1;fill-rule:nonzero;stroke:none"
             d="m 0,0 c 0,-10.393 -8.425,-18.818 -18.818,-18.818 -10.394,0 -18.819,8.425 -18.819,18.818 0,10.393 18.819,34.029 18.819,34.029 C -18.818,34.029 0,10.393 0,0" /></g><g
           transform="translate(428.242,277.3272)"
           id="g92"><path
             id="path94"
             style="fill:none;stroke:#644e46;stroke-width:3;stroke-linecap:butt;stroke-linejoin:miter;stroke-miterlimit:10;stroke-dasharray:none;stroke-opacity:1"
             d="m 0,0 c 0,-10.393 -8.425,-18.818 -18.818,-18.818 -10.394,0 -18.819,8.425 -18.819,18.818 0,10.393 18.819,34.029 18.819,34.029 C -18.818,34.029 0,10.393 0,0 Z" /></g><g
           transform="translate(531.8174,431.5393)"
           id="g96"><path
             id="path98"
             style="fill:#ab6c53;fill-opacity:1;fill-rule:nonzero;stroke:none"
             d="m 0,0 c 16.505,-16.506 16.505,-43.266 0,-59.772 -16.505,-16.505 -43.266,-16.505 -59.772,0 -16.505,16.506 -24.156,83.928 -24.156,83.928 0,0 67.423,-7.65 83.928,-24.156" /></g><g
           transform="translate(531.8174,431.5393)"
           id="g100"><path
             id="path102"
             style="fill:none;stroke:#644e46;stroke-width:3;stroke-linecap:butt;stroke-linejoin:miter;stroke-miterlimit:10;stroke-dasharray:none;stroke-opacity:1"
             d="m 0,0 c 16.505,-16.506 16.505,-43.266 0,-59.772 -16.505,-16.505 -43.266,-16.505 -59.772,0 -16.505,16.506 -24.156,83.928 -24.156,83.928 0,0 67.423,-7.65 83.928,-24.156 z" /></g><g
           transform="translate(487.9305,83.58)"
           id="g104"><path
             id="path106"
             style="fill:#ab6c53;fill-opacity:1;fill-rule:nonzero;stroke:none"
             d="m 0,0 c 13.215,0 23.928,-5.356 23.928,-11.964 0,-6.608 -10.713,-11.964 -23.928,-11.964 -13.215,0 -43.269,11.964 -43.269,11.964 0,0 30.054,11.964 43.269,11.964" /></g><g
           transform="translate(487.9305,83.58)"
           id="g108"><path
             id="path110"
             style="fill:none;stroke:#644e46;stroke-width:3;stroke-linecap:butt;stroke-linejoin:miter;stroke-miterlimit:10;stroke-dasharray:none;stroke-opacity:1"
             d="m 0,0 c 13.215,0 23.928,-5.356 23.928,-11.964 0,-6.608 -10.713,-11.964 -23.928,-11.964 -13.215,0 -43.269,11.964 -43.269,11.964 0,0 30.054,11.964 43.269,11.964 z" /></g><g
           transform="translate(564.9384,470.3363)"
           id="g112"><path
             id="path114"
             style="fill:#ab6c53;fill-opacity:1;fill-rule:nonzero;stroke:none"
             d="m 0,0 c 16.506,-16.506 16.506,-43.266 0,-59.772 -16.505,-16.505 -43.266,-16.505 -59.772,0 -16.505,16.506 -24.156,83.928 -24.156,83.928 0,0 67.423,-7.651 83.928,-24.156" /></g><g
           transform="translate(564.9384,470.3363)"
           id="g116"><path
             id="path118"
             style="fill:none;stroke:#644e46;stroke-width:3;stroke-linecap:butt;stroke-linejoin:miter;stroke-miterlimit:10;stroke-dasharray:none;stroke-opacity:1"
             d="m 0,0 c 16.506,-16.506 16.506,-43.266 0,-59.772 -16.505,-16.505 -43.266,-16.505 -59.772,0 -16.505,16.506 -24.156,83.928 -24.156,83.928 0,0 67.423,-7.651 83.928,-24.156 z" /></g><g
           transform="translate(280.0664,347.1093)"
           id="g120"><path
             id="path122"
             style="fill:#ab6c53;fill-opacity:1;fill-rule:nonzero;stroke:none"
             d="m 0,0 c 9.232,0 16.716,-7.484 16.716,-16.716 0,-9.233 -7.484,-16.717 -16.716,-16.717 -9.232,0 -30.228,16.717 -30.228,16.717 C -30.228,-16.716 -9.232,0 0,0" /></g><g
           transform="translate(280.0664,347.1093)"
           id="g124"><path
             id="path126"
             style="fill:none;stroke:#644e46;stroke-width:3;stroke-linecap:butt;stroke-linejoin:miter;stroke-miterlimit:10;stroke-dasharray:none;stroke-opacity:1"
             d="m 0,0 c 9.232,0 16.716,-7.484 16.716,-16.716 0,-9.233 -7.484,-16.717 -16.716,-16.717 -9.232,0 -30.228,16.717 -30.228,16.717 C -30.228,-16.716 -9.232,0 0,0 Z" /></g><g
           transform="translate(404.1958,419.9212)"
           id="g128"><path
             id="path130"
             style="fill:#ab6c53;fill-opacity:1;fill-rule:nonzero;stroke:none"
             d="m 0,0 c -16.506,-16.506 -43.266,-16.505 -59.772,0 -16.505,16.506 -16.505,43.266 0,59.772 16.506,16.505 83.928,24.156 83.928,24.156 0,0 -7.65,-67.423 -24.156,-83.928" /></g><g
           transform="translate(404.1958,419.9212)"
           id="g132"><path
             id="path134"
             style="fill:none;stroke:#644e46;stroke-width:3;stroke-linecap:butt;stroke-linejoin:miter;stroke-miterlimit:10;stroke-dasharray:none;stroke-opacity:1"
             d="m 0,0 c -16.506,-16.506 -43.266,-16.505 -59.772,0 -16.505,16.506 -16.505,43.266 0,59.772 16.506,16.505 83.928,24.156 83.928,24.156 0,0 -7.65,-67.423 -24.156,-83.928 z" /></g><g
           transform="translate(400.3922,282.0083)"
           id="g136"><path
             id="path138"
             style="fill:#ab6c53;fill-opacity:1;fill-rule:nonzero;stroke:none"
             d="M 0,0 C -11.997,4.046 -18.444,17.051 -14.398,29.049 -10.352,41.046 2.654,47.492 14.651,43.446 26.648,39.401 46.607,8.477 46.607,8.477 46.607,8.477 11.997,-4.046 0,0" /></g><g
           transform="translate(400.3922,282.0083)"
           id="g140"><path
             id="path142"
             style="fill:none;stroke:#644e46;stroke-width:3;stroke-linecap:butt;stroke-linejoin:miter;stroke-miterlimit:10;stroke-dasharray:none;stroke-opacity:1"
             d="M 0,0 C -11.997,4.046 -18.444,17.051 -14.398,29.049 -10.352,41.046 2.654,47.492 14.651,43.446 26.648,39.401 46.607,8.477 46.607,8.477 46.607,8.477 11.997,-4.046 0,0 Z" /></g><g
           transform="translate(512.2687,446.3391)"
           id="g144"><path
             id="path146"
             style="fill:#b49a6d;fill-opacity:1;fill-rule:nonzero;stroke:none"
             d="m 0,0 c 0,-33.76 -27.368,-61.128 -61.128,-61.128 -33.759,0 -61.127,27.368 -61.127,61.128 0,33.76 27.368,61.128 61.127,61.128 C -27.368,61.128 0,33.76 0,0" /></g><g
           transform="translate(512.2687,446.3391)"
           id="g148"><path
             id="path150"
             style="fill:none;stroke:#736852;stroke-width:3;stroke-linecap:butt;stroke-linejoin:miter;stroke-miterlimit:10;stroke-dasharray:none;stroke-opacity:1"
             d="m 0,0 c 0,-33.76 -27.368,-61.128 -61.128,-61.128 -33.759,0 -61.127,27.368 -61.127,61.128 0,33.76 27.368,61.128 61.127,61.128 C -27.368,61.128 0,33.76 0,0 Z" /></g><g
           transform="translate(498.4123,400.85)"
           id="g152"><path
             id="path154"
             style="fill:#292929;fill-opacity:1;fill-rule:nonzero;stroke:none"
             d="m 0,0 c 7.83,-0.277 -33.666,-5.509 -51.671,-20.28 0,0 6.576,16.958 24.93,26.276 0,0 7.204,4.953 26.741,-5.996" /></g><g
           transform="translate(498.4123,400.85)"
           id="g156"><path
             id="path158"
             style="fill:none;stroke:#b99c4e;stroke-width:2;stroke-linecap:butt;stroke-linejoin:miter;stroke-miterlimit:10;stroke-dasharray:none;stroke-opacity:1"
             d="m 0,0 c 7.83,-0.277 -33.666,-5.509 -51.671,-20.28 0,0 6.576,16.958 24.93,26.276 0,0 7.204,4.953 26.741,-5.996 z" /></g><g
           transform="translate(484.8353,430.8567)"
           id="g160"><path
             id="path162"
             style="fill:#d99861;fill-opacity:1;fill-rule:nonzero;stroke:none"
             d="m 0,0 c 2.198,-4.627 -3.037,-11.711 -11.691,-15.821 -8.655,-4.111 -17.452,-3.692 -19.65,0.935 -2.198,4.628 3.036,11.711 11.691,15.822 C -10.995,5.046 -2.198,4.627 0,0" /></g><g
           transform="translate(484.8353,430.8567)"
           id="g164"><path
             id="path166"
             style="fill:none;stroke:#a37252;stroke-width:3;stroke-linecap:butt;stroke-linejoin:miter;stroke-miterlimit:10;stroke-dasharray:none;stroke-opacity:1"
             d="m 0,0 c 2.198,-4.627 -3.037,-11.711 -11.691,-15.821 -8.655,-4.111 -17.452,-3.692 -19.65,0.935 -2.198,4.628 3.036,11.711 11.691,15.822 C -10.995,5.046 -2.198,4.627 0,0 Z" /></g><g
           transform="translate(272.0656,237.8448)"
           id="g168"><path
             id="path170"
             style="fill:#ab6c53;fill-opacity:1;fill-rule:nonzero;stroke:none"
             d="m 0,0 c -12.991,-1.101 -24.415,8.538 -25.516,21.53 -1.101,12.991 8.538,24.415 21.529,25.516 C 9.005,48.147 40.543,27.128 40.543,27.128 40.543,27.128 12.991,1.101 0,0" /></g><g
           transform="translate(272.0656,237.8448)"
           id="g172"><path
             id="path174"
             style="fill:none;stroke:#644e46;stroke-width:3;stroke-linecap:butt;stroke-linejoin:miter;stroke-miterlimit:10;stroke-dasharray:none;stroke-opacity:1"
             d="m 0,0 c -12.991,-1.101 -24.415,8.538 -25.516,21.53 -1.101,12.991 8.538,24.415 21.529,25.516 C 9.005,48.147 40.543,27.128 40.543,27.128 40.543,27.128 12.991,1.101 0,0 Z" /></g><g
           transform="translate(441.3725,469.0129)"
           id="g176"><path
             id="path178"
             style="fill:#292929;fill-opacity:1;fill-rule:nonzero;stroke:none"
             d="m 0,0 c -1.769,0.822 -4.376,-6.263 -6.173,-16.353 -9.424,4.027 -16.778,5.731 -17.061,3.801 -0.282,-1.93 6.603,-6.841 15.931,-11.523 -1.197,-10.368 -0.864,-18.819 0.905,-19.641 1.769,-0.821 4.376,6.264 6.173,16.354 9.424,-4.028 16.778,-5.732 17.061,-3.802 0.282,1.931 -6.603,6.841 -15.931,11.523 C 2.102,-9.272 1.769,-0.822 0,0" /></g><g
           transform="translate(441.3725,469.0129)"
           id="g180"><path
             id="path182"
             style="fill:none;stroke:#3e3e3d;stroke-width:2;stroke-linecap:butt;stroke-linejoin:miter;stroke-miterlimit:10;stroke-dasharray:none;stroke-opacity:1"
             d="m 0,0 c -1.769,0.822 -4.376,-6.263 -6.173,-16.353 -9.424,4.027 -16.778,5.731 -17.061,3.801 -0.282,-1.93 6.603,-6.841 15.931,-11.523 -1.197,-10.368 -0.864,-18.819 0.905,-19.641 1.769,-0.821 4.376,6.264 6.173,16.354 9.424,-4.028 16.778,-5.732 17.061,-3.802 0.282,1.931 -6.603,6.841 -15.931,11.523 C 2.102,-9.272 1.769,-0.822 0,0 Z" /></g><g
           transform="translate(481.459,484.7069)"
           id="g184"><path
             id="path186"
             style="fill:#292929;fill-opacity:1;fill-rule:nonzero;stroke:none"
             d="m 0,0 c -1.769,0.822 -4.376,-6.263 -6.173,-16.353 -9.424,4.027 -16.778,5.731 -17.061,3.801 -0.282,-1.93 6.603,-6.84 15.931,-11.523 -1.197,-10.368 -0.864,-18.819 0.905,-19.641 1.769,-0.821 4.376,6.264 6.173,16.354 9.424,-4.028 16.778,-5.732 17.061,-3.802 0.282,1.931 -6.603,6.841 -15.931,11.523 C 2.102,-9.272 1.769,-0.822 0,0" /></g><g
           transform="translate(481.459,484.7069)"
           id="g188"><path
             id="path190"
             style="fill:none;stroke:#3e3e3d;stroke-width:2;stroke-linecap:butt;stroke-linejoin:miter;stroke-miterlimit:10;stroke-dasharray:none;stroke-opacity:1"
             d="m 0,0 c -1.769,0.822 -4.376,-6.263 -6.173,-16.353 -9.424,4.027 -16.778,5.731 -17.061,3.801 -0.282,-1.93 6.603,-6.84 15.931,-11.523 -1.197,-10.368 -0.864,-18.819 0.905,-19.641 1.769,-0.821 4.376,6.264 6.173,16.354 9.424,-4.028 16.778,-5.732 17.061,-3.802 0.282,1.931 -6.603,6.841 -15.931,11.523 C 2.102,-9.272 1.769,-0.822 0,0 Z" /></g></g></g></g></svg>