<?xml version="1.0" encoding="UTF-8"?>
<svg id="Layer_1" data-name="Layer 1" xmlns="http://www.w3.org/2000/svg" viewBox="0 0 315.31 594.66">
  <defs>
    <style>
      .cls-1 {
        fill: #543a26;
        stroke: #38231e;
      }

      .cls-1, .cls-2, .cls-3, .cls-4, .cls-5, .cls-6, .cls-7, .cls-8, .cls-9, .cls-10 {
        stroke-miterlimit: 10;
      }

      .cls-1, .cls-2, .cls-3, .cls-7, .cls-9, .cls-10 {
        stroke-width: 3px;
      }

      .cls-2 {
        fill: #a38845;
        stroke: #8e6b3f;
      }

      .cls-3, .cls-10 {
        stroke: #b98742;
      }

      .cls-4 {
        fill: #716942;
        stroke: #45412d;
      }

      .cls-4, .cls-5, .cls-6, .cls-8 {
        stroke-width: 2px;
      }

      .cls-5 {
        fill: #5a3723;
        stroke: #382217;
      }

      .cls-6 {
        fill: #995724;
        stroke: #7a4521;
      }

      .cls-7 {
        fill: #c4a937;
        stroke: #c58d39;
      }

      .cls-8 {
        fill: #231e26;
        stroke: #0d0d0d;
      }

      .cls-9 {
        fill: #d69c68;
        stroke: #9b6642;
      }

      .cls-10 {
        fill: #c9a644;
      }
    </style>
  </defs>
  <g>
    <g>
      <path class="cls-6" d="M18.93,396.02l34.84,180.45c0,9.49,41.79,17.19,93.34,17.19s93.34-7.7,93.34-17.19l32.74-178.64-254.27-1.81Z"/>
      <ellipse class="cls-6" cx="146.21" cy="353.7" rx="145.21" ry="87.89"/>
      <ellipse class="cls-5" cx="145.8" cy="345.26" rx="138.53" ry="59.32"/>
    </g>
    <g>
      <g>
        <path class="cls-4" d="M158.1,225.14s30.22,62.33,64.6,48.13c0,0,7.98-44.7-64.6-48.13Z"/>
        <path class="cls-4" d="M79,271.45s-5.85-45.02,66.81-45.01c0,0-33.14,60.82-66.81,45.01"/>
      </g>
      <path class="cls-4" d="M165.79,367.78s-45.13-198.58,55.31-269.36l-14.31,1.87s-95.27,37.18-56.33,268.54l15.33-1.06Z"/>
    </g>
    <g>
      <g>
        <path class="cls-2" d="M248.63,54.98c0,8.72-5.09,16.77-11.17,23.28-9.77,10.46-30.66,10.46-40.44,0-6.08-6.51-11.17-14.56-11.17-23.28,0-9.56,6.12-24.5,12.96-38.2,10.17-20.38,26.7-20.38,36.87,0,6.84,13.7,12.96,28.64,12.96,38.2Z"/>
        <path class="cls-2" d="M269.61,88.68c-6.12,6.12-15.37,8.17-24.24,8.44-14.25.43-29.02-14.34-28.59-28.59.27-8.87,2.32-18.12,8.44-24.24,6.71-6.71,21.52-12.86,35.98-17.65,21.5-7.11,33.18,4.57,26.07,26.07-4.78,14.45-10.94,29.27-17.65,35.98Z"/>
        <path class="cls-10" d="M257.17,358.83c-6.03-5.91-9.02-14.01-10.44-21.57-2.28-12.15,8.32-22.96,20.51-20.93,7.59,1.27,15.74,4.09,21.78,10,6.61,6.48,13.84,19.78,19.86,32.61,8.94,19.09.56,27.64-18.7,19.08-12.95-5.75-26.39-12.72-33.01-19.2Z"/>
        <path class="cls-2" d="M228.45,149.92c-8.24-8.24-12.25-19.45-14.1-29.91-2.98-16.8,11.8-31.57,28.59-28.59,10.45,1.85,21.67,5.86,29.91,14.1,9.04,9.04,18.83,27.49,26.95,45.27,12.07,26.46.39,38.14-26.07,26.07-17.79-8.12-36.24-17.91-45.27-26.95Z"/>
        <path class="cls-2" d="M185.27,351.68c-7.58-2.24-13.6-7.63-18.09-13.26-7.21-9.05-3.19-22.64,7.79-26.3,6.83-2.28,14.81-3.52,22.4-1.27,8.31,2.46,20.12,10.29,30.72,18.27,15.76,11.86,12.58,22.61-7.1,23.98-13.23.92-27.4,1.06-35.71-1.41Z"/>
        <path class="cls-2" d="M152.94,104.96c8.24-8.24,19.45-12.25,29.91-14.1,16.8-2.98,31.57,11.8,28.59,28.59-1.85,10.45-5.86,21.67-14.1,29.91-9.04,9.04-27.49,18.83-45.27,26.95-26.46,12.07-38.14.39-26.07-26.07,8.12-17.79,17.91-36.24,26.95-45.27Z"/>
        <path class="cls-2" d="M157.05,58.45c9.23-3.6,19.61-2.18,28.71.81,14.62,4.79,22.21,24.26,14.68,37.68-4.68,8.35-11.36,16.42-20.59,20.02-10.12,3.94-28.16,4.4-45.16,3.69-25.27-1.07-31.27-16.46-13.39-34.35,12.03-12.03,25.62-23.89,35.74-27.84Z"/>
        <path class="cls-2" d="M207.8,42.82c6.53,6.53,8.95,16.16,9.53,25.33.92,14.74-13.85,29.51-28.59,28.59-9.17-.57-18.8-3-25.33-9.53-7.16-7.16-14.01-22.67-19.43-37.76-8.07-22.45,3.62-34.13,26.07-26.07,15.09,5.42,30.61,12.28,37.76,19.43Z"/>
      </g>
      <g>
        <path class="cls-7" d="M257.55,72.13c-3.42,8-11.26,13.38-19.41,16.96-13.09,5.75-32.3-2.47-37.18-15.9-3.04-8.36-4.56-17.75-1.14-25.75,3.75-8.77,15.24-20.06,26.9-29.94,17.35-14.69,32.54-8.2,33.9,14.5.91,15.26.68,31.37-3.07,40.13Z"/>
        <path class="cls-7" d="M249.2,107.11c-9.05-1.01-16.85-7.01-22.94-13.81-9.78-10.93-7.46-31.69,4.49-40.19,7.44-5.29,16.36-9.42,25.42-8.41,9.93,1.11,24.76,8.93,38.23,17.31,20.04,12.47,18.2,28.89-4.09,36.64-14.99,5.21-31.18,9.56-41.11,8.45Z"/>
        <path class="cls-7" d="M238.61,133.64c-7.86-8.61-11.36-19.99-12.73-30.52-2.21-16.92,13.21-31,29.86-27.27,10.36,2.32,21.38,6.84,29.24,15.44,8.62,9.44,17.56,28.31,24.87,46.45,10.86,26.98-1.34,38.12-27.22,24.86-17.4-8.91-35.39-19.53-44.01-28.97Z"/>
        <path class="cls-7" d="M203.97,157.12c-4.34-10.82-3.61-22.7-1.21-33.04,3.87-16.61,23.26-24.39,37.53-15.05,8.88,5.81,17.62,13.91,21.95,24.73,4.75,11.86,6.5,32.68,6.97,52.22.7,29.07-14.64,35.22-34.22,13.72-13.16-14.46-26.28-30.72-31.03-42.58Z"/>
        <path class="cls-7" d="M210.03,278.82c8.31-1.46,16.63.82,23.6,4.07,11.2,5.22,13.82,20.12,5.07,28.84-5.44,5.43-12.48,10.41-20.8,11.88-9.12,1.6-24.13-.26-38.05-2.84-20.71-3.84-22.78-15.62-4.63-26.3,12.21-7.18,25.68-14.05,34.8-15.65Z"/>
        <path class="cls-7" d="M138.8,87.88c8.34-8.14,19.6-12.02,30.07-13.75,16.83-2.78,31.43,12.17,28.25,28.93-1.98,10.43-6.12,21.6-14.46,29.74-9.14,8.93-27.71,18.5-45.59,26.4-26.6,11.76-38.14-.07-25.76-26.38,8.33-17.69,18.34-36.02,27.48-44.95Z"/>
        <path class="cls-7" d="M185.08,52.24c8.97,3.84,15.26,12.06,19.57,20.52,6.92,13.59-1.29,32.8-15.9,37.18-9.09,2.73-19.38,3.86-28.35.03-9.84-4.21-22.81-16.41-34.22-28.73-16.98-18.32-10.48-33.52,14.5-33.9,16.79-.25,34.57.69,44.41,4.9Z"/>
        <path class="cls-7" d="M225.31,46.07c3.3,8.22,1.61,17.71-1.57,26.11-5.12,13.5-24.51,21.27-37.53,15.05-8.11-3.88-15.88-9.57-19.17-17.8-3.61-9.01-3.58-25.38-2.41-40.84,1.74-23,17.08-29.15,34.22-13.72,11.53,10.38,22.86,22.19,26.47,31.2Z"/>
      </g>
    </g>
    <g>
      <circle class="cls-1" cx="208.48" cy="93.31" r="72.97"/>
      <path class="cls-3" d="M207.61,175.96s24.74-18.47,56.9-25.98c0,0-13.45-18.41-37.11.17,0,0-16.26,12.4-19.78,25.8Z"/>
    </g>
  </g>
  <g>
    <path class="cls-8" d="M208.41,87.06c6.27-2.98,13.62-1.03,17.67,4.28-.23-.96-.56-1.91-1-2.84-3.42-7.2-12.03-10.27-19.23-6.85s-10.27,12.03-6.85,19.23c.44.93.97,1.78,1.57,2.57-1.56-6.5,1.57-13.42,7.85-16.4Z"/>
    <path class="cls-8" d="M145.16,93.43c-4.27,2.03-5,9.44-1.62,16.56l11.53,24.28c4.51,9.5,19.71,11.73,33.94,4.97,14.23-6.76,22.1-19.94,17.59-29.44l-11.53-24.28c-3.38-7.12-9.58-11.24-13.86-9.21l-36.05,17.12Z"/>
    <path class="cls-8" d="M216.72,59.44c-4.27,2.03-5,9.44-1.62,16.56l11.53,24.28c4.51,9.5,19.71,11.73,33.94,4.97s22.1-19.94,17.59-29.44l-11.53-24.28c-3.38-7.12-9.58-11.24-13.86-9.21l-36.05,17.12Z"/>
  </g>
  <path class="cls-9" d="M216.32,121.33l-1.56,13.95c-.69,6.19,5.58,10.81,11.28,8.31l12.86-5.62c5.71-2.5,6.57-10.23,1.56-13.93l-11.3-8.32c-5.01-3.69-12.15-.57-12.84,5.62Z"/>
  <g>
    <path class="cls-4" d="M156.61,271.9s33.77,60.48,67.27,44.32c0,0,5.39-45.08-67.27-44.32Z"/>
    <path class="cls-4" d="M76.18,319.57s-7.67-44.75,64.93-47.68c0,0-30.66,62.11-64.93,47.68"/>
  </g>
  <g>
    <path class="cls-4" d="M159.6,325.25s39.99,56.55,71.59,36.93c0,0,.58-45.4-71.59-36.93Z"/>
    <path class="cls-4" d="M73.2,363.04s-1.69-45.37,70.66-38.68c0,0-38.59,57.52-70.66,38.68"/>
  </g>
</svg>