<?xml version="1.0" encoding="UTF-8"?>
<svg id="Layer_1" data-name="Layer 1" xmlns="http://www.w3.org/2000/svg" viewBox="0 0 295.76 406">
  <defs>
    <style>
      .cls-1 {
        fill: #30241b;
        stroke: #171110;
      }

      .cls-1, .cls-2, .cls-3, .cls-4, .cls-5 {
        stroke-miterlimit: 10;
      }

      .cls-1, .cls-5 {
        stroke-width: 3px;
      }

      .cls-2 {
        fill: #474733;
        stroke: #21211d;
      }

      .cls-2, .cls-3, .cls-4 {
        stroke-width: 2px;
      }

      .cls-3 {
        fill: #5a3723;
        stroke: #382217;
      }

      .cls-4 {
        fill: #995724;
        stroke: #7a4521;
      }

      .cls-5 {
        fill: #ad9737;
        stroke: #886742;
      }
    </style>
  </defs>
  <g>
    <g>
      <path class="cls-4" d="M18.93,207.36l34.84,180.45c0,9.49,41.79,17.19,93.34,17.19s93.34-7.7,93.34-17.19l32.74-178.64-254.27-1.81Z"/>
      <ellipse class="cls-4" cx="146.21" cy="165.04" rx="145.21" ry="87.89"/>
      <ellipse class="cls-3" cx="145.8" cy="156.6" rx="138.53" ry="59.32"/>
    </g>
    <g>
      <g>
        <path class="cls-2" d="M124.15,140.52s40.42,32.27,24.42,54.97c0,0-33.87-1.54-24.42-54.97Z"/>
        <path class="cls-2" d="M71.86,177.91s29.14,17.34,50.63-32.48c0,0-51.51,4.72-50.63,32.48"/>
      </g>
      <path class="cls-2" d="M217.64,45.45s-98.06,12.13-106.91,134.73h8s8.16-109.25,109.3-135.38l-10.4.64Z"/>
    </g>
    <g>
      <g>
        <path class="cls-5" d="M241.06,43.11c-5.77-5.74-8.6-13.56-9.92-20.86-2.12-11.73,8.17-22.08,19.91-20.03,7.31,1.27,15.15,4.05,20.92,9.79,6.33,6.29,13.21,19.16,18.92,31.57,8.49,18.45.36,26.64-18.15,18.27-12.44-5.63-25.35-12.43-31.68-18.72Z"/>
        <path class="cls-5" d="M188.66,197.13c-4.77-1.54-8.5-5.05-11.26-8.68-4.43-5.85-1.67-14.4,5.34-16.55,4.36-1.34,9.44-2,14.21-.46,5.23,1.69,12.59,6.83,19.19,12.05,9.81,7.76,7.62,14.52-4.87,15.09-8.4.38-17.38.25-22.61-1.44Z"/>
        <path class="cls-5" d="M227.75,88.02c0-8.14,3.56-15.66,7.81-21.74,6.83-9.77,21.42-9.77,28.25,0,4.25,6.08,7.81,13.6,7.81,21.74,0,8.93-4.28,22.88-9.05,35.67-7.1,19.03-18.65,19.03-25.75,0-4.78-12.79-9.05-26.74-9.05-35.67Z"/>
        <path class="cls-5" d="M213.4,142.16c5.66-2.27,11.88-1.89,17.28-.63,8.69,2.02,12.76,12.17,7.87,19.63-3.04,4.65-7.28,9.21-12.93,11.48-6.2,2.49-17.09,3.4-27.32,3.65-15.21.36-18.42-7.66-7.17-17.9,7.56-6.88,16.07-13.74,22.27-16.23Z"/>
        <path class="cls-5" d="M194.66,78.43c3.2-7.48,9.43-13,15.73-16.92,10.12-6.29,23.53-.56,25.97,11.11,1.52,7.26,1.83,15.57-1.37,23.06-3.51,8.21-12.93,19.35-22.35,29.24-14.02,14.7-24.63,10.16-23.68-10.13.64-13.64,2.19-28.15,5.7-36.36Z"/>
        <path class="cls-5" d="M99.5,201.29c-6.18,0-11.89-2.7-16.5-5.92-7.41-5.18-7.41-16.26,0-21.44,4.61-3.22,10.32-5.92,16.5-5.92,6.77,0,17.36,3.25,27.07,6.87,14.44,5.39,14.44,14.15,0,19.54-9.71,3.62-20.3,6.87-27.07,6.87Z"/>
        <path class="cls-5" d="M170.55,48.71c3.46-7.37,9.87-12.67,16.3-16.37,10.33-5.94,23.54.25,25.57,11.99,1.27,7.31,1.3,15.63-2.16,23-3.79,8.08-13.58,19.9-23.34,29.45-14.51,14.22-24.96,8.32-23.32-11.93,1.11-13.61,3.16-28.06,6.94-36.14Z"/>
        <path class="cls-5" d="M190.26,5.55c7.11-3.96,15.41-4.52,22.79-3.77,11.85,1.21,18.96,13.95,13.75,24.67-3.24,6.67-8.08,13.44-15.19,17.4-7.8,4.35-22.06,7.4-35.56,9.46-20.08,3.06-25.7-7.02-12.54-22.49,8.85-10.4,18.95-20.93,26.75-25.28Z"/>
      </g>
      <circle class="cls-1" cx="228.48" cy="53.3" r="42.82"/>
    </g>
  </g>
  <g>
    <path class="cls-2" d="M151.3,93.51s28.18,37.85,8.8,54.17c0,0-29.53-9.22-8.8-54.17Z"/>
    <path class="cls-2" d="M108.07,132.81s29.47,9.41,38.31-39.31c0,0-44.81,14.81-38.31,39.31"/>
  </g>
</svg>