<svg width="295" height="616" viewBox="0 0 295 616" fill="none" xmlns="http://www.w3.org/2000/svg">
<g clip-path="url(#clip0_4_2942)">
<mask id="mask0_4_2942" style="mask-type:luminance" maskUnits="userSpaceOnUse" x="-159" y="-88" width="571" height="738">
<path d="M-158.011 -87.9999H411.989V649.524H-158.011V-87.9999Z" fill="white"/>
</mask>
<g mask="url(#mask0_4_2942)">
<path d="M19.7615 431.74L52.2133 599.776C52.2133 608.617 91.1353 615.784 139.149 615.784C187.164 615.784 226.086 608.617 226.086 599.776L256.58 433.422L19.7615 431.74Z" fill="#985724" stroke="#7A4521" stroke-width="2.66667" stroke-miterlimit="10"/>
</g>
<mask id="mask1_4_2942" style="mask-type:luminance" maskUnits="userSpaceOnUse" x="-159" y="-88" width="571" height="738">
<path d="M-158.011 -87.9999H411.989V649.524H-158.011V-87.9999Z" fill="white"/>
</mask>
<g mask="url(#mask1_4_2942)">
<path d="M273.546 392.325C273.546 437.524 212.996 474.166 138.305 474.166C63.6144 474.166 3.06494 437.524 3.06494 392.325C3.06494 347.125 63.6144 310.484 138.305 310.484C212.996 310.484 273.546 347.125 273.546 392.325Z" fill="#985724" stroke="#7A4521" stroke-width="2.66667" stroke-miterlimit="10"/>
</g>
<mask id="mask2_4_2942" style="mask-type:luminance" maskUnits="userSpaceOnUse" x="-159" y="-88" width="571" height="738">
<path d="M-158.011 -87.9999H411.989V649.524H-158.011V-87.9999Z" fill="white"/>
</mask>
<g mask="url(#mask2_4_2942)">
<path d="M266.956 384.465C266.956 414.974 209.189 439.708 137.931 439.708C66.6715 439.708 8.90503 414.974 8.90503 384.465C8.90503 353.955 66.6715 329.222 137.931 329.222C209.189 329.222 266.956 353.955 266.956 384.465Z" fill="#5A3723" stroke="#382217" stroke-width="2.66667" stroke-miterlimit="10"/>
</g>
<mask id="mask3_4_2942" style="mask-type:luminance" maskUnits="userSpaceOnUse" x="-159" y="-88" width="571" height="738">
<path d="M-158.011 -87.9999H411.989V649.524H-158.011V-87.9999Z" fill="white"/>
</mask>
<g mask="url(#mask3_4_2942)">
<path d="M143.194 383.32C143.194 383.32 192.538 341.769 216.396 366.879C216.396 366.879 206.238 407.922 143.194 383.32Z" fill="#898042" stroke="#5B582F" stroke-width="2.66667" stroke-miterlimit="10"/>
</g>
<mask id="mask4_4_2942" style="mask-type:luminance" maskUnits="userSpaceOnUse" x="-159" y="-88" width="571" height="738">
<path d="M-158.011 -87.9999H411.989V649.524H-158.011V-87.9999Z" fill="white"/>
</mask>
<g mask="url(#mask4_4_2942)">
<path d="M56.9607 360.169C56.9607 360.169 67.1201 401.211 130.163 376.609C130.163 376.609 80.8197 335.059 56.9607 360.169Z" fill="#898042" stroke="#5B582F" stroke-width="2.66667" stroke-miterlimit="10"/>
</g>
<mask id="mask5_4_2942" style="mask-type:luminance" maskUnits="userSpaceOnUse" x="-159" y="-88" width="571" height="738">
<path d="M-158.011 -87.9999H411.989V649.524H-158.011V-87.9999Z" fill="white"/>
</mask>
<g mask="url(#mask5_4_2942)">
<path d="M156.548 405.443C156.548 405.443 70.5307 168.151 164.081 102.237H149.171C149.171 102.237 55.1584 158.194 142.269 406.428L156.548 405.443Z" fill="#898042" stroke="#5B582F" stroke-width="2.66667" stroke-miterlimit="10"/>
</g>
<mask id="mask6_4_2942" style="mask-type:luminance" maskUnits="userSpaceOnUse" x="-159" y="-88" width="571" height="738">
<path d="M-158.011 -87.9999H411.989V649.524H-158.011V-87.9999Z" fill="white"/>
</mask>
<g mask="url(#mask6_4_2942)">
<path d="M213.079 69.4424C213.079 80.2948 208.337 90.3193 202.671 98.4228C193.569 111.443 174.112 111.443 165.008 98.4228C159.344 90.3193 154.6 80.2948 154.6 69.4424C154.6 57.5424 160.303 38.945 166.672 21.8879C176.145 -3.48401 191.535 -3.48401 201.008 21.8879C207.377 38.945 213.079 57.5424 213.079 69.4424Z" fill="#C9A744" stroke="#B98742" stroke-width="4" stroke-miterlimit="10"/>
</g>
<mask id="mask7_4_2942" style="mask-type:luminance" maskUnits="userSpaceOnUse" x="-159" y="-88" width="571" height="738">
<path d="M-158.011 -87.9999H411.989V649.524H-158.011V-87.9999Z" fill="white"/>
</mask>
<g mask="url(#mask7_4_2942)">
<path d="M239.677 103.533C232.001 111.207 221.559 114.942 211.821 116.667C196.176 119.438 182.418 105.682 185.19 90.0395C186.914 80.3046 190.651 69.8629 198.326 62.1887C206.742 53.7742 223.927 44.6567 240.493 37.097C265.135 25.8535 276.018 36.7348 264.772 61.372C257.213 77.9365 248.093 95.1184 239.677 103.533Z" fill="#C9A744" stroke="#B98742" stroke-width="4" stroke-miterlimit="10"/>
</g>
<mask id="mask8_4_2942" style="mask-type:luminance" maskUnits="userSpaceOnUse" x="-159" y="-88" width="571" height="738">
<path d="M-158.011 -87.9999H411.989V649.524H-158.011V-87.9999Z" fill="white"/>
</mask>
<g mask="url(#mask8_4_2942)">
<path d="M226.196 143.207C215.341 143.207 205.315 138.465 197.21 132.8C184.188 123.699 184.188 104.245 197.21 95.1436C205.315 89.48 215.341 84.7373 226.196 84.7373C238.098 84.7373 256.698 90.4391 273.758 96.8068C299.134 106.278 299.134 121.666 273.758 131.137C256.698 137.505 238.098 143.207 226.196 143.207Z" fill="#C9A744" stroke="#B98742" stroke-width="4" stroke-miterlimit="10"/>
</g>
<mask id="mask9_4_2942" style="mask-type:luminance" maskUnits="userSpaceOnUse" x="-159" y="-88" width="571" height="738">
<path d="M-158.011 -87.9999H411.989V649.524H-158.011V-87.9999Z" fill="white"/>
</mask>
<g mask="url(#mask9_4_2942)">
<path d="M194.281 167.618C186.605 159.944 182.87 149.503 181.145 139.767C178.373 124.125 192.131 110.369 207.777 113.14C217.513 114.865 227.957 118.601 235.632 126.274C244.048 134.69 253.167 151.871 260.728 168.435C271.973 193.072 261.09 203.953 236.449 192.71C219.882 185.151 202.697 176.033 194.281 167.618Z" fill="#C9A744" stroke="#B98742" stroke-width="4" stroke-miterlimit="10"/>
</g>
<mask id="mask10_4_2942" style="mask-type:luminance" maskUnits="userSpaceOnUse" x="-159" y="-88" width="571" height="738">
<path d="M-158.011 -87.9999H411.989V649.524H-158.011V-87.9999Z" fill="white"/>
</mask>
<g mask="url(#mask10_4_2942)">
<path d="M150.556 160.365C150.556 149.512 155.298 139.488 160.964 131.384C170.066 118.364 189.524 118.364 198.627 131.384C204.291 139.488 209.035 149.512 209.035 160.365C209.035 172.265 203.332 190.862 196.963 207.919C187.49 233.291 172.1 233.291 162.627 207.919C156.259 190.862 150.556 172.265 150.556 160.365Z" fill="#C9A744" stroke="#B98742" stroke-width="4" stroke-miterlimit="10"/>
</g>
<mask id="mask11_4_2942" style="mask-type:luminance" maskUnits="userSpaceOnUse" x="-159" y="-88" width="571" height="738">
<path d="M-158.011 -87.9999H411.989V649.524H-158.011V-87.9999Z" fill="white"/>
</mask>
<g mask="url(#mask11_4_2942)">
<path d="M123.959 125.747C131.634 118.073 142.077 114.338 151.814 112.613C167.46 109.842 181.218 123.598 178.446 139.24C176.721 148.975 172.984 159.417 165.31 167.091C156.893 175.505 139.708 184.623 123.142 192.183C98.5008 203.426 87.6177 192.545 98.8631 167.908C106.423 151.343 115.543 134.161 123.959 125.747Z" fill="#C9A744" stroke="#B98742" stroke-width="4" stroke-miterlimit="10"/>
</g>
<mask id="mask12_4_2942" style="mask-type:luminance" maskUnits="userSpaceOnUse" x="-159" y="-88" width="571" height="738">
<path d="M-158.011 -87.9999H411.989V649.524H-158.011V-87.9999Z" fill="white"/>
</mask>
<g mask="url(#mask12_4_2942)">
<path d="M133.395 84.7375C144.249 84.7375 154.275 89.4793 162.38 95.1439C175.403 104.245 175.403 123.699 162.38 132.8C154.275 138.464 144.249 143.207 133.395 143.207C121.493 143.207 102.892 137.504 85.8324 131.137C60.4562 121.666 60.4562 106.278 85.8324 96.807C102.892 90.4394 121.493 84.7375 133.395 84.7375Z" fill="#C9A744" stroke="#B98742" stroke-width="4" stroke-miterlimit="10"/>
</g>
<mask id="mask13_4_2942" style="mask-type:luminance" maskUnits="userSpaceOnUse" x="-159" y="-88" width="571" height="738">
<path d="M-158.011 -87.9999H411.989V649.524H-158.011V-87.9999Z" fill="white"/>
</mask>
<g mask="url(#mask13_4_2942)">
<path d="M169.354 62.1892C177.03 69.8633 180.765 80.3041 182.49 90.04C185.262 105.683 171.504 119.439 155.859 116.667C146.122 114.943 135.679 111.207 128.003 103.533C119.587 95.1179 110.468 77.9361 102.907 61.3725C91.6629 36.7353 102.545 25.854 127.186 37.0975C143.754 44.6562 160.938 53.7747 169.354 62.1892Z" fill="#C9A744" stroke="#B98742" stroke-width="4" stroke-miterlimit="10"/>
</g>
<mask id="mask14_4_2942" style="mask-type:luminance" maskUnits="userSpaceOnUse" x="-159" y="-88" width="571" height="738">
<path d="M-158.011 -87.9999H411.989V649.524H-158.011V-87.9999Z" fill="white"/>
</mask>
<g mask="url(#mask14_4_2942)">
<path d="M225.251 86.1382C220.983 96.1162 212.679 103.468 204.283 108.691C190.792 117.083 172.903 109.434 169.655 93.8822C167.634 84.2041 167.216 73.1226 171.484 63.1446C176.165 52.2028 188.723 37.3471 201.288 24.1685C219.977 4.5655 234.127 10.6165 232.857 37.6693C232.004 55.856 229.932 75.1964 225.251 86.1382Z" fill="#DDB925" stroke="#E39E2A" stroke-width="4" stroke-miterlimit="10"/>
</g>
<mask id="mask15_4_2942" style="mask-type:luminance" maskUnits="userSpaceOnUse" x="-159" y="-88" width="571" height="738">
<path d="M-158.011 -87.9999H411.989V649.524H-158.011V-87.9999Z" fill="white"/>
</mask>
<g mask="url(#mask15_4_2942)">
<path d="M236.297 127.94C226.222 131.978 215.151 131.305 205.52 129.063C190.046 125.459 182.806 107.402 191.507 94.1096C196.923 85.8376 204.464 77.7062 214.54 73.6684C225.587 69.2405 244.973 67.6146 263.179 67.1788C290.258 66.5297 295.984 80.8127 275.954 99.0441C262.488 111.301 247.345 123.512 236.297 127.94Z" fill="#DDB925" stroke="#E39E2A" stroke-width="4" stroke-miterlimit="10"/>
</g>
<mask id="mask16_4_2942" style="mask-type:luminance" maskUnits="userSpaceOnUse" x="-159" y="-88" width="571" height="738">
<path d="M-158.011 -87.9999H411.989V649.524H-158.011V-87.9999Z" fill="white"/>
</mask>
<g mask="url(#mask16_4_2942)">
<path d="M210.426 164.425C200.446 160.157 193.093 151.854 187.869 143.46C179.475 129.972 187.127 112.085 202.68 108.838C212.36 106.817 223.443 106.399 233.423 110.667C244.367 115.347 259.225 127.902 272.406 140.466C292.012 159.151 285.96 173.299 258.903 172.029C240.713 171.176 221.369 169.105 210.426 164.425Z" fill="#DDB925" stroke="#E39E2A" stroke-width="4" stroke-miterlimit="10"/>
</g>
<mask id="mask17_4_2942" style="mask-type:luminance" maskUnits="userSpaceOnUse" x="-159" y="-88" width="571" height="738">
<path d="M-158.011 -87.9999H411.989V649.524H-158.011V-87.9999Z" fill="white"/>
</mask>
<g mask="url(#mask17_4_2942)">
<path d="M171.481 174.321C167.442 164.248 168.115 153.178 170.357 143.548C173.962 128.077 192.022 120.839 205.316 129.538C213.59 134.952 221.723 142.493 225.761 152.567C230.19 163.612 231.816 182.996 232.252 201.198C232.901 228.272 218.616 233.998 200.381 213.971C188.122 200.507 175.909 185.367 171.481 174.321Z" fill="#DDB925" stroke="#E39E2A" stroke-width="4" stroke-miterlimit="10"/>
</g>
<mask id="mask18_4_2942" style="mask-type:luminance" maskUnits="userSpaceOnUse" x="-159" y="-88" width="571" height="738">
<path d="M-158.011 -87.9999H411.989V649.524H-158.011V-87.9999Z" fill="white"/>
</mask>
<g mask="url(#mask18_4_2942)">
<path d="M134.132 150.459C138.4 140.481 146.704 133.129 155.1 127.906C168.591 119.514 186.48 127.165 189.728 142.715C191.749 152.393 192.167 163.475 187.899 173.453C183.218 184.395 170.66 199.25 158.095 212.429C139.406 232.032 125.256 225.981 126.526 198.929C127.379 180.742 129.451 161.401 134.132 150.459Z" fill="#DDB925" stroke="#E39E2A" stroke-width="4" stroke-miterlimit="10"/>
</g>
<mask id="mask19_4_2942" style="mask-type:luminance" maskUnits="userSpaceOnUse" x="-159" y="-88" width="571" height="738">
<path d="M-158.011 -87.9999H411.989V649.524H-158.011V-87.9999Z" fill="white"/>
</mask>
<g mask="url(#mask19_4_2942)">
<path d="M123.294 108.173C133.368 104.135 144.44 104.807 154.071 107.05C169.545 110.654 176.784 128.711 168.084 142.003C162.668 150.275 155.126 158.406 145.051 162.444C134.004 166.872 114.617 168.498 96.4116 168.934C69.3329 169.583 63.6068 155.3 83.6369 137.068C97.1027 124.812 112.246 112.601 123.294 108.173Z" fill="#DDB925" stroke="#E39E2A" stroke-width="4" stroke-miterlimit="10"/>
</g>
<mask id="mask20_4_2942" style="mask-type:luminance" maskUnits="userSpaceOnUse" x="-159" y="-88" width="571" height="738">
<path d="M-158.011 -87.9999H411.989V649.524H-158.011V-87.9999Z" fill="white"/>
</mask>
<g mask="url(#mask20_4_2942)">
<path d="M148.1 74.1782C158.079 78.4459 165.432 86.7486 170.656 95.1426C179.05 108.631 171.398 126.518 155.845 129.765C146.165 131.786 135.082 132.204 125.102 127.936C114.158 123.256 99.3003 110.7 86.1195 98.1374C66.5132 79.4516 72.5653 65.3037 99.6216 66.5738C117.812 67.4268 137.156 69.4979 148.1 74.1782Z" fill="#DDB925" stroke="#E39E2A" stroke-width="4" stroke-miterlimit="10"/>
</g>
<mask id="mask21_4_2942" style="mask-type:luminance" maskUnits="userSpaceOnUse" x="-159" y="-88" width="571" height="738">
<path d="M-158.011 -87.9999H411.989V649.524H-158.011V-87.9999Z" fill="white"/>
</mask>
<g mask="url(#mask21_4_2942)">
<path d="M187.902 62.2766C191.941 72.3495 191.268 83.4189 189.025 93.0486C185.421 108.52 167.361 115.758 154.066 107.059C145.793 101.645 137.66 94.1037 133.622 84.0298C129.193 72.9846 127.567 53.6013 127.131 35.3988C126.482 8.32464 140.767 2.59953 159.002 22.6263C171.26 36.0907 183.474 51.2305 187.902 62.2766Z" fill="#DDB925" stroke="#E39E2A" stroke-width="4" stroke-miterlimit="10"/>
</g>
<mask id="mask22_4_2942" style="mask-type:luminance" maskUnits="userSpaceOnUse" x="-159" y="-88" width="571" height="738">
<path d="M-158.011 -87.9999H411.989V649.524H-158.011V-87.9999Z" fill="white"/>
</mask>
<g mask="url(#mask22_4_2942)">
<path d="M247.085 114.599C247.085 152.128 216.657 182.551 179.122 182.551C141.587 182.551 111.159 152.128 111.159 114.599C111.159 77.0705 141.587 46.6476 179.122 46.6476C216.657 46.6476 247.085 77.0705 247.085 114.599Z" fill="#6D441D" stroke="#462116" stroke-width="4" stroke-miterlimit="10"/>
</g>
<mask id="mask23_4_2942" style="mask-type:luminance" maskUnits="userSpaceOnUse" x="-159" y="-88" width="571" height="738">
<path d="M-158.011 -87.9999H411.989V649.524H-158.011V-87.9999Z" fill="white"/>
</mask>
<g mask="url(#mask23_4_2942)">
<path d="M181.738 168.35C181.738 168.35 209.276 160.1 233.323 141.714C233.323 141.714 238.601 159.414 211.612 166.88C211.612 166.88 193.322 172.181 181.738 168.35Z" fill="black" stroke="#B79843" stroke-width="2.66667" stroke-miterlimit="10"/>
</g>
<mask id="mask24_4_2942" style="mask-type:luminance" maskUnits="userSpaceOnUse" x="-159" y="-88" width="571" height="738">
<path d="M-158.011 -87.9999H411.989V649.524H-158.011V-87.9999Z" fill="white"/>
</mask>
<g mask="url(#mask24_4_2942)">
<path d="M179.857 97.6136C185.702 94.8386 192.539 96.6507 196.311 101.597C196.096 100.703 195.79 99.8178 195.38 98.9546C192.193 92.2479 184.173 89.3928 177.466 92.5785C170.758 95.7642 167.902 103.783 171.088 110.49C171.499 111.353 171.992 112.15 172.549 112.882C171.098 106.833 174.013 100.389 179.857 97.6136Z" fill="#221D26" stroke="#0C0C0D" stroke-width="2.66667" stroke-miterlimit="10"/>
</g>
<mask id="mask25_4_2942" style="mask-type:luminance" maskUnits="userSpaceOnUse" x="-159" y="-88" width="571" height="738">
<path d="M-158.011 -87.9999H411.989V649.524H-158.011V-87.9999Z" fill="white"/>
</mask>
<g mask="url(#mask25_4_2942)">
<path d="M120.95 103.548C116.97 105.437 116.296 112.342 119.445 118.97L130.185 141.581C134.389 150.43 148.539 152.502 161.792 146.209C175.043 139.916 182.379 127.64 178.175 118.792L167.435 96.1809C164.286 89.5535 158.508 85.7122 154.528 87.6026L120.95 103.548Z" fill="#221D26" stroke="#0C0C0D" stroke-width="2.66667" stroke-miterlimit="10"/>
</g>
<mask id="mask26_4_2942" style="mask-type:luminance" maskUnits="userSpaceOnUse" x="-159" y="-88" width="571" height="738">
<path d="M-158.011 -87.9999H411.989V649.524H-158.011V-87.9999Z" fill="white"/>
</mask>
<g mask="url(#mask26_4_2942)">
<path d="M187.603 71.8964C183.623 73.7859 182.948 80.6908 186.097 87.3183L196.838 109.929C201.041 118.779 215.192 120.85 228.444 114.557C241.696 108.264 249.031 95.9889 244.828 87.1404L234.087 64.5296C230.938 57.9021 225.16 54.0608 221.18 55.9512L187.603 71.8964Z" fill="#221D26" stroke="#0C0C0D" stroke-width="2.66667" stroke-miterlimit="10"/>
</g>
<mask id="mask27_4_2942" style="mask-type:luminance" maskUnits="userSpaceOnUse" x="-159" y="-88" width="571" height="738">
<path d="M-158.011 -87.9999H411.989V649.524H-158.011V-87.9999Z" fill="white"/>
</mask>
<g mask="url(#mask27_4_2942)">
<path d="M187.23 129.523L185.779 142.51C185.135 148.273 190.974 152.574 196.288 150.249L208.262 145.011C213.576 142.687 214.381 135.482 209.71 132.042L199.188 124.294C194.517 120.854 187.873 123.759 187.23 129.523Z" fill="#F3A857" stroke="#B57243" stroke-width="4" stroke-miterlimit="10"/>
</g>
<mask id="mask28_4_2942" style="mask-type:luminance" maskUnits="userSpaceOnUse" x="-159" y="-88" width="571" height="738">
<path d="M-158.011 -87.9999H411.989V649.524H-158.011V-87.9999Z" fill="white"/>
</mask>
<g mask="url(#mask28_4_2942)">
<path d="M133.625 329.994C133.625 329.994 182.969 288.443 206.827 313.553C206.827 313.553 196.669 354.596 133.625 329.994Z" fill="#898042" stroke="#5B582F" stroke-width="2.66667" stroke-miterlimit="10"/>
</g>
<mask id="mask29_4_2942" style="mask-type:luminance" maskUnits="userSpaceOnUse" x="-159" y="-88" width="571" height="738">
<path d="M-158.011 -87.9999H411.989V649.524H-158.011V-87.9999Z" fill="white"/>
</mask>
<g mask="url(#mask29_4_2942)">
<path d="M47.3916 306.843C47.3916 306.843 57.551 347.885 120.594 323.284C120.594 323.284 71.2506 281.733 47.3916 306.843Z" fill="#898042" stroke="#5B582F" stroke-width="2.66667" stroke-miterlimit="10"/>
</g>
<mask id="mask30_4_2942" style="mask-type:luminance" maskUnits="userSpaceOnUse" x="-159" y="-88" width="571" height="738">
<path d="M-158.011 -87.9999H411.989V649.524H-158.011V-87.9999Z" fill="white"/>
</mask>
<g mask="url(#mask30_4_2942)">
<path d="M123.978 285.547C123.978 285.547 173.322 243.997 197.18 269.107C197.18 269.107 187.021 310.149 123.978 285.547Z" fill="#898042" stroke="#5B582F" stroke-width="2.66667" stroke-miterlimit="10"/>
</g>
<mask id="mask31_4_2942" style="mask-type:luminance" maskUnits="userSpaceOnUse" x="-159" y="-88" width="571" height="738">
<path d="M-158.011 -87.9999H411.989V649.524H-158.011V-87.9999Z" fill="white"/>
</mask>
<g mask="url(#mask31_4_2942)">
<path d="M37.7441 262.397C37.7441 262.397 47.9035 303.439 110.946 278.837C110.946 278.837 61.6031 237.286 37.7441 262.397Z" fill="#898042" stroke="#5B582F" stroke-width="2.66667" stroke-miterlimit="10"/>
</g>
</g>
<defs>
<clipPath id="clip0_4_2942">
<rect width="295" height="616" fill="white"/>
</clipPath>
</defs>
</svg>
