<svg width="279" height="381" viewBox="0 0 279 381" fill="none" xmlns="http://www.w3.org/2000/svg">
<g clip-path="url(#clip0_4_3072)">
<mask id="mask0_4_3072" style="mask-type:luminance" maskUnits="userSpaceOnUse" x="-147" y="-323" width="573" height="739">
<path d="M-146.205 -323H425.206V415.256H-146.205V-323Z" fill="white"/>
</mask>
<g mask="url(#mask0_4_3072)">
<path d="M20.6628 196.69L53.195 364.893C53.195 373.743 92.2134 380.917 140.346 380.917C188.479 380.917 227.498 373.743 227.498 364.893L258.067 198.374L20.6628 196.69Z" fill="#985724" stroke="#7A4521" stroke-width="2.66667" stroke-miterlimit="10"/>
</g>
<mask id="mask1_4_3072" style="mask-type:luminance" maskUnits="userSpaceOnUse" x="-147" y="-323" width="573" height="739">
<path d="M-146.205 -323H425.206V415.256H-146.205V-323Z" fill="white"/>
</mask>
<g mask="url(#mask1_4_3072)">
<path d="M275.075 157.236C275.075 202.481 214.376 239.158 139.5 239.158C64.6244 239.158 3.92505 202.481 3.92505 157.236C3.92505 111.992 64.6244 75.314 139.5 75.314C214.376 75.314 275.075 111.992 275.075 157.236Z" fill="#985724" stroke="#7A4521" stroke-width="2.66667" stroke-miterlimit="10"/>
</g>
<mask id="mask2_4_3072" style="mask-type:luminance" maskUnits="userSpaceOnUse" x="-147" y="-323" width="573" height="739">
<path d="M-146.205 -323H425.206V415.256H-146.205V-323Z" fill="white"/>
</mask>
<g mask="url(#mask2_4_3072)">
<path d="M268.469 149.368C268.469 179.908 210.559 204.666 139.125 204.666C67.689 204.666 9.77954 179.908 9.77954 149.368C9.77954 118.829 67.689 94.0709 139.125 94.0709C210.559 94.0709 268.469 118.829 268.469 149.368Z" fill="#5A3723" stroke="#382217" stroke-width="2.66667" stroke-miterlimit="10"/>
</g>
<mask id="mask3_4_3072" style="mask-type:luminance" maskUnits="userSpaceOnUse" x="-147" y="-323" width="573" height="739">
<path d="M-146.205 -323H425.206V415.256H-146.205V-323Z" fill="white"/>
</mask>
<g mask="url(#mask3_4_3072)">
<path d="M144.228 62.9679C144.228 62.9679 76.7466 94.0707 106.378 171.353H111.701C111.701 171.353 83.9789 109.986 149.877 62.9194L144.228 62.9679Z" fill="#737A43" stroke="#47492F" stroke-width="2.66667" stroke-miterlimit="10"/>
</g>
<mask id="mask4_4_3072" style="mask-type:luminance" maskUnits="userSpaceOnUse" x="-147" y="-323" width="573" height="739">
<path d="M-146.205 -323H425.206V415.256H-146.205V-323Z" fill="white"/>
</mask>
<g mask="url(#mask4_4_3072)">
<path d="M173.502 64.601C167.925 67.1336 161.665 67.0395 156.177 66.0244C147.358 64.3922 142.812 54.4118 147.376 46.7039C150.216 41.9071 154.26 37.1354 159.837 34.6028C165.952 31.826 176.842 30.4128 187.097 29.6997C202.348 28.639 205.945 36.5333 195.12 47.3126C187.843 54.56 179.618 61.8241 173.502 64.601Z" fill="#CBCB2B" stroke="#B7B447" stroke-width="4" stroke-miterlimit="10"/>
</g>
<mask id="mask5_4_3072" style="mask-type:luminance" maskUnits="userSpaceOnUse" x="-147" y="-323" width="573" height="739">
<path d="M-146.205 -323H425.206V415.256H-146.205V-323Z" fill="white"/>
</mask>
<g mask="url(#mask5_4_3072)">
<path d="M169.417 42.9682C168.284 48.9796 164.605 54.0374 160.616 57.9347C154.207 64.1978 143.413 62.1685 139.724 54.0076C137.428 48.9283 135.845 42.8815 136.978 36.8702C138.222 30.279 143.327 20.5726 148.643 11.789C156.547 -1.27587 165.085 0.328342 167.689 15.3694C169.44 25.4813 170.66 36.3771 169.417 42.9682Z" fill="#CBCB2B" stroke="#B7B447" stroke-width="4" stroke-miterlimit="10"/>
</g>
<mask id="mask6_4_3072" style="mask-type:luminance" maskUnits="userSpaceOnUse" x="-147" y="-323" width="573" height="739">
<path d="M-146.205 -323H425.206V415.256H-146.205V-323Z" fill="white"/>
</mask>
<g mask="url(#mask6_4_3072)">
<path d="M160.412 36.0923C161.909 42.0236 160.696 48.1552 158.713 53.3649C155.527 61.7337 144.877 64.4136 138.098 58.5504C133.88 54.9011 129.902 50.0754 128.404 44.1442C126.763 37.6406 127.319 26.6917 128.452 16.4922C130.137 1.32067 138.561 -0.798092 147.246 11.7644C153.084 20.2096 158.771 29.5888 160.412 36.0923Z" fill="#CBCB2B" stroke="#B7B447" stroke-width="4" stroke-miterlimit="10"/>
</g>
<mask id="mask7_4_3072" style="mask-type:luminance" maskUnits="userSpaceOnUse" x="-147" y="-323" width="573" height="739">
<path d="M-146.205 -323H425.206V415.256H-146.205V-323Z" fill="white"/>
</mask>
<g mask="url(#mask7_4_3072)">
<path d="M174.473 54.9746C171.33 60.2254 166.129 63.7051 161.038 65.9888C152.857 69.6568 143.429 64.0332 142.788 55.1023C142.39 49.544 142.994 43.3228 146.137 38.0721C149.582 32.3143 157.73 24.9652 165.756 18.5521C177.692 9.01444 185.149 13.4626 182.393 28.4766C180.54 38.5708 177.919 49.2168 174.473 54.9746Z" fill="#CBCB2B" stroke="#B7B447" stroke-width="4" stroke-miterlimit="10"/>
</g>
</g>
<defs>
<clipPath id="clip0_4_3072">
<rect width="279" height="381" fill="white"/>
</clipPath>
</defs>
</svg>
