<svg width="298" height="466" viewBox="0 0 298 466" fill="none" xmlns="http://www.w3.org/2000/svg">
<g clip-path="url(#clip0_4_2140)">
<mask id="mask0_4_2140" style="mask-type:luminance" maskUnits="userSpaceOnUse" x="-158" y="-238" width="572" height="738">
<path d="M-157.072 -238H413.145V499.524H-157.072V-238Z" fill="white"/>
</mask>
<g mask="url(#mask0_4_2140)">
<path d="M20.7678 281.74L53.232 449.776C53.232 458.617 92.1688 465.784 140.201 465.784C188.234 465.784 227.17 458.617 227.17 449.776L257.676 283.422L20.7678 281.74Z" fill="#985724" stroke="#7A4521" stroke-width="2.66667" stroke-miterlimit="10"/>
</g>
<mask id="mask1_4_2140" style="mask-type:luminance" maskUnits="userSpaceOnUse" x="-158" y="-238" width="572" height="738">
<path d="M-157.072 -238H413.145V499.524H-157.072V-238Z" fill="white"/>
</mask>
<g mask="url(#mask1_4_2140)">
<path d="M274.649 242.325C274.649 287.524 214.076 324.166 139.356 324.166C64.6375 324.166 4.06494 287.524 4.06494 242.325C4.06494 197.125 64.6375 160.484 139.356 160.484C214.076 160.484 274.649 197.125 274.649 242.325Z" fill="#985724" stroke="#7A4521" stroke-width="2.66667" stroke-miterlimit="10"/>
</g>
<mask id="mask2_4_2140" style="mask-type:luminance" maskUnits="userSpaceOnUse" x="-158" y="-238" width="572" height="738">
<path d="M-157.072 -238H413.145V499.524H-157.072V-238Z" fill="white"/>
</mask>
<g mask="url(#mask2_4_2140)">
<path d="M268.056 234.465C268.056 264.974 210.268 289.708 138.982 289.708C67.696 289.708 9.90747 264.974 9.90747 234.465C9.90747 203.955 67.696 179.222 138.982 179.222C210.268 179.222 268.056 203.955 268.056 234.465Z" fill="#5A3723" stroke="#382217" stroke-width="2.66667" stroke-miterlimit="10"/>
</g>
<mask id="mask3_4_2140" style="mask-type:luminance" maskUnits="userSpaceOnUse" x="-158" y="-238" width="572" height="738">
<path d="M-157.072 -238H413.145V499.524H-157.072V-238Z" fill="white"/>
</mask>
<g mask="url(#mask3_4_2140)">
<path d="M140.096 208.067C140.096 208.067 156.441 241.758 175.033 234.083C175.033 234.083 179.352 209.922 140.096 208.067Z" fill="#706942"/>
</g>
<mask id="mask4_4_2140" style="mask-type:luminance" maskUnits="userSpaceOnUse" x="-158" y="-238" width="572" height="738">
<path d="M-157.072 -238H413.145V499.524H-157.072V-238Z" fill="white"/>
</mask>
<g mask="url(#mask4_4_2140)">
<path d="M140.096 208.067C140.096 208.067 156.441 241.758 175.033 234.083C175.033 234.083 179.352 209.922 140.096 208.067Z" stroke="#44412D" stroke-width="2.66667" stroke-miterlimit="10"/>
</g>
<mask id="mask5_4_2140" style="mask-type:luminance" maskUnits="userSpaceOnUse" x="-158" y="-238" width="572" height="738">
<path d="M-157.072 -238H413.145V499.524H-157.072V-238Z" fill="white"/>
</mask>
<g mask="url(#mask5_4_2140)">
<path d="M86.8023 173.287C86.8023 173.287 81.348 131.36 149.048 131.374C149.048 131.374 118.168 188.012 86.8023 173.287Z" fill="#5B553C" stroke="#353326" stroke-width="2.66667" stroke-miterlimit="10"/>
</g>
<mask id="mask6_4_2140" style="mask-type:luminance" maskUnits="userSpaceOnUse" x="-158" y="-238" width="572" height="738">
<path d="M-157.072 -238H413.145V499.524H-157.072V-238Z" fill="white"/>
</mask>
<g mask="url(#mask6_4_2140)">
<path d="M157.606 255.443C157.606 255.443 118.75 119.455 212.338 53.5403L204.225 50.6759C204.225 50.6759 130.679 56.6459 143.322 256.428L157.606 255.443Z" fill="#5B553C" stroke="#353326" stroke-width="2.66667" stroke-miterlimit="10"/>
</g>
<mask id="mask7_4_2140" style="mask-type:luminance" maskUnits="userSpaceOnUse" x="-158" y="-238" width="572" height="738">
<path d="M-157.072 -238H413.145V499.524H-157.072V-238Z" fill="white"/>
</mask>
<g mask="url(#mask7_4_2140)">
<path d="M242.743 247.1C237.123 241.595 234.339 234.055 233.018 227.012C230.894 215.697 240.769 205.627 252.131 207.522C259.202 208.701 266.8 211.333 272.42 216.838C278.583 222.875 285.319 235.26 290.921 247.209C299.252 264.982 291.442 272.947 273.496 264.977C261.431 259.62 248.905 253.137 242.743 247.1Z" fill="#936F3E" stroke="#664C2E" stroke-width="4" stroke-miterlimit="10"/>
</g>
<mask id="mask8_4_2140" style="mask-type:luminance" maskUnits="userSpaceOnUse" x="-158" y="-238" width="572" height="738">
<path d="M-157.072 -238H413.145V499.524H-157.072V-238Z" fill="white"/>
</mask>
<g mask="url(#mask8_4_2140)">
<path d="M175.758 240.446C168.695 238.356 163.085 233.34 158.903 228.096C152.183 219.667 155.933 207.014 166.16 203.602C172.526 201.479 179.964 200.326 187.026 202.415C194.771 204.708 205.775 211.999 215.649 219.426C230.335 230.474 227.37 240.483 209.033 241.756C196.704 242.612 183.502 242.739 175.758 240.446Z" fill="#936F3E" stroke="#664C2E" stroke-width="4" stroke-miterlimit="10"/>
</g>
<mask id="mask9_4_2140" style="mask-type:luminance" maskUnits="userSpaceOnUse" x="-158" y="-238" width="572" height="738">
<path d="M-157.072 -238H413.145V499.524H-157.072V-238Z" fill="white"/>
</mask>
<g mask="url(#mask9_4_2140)">
<path d="M244.932 49.9175C242.472 55.6659 236.831 59.537 230.971 62.1099C221.555 66.2436 207.738 60.3369 204.225 50.6764C202.039 44.6636 200.944 37.9132 203.403 32.1648C206.102 25.8605 214.368 17.7402 222.757 10.6378C235.236 0.0731888 246.166 4.74511 247.141 21.0619C247.796 32.0307 247.631 43.6132 244.932 49.9175Z" fill="#936F3E" stroke="#664C2E" stroke-width="4" stroke-miterlimit="10"/>
</g>
<mask id="mask10_4_2140" style="mask-type:luminance" maskUnits="userSpaceOnUse" x="-158" y="-238" width="572" height="738">
<path d="M-157.072 -238H413.145V499.524H-157.072V-238Z" fill="white"/>
</mask>
<g mask="url(#mask10_4_2140)">
<path d="M238.925 75.0646C232.412 74.3373 226.802 70.0277 222.425 65.1378C215.391 57.2821 217.059 42.3547 225.654 36.244C231.003 32.44 237.426 29.4732 243.939 30.2004C251.08 30.9976 261.752 36.6184 271.443 42.6471C285.858 51.6147 284.539 63.4216 268.5 68.9893C257.717 72.7328 246.067 75.8617 238.925 75.0646Z" fill="#936F3E" stroke="#664C2E" stroke-width="4" stroke-miterlimit="10"/>
</g>
<mask id="mask11_4_2140" style="mask-type:luminance" maskUnits="userSpaceOnUse" x="-158" y="-238" width="572" height="738">
<path d="M-157.072 -238H413.145V499.524H-157.072V-238Z" fill="white"/>
</mask>
<g mask="url(#mask11_4_2140)">
<path d="M231.308 94.1411C225.655 87.9541 223.137 79.7696 222.148 72.2007C220.556 60.039 231.653 49.9102 243.628 52.5949C251.081 54.2655 259.008 57.5117 264.66 63.6987C270.86 70.4835 277.296 84.0542 282.55 97.0949C290.364 116.49 281.586 124.503 262.967 114.969C250.448 108.559 237.508 100.926 231.308 94.1411Z" fill="#936F3E" stroke="#664C2E" stroke-width="4" stroke-miterlimit="10"/>
</g>
<mask id="mask12_4_2140" style="mask-type:luminance" maskUnits="userSpaceOnUse" x="-158" y="-238" width="572" height="738">
<path d="M-157.072 -238H413.145V499.524H-157.072V-238Z" fill="white"/>
</mask>
<g mask="url(#mask12_4_2140)">
<path d="M193.174 59.2658C189.134 49.1929 189.807 38.1235 192.05 28.4938C195.656 13.0225 213.723 5.78419 227.023 14.4836C235.299 19.8986 243.435 27.4387 247.475 37.5126C251.906 48.5578 253.532 67.9411 253.968 86.1436C254.618 113.218 240.327 118.943 222.086 98.9161C209.822 85.4526 197.605 70.3119 193.174 59.2658Z" fill="#936F3E" stroke="#664C2E" stroke-width="4" stroke-miterlimit="10"/>
</g>
<mask id="mask13_4_2140" style="mask-type:luminance" maskUnits="userSpaceOnUse" x="-158" y="-238" width="572" height="738">
<path d="M-157.072 -238H413.145V499.524H-157.072V-238Z" fill="white"/>
</mask>
<g mask="url(#mask13_4_2140)">
<path d="M198.819 172.593C206.564 171.232 214.314 173.356 220.808 176.38C231.242 181.238 233.685 195.114 225.536 203.239C220.463 208.296 213.904 212.937 206.159 214.298C197.667 215.791 183.679 214.057 170.706 211.655C151.41 208.083 149.479 197.108 166.396 187.169C177.771 180.487 190.327 174.086 198.819 172.593Z" fill="#936F3E" stroke="#664C2E" stroke-width="4" stroke-miterlimit="10"/>
</g>
<mask id="mask14_4_2140" style="mask-type:luminance" maskUnits="userSpaceOnUse" x="-158" y="-238" width="572" height="738">
<path d="M-157.072 -238H413.145V499.524H-157.072V-238Z" fill="white"/>
</mask>
<g mask="url(#mask14_4_2140)">
<path d="M159.507 61.2422C165.505 55.3885 173.606 52.6005 181.141 51.3592C193.25 49.3636 203.749 60.1107 201.464 72.1616C200.041 79.6616 197.06 87.6878 191.062 93.5423C184.484 99.9612 171.128 106.842 158.263 112.525C139.128 120.978 130.824 112.478 139.735 93.56C145.727 80.8424 152.929 67.661 159.507 61.2422Z" fill="#936F3E" stroke="#664C2E" stroke-width="4" stroke-miterlimit="10"/>
</g>
<mask id="mask15_4_2140" style="mask-type:luminance" maskUnits="userSpaceOnUse" x="-158" y="-238" width="572" height="738">
<path d="M-157.072 -238H413.145V499.524H-157.072V-238Z" fill="white"/>
</mask>
<g mask="url(#mask15_4_2140)">
<path d="M192.804 35.6167C199.259 38.3759 203.78 44.291 206.879 50.3718C211.858 60.1431 205.948 73.953 195.439 77.1034C188.899 79.0645 181.496 79.8821 175.042 77.1229C167.964 74.0965 158.636 65.3207 150.426 56.4639C138.213 43.2899 142.888 32.3668 160.855 32.0939C172.934 31.9105 185.727 32.5912 192.804 35.6167Z" fill="#936F3E" stroke="#664C2E" stroke-width="4" stroke-miterlimit="10"/>
</g>
<mask id="mask16_4_2140" style="mask-type:luminance" maskUnits="userSpaceOnUse" x="-158" y="-238" width="572" height="738">
<path d="M-157.072 -238H413.145V499.524H-157.072V-238Z" fill="white"/>
</mask>
<g mask="url(#mask16_4_2140)">
<path d="M221.745 31.18C224.115 37.0905 222.905 43.9126 220.613 49.9534C216.93 59.6585 202.982 65.2467 193.611 60.7704C187.78 57.9842 182.19 53.8859 179.82 47.9755C177.22 41.4942 177.246 29.7283 178.087 18.6086C179.336 2.07019 190.371 -2.3503 202.703 8.74701C210.994 16.2079 219.145 24.6988 221.745 31.18Z" fill="#936F3E" stroke="#664C2E" stroke-width="4" stroke-miterlimit="10"/>
</g>
<mask id="mask17_4_2140" style="mask-type:luminance" maskUnits="userSpaceOnUse" x="-158" y="-238" width="572" height="738">
<path d="M-157.072 -238H413.145V499.524H-157.072V-238Z" fill="white"/>
</mask>
<g mask="url(#mask17_4_2140)">
<path d="M260.857 66.1886C260.857 95.643 236.965 119.521 207.495 119.521C178.023 119.521 154.133 95.643 154.133 66.1886C154.133 36.7342 178.023 12.8559 207.495 12.8559C236.965 12.8559 260.857 36.7342 260.857 66.1886Z" fill="#44352B" stroke="#221917" stroke-width="4" stroke-miterlimit="10"/>
</g>
<mask id="mask18_4_2140" style="mask-type:luminance" maskUnits="userSpaceOnUse" x="-158" y="-238" width="572" height="738">
<path d="M-157.072 -238H413.145V499.524H-157.072V-238Z" fill="white"/>
</mask>
<g mask="url(#mask18_4_2140)">
<path d="M216.428 116.69C216.428 116.69 225.474 109.94 237.231 107.197C237.231 107.197 232.312 100.471 223.661 107.26C223.661 107.26 217.714 111.794 216.428 116.69Z" fill="black" stroke="#B98742" stroke-width="4" stroke-miterlimit="10"/>
</g>
<mask id="mask19_4_2140" style="mask-type:luminance" maskUnits="userSpaceOnUse" x="-158" y="-238" width="572" height="738">
<path d="M-157.072 -238H413.145V499.524H-157.072V-238Z" fill="white"/>
</mask>
<g mask="url(#mask19_4_2140)">
<path d="M212.914 89.4551L212.399 94.0675C211.754 99.8317 217.595 104.131 222.912 101.807L227.166 99.9462C232.482 97.6219 233.288 90.4171 228.616 86.9772L224.877 84.2254C220.204 80.7855 213.558 83.6909 212.914 89.4551Z" fill="#D69C68" stroke="#9B6743" stroke-width="4" stroke-miterlimit="10"/>
</g>
<mask id="mask20_4_2140" style="mask-type:luminance" maskUnits="userSpaceOnUse" x="-158" y="-238" width="572" height="738">
<path d="M-157.072 -238H413.145V499.524H-157.072V-238Z" fill="white"/>
</mask>
<g mask="url(#mask20_4_2140)">
<path d="M207.438 61.6204C212.026 59.4423 217.395 60.8642 220.356 64.7474C220.187 64.0453 219.947 63.3506 219.626 62.6726C217.124 57.4085 210.826 55.1689 205.559 57.6683C200.293 60.1686 198.051 66.4627 200.553 71.7259C200.875 72.4039 201.262 73.0296 201.699 73.6033C200.56 68.8559 202.849 63.7985 207.438 61.6204Z" fill="#221D26" stroke="#0C0C0D" stroke-width="2.66667" stroke-miterlimit="10"/>
</g>
<mask id="mask21_4_2140" style="mask-type:luminance" maskUnits="userSpaceOnUse" x="-158" y="-238" width="572" height="738">
<path d="M-157.072 -238H413.145V499.524H-157.072V-238Z" fill="white"/>
</mask>
<g mask="url(#mask21_4_2140)">
<path d="M161.186 66.2778C158.061 67.7612 157.532 73.18 160.004 78.3817L168.438 96.1279C171.738 103.074 182.849 104.7 193.253 99.7606C203.658 94.8215 209.418 85.1871 206.117 78.2421L197.684 60.4959C195.212 55.2941 190.675 52.2797 187.55 53.7632L161.186 66.2778Z" fill="#221D26" stroke="#0C0C0D" stroke-width="2.66667" stroke-miterlimit="10"/>
</g>
<mask id="mask22_4_2140" style="mask-type:luminance" maskUnits="userSpaceOnUse" x="-158" y="-238" width="572" height="738">
<path d="M-157.072 -238H413.145V499.524H-157.072V-238Z" fill="white"/>
</mask>
<g mask="url(#mask22_4_2140)">
<path d="M213.519 41.4357C210.394 42.9192 209.865 48.3379 212.337 53.5397L220.771 71.2859C224.071 78.2319 235.182 79.8578 245.586 74.9186C255.991 69.9794 261.751 60.345 258.45 53.4L250.017 35.6538C247.545 30.452 243.008 27.4377 239.883 28.9211L213.519 41.4357Z" fill="#221D26" stroke="#0C0C0D" stroke-width="2.66667" stroke-miterlimit="10"/>
</g>
<mask id="mask23_4_2140" style="mask-type:luminance" maskUnits="userSpaceOnUse" x="-158" y="-238" width="572" height="738">
<path d="M-157.072 -238H413.145V499.524H-157.072V-238Z" fill="white"/>
</mask>
<g mask="url(#mask23_4_2140)">
<path d="M149.049 166.157C149.049 166.157 180.509 222.476 211.722 207.43C211.722 207.43 216.745 165.449 149.049 166.157Z" fill="#5B553C" stroke="#353326" stroke-width="2.66667" stroke-miterlimit="10"/>
</g>
<mask id="mask24_4_2140" style="mask-type:luminance" maskUnits="userSpaceOnUse" x="-158" y="-238" width="572" height="738">
<path d="M-157.072 -238H413.145V499.524H-157.072V-238Z" fill="white"/>
</mask>
<g mask="url(#mask24_4_2140)">
<path d="M84.3649 273.022C84.3649 273.022 79.6495 245.528 124.281 243.731C124.281 243.731 105.436 281.893 84.3649 273.022Z" fill="#5B553C" stroke="#353326" stroke-width="2.66667" stroke-miterlimit="10"/>
</g>
<mask id="mask25_4_2140" style="mask-type:luminance" maskUnits="userSpaceOnUse" x="-158" y="-238" width="572" height="738">
<path d="M-157.072 -238H413.145V499.524H-157.072V-238Z" fill="white"/>
</mask>
<g mask="url(#mask25_4_2140)">
<path d="M155.948 219.05C155.948 219.05 193.211 271.713 222.65 253.44C222.65 253.44 223.187 211.163 155.948 219.05Z" fill="#5B553C"/>
</g>
<mask id="mask26_4_2140" style="mask-type:luminance" maskUnits="userSpaceOnUse" x="-158" y="-238" width="572" height="738">
<path d="M-157.072 -238H413.145V499.524H-157.072V-238Z" fill="white"/>
</mask>
<g mask="url(#mask26_4_2140)">
<path d="M155.948 219.05C155.948 219.05 193.211 271.713 222.65 253.44C222.65 253.44 223.187 211.163 155.948 219.05Z" stroke="#353326" stroke-width="2.66667" stroke-miterlimit="10"/>
</g>
<mask id="mask27_4_2140" style="mask-type:luminance" maskUnits="userSpaceOnUse" x="-158" y="-238" width="572" height="738">
<path d="M-157.072 -238H413.145V499.524H-157.072V-238Z" fill="white"/>
</mask>
<g mask="url(#mask27_4_2140)">
<path d="M75.4494 254.238C75.4494 254.238 73.8748 211.987 141.287 218.222C141.287 218.222 105.328 271.783 75.4494 254.238Z" fill="#5B553C" stroke="#353326" stroke-width="2.66667" stroke-miterlimit="10"/>
</g>
</g>
<defs>
<clipPath id="clip0_4_2140">
<rect width="298" height="466" fill="white"/>
</clipPath>
</defs>
</svg>
