<svg width="297" height="554" viewBox="0 0 297 554" fill="none" xmlns="http://www.w3.org/2000/svg">
<g clip-path="url(#clip0_4_2006)">
<mask id="mask0_4_2006" style="mask-type:luminance" maskUnits="userSpaceOnUse" x="-157" y="-150" width="570" height="738">
<path d="M-156.853 -150H412.586V587.524H-156.853V-150Z" fill="white"/>
</mask>
<g mask="url(#mask0_4_2006)">
<path d="M20.7449 369.74L53.1647 537.776C53.1647 546.617 92.0485 553.784 140.015 553.784C187.982 553.784 226.866 546.617 226.866 537.776L257.33 371.422L20.7449 369.74Z" fill="#985724" stroke="#7A4521" stroke-width="2.66667" stroke-miterlimit="10"/>
</g>
<mask id="mask1_4_2006" style="mask-type:luminance" maskUnits="userSpaceOnUse" x="-157" y="-150" width="570" height="738">
<path d="M-156.853 -150H412.586V587.524H-156.853V-150Z" fill="white"/>
</mask>
<g mask="url(#mask1_4_2006)">
<path d="M274.279 330.325C274.279 375.524 213.79 412.166 139.172 412.166C64.5548 412.166 4.06494 375.524 4.06494 330.325C4.06494 285.125 64.5548 248.484 139.172 248.484C213.79 248.484 274.279 285.125 274.279 330.325Z" fill="#985724" stroke="#7A4521" stroke-width="2.66667" stroke-miterlimit="10"/>
</g>
<mask id="mask2_4_2006" style="mask-type:luminance" maskUnits="userSpaceOnUse" x="-157" y="-150" width="570" height="738">
<path d="M-156.853 -150H412.586V587.524H-156.853V-150Z" fill="white"/>
</mask>
<g mask="url(#mask2_4_2006)">
<path d="M267.696 322.465C267.696 352.974 209.986 377.708 138.798 377.708C67.6088 377.708 9.89917 352.974 9.89917 322.465C9.89917 291.955 67.6088 267.222 138.798 267.222C209.986 267.222 267.696 291.955 267.696 322.465Z" fill="#5A3723" stroke="#382217" stroke-width="2.66667" stroke-miterlimit="10"/>
</g>
<mask id="mask3_4_2006" style="mask-type:luminance" maskUnits="userSpaceOnUse" x="-157" y="-150" width="570" height="738">
<path d="M-156.853 -150H412.586V587.524H-156.853V-150Z" fill="white"/>
</mask>
<g mask="url(#mask3_4_2006)">
<path d="M150.241 210.609C150.241 210.609 178.36 268.648 210.345 255.427C210.345 255.427 217.774 213.806 150.241 210.609Z" fill="#706942" stroke="#44412D" stroke-width="2.66667" stroke-miterlimit="10"/>
</g>
<mask id="mask4_4_2006" style="mask-type:luminance" maskUnits="userSpaceOnUse" x="-157" y="-150" width="570" height="738">
<path d="M-156.853 -150H412.586V587.524H-156.853V-150Z" fill="white"/>
</mask>
<g mask="url(#mask4_4_2006)">
<path d="M76.6364 253.732C76.6364 253.732 71.1895 211.805 138.797 211.819C138.797 211.819 107.959 268.458 76.6364 253.732Z" fill="#706942" stroke="#44412D" stroke-width="2.66667" stroke-miterlimit="10"/>
</g>
<mask id="mask5_4_2006" style="mask-type:luminance" maskUnits="userSpaceOnUse" x="-157" y="-150" width="570" height="738">
<path d="M-156.853 -150H412.586V587.524H-156.853V-150Z" fill="white"/>
</mask>
<g mask="url(#mask5_4_2006)">
<path d="M157.396 343.443C157.396 343.443 115.404 158.526 208.863 92.6113L195.545 94.3564C195.545 94.3564 106.899 128.976 143.131 344.428L157.396 343.443Z" fill="#706942" stroke="#44412D" stroke-width="2.66667" stroke-miterlimit="10"/>
</g>
<mask id="mask6_4_2006" style="mask-type:luminance" maskUnits="userSpaceOnUse" x="-157" y="-150" width="570" height="738">
<path d="M-156.853 -150H412.586V587.524H-156.853V-150Z" fill="white"/>
</mask>
<g mask="url(#mask6_4_2006)">
<path d="M234.474 52.1534C234.474 60.2708 229.736 67.768 224.076 73.8293C214.983 83.568 195.545 83.568 186.45 73.8293C180.791 67.768 176.052 60.2708 176.052 52.1534C176.052 43.2528 181.75 29.3432 188.112 16.5846C197.576 -2.39174 212.951 -2.39174 222.414 16.5846C228.777 29.3432 234.474 43.2528 234.474 52.1534Z" fill="#A48845" stroke="#8E6B3F" stroke-width="4" stroke-miterlimit="10"/>
</g>
<mask id="mask7_4_2006" style="mask-type:luminance" maskUnits="userSpaceOnUse" x="-157" y="-150" width="570" height="738">
<path d="M-156.853 -150H412.586V587.524H-156.853V-150Z" fill="white"/>
</mask>
<g mask="url(#mask7_4_2006)">
<path d="M253.995 83.5335C248.303 89.2307 239.693 91.1415 231.44 91.3901C218.179 91.7906 204.435 78.0346 204.835 64.7629C205.084 56.504 206.992 47.8874 212.685 42.1893C218.928 35.9418 232.712 30.2101 246.159 25.757C266.16 19.1342 277.032 30.0146 270.414 50.032C265.965 63.49 260.238 77.2859 253.995 83.5335Z" fill="#A48845" stroke="#8E6B3F" stroke-width="4" stroke-miterlimit="10"/>
</g>
<mask id="mask8_4_2006" style="mask-type:luminance" maskUnits="userSpaceOnUse" x="-157" y="-150" width="570" height="738">
<path d="M-156.853 -150H412.586V587.524H-156.853V-150Z" fill="white"/>
</mask>
<g mask="url(#mask8_4_2006)">
<path d="M242.417 335.1C236.805 329.595 234.024 322.055 232.705 315.012C230.584 303.697 240.445 293.627 251.792 295.522C258.854 296.701 266.441 299.333 272.054 304.838C278.208 310.875 284.935 323.26 290.529 335.209C298.849 352.982 291.049 360.947 273.128 352.977C261.079 347.62 248.571 341.137 242.417 335.1Z" fill="#C9A744" stroke="#B98742" stroke-width="4" stroke-miterlimit="10"/>
</g>
<mask id="mask9_4_2006" style="mask-type:luminance" maskUnits="userSpaceOnUse" x="-157" y="-150" width="570" height="738">
<path d="M-156.853 -150H412.586V587.524H-156.853V-150Z" fill="white"/>
</mask>
<g mask="url(#mask9_4_2006)">
<path d="M215.694 140.563C208.026 132.889 204.294 122.448 202.571 112.712C199.802 97.0698 213.547 83.3139 229.176 86.0852C238.903 87.8098 249.337 91.5458 257.005 99.2191C265.412 107.634 274.522 124.816 282.076 141.38C293.309 166.018 282.438 176.898 257.821 165.655C241.27 158.096 224.102 148.978 215.694 140.563Z" fill="#A48845" stroke="#8E6B3F" stroke-width="4" stroke-miterlimit="10"/>
</g>
<mask id="mask10_4_2006" style="mask-type:luminance" maskUnits="userSpaceOnUse" x="-157" y="-150" width="570" height="738">
<path d="M-156.853 -150H412.586V587.524H-156.853V-150Z" fill="white"/>
</mask>
<g mask="url(#mask10_4_2006)">
<path d="M175.523 328.446C168.47 326.356 162.867 321.34 158.691 316.096C151.981 307.667 155.725 295.014 165.939 291.602C172.296 289.479 179.723 288.326 186.776 290.415C194.51 292.708 205.5 299.999 215.36 307.426C230.026 318.474 227.065 328.483 208.753 329.756C196.441 330.612 183.257 330.739 175.523 328.446Z" fill="#A48845" stroke="#8E6B3F" stroke-width="4" stroke-miterlimit="10"/>
</g>
<mask id="mask11_4_2006" style="mask-type:luminance" maskUnits="userSpaceOnUse" x="-157" y="-150" width="570" height="738">
<path d="M-156.853 -150H412.586V587.524H-156.853V-150Z" fill="white"/>
</mask>
<g mask="url(#mask11_4_2006)">
<path d="M145.441 98.692C153.109 91.0179 163.541 87.2827 173.269 85.5581C188.899 82.7868 202.644 96.5428 199.875 112.185C198.151 121.92 194.418 132.362 186.751 140.036C178.343 148.451 161.175 157.568 144.625 165.128C120.008 176.37 109.136 165.49 120.37 140.853C127.922 124.288 137.033 107.106 145.441 98.692Z" fill="#A48845" stroke="#8E6B3F" stroke-width="4" stroke-miterlimit="10"/>
</g>
<mask id="mask12_4_2006" style="mask-type:luminance" maskUnits="userSpaceOnUse" x="-157" y="-150" width="570" height="738">
<path d="M-156.853 -150H412.586V587.524H-156.853V-150Z" fill="white"/>
</mask>
<g mask="url(#mask12_4_2006)">
<path d="M149.258 55.3818C157.847 52.0322 167.501 53.3564 175.969 56.1324C189.576 60.5938 196.634 78.72 189.631 91.2188C185.272 98.9981 179.059 106.511 170.47 109.861C161.051 113.534 144.264 113.961 128.454 113.293C104.939 112.3 99.3558 97.9617 116 81.306C127.189 70.1081 139.84 59.0545 149.258 55.3818Z" fill="#A48845" stroke="#8E6B3F" stroke-width="4" stroke-miterlimit="10"/>
</g>
<mask id="mask13_4_2006" style="mask-type:luminance" maskUnits="userSpaceOnUse" x="-157" y="-150" width="570" height="738">
<path d="M-156.853 -150H412.586V587.524H-156.853V-150Z" fill="white"/>
</mask>
<g mask="url(#mask13_4_2006)">
<path d="M196.486 40.8332C202.558 46.9103 204.818 55.8779 205.351 64.4209C206.206 78.1489 192.461 91.9049 178.745 91.0481C170.208 90.5155 161.249 88.2545 155.176 82.1774C148.518 75.5126 142.14 61.0657 137.094 47.0109C129.588 26.1051 140.461 15.2247 161.349 22.7359C175.393 27.7859 189.827 34.1685 196.486 40.8332Z" fill="#A48845" stroke="#8E6B3F" stroke-width="4" stroke-miterlimit="10"/>
</g>
<mask id="mask14_4_2006" style="mask-type:luminance" maskUnits="userSpaceOnUse" x="-157" y="-150" width="570" height="738">
<path d="M-156.853 -150H412.586V587.524H-156.853V-150Z" fill="white"/>
</mask>
<g mask="url(#mask14_4_2006)">
<path d="M242.771 68.1234C239.588 75.5694 232.293 80.5822 224.712 83.915C212.534 89.2686 194.662 81.6186 190.119 69.1059C187.291 61.3181 185.874 52.5758 189.056 45.1298C192.546 36.9649 203.237 26.4477 214.088 17.2492C230.229 3.56589 244.365 9.61693 245.627 30.749C246.475 44.9566 246.26 59.9585 242.771 68.1234Z" fill="#C5A937" stroke="#C58D3A" stroke-width="4" stroke-miterlimit="10"/>
</g>
<mask id="mask15_4_2006" style="mask-type:luminance" maskUnits="userSpaceOnUse" x="-157" y="-150" width="570" height="738">
<path d="M-156.853 -150H412.586V587.524H-156.853V-150Z" fill="white"/>
</mask>
<g mask="url(#mask15_4_2006)">
<path d="M235.001 100.694C226.577 99.7524 219.321 94.1698 213.659 87.8375C204.561 77.6621 206.719 58.3291 217.835 50.4138C224.754 45.4876 233.062 41.6445 241.485 42.586C250.723 43.6187 264.527 50.8989 277.061 58.7072C295.706 70.3213 293.998 85.6147 273.254 92.8251C259.306 97.673 244.238 101.727 235.001 100.694Z" fill="#C5A937" stroke="#C58D3A" stroke-width="4" stroke-miterlimit="10"/>
</g>
<mask id="mask16_4_2006" style="mask-type:luminance" maskUnits="userSpaceOnUse" x="-157" y="-150" width="570" height="738">
<path d="M-156.853 -150H412.586V587.524H-156.853V-150Z" fill="white"/>
</mask>
<g mask="url(#mask16_4_2006)">
<path d="M225.149 125.401C217.837 117.388 214.581 106.788 213.3 96.9844C211.242 81.2329 225.595 68.1139 241.083 71.591C250.723 73.7552 260.975 77.9596 268.288 85.9728C276.307 94.7597 284.63 112.337 291.426 129.227C301.533 154.348 290.18 164.725 266.097 152.377C249.905 144.076 233.168 134.188 225.149 125.401Z" fill="#C5A937" stroke="#C58D3A" stroke-width="4" stroke-miterlimit="10"/>
</g>
<mask id="mask17_4_2006" style="mask-type:luminance" maskUnits="userSpaceOnUse" x="-157" y="-150" width="570" height="738">
<path d="M-156.853 -150H412.586V587.524H-156.853V-150Z" fill="white"/>
</mask>
<g mask="url(#mask17_4_2006)">
<path d="M192.916 147.266C188.882 137.193 189.554 126.123 191.794 116.494C195.395 101.023 213.437 93.7842 226.719 102.484C234.984 107.899 243.109 115.439 247.143 125.513C251.568 136.558 253.192 155.941 253.628 174.144C254.276 201.218 240.005 206.943 221.788 186.916C209.542 173.453 197.341 158.312 192.916 147.266Z" fill="#C5A937" stroke="#C58D3A" stroke-width="4" stroke-miterlimit="10"/>
</g>
<mask id="mask18_4_2006" style="mask-type:luminance" maskUnits="userSpaceOnUse" x="-157" y="-150" width="570" height="738">
<path d="M-156.853 -150H412.586V587.524H-156.853V-150Z" fill="white"/>
</mask>
<g mask="url(#mask18_4_2006)">
<path d="M198.553 260.593C206.287 259.232 214.027 261.356 220.512 264.38C230.932 269.238 233.372 283.114 225.233 291.239C220.168 296.296 213.618 300.937 205.884 302.298C197.402 303.791 183.434 302.057 170.479 299.655C151.209 296.083 149.28 285.108 166.175 275.169C177.534 268.487 190.072 262.086 198.553 260.593Z" fill="#C5A937" stroke="#C58D3A" stroke-width="4" stroke-miterlimit="10"/>
</g>
<mask id="mask19_4_2006" style="mask-type:luminance" maskUnits="userSpaceOnUse" x="-157" y="-150" width="570" height="738">
<path d="M-156.853 -150H412.586V587.524H-156.853V-150Z" fill="white"/>
</mask>
<g mask="url(#mask19_4_2006)">
<path d="M132.279 82.7913C140.037 75.2093 150.514 71.599 160.262 69.9908C175.923 67.4057 189.503 81.3256 186.548 96.9337C184.709 106.647 180.852 117.044 173.094 124.625C164.586 132.939 147.311 141.852 130.671 149.212C105.921 160.161 95.1802 149.151 106.707 124.649C114.456 108.177 123.772 91.1052 132.279 82.7913Z" fill="#C5A937" stroke="#C58D3A" stroke-width="4" stroke-miterlimit="10"/>
</g>
<mask id="mask20_4_2006" style="mask-type:luminance" maskUnits="userSpaceOnUse" x="-157" y="-150" width="570" height="738">
<path d="M-156.853 -150H412.586V587.524H-156.853V-150Z" fill="white"/>
</mask>
<g mask="url(#mask20_4_2006)">
<path d="M175.347 49.6014C183.695 53.1754 189.544 60.8365 193.552 68.7128C199.991 81.368 192.348 99.2548 178.756 103.334C170.296 105.874 160.72 106.933 152.372 103.36C143.218 99.4401 131.152 88.0737 120.533 76.602C104.738 59.5393 110.784 45.3914 134.023 45.0384C149.646 44.801 166.193 45.6828 175.347 49.6014Z" fill="#C5A937" stroke="#C58D3A" stroke-width="4" stroke-miterlimit="10"/>
</g>
<mask id="mask21_4_2006" style="mask-type:luminance" maskUnits="userSpaceOnUse" x="-157" y="-150" width="570" height="738">
<path d="M-156.853 -150H412.586V587.524H-156.853V-150Z" fill="white"/>
</mask>
<g mask="url(#mask21_4_2006)">
<path d="M212.779 43.8549C215.845 51.5105 214.279 60.3459 211.316 68.1699C206.553 80.7404 188.51 87.9779 176.391 82.1801C168.848 78.5707 161.618 73.2637 158.552 65.6082C155.191 57.2142 155.225 41.9748 156.311 27.5735C157.927 6.15276 172.199 0.427635 188.151 14.801C198.875 24.4642 209.417 35.4609 212.779 43.8549Z" fill="#C5A937" stroke="#C58D3A" stroke-width="4" stroke-miterlimit="10"/>
</g>
<mask id="mask22_4_2006" style="mask-type:luminance" maskUnits="userSpaceOnUse" x="-157" y="-150" width="570" height="738">
<path d="M-156.853 -150H412.586V587.524H-156.853V-150Z" fill="white"/>
</mask>
<g mask="url(#mask22_4_2006)">
<path d="M265.016 87.8487C265.016 125.378 234.618 155.801 197.12 155.801C159.622 155.801 129.224 125.378 129.224 87.8487C129.224 50.3197 159.622 19.8969 197.12 19.8969C234.618 19.8969 265.016 50.3197 265.016 87.8487Z" fill="#543A26" stroke="#38231E" stroke-width="4" stroke-miterlimit="10"/>
</g>
<mask id="mask23_4_2006" style="mask-type:luminance" maskUnits="userSpaceOnUse" x="-157" y="-150" width="570" height="738">
<path d="M-156.853 -150H412.586V587.524H-156.853V-150Z" fill="white"/>
</mask>
<g mask="url(#mask23_4_2006)">
<path d="M196.306 164.811C196.306 164.811 219.326 147.611 249.244 140.621C249.244 140.621 236.727 123.481 214.712 140.782C214.712 140.782 199.578 152.334 196.306 164.811Z" fill="black" stroke="#B98742" stroke-width="4" stroke-miterlimit="10"/>
</g>
<mask id="mask24_4_2006" style="mask-type:luminance" maskUnits="userSpaceOnUse" x="-157" y="-150" width="570" height="738">
<path d="M-156.853 -150H412.586V587.524H-156.853V-150Z" fill="white"/>
</mask>
<g mask="url(#mask24_4_2006)">
<path d="M197.048 82.0282C202.886 79.2531 209.717 81.0653 213.485 86.0119C213.27 85.1179 212.965 84.2323 212.555 83.3691C209.372 76.6625 201.36 73.8074 194.658 76.9931C187.957 80.1788 185.105 88.1975 188.288 94.9041C188.698 95.7673 189.19 96.5645 189.747 97.2964C188.297 91.2472 191.209 84.8032 197.048 82.0282Z" fill="#221D26" stroke="#0C0C0D" stroke-width="2.66667" stroke-miterlimit="10"/>
</g>
<mask id="mask25_4_2006" style="mask-type:luminance" maskUnits="userSpaceOnUse" x="-157" y="-150" width="570" height="738">
<path d="M-156.853 -150H412.586V587.524H-156.853V-150Z" fill="white"/>
</mask>
<g mask="url(#mask25_4_2006)">
<path d="M138.198 87.9623C134.223 89.8518 133.549 96.7567 136.695 103.384L147.425 125.995C151.624 134.844 165.76 136.916 179 130.623C192.238 124.33 199.567 112.055 195.368 103.206L184.638 80.5955C181.492 73.968 175.719 70.1267 171.743 72.0171L138.198 87.9623Z" fill="#221D26" stroke="#0C0C0D" stroke-width="2.66667" stroke-miterlimit="10"/>
</g>
<mask id="mask26_4_2006" style="mask-type:luminance" maskUnits="userSpaceOnUse" x="-157" y="-150" width="570" height="738">
<path d="M-156.853 -150H412.586V587.524H-156.853V-150Z" fill="white"/>
</mask>
<g mask="url(#mask26_4_2006)">
<path d="M204.785 56.311C200.81 58.2004 200.136 65.1054 203.282 71.7328L214.012 94.3437C218.211 103.193 232.347 105.265 245.587 98.9719C258.825 92.6787 266.154 80.4034 261.954 71.555L251.224 48.9441C248.079 42.3166 242.306 38.4754 238.33 40.3657L204.785 56.311Z" fill="#221D26" stroke="#0C0C0D" stroke-width="2.66667" stroke-miterlimit="10"/>
</g>
<mask id="mask27_4_2006" style="mask-type:luminance" maskUnits="userSpaceOnUse" x="-157" y="-150" width="570" height="738">
<path d="M-156.853 -150H412.586V587.524H-156.853V-150Z" fill="white"/>
</mask>
<g mask="url(#mask27_4_2006)">
<path d="M204.413 113.938L202.963 126.925C202.32 132.688 208.153 136.988 213.463 134.663L225.425 129.426C230.734 127.102 231.538 119.897 226.871 116.457L216.359 108.708C211.693 105.268 205.056 108.174 204.413 113.938Z" fill="#D69C68" stroke="#9B6743" stroke-width="4" stroke-miterlimit="10"/>
</g>
<mask id="mask28_4_2006" style="mask-type:luminance" maskUnits="userSpaceOnUse" x="-157" y="-150" width="570" height="738">
<path d="M-156.853 -150H412.586V587.524H-156.853V-150Z" fill="white"/>
</mask>
<g mask="url(#mask28_4_2006)">
<path d="M148.851 254.157C148.851 254.157 180.268 310.476 211.439 295.43C211.439 295.43 216.455 253.449 148.851 254.157Z" fill="#706942" stroke="#44412D" stroke-width="2.66667" stroke-miterlimit="10"/>
</g>
<mask id="mask29_4_2006" style="mask-type:luminance" maskUnits="userSpaceOnUse" x="-157" y="-150" width="570" height="738">
<path d="M-156.853 -150H412.586V587.524H-156.853V-150Z" fill="white"/>
</mask>
<g mask="url(#mask29_4_2006)">
<path d="M74.0146 298.544C74.0146 298.544 66.8771 256.871 134.431 254.148C134.431 254.148 105.907 311.989 74.0146 298.544Z" fill="#706942" stroke="#44412D" stroke-width="2.66667" stroke-miterlimit="10"/>
</g>
<mask id="mask30_4_2006" style="mask-type:luminance" maskUnits="userSpaceOnUse" x="-157" y="-150" width="570" height="738">
<path d="M-156.853 -150H412.586V587.524H-156.853V-150Z" fill="white"/>
</mask>
<g mask="url(#mask30_4_2006)">
<path d="M151.63 303.834C151.63 303.834 188.843 356.497 218.242 338.224C218.242 338.224 218.778 295.947 151.63 303.834Z" fill="#706942"/>
</g>
<mask id="mask31_4_2006" style="mask-type:luminance" maskUnits="userSpaceOnUse" x="-157" y="-150" width="570" height="738">
<path d="M-156.853 -150H412.586V587.524H-156.853V-150Z" fill="white"/>
</mask>
<g mask="url(#mask31_4_2006)">
<path d="M151.63 303.834C151.63 303.834 188.843 356.497 218.242 338.224C218.242 338.224 218.778 295.947 151.63 303.834Z" stroke="#44412D" stroke-width="2.66667" stroke-miterlimit="10"/>
</g>
<mask id="mask32_4_2006" style="mask-type:luminance" maskUnits="userSpaceOnUse" x="-157" y="-150" width="570" height="738">
<path d="M-156.853 -150H412.586V587.524H-156.853V-150Z" fill="white"/>
</mask>
<g mask="url(#mask32_4_2006)">
<path d="M71.2417 339.022C71.2417 339.022 69.6692 296.771 136.99 303.006C136.99 303.006 101.08 356.567 71.2417 339.022Z" fill="#706942" stroke="#44412D" stroke-width="2.66667" stroke-miterlimit="10"/>
</g>
</g>
<defs>
<clipPath id="clip0_4_2006">
<rect width="297" height="554" fill="white"/>
</clipPath>
</defs>
</svg>
