<?xml version="1.0" encoding="UTF-8"?>
<svg id="Layer_1" data-name="Layer 1" xmlns="http://www.w3.org/2000/svg" viewBox="0 0 292.41 485.35">
  <defs>
    <style>
      .cls-1 {
        fill: #5a3723;
        stroke: #382217;
      }

      .cls-1, .cls-2, .cls-3, .cls-4, .cls-5 {
        stroke-miterlimit: 10;
      }

      .cls-1, .cls-2, .cls-4 {
        stroke-width: 2px;
      }

      .cls-2 {
        fill: #995724;
        stroke: #7a4521;
      }

      .cls-3 {
        fill: #e7c01f;
        stroke: #d8902e;
      }

      .cls-3, .cls-5 {
        stroke-width: 3px;
      }

      .cls-4 {
        fill: #747a46;
        stroke: #47492e;
      }

      .cls-5 {
        fill: #5b3b21;
        stroke: #331a14;
      }
    </style>
  </defs>
  <g>
    <g>
      <path class="cls-2" d="M18.93,286.71l34.84,180.45c0,9.49,41.79,17.19,93.34,17.19s93.34-7.7,93.34-17.19l32.74-178.64-254.27-1.81Z"/>
      <ellipse class="cls-2" cx="146.21" cy="244.39" rx="145.21" ry="87.89"/>
      <ellipse class="cls-1" cx="145.8" cy="235.95" rx="138.53" ry="59.32"/>
    </g>
    <g>
      <g>
        <path class="cls-4" d="M137.13,224.78s50.77,9.86,47.12,37.39c0,0-30.73,14.33-47.12-37.39Z"/>
        <path class="cls-4" d="M77.64,237.85s19.25,27.91,59.56-8.41c0,0-48.78-17.19-59.56,8.41"/>
      </g>
      <path class="cls-4" d="M148.39,94.41s12.56,129.73-37.66,165.12h8s51.63-37.43,35.64-165.53l-5.98.41Z"/>
    </g>
    <g>
      <g>
        <path class="cls-3" d="M188.89,58.11c-3.2,7.48-9.43,13-15.73,16.92-10.12,6.29-23.53.56-25.97-11.11-1.52-7.26-1.83-15.57,1.37-23.06,3.51-8.21,12.93-19.35,22.35-29.24,14.02-14.7,24.63-10.16,23.68,10.13-.64,13.64-2.19,28.15-5.7,36.36Z"/>
        <path class="cls-3" d="M197.17,89.46c-7.56,3.03-15.86,2.52-23.08.84-11.61-2.7-17.03-16.25-10.51-26.22,4.06-6.21,9.72-12.3,17.27-15.33,8.29-3.32,22.82-4.54,36.48-4.87,20.31-.49,24.6,10.23,9.58,23.9-10.1,9.19-21.46,18.35-29.74,21.67Z"/>
        <path class="cls-3" d="M177.77,116.83c-7.48-3.2-13-9.43-16.92-15.73-6.29-10.12-.56-23.53,11.11-25.97,7.26-1.52,15.57-1.83,23.06,1.37,8.21,3.51,19.35,12.93,29.24,22.35,14.7,14.02,10.16,24.63-10.13,23.68-13.64-.64-28.15-2.19-36.36-5.7Z"/>
        <path class="cls-3" d="M148.56,124.25c-3.03-7.56-2.52-15.86-.84-23.08,2.7-11.61,16.25-17.03,26.22-10.51,6.21,4.06,12.3,9.72,15.33,17.27,3.32,8.29,4.54,22.82,4.87,36.48.49,20.31-10.23,24.6-23.9,9.58-9.19-10.1-18.35-21.46-21.67-29.74Z"/>
        <path class="cls-3" d="M120.55,106.35c3.2-7.48,9.43-13,15.73-16.92,10.12-6.29,23.53-.56,25.97,11.11,1.52,7.26,1.83,15.57-1.37,23.06-3.51,8.21-12.93,19.35-22.35,29.24-14.02,14.7-24.63,10.16-23.68-10.13.64-13.64,2.19-28.15,5.7-36.36Z"/>
        <path class="cls-3" d="M112.42,74.63c7.56-3.03,15.86-2.52,23.08-.84,11.61,2.7,17.03,16.25,10.51,26.22-4.06,6.21-9.72,12.3-17.27,15.33-8.29,3.32-22.82,4.54-36.48,4.87-20.31.49-24.6-10.23-9.58-23.9,10.1-9.19,21.46-18.35,29.74-21.67Z"/>
        <path class="cls-3" d="M131.03,49.13c7.48,3.2,13,9.43,16.92,15.73,6.29,10.12.56,23.53-11.11,25.97-7.26,1.52-15.57,1.83-23.06-1.37-8.21-3.51-19.35-12.93-29.24-22.35-14.7-14.02-10.16-24.63,10.13-23.68,13.64.64,28.15,2.19,36.36,5.7Z"/>
        <path class="cls-3" d="M160.88,40.21c3.03,7.56,2.52,15.86.84,23.08-2.7,11.61-16.25,17.03-26.22,10.51-6.21-4.06-12.3-9.72-15.33-17.27-3.32-8.29-4.54-22.82-4.87-36.48-.49-20.31,10.23-24.6,23.9-9.58,9.19,10.1,18.35,21.46,21.67,29.74Z"/>
      </g>
      <circle class="cls-5" cx="154.37" cy="81.22" r="42.82"/>
    </g>
  </g>
  <g>
    <path class="cls-4" d="M155.78,175.52s46.39-8.66,52.52,15.93c0,0-21.27,22.46-52.52-15.93Z"/>
    <path class="cls-4" d="M95.91,190.81s20.7,22.99,52.9-14.61c0,0-46.16-9.81-52.9,14.61"/>
  </g>
</svg>