<?xml version="1.0" encoding="UTF-8"?>
<svg id="Layer_1" data-name="Layer 1" xmlns="http://www.w3.org/2000/svg" viewBox="0 0 292.41 455.54">
  <defs>
    <style>
      .cls-1 {
        fill: #656943;
        stroke: #353527;
      }

      .cls-1, .cls-2, .cls-3 {
        stroke-width: 2px;
      }

      .cls-1, .cls-2, .cls-3, .cls-4, .cls-5 {
        stroke-miterlimit: 10;
      }

      .cls-2 {
        fill: #5a3723;
        stroke: #382217;
      }

      .cls-3 {
        fill: #995724;
        stroke: #7a4521;
      }

      .cls-4 {
        fill: #493320;
        stroke: #231412;
      }

      .cls-4, .cls-5 {
        stroke-width: 3px;
      }

      .cls-5 {
        fill: #cdae2c;
        stroke: #ba8341;
      }
    </style>
  </defs>
  <g>
    <g>
      <path class="cls-3" d="M18.93,256.9l34.84,180.45c0,9.49,41.79,17.19,93.34,17.19s93.34-7.7,93.34-17.19l32.74-178.64-254.27-1.81Z"/>
      <ellipse class="cls-3" cx="146.21" cy="214.58" rx="145.21" ry="87.89"/>
      <ellipse class="cls-2" cx="145.8" cy="206.14" rx="138.53" ry="59.32"/>
    </g>
    <g>
      <g>
        <path class="cls-1" d="M139.07,190.05s40.42,32.27,24.42,54.97c0,0-33.87-1.54-24.42-54.97Z"/>
        <path class="cls-1" d="M85.42,227.45s29.14,17.34,50.63-32.48c0,0-51.51,4.72-50.63,32.48"/>
      </g>
      <path class="cls-1" d="M148.39,64.6s12.56,129.73-37.66,165.12h8s51.63-37.43,35.64-165.53l-5.98.41Z"/>
    </g>
    <g>
      <g>
        <path class="cls-5" d="M214.61,50.33c-7.01,4.14-15.29,4.9-22.69,4.33-11.88-.91-19.3-13.48-14.36-24.32,3.07-6.75,7.74-13.63,14.75-17.77,7.69-4.54,21.87-7.95,35.32-10.34,20-3.56,25.87,6.38,13.09,22.17-8.59,10.62-18.43,21.39-26.11,25.93Z"/>
        <path class="cls-5" d="M205.78,67.18c-7.75-2.5-13.81-8.19-18.29-14.11-7.2-9.5-2.72-23.38,8.68-26.88,7.09-2.18,15.34-3.25,23.08-.75,8.49,2.74,20.46,11.1,31.17,19.57,15.93,12.61,12.38,23.59-7.91,24.51-13.64.62-28.23.4-36.73-2.34Z"/>
        <path class="cls-5" d="M196.08,84.08c-5.57-5.93-8.13-13.85-9.2-21.19-1.71-11.79,8.92-21.78,20.59-19.34,7.26,1.52,15,4.57,20.57,10.5,6.11,6.51,12.55,19.6,17.83,32.2,7.85,18.73-.56,26.64-18.77,17.63-12.24-6.05-24.91-13.29-31.02-19.8Z"/>
        <path class="cls-5" d="M213.4,191.7c5.66-2.27,11.88-1.89,17.28-.63,8.69,2.02,12.76,12.17,7.87,19.63-3.04,4.65-7.28,9.21-12.93,11.48-6.2,2.49-17.09,3.4-27.32,3.65-15.21.36-18.42-7.66-7.17-17.9,7.56-6.88,16.07-13.74,22.27-16.23Z"/>
        <path class="cls-5" d="M150.19,90.65c3.2-7.48,9.43-13,15.73-16.92,10.12-6.29,23.53-.56,25.97,11.11,1.52,7.26,1.83,15.57-1.37,23.06-3.51,8.21-12.93,19.35-22.35,29.24-14.02,14.7-24.63,10.16-23.68-10.13.64-13.64,2.19-28.15,5.7-36.36Z"/>
        <path class="cls-5" d="M99.5,250.83c-6.18,0-11.89-2.7-16.5-5.92-7.41-5.18-7.41-16.26,0-21.44,4.61-3.22,10.32-5.92,16.5-5.92,6.77,0,17.36,3.25,27.07,6.87,14.44,5.39,14.44,14.15,0,19.54-9.71,3.62-20.3,6.87-27.07,6.87Z"/>
        <path class="cls-5" d="M150.87,30.51c7.66-2.77,15.94-1.98,23.1-.05,11.51,3.1,16.47,16.82,9.61,26.56-4.27,6.06-10.13,11.96-17.79,14.73-8.39,3.04-22.97,3.76-36.62,3.62-20.31-.21-24.24-11.06-8.76-24.22,10.41-8.84,22.07-17.61,30.47-20.64Z"/>
        <path class="cls-5" d="M178.65,12.04c7.47,3.24,12.95,9.49,16.84,15.81,6.24,10.15.44,23.54-11.24,25.91-7.27,1.48-15.58,1.75-23.05-1.49-8.19-3.55-19.29-13.02-29.12-22.5-14.63-14.09-10.04-24.68,10.24-23.62,13.64.71,28.14,2.33,36.33,5.89Z"/>
      </g>
      <circle class="cls-4" cx="184.01" cy="65.52" r="42.82"/>
    </g>
  </g>
  <g>
    <path class="cls-1" d="M157.45,146.4s43.17,19.07,34.33,42.82c0,0-30.24,6.51-34.33-42.82Z"/>
    <path class="cls-1" d="M108.07,182.35s29.47,9.41,38.31-39.31c0,0-44.81,14.81-38.31,39.31"/>
  </g>
</svg>