<svg width="277" height="452" viewBox="0 0 277 452" fill="none" xmlns="http://www.w3.org/2000/svg">
<g clip-path="url(#clip0_4_2676)">
<mask id="mask0_4_2676" style="mask-type:luminance" maskUnits="userSpaceOnUse" x="-148" y="-252" width="572" height="739">
<path d="M-147.906 -252H423.505V486.256H-147.906V-252Z" fill="white"/>
</mask>
<g mask="url(#mask0_4_2676)">
<path d="M19.4292 268.057L51.9613 436.26C51.9613 445.109 90.9797 452.283 139.113 452.283C187.246 452.283 226.264 445.109 226.264 436.26L256.834 269.74L19.4292 268.057Z" fill="#985724" stroke="#7A4521" stroke-width="2.66667" stroke-miterlimit="10"/>
</g>
<mask id="mask1_4_2676" style="mask-type:luminance" maskUnits="userSpaceOnUse" x="-148" y="-252" width="572" height="739">
<path d="M-147.906 -252H423.505V486.256H-147.906V-252Z" fill="white"/>
</mask>
<g mask="url(#mask1_4_2676)">
<path d="M273.842 228.602C273.842 273.847 213.142 310.525 138.266 310.525C63.3908 310.525 2.69141 273.847 2.69141 228.602C2.69141 183.358 63.3908 146.68 138.266 146.68C213.142 146.68 273.842 183.358 273.842 228.602Z" fill="#985724" stroke="#7A4521" stroke-width="2.66667" stroke-miterlimit="10"/>
</g>
<mask id="mask2_4_2676" style="mask-type:luminance" maskUnits="userSpaceOnUse" x="-148" y="-252" width="572" height="739">
<path d="M-147.906 -252H423.505V486.256H-147.906V-252Z" fill="white"/>
</mask>
<g mask="url(#mask2_4_2676)">
<path d="M267.235 220.735C267.235 251.274 209.326 276.032 137.891 276.032C66.4554 276.032 8.5459 251.274 8.5459 220.735C8.5459 190.195 66.4554 165.437 137.891 165.437C209.326 165.437 267.235 190.195 267.235 220.735Z" fill="#5A3723" stroke="#382217" stroke-width="2.66667" stroke-miterlimit="10"/>
</g>
<mask id="mask3_4_2676" style="mask-type:luminance" maskUnits="userSpaceOnUse" x="-148" y="-252" width="572" height="739">
<path d="M-147.906 -252H423.505V486.256H-147.906V-252Z" fill="white"/>
</mask>
<g mask="url(#mask3_4_2676)">
<path d="M129.789 210.326C129.789 210.326 177.197 219.518 173.783 245.181C173.783 245.181 145.094 258.539 129.789 210.326Z" fill="#747A46" stroke="#47492E" stroke-width="2.66667" stroke-miterlimit="10"/>
</g>
<mask id="mask4_4_2676" style="mask-type:luminance" maskUnits="userSpaceOnUse" x="-148" y="-252" width="572" height="739">
<path d="M-147.906 -252H423.505V486.256H-147.906V-252Z" fill="white"/>
</mask>
<g mask="url(#mask4_4_2676)">
<path d="M74.2507 222.512C74.2507 222.512 92.225 248.527 129.862 214.673C129.862 214.673 84.3139 198.652 74.2507 222.512Z" fill="#747A46" stroke="#47492E" stroke-width="2.66667" stroke-miterlimit="10"/>
</g>
<mask id="mask5_4_2676" style="mask-type:luminance" maskUnits="userSpaceOnUse" x="-148" y="-252" width="572" height="739">
<path d="M-147.906 -252H423.505V486.256H-147.906V-252Z" fill="white"/>
</mask>
<g mask="url(#mask5_4_2676)">
<path d="M140.308 88.804C140.308 88.804 152.036 209.73 105.145 242.719H112.618C112.618 242.719 160.829 207.834 145.894 88.419L140.308 88.804Z" fill="#747A46" stroke="#47492E" stroke-width="2.66667" stroke-miterlimit="10"/>
</g>
<mask id="mask6_4_2676" style="mask-type:luminance" maskUnits="userSpaceOnUse" x="-148" y="-252" width="572" height="739">
<path d="M-147.906 -252H423.505V486.256H-147.906V-252Z" fill="white"/>
</mask>
<g mask="url(#mask6_4_2676)">
<path d="M178.119 54.9607C175.13 61.9369 169.316 67.0776 163.437 70.7298C153.99 76.5976 141.464 71.248 139.189 60.3755C137.774 53.6082 137.482 45.8602 140.47 38.8841C143.748 31.234 152.541 20.8462 161.339 11.632C174.426 -2.07423 184.334 2.15678 183.445 21.0718C182.847 33.7881 181.396 47.3106 178.119 54.9607Z" fill="#E7BF1F" stroke="#D8902E" stroke-width="4" stroke-miterlimit="10"/>
</g>
<mask id="mask7_4_2676" style="mask-type:luminance" maskUnits="userSpaceOnUse" x="-148" y="-252" width="572" height="739">
<path d="M-147.906 -252H423.505V486.256H-147.906V-252Z" fill="white"/>
</mask>
<g mask="url(#mask7_4_2676)">
<path d="M185.853 84.1881C178.799 87.0115 171.046 86.5417 164.302 84.9729C153.467 82.4534 148.398 69.8284 154.491 60.535C158.283 54.7501 163.564 49.065 170.619 46.2425C178.354 43.1468 191.929 42.0096 204.677 41.7048C223.637 41.2508 227.648 51.2378 213.622 63.9848C204.193 72.554 193.589 81.0924 185.853 84.1881Z" fill="#E7BF1F" stroke="#D8902E" stroke-width="4" stroke-miterlimit="10"/>
</g>
<mask id="mask8_4_2676" style="mask-type:luminance" maskUnits="userSpaceOnUse" x="-148" y="-252" width="572" height="739">
<path d="M-147.906 -252H423.505V486.256H-147.906V-252Z" fill="white"/>
</mask>
<g mask="url(#mask8_4_2676)">
<path d="M167.738 109.698C160.75 106.714 155.601 100.909 151.943 95.0401C146.065 85.6087 151.424 73.1031 162.314 70.8324C169.092 69.4193 176.853 69.1275 183.841 72.1113C191.504 75.3831 201.908 84.162 211.138 92.9456C224.867 106.01 220.629 115.902 201.682 115.015C188.945 114.418 175.4 112.97 167.738 109.698Z" fill="#E7BF1F" stroke="#D8902E" stroke-width="4" stroke-miterlimit="10"/>
</g>
<mask id="mask9_4_2676" style="mask-type:luminance" maskUnits="userSpaceOnUse" x="-148" y="-252" width="572" height="739">
<path d="M-147.906 -252H423.505V486.256H-147.906V-252Z" fill="white"/>
</mask>
<g mask="url(#mask9_4_2676)">
<path d="M140.468 116.617C137.64 109.574 138.11 101.834 139.681 95.1013C142.205 84.2838 154.851 79.2232 164.16 85.3063C169.954 89.0918 175.649 94.3639 178.476 101.407C181.577 109.13 182.716 122.682 183.021 135.41C183.476 154.339 173.472 158.342 160.704 144.34C152.121 134.926 143.568 124.34 140.468 116.617Z" fill="#E7BF1F" stroke="#D8902E" stroke-width="4" stroke-miterlimit="10"/>
</g>
<mask id="mask10_4_2676" style="mask-type:luminance" maskUnits="userSpaceOnUse" x="-148" y="-252" width="572" height="739">
<path d="M-147.906 -252H423.505V486.256H-147.906V-252Z" fill="white"/>
</mask>
<g mask="url(#mask10_4_2676)">
<path d="M114.315 99.9334C117.304 92.9572 123.119 87.8165 128.997 84.1643C138.444 78.2965 150.97 83.6461 153.245 94.5186C154.66 101.286 154.952 109.034 151.964 116.01C148.686 123.66 139.893 134.048 131.095 143.262C118.009 156.968 108.1 152.737 108.989 133.822C109.587 121.106 111.038 107.583 114.315 99.9334Z" fill="#E7BF1F" stroke="#D8902E" stroke-width="4" stroke-miterlimit="10"/>
</g>
<mask id="mask11_4_2676" style="mask-type:luminance" maskUnits="userSpaceOnUse" x="-148" y="-252" width="572" height="739">
<path d="M-147.906 -252H423.505V486.256H-147.906V-252Z" fill="white"/>
</mask>
<g mask="url(#mask11_4_2676)">
<path d="M106.726 70.3671C113.781 67.5436 121.533 68.0134 128.277 69.5822C139.112 72.1018 144.181 84.7267 138.088 94.0202C134.297 99.805 129.016 105.49 121.961 108.313C114.225 111.408 100.651 112.546 87.9021 112.85C68.9419 113.304 64.9317 103.317 78.9574 90.5703C88.3867 82.0011 98.9904 73.4627 106.726 70.3671Z" fill="#E7BF1F" stroke="#D8902E" stroke-width="4" stroke-miterlimit="10"/>
</g>
<mask id="mask12_4_2676" style="mask-type:luminance" maskUnits="userSpaceOnUse" x="-148" y="-252" width="572" height="739">
<path d="M-147.906 -252H423.505V486.256H-147.906V-252Z" fill="white"/>
</mask>
<g mask="url(#mask12_4_2676)">
<path d="M124.096 46.5984C131.083 49.5822 136.233 55.3876 139.891 61.2563C145.768 70.6878 140.41 83.1934 129.519 85.4641C122.741 86.8772 114.98 87.1689 107.992 84.1852C100.33 80.9133 89.9249 72.1344 80.6955 63.3509C66.9667 50.286 71.2047 40.3941 90.1508 41.2815C102.888 41.878 116.433 43.3266 124.096 46.5984Z" fill="#E7BF1F" stroke="#D8902E" stroke-width="4" stroke-miterlimit="10"/>
</g>
<mask id="mask13_4_2676" style="mask-type:luminance" maskUnits="userSpaceOnUse" x="-148" y="-252" width="572" height="739">
<path d="M-147.906 -252H423.505V486.256H-147.906V-252Z" fill="white"/>
</mask>
<g mask="url(#mask13_4_2676)">
<path d="M151.966 38.2772C154.795 45.3205 154.324 53.0601 152.753 59.7929C150.229 70.6104 137.583 75.671 128.274 69.5879C122.48 65.8024 116.785 60.5302 113.958 53.487C110.857 45.7642 109.718 32.2118 109.413 19.4843C108.958 0.555321 118.962 -3.44823 131.73 10.5544C140.313 19.9681 148.866 30.5544 151.966 38.2772Z" fill="#E7BF1F" stroke="#D8902E" stroke-width="4" stroke-miterlimit="10"/>
</g>
<mask id="mask14_4_2676" style="mask-type:luminance" maskUnits="userSpaceOnUse" x="-148" y="-252" width="572" height="739">
<path d="M-147.906 -252H423.505V486.256H-147.906V-252Z" fill="white"/>
</mask>
<g mask="url(#mask14_4_2676)">
<path d="M185.874 76.5091C185.874 98.5533 167.975 116.424 145.893 116.424C123.813 116.424 105.913 98.5533 105.913 76.5091C105.913 54.4649 123.813 36.5938 145.893 36.5938C167.975 36.5938 185.874 54.4649 185.874 76.5091Z" fill="#5B3B21" stroke="#321B15" stroke-width="4" stroke-miterlimit="10"/>
</g>
<mask id="mask15_4_2676" style="mask-type:luminance" maskUnits="userSpaceOnUse" x="-148" y="-252" width="572" height="739">
<path d="M-147.906 -252H423.505V486.256H-147.906V-252Z" fill="white"/>
</mask>
<g mask="url(#mask15_4_2676)">
<path d="M147.205 164.405C147.205 164.405 190.52 156.334 196.244 179.253C196.244 179.253 176.387 200.193 147.205 164.405Z" fill="#747A46" stroke="#47492E" stroke-width="2.66667" stroke-miterlimit="10"/>
</g>
<mask id="mask16_4_2676" style="mask-type:luminance" maskUnits="userSpaceOnUse" x="-148" y="-252" width="572" height="739">
<path d="M-147.906 -252H423.505V486.256H-147.906V-252Z" fill="white"/>
</mask>
<g mask="url(#mask16_4_2676)">
<path d="M91.3105 178.661C91.3105 178.661 110.639 200.089 140.705 165.039C140.705 165.039 97.6054 155.891 91.3105 178.661Z" fill="#747A46" stroke="#47492E" stroke-width="2.66667" stroke-miterlimit="10"/>
</g>
</g>
<defs>
<clipPath id="clip0_4_2676">
<rect width="277" height="452" fill="white"/>
</clipPath>
</defs>
</svg>
