<?xml version="1.0" encoding="UTF-8"?>
<svg id="Layer_1" data-name="Layer 1" xmlns="http://www.w3.org/2000/svg" viewBox="0 0 310.86 714.7">
  <defs>
    <style>
      .cls-1 {
        fill: #e1b628;
        stroke: #cd8a2a;
      }

      .cls-1, .cls-2, .cls-3, .cls-4, .cls-5, .cls-6, .cls-7, .cls-8, .cls-9 {
        stroke-miterlimit: 10;
      }

      .cls-1, .cls-2, .cls-3, .cls-9 {
        stroke-width: 3px;
      }

      .cls-2 {
        fill: #f8d00c;
        stroke: #eea620;
      }

      .cls-3 {
        fill: #6d441d;
        stroke: #472116;
      }

      .cls-4 {
        fill: #5a3723;
        stroke: #382217;
      }

      .cls-4, .cls-5, .cls-6, .cls-7, .cls-8 {
        stroke-width: 2px;
      }

      .cls-5 {
        fill: #995724;
        stroke: #7a4521;
      }

      .cls-6 {
        fill: #808c43;
        stroke: #595e2f;
      }

      .cls-7 {
        fill: #231e26;
        stroke: #0d0d0d;
      }

      .cls-8 {
        stroke: #b79843;
      }

      .cls-9 {
        fill: #f4a857;
        stroke: #b57243;
      }
    </style>
  </defs>
  <g>
    <g>
      <path class="cls-5" d="M37.37,516.06l34.84,180.45c0,9.49,41.79,17.19,93.34,17.19s93.34-7.7,93.34-17.19l32.74-178.64-254.27-1.81Z"/>
      <ellipse class="cls-5" cx="164.65" cy="473.73" rx="145.21" ry="87.89"/>
      <ellipse class="cls-4" cx="164.25" cy="465.29" rx="138.53" ry="59.32"/>
    </g>
    <g>
      <g>
        <path class="cls-6" d="M169.9,464.06s52.98-44.62,78.6-17.66c0,0-10.91,44.07-78.6,17.66Z"/>
        <path class="cls-6" d="M77.31,439.2s10.91,44.07,78.6,17.66c0,0-52.98-44.62-78.6-17.66"/>
      </g>
      <path class="cls-6" d="M137.27,163.27s92.35,254.82-8.09,325.6h16.01s100.94-60.09,7.41-326.66l-15.33,1.06Z"/>
    </g>
    <g>
      <g>
        <path class="cls-1" d="M183.28,86.61c0,13.87-6.06,26.69-13.3,37.04-11.63,16.64-36.5,16.64-48.13,0-7.24-10.36-13.3-23.17-13.3-37.04,0-15.21,7.29-38.98,15.43-60.79,12.11-32.43,31.78-32.43,43.88,0,8.14,21.8,15.43,45.57,15.43,60.79Z"/>
        <path class="cls-1" d="M217.27,130.18c-9.81,9.81-23.16,14.58-35.6,16.79-19.99,3.54-37.58-14.04-34.04-34.04,2.2-12.44,6.98-25.79,16.79-35.6,10.76-10.76,32.72-22.41,53.89-32.07,31.49-14.37,45.4-.46,31.03,31.03-9.66,21.17-21.32,43.13-32.07,53.89Z"/>
        <path class="cls-1" d="M205.21,186.07c-13.87,0-26.69-6.06-37.04-13.3-16.64-11.63-16.64-36.5,0-48.13,10.36-7.24,23.17-13.3,37.04-13.3,15.21,0,38.98,7.29,60.79,15.43,32.43,12.11,32.43,31.78,0,43.88-21.8,8.14-45.57,15.43-60.79,15.43Z"/>
        <path class="cls-1" d="M164.42,217.27c-9.81-9.81-14.58-23.16-16.79-35.6-3.54-19.99,14.04-37.58,34.04-34.04,12.44,2.2,25.79,6.98,35.6,16.79,10.76,10.76,22.41,32.72,32.07,53.89,14.37,31.49.46,45.4-31.03,31.03-21.17-9.66-43.13-21.32-53.89-32.07Z"/>
        <path class="cls-1" d="M108.54,208c0-13.87,6.06-26.69,13.3-37.04,11.63-16.64,36.5-16.64,48.13,0,7.24,10.36,13.3,23.17,13.3,37.04,0,15.21-7.29,38.98-15.43,60.79-12.11,32.43-31.78,32.43-43.88,0-8.14-21.8-15.43-45.57-15.43-60.79Z"/>
        <path class="cls-1" d="M74.55,163.75c9.81-9.81,23.16-14.58,35.6-16.79,19.99-3.54,37.58,14.04,34.04,34.04-2.2,12.44-6.98,25.79-16.79,35.6-10.76,10.76-32.72,22.41-53.89,32.07-31.49,14.37-45.4.46-31.03-31.03,9.66-21.17,21.32-43.13,32.07-53.89Z"/>
        <path class="cls-1" d="M86.61,111.33c13.87,0,26.69,6.06,37.04,13.3,16.64,11.63,16.64,36.5,0,48.13-10.36,7.24-23.17,13.3-37.04,13.3-15.21,0-38.98-7.29-60.79-15.43-32.43-12.11-32.43-31.78,0-43.88,21.8-8.14,45.57-15.43,60.79-15.43Z"/>
        <path class="cls-1" d="M127.4,77.34c9.81,9.81,14.58,23.16,16.79,35.6,3.54,19.99-14.04,37.58-34.04,34.04-12.44-2.2-25.79-6.98-35.6-16.79-10.76-10.76-22.41-32.72-32.07-53.89-14.37-31.49-.46-45.4,31.03-31.03,21.17,9.66,43.13,21.32,53.89,32.07Z"/>
      </g>
      <g>
        <path class="cls-2" d="M204,113.12c-5.46,12.75-16.07,22.15-26.8,28.83-17.24,10.73-40.1.95-44.26-18.93-2.58-12.37-3.12-26.54,2.34-39.29,5.98-13.99,22.03-32.98,38.09-49.82,23.88-25.06,41.97-17.32,40.35,17.26-1.09,23.25-3.74,47.97-9.72,61.96Z"/>
        <path class="cls-2" d="M218.12,166.55c-12.88,5.16-27.03,4.3-39.33,1.44-19.78-4.61-29.03-27.69-17.91-44.68,6.92-10.57,16.56-20.97,29.44-26.13,14.12-5.66,38.9-7.74,62.16-8.3,34.61-.83,41.92,17.43,16.33,40.73-17.21,15.67-36.56,31.28-50.68,36.94Z"/>
        <path class="cls-2" d="M185.06,213.19c-12.75-5.46-22.15-16.07-28.83-26.8-10.73-17.24-.95-40.1,18.93-44.26,12.37-2.58,26.54-3.12,39.29,2.34,13.99,5.98,32.98,22.03,49.82,38.09,25.06,23.88,17.32,41.97-17.26,40.35-23.25-1.09-47.97-3.74-61.96-9.72Z"/>
        <path class="cls-2" d="M135.28,225.84c-5.16-12.88-4.3-27.03-1.44-39.33,4.61-19.78,27.69-29.03,44.68-17.91,10.57,6.92,20.97,16.56,26.13,29.44,5.66,14.12,7.74,38.9,8.3,62.16.83,34.61-17.43,41.92-40.73,16.33-15.67-17.21-31.28-36.56-36.94-50.68Z"/>
        <path class="cls-2" d="M87.55,195.34c5.46-12.75,16.07-22.15,26.8-28.83,17.24-10.73,40.1-.95,44.26,18.93,2.58,12.37,3.12,26.54-2.34,39.29-5.98,13.99-22.03,32.98-38.09,49.82-23.88,25.06-41.97,17.32-40.35-17.26,1.09-23.25,3.74-47.97,9.72-61.96Z"/>
        <path class="cls-2" d="M73.7,141.28c12.88-5.16,27.03-4.3,39.33-1.44,19.78,4.61,29.03,27.69,17.91,44.68-6.92,10.57-16.56,20.97-29.44,26.13-14.12,5.66-38.9,7.74-62.16,8.3-34.61.83-41.92-17.43-16.33-40.73,17.21-15.67,36.56-31.28,50.68-36.94Z"/>
        <path class="cls-2" d="M105.4,97.83c12.75,5.46,22.15,16.07,28.83,26.8,10.73,17.24.95,40.1-18.93,44.26-12.37,2.58-26.54,3.12-39.29-2.34-13.99-5.98-32.98-22.03-49.82-38.09-25.06-23.88-17.32-41.97,17.26-40.35,23.25,1.09,47.97,3.74,61.96,9.72Z"/>
        <path class="cls-2" d="M156.27,82.62c5.16,12.88,4.3,27.03,1.44,39.33-4.61,19.78-27.69,29.03-44.68,17.91-10.57-6.92-20.97-16.56-26.13-29.44-5.66-14.12-7.74-38.9-8.3-62.16-.83-34.61,17.43-41.92,40.73-16.33,15.67,17.21,31.28,36.56,36.94,50.68Z"/>
      </g>
    </g>
    <g>
      <circle class="cls-3" cx="145.19" cy="152.51" r="72.97"/>
      <path class="cls-8" d="M147.99,195.19s29.57-8.86,55.39-28.6c0,0,5.67,19.01-23.31,27.02,0,0-19.64,5.69-32.08,1.58Z"/>
    </g>
  </g>
  <g>
    <path class="cls-7" d="M143.42,116.33c6.27-2.98,13.62-1.03,17.67,4.28-.23-.96-.56-1.91-1-2.84-3.42-7.2-12.03-10.27-19.23-6.85s-10.27,12.03-6.85,19.23c.44.93.97,1.78,1.57,2.57-1.56-6.5,1.57-13.42,7.85-16.4Z"/>
    <path class="cls-7" d="M80.18,122.71c-4.27,2.03-5,9.44-1.62,16.56l11.53,24.28c4.51,9.5,19.71,11.73,33.94,4.97s22.1-19.94,17.59-29.44l-11.53-24.28c-3.38-7.12-9.58-11.24-13.86-9.21l-36.05,17.12Z"/>
    <path class="cls-7" d="M151.74,88.72c-4.27,2.03-5,9.44-1.62,16.56l11.53,24.28c4.51,9.5,19.71,11.73,33.94,4.97s22.1-19.94,17.59-29.44l-11.53-24.28c-3.38-7.12-9.58-11.24-13.86-9.21l-36.05,17.12Z"/>
  </g>
  <path class="cls-9" d="M151.34,150.6l-1.56,13.95c-.69,6.19,5.58,10.81,11.28,8.31l12.86-5.62c5.71-2.5,6.57-10.23,1.56-13.93l-11.3-8.32c-5.01-3.69-12.15-.57-12.84,5.62Z"/>
  <g>
    <path class="cls-6" d="M188.22,403.19s52.98-44.62,78.6-17.66c0,0-10.91,44.07-78.6,17.66Z"/>
    <path class="cls-6" d="M95.63,378.33s10.91,44.07,78.6,17.66c0,0-52.98-44.62-78.6-17.66"/>
  </g>
  <g>
    <path class="cls-6" d="M190.27,347.47s52.98-44.62,78.6-17.66c0,0-10.91,44.07-78.6,17.66Z"/>
    <path class="cls-6" d="M97.69,322.6s10.91,44.07,78.6,17.66c0,0-52.98-44.62-78.6-17.66"/>
  </g>
</svg>