<svg width="280" height="665" viewBox="0 0 280 665" fill="none" xmlns="http://www.w3.org/2000/svg">
<g clip-path="url(#clip0_4_2898)">
<path d="M33.6604 480.173L65.0417 648.075C65.0417 656.905 102.683 664.07 149.116 664.07C195.548 664.07 233.189 656.905 233.189 648.075L262.679 481.857L33.6514 480.173H33.6604Z" fill="#995724" stroke="#7A4521" stroke-width="2" stroke-miterlimit="10"/>
<path d="M148.305 522.565C220.541 522.565 279.099 485.952 279.099 440.787C279.099 395.622 220.541 359.009 148.305 359.009C76.069 359.009 17.5103 395.622 17.5103 440.787C17.5103 485.952 76.069 522.565 148.305 522.565Z" fill="#995724" stroke="#7A4521" stroke-width="2" stroke-miterlimit="10"/>
<path d="M147.944 488.129C216.857 488.129 272.722 463.417 272.722 432.934C272.722 402.451 216.857 377.739 147.944 377.739C79.0316 377.739 23.1667 402.451 23.1667 432.934C23.1667 463.417 79.0316 488.129 147.944 488.129Z" fill="#5A3723" stroke="#382217" stroke-width="2" stroke-miterlimit="10"/>
<path d="M153.033 431.789C153.033 431.789 200.754 390.272 223.831 415.357C223.831 415.357 214.004 456.363 153.033 431.789Z" fill="#808C43" stroke="#595E2F" stroke-width="2" stroke-miterlimit="10"/>
<path d="M69.6353 408.658C69.6353 408.658 79.4622 449.663 140.432 425.09C140.432 425.09 92.7119 383.573 69.6353 408.658Z" fill="#808C43" stroke="#595E2F" stroke-width="2" stroke-miterlimit="10"/>
<path d="M123.643 151.916C123.643 151.916 206.825 389.016 116.356 454.874H130.777C130.777 454.874 221.696 398.963 137.451 150.93L123.643 151.916Z" fill="#808C43" stroke="#595E2F" stroke-width="2" stroke-miterlimit="10"/>
<path d="M165.085 80.5871C165.085 93.4926 159.627 105.421 153.106 115.051C142.63 130.534 120.229 130.534 109.754 115.051C103.232 105.412 97.7739 93.4926 97.7739 80.5871C97.7739 66.4348 104.34 44.3178 111.672 24.0244C122.58 -6.1504 140.297 -6.1504 151.196 24.0244C158.528 44.3085 165.094 66.4255 165.094 80.5871H165.085Z" fill="#E1B628" stroke="#CD8A2A" stroke-width="3" stroke-miterlimit="10"/>
<path d="M195.701 121.127C186.865 130.255 174.84 134.693 163.635 136.75C145.63 140.043 129.786 123.686 132.974 105.077C134.956 93.5018 139.261 81.0802 148.098 71.9523C157.789 61.9406 177.569 51.1007 196.638 42.1125C225.002 28.7418 237.531 41.6845 224.587 70.9847C215.886 90.6825 205.384 111.115 195.701 121.127Z" fill="#E1B628" stroke="#CD8A2A" stroke-width="3" stroke-miterlimit="10"/>
<path d="M184.838 173.131C172.345 173.131 160.798 167.492 151.475 160.756C136.487 149.934 136.487 126.794 151.475 115.973C160.807 109.236 172.345 103.597 184.838 103.597C198.538 103.597 219.948 110.38 239.593 117.954C268.804 129.222 268.804 147.524 239.593 158.783C219.957 166.357 198.547 173.14 184.838 173.14V173.131Z" fill="#E1B628" stroke="#CD8A2A" stroke-width="3" stroke-miterlimit="10"/>
<path d="M148.098 202.161C139.261 193.033 134.965 180.611 132.974 169.037C129.786 150.437 145.621 134.07 163.635 137.364C174.84 139.411 186.865 143.858 195.701 152.986C205.393 162.998 215.886 183.431 224.587 203.129C237.531 232.429 225.002 245.372 196.638 232.001C177.569 223.013 157.789 212.163 148.098 202.161Z" fill="#E1B628" stroke="#CD8A2A" stroke-width="3" stroke-miterlimit="10"/>
<path d="M97.7649 193.536C97.7649 180.63 103.223 168.702 109.745 159.071C120.22 143.589 142.621 143.589 153.097 159.071C159.618 168.711 165.076 180.63 165.076 193.536C165.076 207.688 158.51 229.805 151.178 250.098C140.27 280.273 122.553 280.273 111.654 250.098C104.322 229.814 97.7559 207.697 97.7559 193.536H97.7649Z" fill="#E1B628" stroke="#CD8A2A" stroke-width="3" stroke-miterlimit="10"/>
<path d="M67.1492 152.363C75.9853 143.235 88.01 138.797 99.2151 136.74C117.221 133.447 133.064 149.804 129.876 168.413C127.894 179.988 123.589 192.41 114.753 201.538C105.061 211.549 85.2808 222.389 66.2124 231.377C37.8485 244.748 25.3194 231.805 38.2629 202.505C46.9639 182.807 57.4664 162.375 67.1492 152.363Z" fill="#E1B628" stroke="#CD8A2A" stroke-width="3" stroke-miterlimit="10"/>
<path d="M78.012 103.588C90.5051 103.588 102.052 109.227 111.375 115.963C126.363 126.785 126.363 149.925 111.375 160.746C102.043 167.483 90.5051 173.121 78.012 173.121C64.312 173.121 42.9017 166.338 23.2568 158.764C-5.95377 147.497 -5.95377 129.194 23.2568 117.936C42.8927 110.362 64.3029 103.579 78.012 103.579V103.588Z" fill="#E1B628" stroke="#CD8A2A" stroke-width="3" stroke-miterlimit="10"/>
<path d="M114.753 71.9619C123.589 81.0897 127.885 93.5113 129.876 105.086C133.064 123.686 117.23 140.053 99.2151 136.759C88.01 134.712 75.9853 130.265 67.1492 121.137C57.4574 111.125 46.9639 90.692 38.2629 70.9942C25.3194 41.694 37.8485 28.7513 66.2124 42.122C85.2808 51.1102 105.061 61.9594 114.753 71.9619Z" fill="#E1B628" stroke="#CD8A2A" stroke-width="3" stroke-miterlimit="10"/>
<path d="M183.748 105.254C178.83 117.117 169.274 125.863 159.609 132.079C144.08 142.062 123.49 132.963 119.743 114.465C117.419 102.955 116.932 89.7706 121.85 77.9073C127.237 64.8901 141.693 47.2207 156.159 31.5517C177.668 8.23441 193.963 15.4362 192.503 47.6115C191.522 69.2447 189.135 92.2457 183.748 105.263V105.254Z" fill="#F8D00C" stroke="#EEA620" stroke-width="3" stroke-miterlimit="10"/>
<path d="M196.466 154.968C184.865 159.769 172.12 158.969 161.041 156.308C143.224 152.018 134.893 130.543 144.909 114.735C151.142 104.9 159.825 95.2231 171.426 90.422C184.145 85.1556 206.465 83.2202 227.415 82.6991C258.59 81.9269 265.174 98.9171 242.124 120.597C226.623 135.177 209.194 149.702 196.475 154.968H196.466Z" fill="#F8D00C" stroke="#EEA620" stroke-width="3" stroke-miterlimit="10"/>
<path d="M166.689 198.365C155.204 193.284 146.737 183.412 140.721 173.428C131.056 157.387 139.865 136.117 157.771 132.246C168.913 129.846 181.677 129.343 193.161 134.423C205.762 139.988 222.867 154.921 238.035 169.865C260.607 192.084 253.636 208.916 222.489 207.409C201.547 206.395 179.281 203.929 166.68 198.365H166.689Z" fill="#F8D00C" stroke="#EEA620" stroke-width="3" stroke-miterlimit="10"/>
<path d="M121.85 210.135C117.203 198.151 117.977 184.985 120.553 173.54C124.706 155.135 145.494 146.529 160.798 156.875C170.318 163.314 179.686 172.284 184.334 184.268C189.432 197.406 191.305 220.463 191.81 242.105C192.557 274.309 176.11 281.11 155.123 257.3C141.009 241.287 126.948 223.282 121.85 210.144V210.135Z" fill="#F8D00C" stroke="#EEA620" stroke-width="3" stroke-miterlimit="10"/>
<path d="M78.8586 181.756C83.7766 169.893 93.3333 161.146 102.998 154.931C118.527 144.947 139.117 154.047 142.864 172.544C145.188 184.054 145.675 197.239 140.757 209.102C135.37 222.119 120.914 239.789 106.448 255.458C84.9385 278.775 68.6444 271.573 70.1035 239.398C71.0853 217.765 73.4723 194.764 78.8586 181.747V181.756Z" fill="#F8D00C" stroke="#EEA620" stroke-width="3" stroke-miterlimit="10"/>
<path d="M66.3836 131.455C77.9849 126.654 90.7302 127.454 101.809 130.116C119.626 134.405 127.957 155.88 117.941 171.688C111.708 181.523 103.025 191.2 91.4238 196.001C78.7055 201.268 56.3855 203.203 35.4346 203.724C4.26042 204.497 -2.32389 187.506 20.7257 165.827C36.2272 151.246 53.6563 136.722 66.3746 131.455H66.3836Z" fill="#F8D00C" stroke="#EEA620" stroke-width="3" stroke-miterlimit="10"/>
<path d="M94.9365 91.0268C106.421 96.1071 114.888 105.979 120.904 115.963C130.569 132.004 121.76 153.275 103.854 157.145C92.7117 159.546 79.9484 160.048 68.4642 154.968C55.863 149.404 38.7582 134.47 23.5899 119.527C1.01771 97.3074 7.98933 80.4754 39.1365 81.9828C60.0784 82.997 82.3444 85.4627 94.9455 91.0268H94.9365Z" fill="#F8D00C" stroke="#EEA620" stroke-width="3" stroke-miterlimit="10"/>
<path d="M140.757 76.8745C145.404 88.8588 144.63 102.025 142.054 113.469C137.901 131.874 117.113 140.481 101.809 130.134C92.2886 123.695 82.921 114.726 78.2733 102.741C73.1751 89.6032 71.3016 66.5464 70.7972 44.9039C70.0496 12.7006 86.4969 5.89895 107.484 29.7094C121.598 45.7227 135.659 63.7271 140.757 76.8652V76.8745Z" fill="#F8D00C" stroke="#EEA620" stroke-width="3" stroke-miterlimit="10"/>
<path d="M130.777 209.8C167.076 209.8 196.503 179.402 196.503 141.904C196.503 104.407 167.076 74.0088 130.777 74.0088C94.4771 74.0088 65.0505 104.407 65.0505 141.904C65.0505 179.402 94.4771 209.8 130.777 209.8Z" fill="#6D441D" stroke="#472116" stroke-width="3" stroke-miterlimit="10"/>
<path d="M133.299 181.617C133.299 181.617 159.933 173.373 183.19 155.005C183.19 155.005 188.297 172.693 162.194 180.146C162.194 180.146 144.504 185.441 133.299 181.617Z" fill="black" stroke="#B79843" stroke-width="2" stroke-miterlimit="10"/>
<path d="M129.182 108.24C134.83 105.468 141.45 107.282 145.098 112.223C144.891 111.329 144.594 110.446 144.197 109.58C141.117 102.881 133.361 100.024 126.876 103.207C120.391 106.389 117.626 114.4 120.706 121.099C121.103 121.965 121.58 122.756 122.12 123.491C120.715 117.443 123.535 111.004 129.191 108.231L129.182 108.24Z" fill="#231E26" stroke="#0D0D0D" stroke-width="2" stroke-miterlimit="10"/>
<path d="M72.2202 114.177C68.3741 116.065 67.7166 122.96 70.761 129.585L81.1464 152.177C85.2087 161.016 98.8998 163.091 111.717 156.801C124.534 150.511 131.623 138.248 127.561 129.408L117.176 106.817C114.131 100.192 108.547 96.3582 104.691 98.2471L72.2202 114.177Z" fill="#231E26" stroke="#0D0D0D" stroke-width="2" stroke-miterlimit="10"/>
<path d="M136.676 82.5503C132.83 84.4392 132.173 91.3339 135.217 97.9588L145.602 120.55C149.665 129.39 163.356 131.465 176.173 125.175C188.991 118.885 196.079 106.621 192.017 97.782L181.632 75.1904C178.587 68.5655 173.003 64.732 169.147 66.6209L136.676 82.5503Z" fill="#231E26" stroke="#0D0D0D" stroke-width="2" stroke-miterlimit="10"/>
<path d="M136.316 140.127L134.911 153.107C134.289 158.867 139.937 163.166 145.071 160.839L156.654 155.61C161.798 153.284 162.572 146.092 158.06 142.649L147.881 134.907C143.369 131.474 136.937 134.377 136.316 140.137V140.127Z" fill="#F4A857" stroke="#B57243" stroke-width="3" stroke-miterlimit="10"/>
<path d="M169.535 375.152C169.535 375.152 217.255 333.635 240.332 358.72C240.332 358.72 230.505 399.726 169.535 375.152Z" fill="#808C43" stroke="#595E2F" stroke-width="2" stroke-miterlimit="10"/>
<path d="M86.1365 352.021C86.1365 352.021 95.9634 393.026 156.934 368.453C156.934 368.453 109.213 326.936 86.1365 352.021Z" fill="#808C43" stroke="#595E2F" stroke-width="2" stroke-miterlimit="10"/>
<path d="M171.381 323.307C171.381 323.307 219.102 281.79 242.178 306.875C242.178 306.875 232.352 347.88 171.381 323.307Z" fill="#808C43" stroke="#595E2F" stroke-width="2" stroke-miterlimit="10"/>
<path d="M87.9919 300.167C87.9919 300.167 97.8189 341.172 158.789 316.598C158.789 316.598 111.069 275.081 87.9919 300.167Z" fill="#808C43" stroke="#595E2F" stroke-width="2" stroke-miterlimit="10"/>
</g>
<defs>
<clipPath id="clip0_4_2898">
<rect width="280" height="665" fill="white"/>
</clipPath>
</defs>
</svg>
