<svg width="277" height="426" viewBox="0 0 277 426" fill="none" xmlns="http://www.w3.org/2000/svg">
<g clip-path="url(#clip0_4_2746)">
<mask id="mask0_4_2746" style="mask-type:luminance" maskUnits="userSpaceOnUse" x="-148" y="-278" width="572" height="739">
<path d="M-147.906 -278H423.505V460.256H-147.906V-278Z" fill="white"/>
</mask>
<g mask="url(#mask0_4_2746)">
<path d="M19.4292 242.057L51.9613 410.26C51.9613 419.109 90.9797 426.283 139.113 426.283C187.246 426.283 226.264 419.109 226.264 410.26L256.834 243.74L19.4292 242.057Z" fill="#985724" stroke="#7A4521" stroke-width="2.66667" stroke-miterlimit="10"/>
</g>
<mask id="mask1_4_2746" style="mask-type:luminance" maskUnits="userSpaceOnUse" x="-148" y="-278" width="572" height="739">
<path d="M-147.906 -278H423.505V460.256H-147.906V-278Z" fill="white"/>
</mask>
<g mask="url(#mask1_4_2746)">
<path d="M273.842 202.602C273.842 247.847 213.142 284.525 138.266 284.525C63.3908 284.525 2.69141 247.847 2.69141 202.602C2.69141 157.358 63.3908 120.68 138.266 120.68C213.142 120.68 273.842 157.358 273.842 202.602Z" fill="#985724" stroke="#7A4521" stroke-width="2.66667" stroke-miterlimit="10"/>
</g>
<mask id="mask2_4_2746" style="mask-type:luminance" maskUnits="userSpaceOnUse" x="-148" y="-278" width="572" height="739">
<path d="M-147.906 -278H423.505V460.256H-147.906V-278Z" fill="white"/>
</mask>
<g mask="url(#mask2_4_2746)">
<path d="M267.235 194.735C267.235 225.274 209.326 250.032 137.891 250.032C66.4554 250.032 8.5459 225.274 8.5459 194.735C8.5459 164.195 66.4554 139.437 137.891 139.437C209.326 139.437 267.235 164.195 267.235 194.735Z" fill="#5A3723" stroke="#382217" stroke-width="2.66667" stroke-miterlimit="10"/>
</g>
<mask id="mask3_4_2746" style="mask-type:luminance" maskUnits="userSpaceOnUse" x="-148" y="-278" width="572" height="739">
<path d="M-147.906 -278H423.505V460.256H-147.906V-278Z" fill="white"/>
</mask>
<g mask="url(#mask3_4_2746)">
<path d="M131.604 179.744C131.604 179.744 169.343 209.827 154.404 230.987C154.404 230.987 122.78 229.548 131.604 179.744Z" fill="#656843"/>
</g>
<mask id="mask4_4_2746" style="mask-type:luminance" maskUnits="userSpaceOnUse" x="-148" y="-278" width="572" height="739">
<path d="M-147.906 -278H423.505V460.256H-147.906V-278Z" fill="white"/>
</mask>
<g mask="url(#mask4_4_2746)">
<path d="M131.604 179.744C131.604 179.744 169.343 209.827 154.404 230.987C154.404 230.987 122.78 229.548 131.604 179.744Z" stroke="#353527" stroke-width="2.66667" stroke-miterlimit="10"/>
</g>
<mask id="mask5_4_2746" style="mask-type:luminance" maskUnits="userSpaceOnUse" x="-148" y="-278" width="572" height="739">
<path d="M-147.906 -278H423.505V460.256H-147.906V-278Z" fill="white"/>
</mask>
<g mask="url(#mask5_4_2746)">
<path d="M81.5138 214.602C81.5138 214.602 108.716 230.765 128.786 184.326C128.786 184.326 80.6949 188.726 81.5138 214.602Z" fill="#656843" stroke="#353527" stroke-width="2.66667" stroke-miterlimit="10"/>
</g>
<mask id="mask6_4_2746" style="mask-type:luminance" maskUnits="userSpaceOnUse" x="-148" y="-278" width="572" height="739">
<path d="M-147.906 -278H423.505V460.256H-147.906V-278Z" fill="white"/>
</mask>
<g mask="url(#mask6_4_2746)">
<path d="M140.308 62.804C140.308 62.804 152.036 183.73 105.145 216.719H112.618C112.618 216.719 160.829 181.834 145.894 62.419L140.308 62.804Z" fill="#656843" stroke="#353527" stroke-width="2.66667" stroke-miterlimit="10"/>
</g>
<mask id="mask7_4_2746" style="mask-type:luminance" maskUnits="userSpaceOnUse" x="-148" y="-278" width="572" height="739">
<path d="M-147.906 -278H423.505V460.256H-147.906V-278Z" fill="white"/>
</mask>
<g mask="url(#mask7_4_2746)">
<path d="M202.131 49.4994C195.586 53.3575 187.852 54.066 180.948 53.5356C169.855 52.6845 162.928 40.9722 167.54 30.864C170.41 24.573 174.767 18.1543 181.312 14.2961C188.489 10.0661 201.734 6.88842 214.288 4.65873C232.962 1.34217 238.441 10.6067 226.512 25.328C218.493 35.2255 209.307 45.2694 202.131 49.4994Z" fill="#CDAF2C" stroke="#B98341" stroke-width="4" stroke-miterlimit="10"/>
</g>
<mask id="mask8_4_2746" style="mask-type:luminance" maskUnits="userSpaceOnUse" x="-148" y="-278" width="572" height="739">
<path d="M-147.906 -278H423.505V460.256H-147.906V-278Z" fill="white"/>
</mask>
<g mask="url(#mask8_4_2746)">
<path d="M193.891 65.2063C186.658 62.876 180.997 57.5674 176.814 52.0585C170.094 43.2068 174.278 30.2622 184.914 27.0025C191.533 24.9732 199.235 23.9712 206.467 26.3015C214.399 28.8575 225.567 36.6446 235.566 44.5445C250.439 56.295 247.129 66.5346 228.182 67.3875C215.443 67.9617 201.822 67.7623 193.891 65.2063Z" fill="#CDAF2C" stroke="#B98341" stroke-width="4" stroke-miterlimit="10"/>
</g>
<mask id="mask9_4_2746" style="mask-type:luminance" maskUnits="userSpaceOnUse" x="-148" y="-278" width="572" height="739">
<path d="M-147.906 -278H423.505V460.256H-147.906V-278Z" fill="white"/>
</mask>
<g mask="url(#mask9_4_2746)">
<path d="M184.83 80.9621C179.625 75.4317 177.239 68.0538 176.244 61.2128C174.645 50.22 184.575 40.907 195.463 43.1842C202.241 44.602 209.469 47.4395 214.673 52.9698C220.38 59.0334 226.387 71.2398 231.317 82.9802C238.65 100.443 230.796 107.81 213.794 99.4157C202.365 93.7725 190.536 87.0256 184.83 80.9621Z" fill="#CDAF2C" stroke="#B98341" stroke-width="4" stroke-miterlimit="10"/>
</g>
<mask id="mask10_4_2746" style="mask-type:luminance" maskUnits="userSpaceOnUse" x="-148" y="-278" width="572" height="739">
<path d="M-147.906 -278H423.505V460.256H-147.906V-278Z" fill="white"/>
</mask>
<g mask="url(#mask10_4_2746)">
<path d="M201.008 181.277C206.291 179.163 212.095 179.514 217.145 180.689C225.259 182.576 229.055 192.03 224.493 198.99C221.653 203.32 217.698 207.577 212.416 209.692C206.623 212.01 196.458 212.862 186.912 213.089C172.715 213.429 169.712 205.951 180.214 196.406C187.275 189.989 195.215 183.595 201.008 181.277Z" fill="#CDAF2C" stroke="#B98341" stroke-width="4" stroke-miterlimit="10"/>
</g>
<mask id="mask11_4_2746" style="mask-type:luminance" maskUnits="userSpaceOnUse" x="-148" y="-278" width="572" height="739">
<path d="M-147.906 -278H423.505V460.256H-147.906V-278Z" fill="white"/>
</mask>
<g mask="url(#mask11_4_2746)">
<path d="M141.984 87.0821C144.973 80.1059 150.788 74.9651 156.666 71.313C166.113 65.4452 178.64 70.7947 180.914 81.6672C182.33 88.4346 182.622 96.1826 179.633 103.159C176.356 110.809 167.563 121.197 158.764 130.411C145.678 144.117 135.77 139.886 136.659 120.971C137.256 108.255 138.707 94.7321 141.984 87.0821Z" fill="#CDAF2C" stroke="#B98341" stroke-width="4" stroke-miterlimit="10"/>
</g>
<mask id="mask12_4_2746" style="mask-type:luminance" maskUnits="userSpaceOnUse" x="-148" y="-278" width="572" height="739">
<path d="M-147.906 -278H423.505V460.256H-147.906V-278Z" fill="white"/>
</mask>
<g mask="url(#mask12_4_2746)">
<path d="M94.6586 236.393C88.8903 236.393 83.5618 233.876 79.2547 230.871C72.3334 226.041 72.3334 215.718 79.2547 210.888C83.5618 207.882 88.8903 205.365 94.6586 205.365C100.984 205.365 110.869 208.391 119.935 211.77C133.421 216.796 133.421 224.962 119.935 229.988C110.869 233.367 100.984 236.393 94.6586 236.393Z" fill="#CDAF2C" stroke="#B98341" stroke-width="4" stroke-miterlimit="10"/>
</g>
<mask id="mask13_4_2746" style="mask-type:luminance" maskUnits="userSpaceOnUse" x="-148" y="-278" width="572" height="739">
<path d="M-147.906 -278H423.505V460.256H-147.906V-278Z" fill="white"/>
</mask>
<g mask="url(#mask13_4_2746)">
<path d="M142.617 31.0304C149.765 28.4503 157.496 29.1848 164.182 30.982C174.925 33.8707 179.558 46.6615 173.15 55.7415C169.163 61.3931 163.689 66.8946 156.542 69.4748C148.705 72.3047 135.099 72.9768 122.348 72.8463C103.383 72.6515 99.7184 62.5331 114.172 50.2736C123.889 42.0306 134.78 33.8604 142.617 31.0304Z" fill="#CDAF2C" stroke="#B98341" stroke-width="4" stroke-miterlimit="10"/>
</g>
<mask id="mask14_4_2746" style="mask-type:luminance" maskUnits="userSpaceOnUse" x="-148" y="-278" width="572" height="739">
<path d="M-147.906 -278H423.505V460.256H-147.906V-278Z" fill="white"/>
</mask>
<g mask="url(#mask14_4_2746)">
<path d="M168.562 13.8143C175.535 16.8335 180.655 22.6631 184.283 28.5514C190.113 38.0117 184.693 50.4903 173.792 52.7069C167.007 54.0856 159.244 54.3391 152.271 51.3208C144.625 48.0099 134.264 39.1797 125.079 30.3495C111.415 17.2166 115.703 7.34612 134.644 8.3286C147.378 8.98856 160.916 10.5042 168.562 13.8143Z" fill="#CDAF2C" stroke="#B98341" stroke-width="4" stroke-miterlimit="10"/>
</g>
<mask id="mask15_4_2746" style="mask-type:luminance" maskUnits="userSpaceOnUse" x="-148" y="-278" width="572" height="739">
<path d="M-147.906 -278H423.505V460.256H-147.906V-278Z" fill="white"/>
</mask>
<g mask="url(#mask15_4_2746)">
<path d="M213.544 63.6575C213.544 85.7017 195.645 103.573 173.563 103.573C151.483 103.573 133.583 85.7017 133.583 63.6575C133.583 41.6133 151.483 23.7423 173.563 23.7423C195.645 23.7423 213.544 41.6133 213.544 63.6575Z" fill="#493321" stroke="#221411" stroke-width="4" stroke-miterlimit="10"/>
</g>
<mask id="mask16_4_2746" style="mask-type:luminance" maskUnits="userSpaceOnUse" x="-148" y="-278" width="572" height="739">
<path d="M-147.906 -278H423.505V460.256H-147.906V-278Z" fill="white"/>
</mask>
<g mask="url(#mask16_4_2746)">
<path d="M148.764 139.054C148.764 139.054 189.068 156.833 180.817 178.971C180.817 178.971 152.582 185.043 148.764 139.054Z" fill="#656843" stroke="#353527" stroke-width="2.66667" stroke-miterlimit="10"/>
</g>
<mask id="mask17_4_2746" style="mask-type:luminance" maskUnits="userSpaceOnUse" x="-148" y="-278" width="572" height="739">
<path d="M-147.906 -278H423.505V460.256H-147.906V-278Z" fill="white"/>
</mask>
<g mask="url(#mask17_4_2746)">
<path d="M102.659 172.563C102.659 172.563 130.174 181.331 138.424 135.924C138.424 135.924 96.588 149.732 102.659 172.563Z" fill="#656843" stroke="#353527" stroke-width="2.66667" stroke-miterlimit="10"/>
</g>
</g>
<defs>
<clipPath id="clip0_4_2746">
<rect width="277" height="426" fill="white"/>
</clipPath>
</defs>
</svg>
