<svg width="275" height="321" viewBox="0 0 275 321" fill="none" xmlns="http://www.w3.org/2000/svg">
<g clip-path="url(#clip0_4_2617)">
<mask id="mask0_4_2617" style="mask-type:luminance" maskUnits="userSpaceOnUse" x="-149" y="-383" width="573" height="739">
<path d="M-148.205 -383H423.206V355.256H-148.205V-383Z" fill="white"/>
</mask>
<g mask="url(#mask0_4_2617)">
<path d="M18.6628 136.69L51.195 304.893C51.195 313.743 90.2134 320.917 138.346 320.917C186.479 320.917 225.498 313.743 225.498 304.893L256.067 138.374L18.6628 136.69Z" fill="#985724" stroke="#7A4521" stroke-width="2.66667" stroke-miterlimit="10"/>
</g>
<mask id="mask1_4_2617" style="mask-type:luminance" maskUnits="userSpaceOnUse" x="-149" y="-383" width="573" height="739">
<path d="M-148.205 -383H423.206V355.256H-148.205V-383Z" fill="white"/>
</mask>
<g mask="url(#mask1_4_2617)">
<path d="M273.075 97.2362C273.075 142.481 212.376 179.158 137.5 179.158C62.6244 179.158 1.92505 142.481 1.92505 97.2362C1.92505 51.992 62.6244 15.314 137.5 15.314C212.376 15.314 273.075 51.992 273.075 97.2362Z" fill="#985724" stroke="#7A4521" stroke-width="2.66667" stroke-miterlimit="10"/>
</g>
<mask id="mask2_4_2617" style="mask-type:luminance" maskUnits="userSpaceOnUse" x="-149" y="-383" width="573" height="739">
<path d="M-148.205 -383H423.206V355.256H-148.205V-383Z" fill="white"/>
</mask>
<g mask="url(#mask2_4_2617)">
<path d="M266.469 89.3683C266.469 119.908 208.559 144.666 137.125 144.666C65.689 144.666 7.77954 119.908 7.77954 89.3683C7.77954 58.8286 65.689 34.0709 137.125 34.0709C208.559 34.0709 266.469 58.8286 266.469 89.3683Z" fill="#5A3723" stroke="#382217" stroke-width="2.66667" stroke-miterlimit="10"/>
</g>
<mask id="mask3_4_2617" style="mask-type:luminance" maskUnits="userSpaceOnUse" x="-149" y="-383" width="573" height="739">
<path d="M-148.205 -383H423.206V355.256H-148.205V-383Z" fill="white"/>
</mask>
<g mask="url(#mask3_4_2617)">
<path d="M183.353 15.3138C183.353 15.3138 108.28 25.6978 104.379 111.353H109.702C109.702 111.353 118.143 30.2681 184.379 23.5623L183.353 15.3138Z" fill="#535439" stroke="#26261D" stroke-width="2.66667" stroke-miterlimit="10"/>
</g>
<mask id="mask4_4_2617" style="mask-type:luminance" maskUnits="userSpaceOnUse" x="-149" y="-383" width="573" height="739">
<path d="M-148.205 -383H423.206V355.256H-148.205V-383Z" fill="white"/>
</mask>
<g mask="url(#mask4_4_2617)">
<path d="M165.068 91.9327C161.54 89.5809 158.843 86.5691 156.878 83.8109C153.722 79.3786 156.025 75.9362 161.335 77.148C164.639 77.9021 168.46 79.236 171.988 81.5878C175.856 84.1661 181.228 89.2052 186.019 94.0291C193.147 101.203 191.326 103.926 181.957 100.103C175.658 97.533 168.938 94.5119 165.068 91.9327Z" fill="#999438" stroke="#827F4B" stroke-width="4" stroke-miterlimit="10"/>
</g>
<mask id="mask5_4_2617" style="mask-type:luminance" maskUnits="userSpaceOnUse" x="-149" y="-383" width="573" height="739">
<path d="M-148.205 -383H423.206V355.256H-148.205V-383Z" fill="white"/>
</mask>
<g mask="url(#mask5_4_2617)">
<path d="M196.958 35.5406C191.357 33.0629 187.266 28.3305 184.378 23.5616C179.739 15.8994 184.188 5.87424 192.99 4.15723C198.468 3.08807 204.726 2.93333 210.328 5.41096C216.471 8.12722 224.766 15.3112 232.115 22.4869C243.044 33.1599 239.525 41.0887 224.264 40.177C214.003 39.5646 203.101 38.2578 196.958 35.5406Z" fill="#999438" stroke="#827F4B" stroke-width="4" stroke-miterlimit="10"/>
</g>
<mask id="mask6_4_2617" style="mask-type:luminance" maskUnits="userSpaceOnUse" x="-149" y="-383" width="573" height="739">
<path d="M-148.205 -383H423.206V355.256H-148.205V-383Z" fill="white"/>
</mask>
<g mask="url(#mask6_4_2617)">
<path d="M220.32 83.4025C223.286 85.0673 225.607 87.3473 227.322 89.4763C230.077 92.8982 228.363 95.9416 224.004 95.3674C221.29 95.0104 218.133 94.2144 215.167 92.5496C211.915 90.7235 207.337 86.9782 203.237 83.3652C197.139 77.9914 198.496 75.5837 206.263 77.9942C211.485 79.6152 217.068 81.5764 220.32 83.4025Z" fill="#999438" stroke="#827F4B" stroke-width="4" stroke-miterlimit="10"/>
</g>
<mask id="mask7_4_2617" style="mask-type:luminance" maskUnits="userSpaceOnUse" x="-149" y="-383" width="573" height="739">
<path d="M-148.205 -383H423.206V355.256H-148.205V-383Z" fill="white"/>
</mask>
<g mask="url(#mask7_4_2617)">
<path d="M184.094 37.7059C179.694 33.4497 177.491 27.5996 176.43 22.1288C174.725 13.3378 182.366 5.46214 191.221 6.88366C196.732 7.76826 202.659 9.77982 207.061 14.036C211.886 18.7023 217.187 28.3033 221.603 37.5698C228.171 51.3533 222.127 57.5828 208.119 51.468C198.701 47.3572 188.919 42.3722 184.094 37.7059Z" fill="#999438" stroke="#827F4B" stroke-width="4" stroke-miterlimit="10"/>
</g>
</g>
<defs>
<clipPath id="clip0_4_2617">
<rect width="275" height="321" fill="white"/>
</clipPath>
</defs>
</svg>
