<svg width="274" height="391" viewBox="0 0 274 391" fill="none" xmlns="http://www.w3.org/2000/svg">
<g clip-path="url(#clip0_4_2606)">
<path d="M17.7381 206.502L50.3846 374.105C50.3846 382.919 89.5435 390.071 137.848 390.071C186.152 390.071 225.311 382.919 225.311 374.105L255.99 208.183L17.7288 206.502H17.7381Z" fill="#995724" stroke="#7A4521" stroke-width="2" stroke-miterlimit="10"/>
<path d="M137.005 248.818C212.153 248.818 273.072 212.27 273.072 167.185C273.072 122.101 212.153 85.5524 137.005 85.5524C61.8566 85.5524 0.937012 122.101 0.937012 167.185C0.937012 212.27 61.8566 248.818 137.005 248.818Z" fill="#995724" stroke="#7A4521" stroke-width="2" stroke-miterlimit="10"/>
<path d="M136.62 214.443C208.312 214.443 266.429 189.775 266.429 159.346C266.429 128.917 208.312 104.249 136.62 104.249C64.9294 104.249 6.81226 128.917 6.81226 159.346C6.81226 189.775 64.9294 214.443 136.62 214.443Z" fill="#5A3723" stroke="#382217" stroke-width="2" stroke-miterlimit="10"/>
<path d="M106.457 73.5614C106.457 73.5614 137.276 157.841 103.759 181.257H109.1C109.1 181.257 142.786 161.38 111.573 73.2085L106.457 73.5614Z" fill="#808C43" stroke="#595E2F" stroke-width="2" stroke-miterlimit="10"/>
<path d="M135.627 54.3073C133.931 61.6821 129.115 67.7565 123.97 72.3819C115.696 79.8124 102.372 76.8031 98.1644 66.549C95.5501 60.1681 93.8634 52.6262 95.5594 45.2515C97.4148 37.1708 104.236 25.4214 111.264 14.8237C121.722 -0.947411 132.263 1.43962 134.793 20.1365C136.489 32.7126 137.492 46.2267 135.637 54.3073H135.627Z" fill="#D7DF23" stroke="#ABD037" stroke-width="3" stroke-miterlimit="10"/>
<path d="M111.086 42.1122C116.193 47.7314 118.433 55.1247 119.295 61.9608C120.672 72.9393 110.515 82.023 99.6355 79.5245C92.8607 77.9734 85.6736 75.0012 80.5667 69.3819C74.9632 63.224 69.191 50.9451 64.4871 39.14C57.4874 21.5948 65.5272 14.4151 82.4127 23.1273C93.7602 28.9788 105.492 35.9449 111.095 42.1029L111.086 42.1122Z" fill="#D7DF23" stroke="#ABD037" stroke-width="3" stroke-miterlimit="10"/>
<path d="M97.4709 45.7994C104.48 48.7716 109.652 54.5581 113.326 60.4096C119.22 69.8091 113.85 82.2644 102.915 84.5307C96.1122 85.9425 88.3254 86.2304 81.307 83.2582C73.6139 79.9981 63.1752 71.2488 53.9079 62.4994C40.1334 49.4775 44.3876 39.6229 63.4001 40.5052C76.1814 41.0997 89.7778 42.5393 97.4709 45.7994Z" fill="#D7DF23" stroke="#ABD037" stroke-width="3" stroke-miterlimit="10"/>
<path d="M126.81 46.1431C129.649 53.1649 129.171 60.874 127.597 67.5799C125.067 78.3634 112.37 83.3975 103.028 77.3417C97.2086 73.5708 91.502 68.3137 88.6628 61.3012C85.5518 53.6014 84.4086 40.1058 84.0994 27.4183C83.6402 8.55424 93.6853 4.56966 106.495 18.5203C115.106 27.9013 123.689 38.4526 126.8 46.1431H126.81Z" fill="#D7DF23" stroke="#ABD037" stroke-width="3" stroke-miterlimit="10"/>
</g>
<defs>
<clipPath id="clip0_4_2606">
<rect width="274" height="391" fill="white"/>
</clipPath>
</defs>
</svg>
