<?xml version="1.0" encoding="UTF-8"?>
<svg id="Layer_1" data-name="Layer 1" xmlns="http://www.w3.org/2000/svg" viewBox="0 0 292.41 417.74">
  <defs>
    <style>
      .cls-1 {
        fill: #5a3723;
        stroke: #382217;
      }

      .cls-1, .cls-2, .cls-3, .cls-4 {
        stroke-miterlimit: 10;
      }

      .cls-1, .cls-2, .cls-4 {
        stroke-width: 2px;
      }

      .cls-2 {
        fill: #995724;
        stroke: #7a4521;
      }

      .cls-3 {
        fill: #d7df23;
        stroke: #abd037;
        stroke-width: 3px;
      }

      .cls-4 {
        fill: #808c43;
        stroke: #595e2f;
      }
    </style>
  </defs>
  <g>
    <path class="cls-2" d="M18.93,219.1l34.84,180.45c0,9.49,41.79,17.19,93.34,17.19s93.34-7.7,93.34-17.19l32.74-178.64-254.27-1.81Z"/>
    <ellipse class="cls-2" cx="146.21" cy="176.77" rx="145.21" ry="87.89"/>
    <ellipse class="cls-1" cx="145.8" cy="168.33" rx="138.53" ry="59.32"/>
  </g>
  <path class="cls-4" d="M113.61,75.97s32.89,90.74-2.88,115.95h5.7s35.95-21.4,2.64-116.33l-5.46.38Z"/>
  <g>
    <path class="cls-3" d="M144.74,55.24c-1.81,7.94-6.95,14.48-12.44,19.46-8.83,8-23.05,4.76-27.54-6.28-2.79-6.87-4.59-14.99-2.78-22.93,1.98-8.7,9.26-21.35,16.76-32.76,11.16-16.98,22.41-14.41,25.11,5.72,1.81,13.54,2.88,28.09.9,36.79Z"/>
    <path class="cls-3" d="M118.55,42.11c5.45,6.05,7.84,14.01,8.76,21.37,1.47,11.82-9.37,21.6-20.98,18.91-7.23-1.67-14.9-4.87-20.35-10.92-5.98-6.63-12.14-19.85-17.16-32.56-7.47-18.89,1.11-26.62,19.13-17.24,12.11,6.3,24.63,13.8,30.61,20.43Z"/>
    <path class="cls-3" d="M104.02,46.08c7.48,3.2,13,9.43,16.92,15.73,6.29,10.12.56,23.53-11.11,25.97-7.26,1.52-15.57,1.83-23.06-1.37-8.21-3.51-19.35-12.93-29.24-22.35-14.7-14.02-10.16-24.63,10.13-23.68,13.64.64,28.15,2.19,36.36,5.7Z"/>
    <path class="cls-3" d="M135.33,46.45c3.03,7.56,2.52,15.86.84,23.08-2.7,11.61-16.25,17.03-26.22,10.51-6.21-4.06-12.3-9.72-15.33-17.27-3.32-8.29-4.54-22.82-4.87-36.48-.49-20.31,10.23-24.6,23.9-9.58,9.19,10.1,18.35,21.46,21.67,29.74Z"/>
  </g>
</svg>