<svg width="281" height="379" viewBox="0 0 281 379" fill="none" xmlns="http://www.w3.org/2000/svg">
<g clip-path="url(#clip0_4_2820)">
<mask id="mask0_4_2820" style="mask-type:luminance" maskUnits="userSpaceOnUse" x="-147" y="-325" width="571" height="739">
<path d="M-146.931 -325H423.436V413.256H-146.931V-325Z" fill="white"/>
</mask>
<g mask="url(#mask0_4_2820)">
<path d="M20.0981 195.057L52.5709 363.26C52.5709 372.109 91.518 379.283 139.563 379.283C187.608 379.283 226.555 372.109 226.555 363.26L257.069 196.74L20.0981 195.057Z" fill="#985724" stroke="#7A4521" stroke-width="2.66667" stroke-miterlimit="10"/>
</g>
<mask id="mask1_4_2820" style="mask-type:luminance" maskUnits="userSpaceOnUse" x="-147" y="-325" width="571" height="739">
<path d="M-146.931 -325H423.436V413.256H-146.931V-325Z" fill="white"/>
</mask>
<g mask="url(#mask1_4_2820)">
<path d="M274.046 155.602C274.046 200.847 213.458 237.525 138.718 237.525C63.9796 237.525 3.39111 200.847 3.39111 155.602C3.39111 110.358 63.9796 73.6803 138.718 73.6803C213.458 73.6803 274.046 110.358 274.046 155.602Z" fill="#985724" stroke="#7A4521" stroke-width="2.66667" stroke-miterlimit="10"/>
</g>
<mask id="mask2_4_2820" style="mask-type:luminance" maskUnits="userSpaceOnUse" x="-147" y="-325" width="571" height="739">
<path d="M-146.931 -325H423.436V413.256H-146.931V-325Z" fill="white"/>
</mask>
<g mask="url(#mask2_4_2820)">
<path d="M267.452 147.735C267.452 178.274 209.648 203.032 138.344 203.032C67.0386 203.032 9.23486 178.274 9.23486 147.735C9.23486 117.195 67.0386 92.4371 138.344 92.4371C209.648 92.4371 267.452 117.195 267.452 147.735Z" fill="#5A3723" stroke="#382217" stroke-width="2.66667" stroke-miterlimit="10"/>
</g>
<mask id="mask3_4_2820" style="mask-type:luminance" maskUnits="userSpaceOnUse" x="-147" y="-325" width="571" height="739">
<path d="M-146.931 -325H423.436V413.256H-146.931V-325Z" fill="white"/>
</mask>
<g mask="url(#mask3_4_2820)">
<path d="M118.167 132.744C118.167 132.744 155.838 162.827 140.925 183.987C140.925 183.987 109.359 182.548 118.167 132.744Z" fill="#464733"/>
</g>
<mask id="mask4_4_2820" style="mask-type:luminance" maskUnits="userSpaceOnUse" x="-147" y="-325" width="571" height="739">
<path d="M-146.931 -325H423.436V413.256H-146.931V-325Z" fill="white"/>
</mask>
<g mask="url(#mask4_4_2820)">
<path d="M118.167 132.744C118.167 132.744 155.838 162.827 140.925 183.987C140.925 183.987 109.359 182.548 118.167 132.744Z" stroke="#20211D" stroke-width="2.66667" stroke-miterlimit="10"/>
</g>
<mask id="mask5_4_2820" style="mask-type:luminance" maskUnits="userSpaceOnUse" x="-147" y="-325" width="571" height="739">
<path d="M-146.931 -325H423.436V413.256H-146.931V-325Z" fill="white"/>
</mask>
<g mask="url(#mask5_4_2820)">
<path d="M69.43 167.602C69.43 167.602 96.583 183.765 116.616 137.326C116.616 137.326 68.6127 141.726 69.43 167.602Z" fill="#464733" stroke="#20211D" stroke-width="2.66667" stroke-miterlimit="10"/>
</g>
<mask id="mask6_4_2820" style="mask-type:luminance" maskUnits="userSpaceOnUse" x="-147" y="-325" width="571" height="739">
<path d="M-146.931 -325H423.436V413.256H-146.931V-325Z" fill="white"/>
</mask>
<g mask="url(#mask6_4_2820)">
<path d="M205.294 44.1283C205.294 44.1283 113.901 55.4399 105.657 169.719H113.118C113.118 169.719 120.725 67.883 214.985 43.528L205.294 44.1283Z" fill="#464733" stroke="#20211D" stroke-width="2.66667" stroke-miterlimit="10"/>
</g>
<mask id="mask7_4_2820" style="mask-type:luminance" maskUnits="userSpaceOnUse" x="-147" y="-325" width="571" height="739">
<path d="M-146.931 -325H423.436V413.256H-146.931V-325Z" fill="white"/>
</mask>
<g mask="url(#mask7_4_2820)">
<path d="M227.117 41.9503C221.736 36.6017 219.102 29.3095 217.875 22.5058C215.903 11.5755 225.49 1.92694 236.43 3.83037C243.24 5.01512 250.547 7.60461 255.928 12.9532C261.829 18.8183 268.241 30.8112 273.561 42.3763C281.474 59.578 273.892 67.2095 256.645 59.4019C245.049 54.153 233.017 47.8153 227.117 41.9503Z" fill="#AD9738" stroke="#886742" stroke-width="4" stroke-miterlimit="10"/>
</g>
<mask id="mask8_4_2820" style="mask-type:luminance" maskUnits="userSpaceOnUse" x="-147" y="-325" width="571" height="739">
<path d="M-146.931 -325H423.436V413.256H-146.931V-325Z" fill="white"/>
</mask>
<g mask="url(#mask8_4_2820)">
<path d="M178.288 185.516C173.843 184.081 170.364 180.813 167.794 177.421C163.664 171.972 166.235 164.003 172.771 161.996C176.839 160.747 181.572 160.13 186.016 161.564C190.891 163.138 197.754 167.932 203.898 172.796C213.037 180.03 211.004 186.333 199.36 186.859C191.532 187.212 183.162 187.089 178.288 185.516Z" fill="#AD9738" stroke="#886742" stroke-width="4" stroke-miterlimit="10"/>
</g>
<mask id="mask9_4_2820" style="mask-type:luminance" maskUnits="userSpaceOnUse" x="-147" y="-325" width="571" height="739">
<path d="M-146.931 -325H423.436V413.256H-146.931V-325Z" fill="white"/>
</mask>
<g mask="url(#mask9_4_2820)">
<path d="M214.715 83.8059C214.715 76.2183 218.03 69.2086 221.99 63.543C228.352 54.4388 241.952 54.4388 248.314 63.543C252.274 69.2086 255.589 76.2183 255.589 83.8059C255.589 92.1262 251.603 105.13 247.151 117.055C240.531 134.795 229.773 134.795 223.152 117.055C218.701 105.13 214.715 92.1262 214.715 83.8059Z" fill="#AD9738" stroke="#886742" stroke-width="4" stroke-miterlimit="10"/>
</g>
<mask id="mask10_4_2820" style="mask-type:luminance" maskUnits="userSpaceOnUse" x="-147" y="-325" width="571" height="739">
<path d="M-146.931 -325H423.436V413.256H-146.931V-325Z" fill="white"/>
</mask>
<g mask="url(#mask10_4_2820)">
<path d="M201.345 134.277C206.618 132.163 212.412 132.514 217.453 133.689C225.552 135.576 229.342 145.03 224.787 151.99C221.953 156.32 218.005 160.577 212.733 162.692C206.95 165.01 196.804 165.862 187.275 166.089C173.103 166.429 170.106 158.951 180.589 149.406C187.638 142.989 195.563 136.595 201.345 134.277Z" fill="#AD9738" stroke="#886742" stroke-width="4" stroke-miterlimit="10"/>
</g>
<mask id="mask11_4_2820" style="mask-type:luminance" maskUnits="userSpaceOnUse" x="-147" y="-325" width="571" height="739">
<path d="M-146.931 -325H423.436V413.256H-146.931V-325Z" fill="white"/>
</mask>
<g mask="url(#mask11_4_2820)">
<path d="M183.876 74.8684C186.859 67.8923 192.663 62.7515 198.531 59.0994C207.961 53.2316 220.464 58.5811 222.734 69.4536C224.147 76.221 224.439 83.9689 221.456 90.9451C218.184 98.5952 209.407 108.983 200.625 118.197C187.563 131.903 177.672 127.672 178.56 108.757C179.156 96.0411 180.604 82.5185 183.876 74.8684Z" fill="#AD9738" stroke="#886742" stroke-width="4" stroke-miterlimit="10"/>
</g>
<mask id="mask12_4_2820" style="mask-type:luminance" maskUnits="userSpaceOnUse" x="-147" y="-325" width="571" height="739">
<path d="M-146.931 -325H423.436V413.256H-146.931V-325Z" fill="white"/>
</mask>
<g mask="url(#mask12_4_2820)">
<path d="M95.19 189.393C89.4323 189.393 84.1135 186.876 79.8143 183.871C72.9056 179.041 72.9056 168.718 79.8143 163.888C84.1135 160.882 89.4323 158.365 95.19 158.365C101.504 158.365 111.371 161.391 120.42 164.77C133.882 169.796 133.882 177.962 120.42 182.988C111.371 186.367 101.504 189.393 95.19 189.393Z" fill="#AD9738" stroke="#886742" stroke-width="4" stroke-miterlimit="10"/>
</g>
<mask id="mask13_4_2820" style="mask-type:luminance" maskUnits="userSpaceOnUse" x="-147" y="-325" width="571" height="739">
<path d="M-146.931 -325H423.436V413.256H-146.931V-325Z" fill="white"/>
</mask>
<g mask="url(#mask13_4_2820)">
<path d="M161.41 47.1639C164.631 40.2941 170.606 35.3546 176.596 31.9057C186.221 26.3641 198.534 32.1388 200.431 43.083C201.611 49.8942 201.638 57.6477 198.417 64.5176C194.886 72.0512 185.758 83.0644 176.666 91.9729C163.142 105.223 153.403 99.7246 154.937 80.8515C155.969 68.1632 157.878 54.6975 161.41 47.1639Z" fill="#AD9738" stroke="#886742" stroke-width="4" stroke-miterlimit="10"/>
</g>
<mask id="mask14_4_2820" style="mask-type:luminance" maskUnits="userSpaceOnUse" x="-147" y="-325" width="571" height="739">
<path d="M-146.931 -325H423.436V413.256H-146.931V-325Z" fill="white"/>
</mask>
<g mask="url(#mask14_4_2820)">
<path d="M179.779 6.93953C186.405 3.24452 194.141 2.72718 201.017 3.42815C212.064 4.55325 218.687 16.4334 213.834 26.425C210.815 32.6424 206.307 38.9521 199.681 42.6461C192.416 46.6982 179.12 49.5477 166.537 51.4661C147.822 54.3203 142.584 44.9224 154.851 30.5003C163.098 20.8051 172.512 10.9906 179.779 6.93953Z" fill="#AD9738" stroke="#886742" stroke-width="4" stroke-miterlimit="10"/>
</g>
<mask id="mask15_4_2820" style="mask-type:luminance" maskUnits="userSpaceOnUse" x="-147" y="-325" width="571" height="739">
<path d="M-146.931 -325H423.436V413.256H-146.931V-325Z" fill="white"/>
</mask>
<g mask="url(#mask15_4_2820)">
<path d="M255.305 51.4439C255.305 73.4881 237.438 91.3591 215.397 91.3591C193.356 91.3591 175.49 73.4881 175.49 51.4439C175.49 29.3997 193.356 11.5287 215.397 11.5287C237.438 11.5287 255.305 29.3997 255.305 51.4439Z" fill="#30241A" stroke="#171111" stroke-width="4" stroke-miterlimit="10"/>
</g>
<mask id="mask16_4_2820" style="mask-type:luminance" maskUnits="userSpaceOnUse" x="-147" y="-325" width="571" height="739">
<path d="M-146.931 -325H423.436V413.256H-146.931V-325Z" fill="white"/>
</mask>
<g mask="url(#mask16_4_2820)">
<path d="M143.462 88.9241C143.462 88.9241 169.729 124.208 151.662 139.423C151.662 139.423 124.141 130.83 143.462 88.9241Z" fill="#464733"/>
</g>
<mask id="mask17_4_2820" style="mask-type:luminance" maskUnits="userSpaceOnUse" x="-147" y="-325" width="571" height="739">
<path d="M-146.931 -325H423.436V413.256H-146.931V-325Z" fill="white"/>
</mask>
<g mask="url(#mask17_4_2820)">
<path d="M143.462 88.9241C143.462 88.9241 169.729 124.208 151.662 139.423C151.662 139.423 124.141 130.83 143.462 88.9241Z" stroke="#20211D" stroke-width="2.66667" stroke-miterlimit="10"/>
</g>
<mask id="mask18_4_2820" style="mask-type:luminance" maskUnits="userSpaceOnUse" x="-147" y="-325" width="571" height="739">
<path d="M-146.931 -325H423.436V413.256H-146.931V-325Z" fill="white"/>
</mask>
<g mask="url(#mask18_4_2820)">
<path d="M103.176 125.563C103.176 125.563 130.641 134.331 138.876 88.9244C138.876 88.9244 97.1163 102.732 103.176 125.563Z" fill="#464733" stroke="#20211D" stroke-width="2.66667" stroke-miterlimit="10"/>
</g>
</g>
<defs>
<clipPath id="clip0_4_2820">
<rect width="281" height="379" fill="white"/>
</clipPath>
</defs>
</svg>
