<?xml version="1.0" encoding="UTF-8"?>
<svg id="Layer_1" data-name="Layer 1" xmlns="http://www.w3.org/2000/svg" viewBox="0 0 313.96 499.86">
  <defs>
    <style>
      .cls-1 {
        stroke: #b98742;
      }

      .cls-1, .cls-2, .cls-3, .cls-4, .cls-5, .cls-6, .cls-7, .cls-8, .cls-9 {
        stroke-miterlimit: 10;
      }

      .cls-1, .cls-2, .cls-6, .cls-8 {
        stroke-width: 3px;
      }

      .cls-2 {
        fill: #936f3e;
        stroke: #674c2e;
      }

      .cls-3 {
        fill: #716942;
        stroke: #45412d;
      }

      .cls-3, .cls-4, .cls-5, .cls-7, .cls-9 {
        stroke-width: 2px;
      }

      .cls-4 {
        fill: #5a3723;
        stroke: #382217;
      }

      .cls-5 {
        fill: #995724;
        stroke: #7a4521;
      }

      .cls-6 {
        fill: #44352b;
        stroke: #231a18;
      }

      .cls-7 {
        fill: #231e26;
        stroke: #0d0d0d;
      }

      .cls-8 {
        fill: #d69c68;
        stroke: #9b6642;
      }

      .cls-9 {
        fill: #5b553c;
        stroke: #353226;
      }
    </style>
  </defs>
  <g>
    <g>
      <path class="cls-5" d="M18.93,301.23l34.84,180.45c0,9.49,41.79,17.19,93.34,17.19s93.34-7.7,93.34-17.19l32.74-178.64-254.27-1.81Z"/>
      <ellipse class="cls-5" cx="146.21" cy="258.9" rx="145.21" ry="87.89"/>
      <ellipse class="cls-4" cx="145.8" cy="250.46" rx="138.53" ry="59.32"/>
    </g>
    <g>
      <g>
        <path class="cls-3" d="M147,222.11s17.54,36.18,37.5,27.94c0,0,4.63-25.95-37.5-27.94Z"/>
        <path class="cls-9" d="M89.8,184.76s-5.85-45.02,66.81-45.01c0,0-33.14,60.82-66.81,45.01"/>
      </g>
      <path class="cls-9" d="M165.79,272.99s-41.7-146.03,58.74-216.82l-8.71-3.08s-78.93,6.41-65.37,220.95l15.33-1.06Z"/>
    </g>
    <g>
      <g>
        <path class="cls-2" d="M257.17,264.03c-6.03-5.91-9.02-14.01-10.44-21.57-2.28-12.15,8.32-22.96,20.51-20.93,7.59,1.27,15.74,4.09,21.78,10,6.61,6.48,13.84,19.78,19.86,32.61,8.94,19.09.56,27.64-18.7,19.08-12.95-5.75-26.39-12.72-33.01-19.2Z"/>
        <path class="cls-2" d="M185.27,256.88c-7.58-2.24-13.6-7.63-18.09-13.26-7.21-9.05-3.19-22.64,7.79-26.3,6.83-2.28,14.81-3.52,22.4-1.27,8.31,2.46,20.12,10.29,30.72,18.27,15.76,11.86,12.58,22.61-7.1,23.98-13.23.92-27.4,1.06-35.71-1.41Z"/>
      </g>
      <g>
        <path class="cls-2" d="M259.52,52.28c-2.64,6.17-8.69,10.33-14.98,13.09-10.11,4.44-24.94-1.9-28.71-12.28-2.35-6.46-3.52-13.71-.88-19.88,2.9-6.77,11.77-15.49,20.77-23.12,13.39-11.34,25.12-6.33,26.17,11.19.7,11.78.53,24.22-2.37,30.99Z"/>
        <path class="cls-2" d="M253.07,79.29c-6.99-.78-13.01-5.41-17.71-10.66-7.55-8.44-5.76-24.47,3.47-31.03,5.74-4.08,12.63-7.27,19.62-6.49,7.67.86,19.12,6.89,29.52,13.37,15.47,9.63,14.05,22.31-3.16,28.29-11.57,4.02-24.08,7.38-31.74,6.52Z"/>
        <path class="cls-2" d="M244.9,99.77c-6.07-6.64-8.77-15.43-9.83-23.56-1.71-13.06,10.2-23.94,23.05-21.05,8,1.79,16.51,5.28,22.57,11.92,6.65,7.29,13.56,21.86,19.2,35.86,8.39,20.83-1.03,29.43-21.02,19.19-13.44-6.88-27.32-15.08-33.98-22.37Z"/>
        <path class="cls-2" d="M203.97,62.32c-4.34-10.82-3.61-22.7-1.21-33.04,3.87-16.61,23.26-24.39,37.53-15.05,8.88,5.81,17.62,13.91,21.95,24.73,4.75,11.86,6.5,32.68,6.97,52.22.7,29.07-14.64,35.22-34.22,13.72-13.16-14.46-26.28-30.72-31.03-42.58Z"/>
        <path class="cls-2" d="M210.03,184.02c8.31-1.46,16.63.82,23.6,4.07,11.2,5.22,13.82,20.12,5.07,28.84-5.44,5.43-12.48,10.41-20.8,11.88-9.12,1.6-24.13-.26-38.05-2.84-20.71-3.84-22.78-15.62-4.63-26.3,12.21-7.18,25.68-14.05,34.8-15.65Z"/>
        <path class="cls-2" d="M167.83,64.44c6.44-6.29,15.13-9.28,23.22-10.61,13-2.14,24.26,9.4,21.81,22.34-1.53,8.05-4.73,16.67-11.16,22.96-7.06,6.89-21.39,14.28-35.2,20.39-20.54,9.08-29.45-.05-19.89-20.37,6.43-13.66,14.16-27.81,21.22-34.71Z"/>
        <path class="cls-2" d="M203.57,36.92c6.93,2.96,11.78,9.31,15.11,15.85,5.34,10.49-1,25.32-12.28,28.71-7.02,2.11-14.96,2.98-21.89.02-7.6-3.25-17.61-12.67-26.42-22.18-13.11-14.15-8.09-25.88,11.19-26.17,12.96-.2,26.69.53,34.29,3.78Z"/>
        <path class="cls-2" d="M234.63,32.16c2.54,6.35,1.24,13.67-1.21,20.16-3.95,10.42-18.92,16.42-28.98,11.62-6.26-2.99-12.26-7.39-14.8-13.74-2.79-6.96-2.76-19.6-1.86-31.54,1.34-17.76,13.18-22.51,26.42-10.59,8.9,8.01,17.65,17.13,20.44,24.09Z"/>
      </g>
    </g>
    <g>
      <circle class="cls-6" cx="219.34" cy="69.75" r="57.27"/>
      <path class="cls-1" d="M228.92,123.98s9.71-7.25,22.33-10.19c0,0-5.28-7.22-14.56.07,0,0-6.38,4.87-7.76,10.13Z"/>
      <path class="cls-8" d="M225.15,94.74l-.55,4.95c-.69,6.19,5.58,10.81,11.28,8.31l4.57-2c5.71-2.5,6.57-10.23,1.56-13.93l-4.01-2.96c-5.01-3.69-12.15-.57-12.84,5.62Z"/>
      <g>
        <path class="cls-7" d="M219.28,64.85c4.92-2.34,10.69-.81,13.87,3.36-.18-.75-.44-1.5-.78-2.23-2.68-5.65-9.44-8.06-15.1-5.37s-8.06,9.44-5.37,15.1c.35.73.76,1.4,1.23,2.02-1.22-5.1,1.23-10.53,6.16-12.87Z"/>
        <path class="cls-7" d="M169.63,69.85c-3.35,1.59-3.92,7.41-1.27,13l9.05,19.06c3.54,7.46,15.47,9.2,26.63,3.9,11.17-5.3,17.35-15.65,13.81-23.11l-9.05-19.06c-2.65-5.59-7.52-8.82-10.88-7.23l-28.3,13.44Z"/>
        <path class="cls-7" d="M225.8,43.17c-3.35,1.59-3.92,7.41-1.27,13l9.05,19.06c3.54,7.46,15.47,9.2,26.63,3.9s17.35-15.65,13.81-23.11l-9.05-19.06c-2.65-5.59-7.52-8.82-10.88-7.23l-28.3,13.44Z"/>
      </g>
    </g>
  </g>
  <g>
    <path class="cls-9" d="M156.61,177.11s33.77,60.48,67.27,44.32c0,0,5.39-45.08-67.27-44.32Z"/>
    <path class="cls-9" d="M87.18,291.86s-5.06-29.53,42.84-31.45c0,0-20.23,40.98-42.84,31.45"/>
  </g>
  <g>
    <path class="cls-9" d="M164.01,233.91s39.99,56.55,71.59,36.93c0,0,.58-45.4-71.59-36.93Z"/>
    <path class="cls-9" d="M77.62,271.69s-1.69-45.37,70.66-38.68c0,0-38.59,57.52-70.66,38.68"/>
  </g>
</svg>