<?xml version="1.0" encoding="UTF-8"?>
<svg id="Layer_1" data-name="Layer 1" xmlns="http://www.w3.org/2000/svg" viewBox="0 0 313.57 660.7">
  <defs>
    <style>
      .cls-1 {
        fill: #898042;
        stroke: #5c582f;
      }

      .cls-1, .cls-2, .cls-3, .cls-4, .cls-5, .cls-6, .cls-7, .cls-8, .cls-9 {
        stroke-miterlimit: 10;
      }

      .cls-1, .cls-3, .cls-4, .cls-6, .cls-7 {
        stroke-width: 2px;
      }

      .cls-2 {
        fill: #6d441d;
        stroke: #472116;
      }

      .cls-2, .cls-5, .cls-8, .cls-9 {
        stroke-width: 3px;
      }

      .cls-3 {
        fill: #5a3723;
        stroke: #382217;
      }

      .cls-4 {
        fill: #995724;
        stroke: #7a4521;
      }

      .cls-5 {
        fill: #ddb926;
        stroke: #e29d2a;
      }

      .cls-6 {
        fill: #231e26;
        stroke: #0d0d0d;
      }

      .cls-7 {
        stroke: #b79843;
      }

      .cls-8 {
        fill: #c9a644;
        stroke: #b98742;
      }

      .cls-9 {
        fill: #f4a857;
        stroke: #b57243;
      }
    </style>
  </defs>
  <g>
    <g>
      <path class="cls-4" d="M18.93,462.06l34.84,180.45c0,9.49,41.79,17.19,93.34,17.19s93.34-7.7,93.34-17.19l32.74-178.64-254.27-1.81Z"/>
      <ellipse class="cls-4" cx="146.21" cy="419.73" rx="145.21" ry="87.89"/>
      <ellipse class="cls-3" cx="145.8" cy="411.29" rx="138.53" ry="59.32"/>
    </g>
    <g>
      <g>
        <path class="cls-1" d="M151.45,410.06s52.98-44.62,78.6-17.66c0,0-10.91,44.07-78.6,17.66Z"/>
        <path class="cls-1" d="M58.87,385.2s10.91,44.07,78.6,17.66c0,0-52.98-44.62-78.6-17.66"/>
      </g>
      <path class="cls-1" d="M165.79,433.82s-92.35-254.82,8.09-325.6h-16.01s-100.94,60.09-7.41,326.66l15.33-1.06Z"/>
    </g>
    <g>
      <g>
        <path class="cls-8" d="M226.49,73c0,11.65-5.09,22.42-11.17,31.12-9.77,13.98-30.66,13.98-40.44,0-6.08-8.7-11.17-19.47-11.17-31.12,0-12.78,6.12-32.75,12.96-51.07,10.17-27.25,26.7-27.25,36.87,0,6.84,18.32,12.96,38.29,12.96,51.07Z"/>
        <path class="cls-8" d="M255.05,109.61c-8.24,8.24-19.45,12.25-29.91,14.1-16.8,2.98-31.57-11.8-28.59-28.59,1.85-10.45,5.86-21.67,14.1-29.91,9.04-9.04,27.49-18.83,45.27-26.95,26.46-12.07,38.14-.39,26.07,26.07-8.12,17.79-17.91,36.24-26.95,45.27Z"/>
        <path class="cls-8" d="M240.57,152.21c-11.65,0-22.42-5.09-31.12-11.17-13.98-9.77-13.98-30.66,0-40.44,8.7-6.08,19.47-11.17,31.12-11.17,12.78,0,32.75,6.12,51.07,12.96,27.25,10.17,27.25,26.7,0,36.87-18.32,6.84-38.29,12.96-51.07,12.96Z"/>
        <path class="cls-8" d="M206.31,178.43c-8.24-8.24-12.25-19.45-14.1-29.91-2.98-16.8,11.8-31.57,28.59-28.59,10.45,1.85,21.67,5.86,29.91,14.1,9.04,9.04,18.83,27.49,26.95,45.27,12.07,26.46.39,38.14-26.07,26.07-17.79-8.12-36.24-17.91-45.27-26.95Z"/>
        <path class="cls-8" d="M159.36,170.64c0-11.65,5.09-22.42,11.17-31.12,9.77-13.98,30.66-13.98,40.44,0,6.08,8.7,11.17,19.47,11.17,31.12,0,12.78-6.12,32.75-12.96,51.07-10.17,27.25-26.7,27.25-36.87,0-6.84-18.32-12.96-38.29-12.96-51.07Z"/>
        <path class="cls-8" d="M130.8,133.46c8.24-8.24,19.45-12.25,29.91-14.1,16.8-2.98,31.57,11.8,28.59,28.59-1.85,10.45-5.86,21.67-14.1,29.91-9.04,9.04-27.49,18.83-45.27,26.95-26.46,12.07-38.14.39-26.07-26.07,8.12-17.79,17.91-36.24,26.95-45.27Z"/>
        <path class="cls-8" d="M140.93,89.43c11.65,0,22.42,5.09,31.12,11.17,13.98,9.77,13.98,30.66,0,40.44-8.7,6.08-19.47,11.17-31.12,11.17-12.78,0-32.75-6.12-51.07-12.96-27.25-10.17-27.25-26.7,0-36.87,18.32-6.84,38.29-12.96,51.07-12.96Z"/>
        <path class="cls-8" d="M179.54,65.21c8.24,8.24,12.25,19.45,14.1,29.91,2.98,16.8-11.8,31.57-28.59,28.59-10.45-1.85-21.67-5.86-29.91-14.1-9.04-9.04-18.83-27.49-26.95-45.27-12.07-26.46-.39-38.14,26.07-26.07,17.79,8.12,36.24,17.91,45.27,26.95Z"/>
      </g>
      <g>
        <path class="cls-5" d="M239.56,90.93c-4.58,10.71-13.5,18.61-22.51,24.22-14.48,9.01-33.69.8-37.18-15.9-2.17-10.39-2.62-22.29,1.96-33.01,5.03-11.75,18.51-27.7,32-41.86,20.07-21.05,35.26-14.55,33.9,14.5-.92,19.53-3.14,40.3-8.17,52.05Z"/>
        <path class="cls-5" d="M251.42,135.82c-10.82,4.34-22.7,3.61-33.04,1.21-16.61-3.87-24.39-23.26-15.05-37.53,5.81-8.88,13.91-17.62,24.73-21.95,11.86-4.75,32.68-6.5,52.22-6.97,29.07-.7,35.22,14.64,13.72,34.22-14.46,13.16-30.72,26.28-42.58,31.03Z"/>
        <path class="cls-5" d="M223.64,175c-10.71-4.58-18.61-13.5-24.22-22.51-9.01-14.48-.8-33.69,15.9-37.18,10.39-2.17,22.29-2.62,33.01,1.96,11.75,5.03,27.7,18.51,41.86,32,21.05,20.07,14.55,35.26-14.5,33.9-19.53-.92-40.3-3.14-52.05-8.17Z"/>
        <path class="cls-5" d="M181.83,185.63c-4.34-10.82-3.61-22.7-1.21-33.04,3.87-16.61,23.26-24.39,37.53-15.05,8.88,5.81,17.62,13.91,21.95,24.73,4.75,11.86,6.5,32.68,6.97,52.22.7,29.07-14.64,35.22-34.22,13.72-13.16-14.46-26.28-30.72-31.03-42.58Z"/>
        <path class="cls-5" d="M141.72,160c4.58-10.71,13.5-18.61,22.51-24.22,14.48-9.01,33.69-.8,37.18,15.9,2.17,10.39,2.62,22.29-1.96,33.01-5.03,11.75-18.51,27.7-32,41.86-20.07,21.05-35.26,14.55-33.9-14.5.92-19.53,3.14-40.3,8.17-52.05Z"/>
        <path class="cls-5" d="M130.09,114.59c10.82-4.34,22.7-3.61,33.04-1.21,16.61,3.87,24.39,23.26,15.05,37.53-5.81,8.88-13.91,17.62-24.73,21.95-11.86,4.75-32.68,6.5-52.22,6.97-29.07.7-35.22-14.64-13.72-34.22,14.46-13.16,30.72-26.28,42.58-31.03Z"/>
        <path class="cls-5" d="M156.72,78.09c10.71,4.58,18.61,13.5,24.22,22.51,9.01,14.48.8,33.69-15.9,37.18-10.39,2.17-22.29,2.62-33.01-1.96-11.75-5.03-27.7-18.51-41.86-32-21.05-20.07-14.55-35.26,14.5-33.9,19.53.92,40.3,3.14,52.05,8.17Z"/>
        <path class="cls-5" d="M199.46,65.31c4.34,10.82,3.61,22.7,1.21,33.04-3.87,16.61-23.26,24.39-37.53,15.05-8.88-5.81-17.62-13.91-21.95-24.73-4.75-11.86-6.5-32.68-6.97-52.22-.7-29.07,14.64-35.22,34.22-13.72,13.16,14.46,26.28,30.72,31.03,42.58Z"/>
      </g>
    </g>
    <g>
      <circle class="cls-2" cx="190.03" cy="121.49" r="72.97"/>
      <path class="cls-7" d="M192.84,179.21s29.57-8.86,55.39-28.6c0,0,5.67,19.01-23.31,27.02,0,0-19.64,5.69-32.08,1.58Z"/>
    </g>
  </g>
  <g>
    <path class="cls-6" d="M190.82,103.25c6.27-2.98,13.62-1.03,17.67,4.28-.23-.96-.56-1.91-1-2.84-3.42-7.2-12.03-10.27-19.23-6.85s-10.27,12.03-6.85,19.23c.44.93.97,1.78,1.57,2.57-1.56-6.5,1.57-13.42,7.85-16.4Z"/>
    <path class="cls-6" d="M127.57,109.63c-4.27,2.03-5,9.44-1.62,16.56l11.53,24.28c4.51,9.5,19.71,11.73,33.94,4.97,14.23-6.76,22.1-19.94,17.59-29.44l-11.53-24.28c-3.38-7.12-9.58-11.24-13.86-9.21l-36.05,17.12Z"/>
    <path class="cls-6" d="M199.14,75.64c-4.27,2.03-5,9.44-1.62,16.56l11.53,24.28c4.51,9.5,19.71,11.73,33.94,4.97s22.1-19.94,17.59-29.44l-11.53-24.28c-3.38-7.12-9.58-11.24-13.86-9.21l-36.05,17.12Z"/>
  </g>
  <path class="cls-9" d="M198.73,137.52l-1.56,13.95c-.69,6.19,5.58,10.81,11.28,8.31l12.86-5.62c5.71-2.5,6.57-10.23,1.56-13.93l-11.3-8.32c-5.01-3.69-12.15-.57-12.84,5.62Z"/>
  <g>
    <path class="cls-1" d="M141.18,352.8s52.98-44.62,78.6-17.66c0,0-10.91,44.07-78.6,17.66Z"/>
    <path class="cls-1" d="M48.59,327.94s10.91,44.07,78.6,17.66c0,0-52.98-44.62-78.6-17.66"/>
  </g>
  <g>
    <path class="cls-1" d="M130.82,305.07s52.98-44.62,78.6-17.66c0,0-10.91,44.07-78.6,17.66Z"/>
    <path class="cls-1" d="M38.23,280.21s10.91,44.07,78.6,17.66c0,0-52.98-44.62-78.6-17.66"/>
  </g>
</svg>