<svg width="277" height="353" viewBox="0 0 277 353" fill="none" xmlns="http://www.w3.org/2000/svg">
<g clip-path="url(#clip0_4_2572)">
<mask id="mask0_4_2572" style="mask-type:luminance" maskUnits="userSpaceOnUse" x="-148" y="-351" width="573" height="739">
<path d="M-147.205 -351H424.206V387.256H-147.205V-351Z" fill="white"/>
</mask>
<g mask="url(#mask0_4_2572)">
<path d="M19.6628 168.69L52.195 336.893C52.195 345.743 91.2134 352.917 139.346 352.917C187.479 352.917 226.498 345.743 226.498 336.893L257.067 170.374L19.6628 168.69Z" fill="#985724" stroke="#7A4521" stroke-width="2.66667" stroke-miterlimit="10"/>
</g>
<mask id="mask1_4_2572" style="mask-type:luminance" maskUnits="userSpaceOnUse" x="-148" y="-351" width="573" height="739">
<path d="M-147.205 -351H424.206V387.256H-147.205V-351Z" fill="white"/>
</mask>
<g mask="url(#mask1_4_2572)">
<path d="M274.075 129.236C274.075 174.481 213.376 211.158 138.5 211.158C63.6244 211.158 2.92505 174.481 2.92505 129.236C2.92505 83.992 63.6244 47.314 138.5 47.314C213.376 47.314 274.075 83.992 274.075 129.236Z" fill="#985724" stroke="#7A4521" stroke-width="2.66667" stroke-miterlimit="10"/>
</g>
<mask id="mask2_4_2572" style="mask-type:luminance" maskUnits="userSpaceOnUse" x="-148" y="-351" width="573" height="739">
<path d="M-147.205 -351H424.206V387.256H-147.205V-351Z" fill="white"/>
</mask>
<g mask="url(#mask2_4_2572)">
<path d="M267.469 121.368C267.469 151.908 209.559 176.666 138.125 176.666C66.689 176.666 8.77954 151.908 8.77954 121.368C8.77954 90.8286 66.689 66.0709 138.125 66.0709C209.559 66.0709 267.469 90.8286 267.469 121.368Z" fill="#5A3723" stroke="#382217" stroke-width="2.66667" stroke-miterlimit="10"/>
</g>
<mask id="mask3_4_2572" style="mask-type:luminance" maskUnits="userSpaceOnUse" x="-148" y="-351" width="573" height="739">
<path d="M-147.205 -351H424.206V387.256H-147.205V-351Z" fill="white"/>
</mask>
<g mask="url(#mask3_4_2572)">
<path d="M164.624 36.5635C164.624 36.5635 90.8698 74.7655 105.378 143.353H110.701C110.701 143.353 100.791 89.6667 166.689 42.6001L164.624 36.5635Z" fill="#63673F" stroke="#353527" stroke-width="2.66667" stroke-miterlimit="10"/>
</g>
<mask id="mask4_4_2572" style="mask-type:luminance" maskUnits="userSpaceOnUse" x="-148" y="-351" width="573" height="739">
<path d="M-147.205 -351H424.206V387.256H-147.205V-351Z" fill="white"/>
</mask>
<g mask="url(#mask4_4_2572)">
<path d="M166.068 123.933C162.54 121.581 159.843 118.569 157.878 115.811C154.722 111.379 157.025 107.936 162.335 109.148C165.639 109.902 169.46 111.236 172.988 113.588C176.856 116.166 182.228 121.205 187.019 126.029C194.147 133.203 192.326 135.926 182.957 132.103C176.658 129.533 169.938 126.512 166.068 123.933Z" fill="#B7B435" stroke="#9A9649" stroke-width="4" stroke-miterlimit="10"/>
</g>
<mask id="mask5_4_2572" style="mask-type:luminance" maskUnits="userSpaceOnUse" x="-148" y="-351" width="573" height="739">
<path d="M-147.205 -351H424.206V387.256H-147.205V-351Z" fill="white"/>
</mask>
<g mask="url(#mask5_4_2572)">
<path d="M191.986 52.7584C186.01 54.1054 179.9 52.7435 174.733 50.635C166.432 47.2476 164.011 36.5531 170.05 29.9321C173.809 25.8121 178.739 21.9605 184.716 20.6135C191.268 19.1361 202.218 19.9619 212.404 21.3452C227.554 23.4025 229.467 31.8617 216.673 40.2192C208.072 45.8373 198.54 51.281 191.986 52.7584Z" fill="#B7B435" stroke="#9A9649" stroke-width="4" stroke-miterlimit="10"/>
</g>
<mask id="mask6_4_2572" style="mask-type:luminance" maskUnits="userSpaceOnUse" x="-148" y="-351" width="573" height="739">
<path d="M-147.205 -351H424.206V387.256H-147.205V-351Z" fill="white"/>
</mask>
<g mask="url(#mask6_4_2572)">
<path d="M194.733 41.7778C189.874 45.5035 183.756 46.8262 178.18 47.077C169.221 47.4797 162.53 38.7847 165.229 30.2462C166.909 24.9321 169.766 19.3709 174.625 15.6442C179.952 11.5587 190.239 7.72103 200.066 4.71021C214.682 0.232204 219.974 7.11048 211.873 20.0551C206.426 28.7576 200.061 37.6922 194.733 41.7778Z" fill="#B7B435" stroke="#9A9649" stroke-width="4" stroke-miterlimit="10"/>
</g>
<mask id="mask7_4_2572" style="mask-type:luminance" maskUnits="userSpaceOnUse" x="-148" y="-351" width="573" height="739">
<path d="M-147.205 -351H424.206V387.256H-147.205V-351Z" fill="white"/>
</mask>
<g mask="url(#mask7_4_2572)">
<path d="M182.955 62.1572C176.881 61.362 171.617 57.9774 167.497 54.219C160.877 48.1788 162.303 37.3072 170.26 33.175C175.212 30.6032 181.171 28.6877 187.246 29.4828C193.907 30.3543 203.899 34.9032 212.98 39.7112C226.486 46.8626 225.358 55.4616 210.461 58.8965C200.445 61.2045 189.616 63.0287 182.955 62.1572Z" fill="#B7B435" stroke="#9A9649" stroke-width="4" stroke-miterlimit="10"/>
</g>
</g>
<defs>
<clipPath id="clip0_4_2572">
<rect width="277" height="353" fill="white"/>
</clipPath>
</defs>
</svg>
