<svg width="271" height="452" viewBox="0 0 271 452" fill="none" xmlns="http://www.w3.org/2000/svg">
<g clip-path="url(#clip0_4_2651)">
<path d="M17.5439 268.857L49.833 435.311C49.833 444.065 88.5632 451.168 136.339 451.168C184.114 451.168 222.844 444.065 222.844 435.311L253.187 270.527L17.5347 268.857H17.5439Z" fill="#995724" stroke="#7A4521" stroke-width="2" stroke-miterlimit="10"/>
<path d="M135.505 310.892C209.83 310.892 270.082 274.595 270.082 229.819C270.082 185.044 209.83 148.746 135.505 148.746C61.1793 148.746 0.926758 185.044 0.926758 229.819C0.926758 274.595 61.1793 310.892 135.505 310.892Z" fill="#995724" stroke="#7A4521" stroke-width="2" stroke-miterlimit="10"/>
<path d="M135.125 276.753C206.031 276.753 263.512 252.254 263.512 222.034C263.512 191.813 206.031 167.315 135.125 167.315C64.2186 167.315 6.73779 191.813 6.73779 222.034C6.73779 252.254 64.2186 276.753 135.125 276.753Z" fill="#5A3723" stroke="#382217" stroke-width="2" stroke-miterlimit="10"/>
<path d="M127.154 220.383C127.154 220.383 163.818 189.647 181.547 208.225C181.547 208.225 173.994 238.583 127.154 220.383Z" fill="#808C43" stroke="#595E2F" stroke-width="2" stroke-miterlimit="10"/>
<path d="M63.0859 203.263C63.0859 203.263 70.6392 233.62 117.479 215.42C117.479 215.42 80.8153 184.685 63.0859 203.263Z" fill="#808C43" stroke="#595E2F" stroke-width="2" stroke-miterlimit="10"/>
<path d="M106.376 93.6124C106.376 93.6124 149.175 211.14 102.632 243.785H110.046C110.046 243.785 156.82 216.075 113.484 93.1235L106.376 93.6124Z" fill="#808C43" stroke="#595E2F" stroke-width="2" stroke-miterlimit="10"/>
<path d="M144.272 52.6929C141.306 59.5927 135.532 64.6846 129.694 68.3005C120.315 74.1027 107.886 68.8171 105.625 58.0523C104.216 51.3554 103.929 43.6899 106.895 36.7808C110.148 29.2076 118.878 18.9317 127.608 9.80875C140.602 -3.75108 150.435 0.436786 149.554 19.1531C148.961 31.7351 147.525 45.1197 144.272 52.6929Z" fill="#F8D00C" stroke="#EEA620" stroke-width="3" stroke-miterlimit="10"/>
<path d="M151.955 81.6114C144.948 84.4064 137.256 83.9359 130.565 82.3862C119.805 79.8956 114.782 67.3966 120.824 58.1999C124.587 52.4716 129.833 46.8539 136.83 44.0589C144.513 40.9964 157.979 39.8711 170.639 39.5667C189.462 39.1147 193.438 49.0032 179.517 61.6129C170.157 70.0901 159.629 78.5396 151.955 81.6021V81.6114Z" fill="#F8D00C" stroke="#EEA620" stroke-width="3" stroke-miterlimit="10"/>
<path d="M133.966 106.859C127.034 103.907 121.918 98.16 118.285 92.3486C112.455 83.0136 117.766 70.6437 128.581 68.3929C135.31 66.9908 143.011 66.7049 149.953 69.6567C157.562 72.8944 167.886 81.5838 177.052 90.2731C190.676 103.206 186.468 112.993 167.664 112.116C155.023 111.526 141.575 110.096 133.966 106.859Z" fill="#F8D00C" stroke="#EEA620" stroke-width="3" stroke-miterlimit="10"/>
<path d="M106.904 113.703C104.096 106.729 104.569 99.0732 106.126 92.4132C108.628 81.7037 121.186 76.7041 130.426 82.7184C136.181 86.4635 141.825 91.6845 144.633 98.6489C147.71 106.296 148.841 119.699 149.147 132.299C149.601 151.034 139.666 154.991 126.997 141.136C118.48 131.82 109.99 121.341 106.913 113.703H106.904Z" fill="#F8D00C" stroke="#EEA620" stroke-width="3" stroke-miterlimit="10"/>
<path d="M80.9356 97.1914C83.9013 90.2916 89.6751 85.1997 95.5139 81.5837C104.893 75.7816 117.321 81.0672 119.582 91.832C120.991 98.5289 121.278 106.194 118.313 113.103C115.06 120.677 106.329 130.953 97.5991 140.076C84.6056 153.635 74.7725 149.448 75.6529 130.731C76.2461 118.149 77.6826 104.765 80.9356 97.1914Z" fill="#F8D00C" stroke="#EEA620" stroke-width="3" stroke-miterlimit="10"/>
<path d="M73.4102 67.9315C80.4167 65.1365 88.109 65.607 94.8003 67.1567C105.56 69.6473 110.583 82.1463 104.541 91.343C100.778 97.0713 95.5325 102.689 88.5353 105.484C80.8523 108.546 67.3861 109.672 54.7263 109.976C35.9034 110.428 31.9275 100.54 45.8478 87.93C55.2082 79.4528 65.7365 71.0033 73.4102 67.9408V67.9315Z" fill="#F8D00C" stroke="#EEA620" stroke-width="3" stroke-miterlimit="10"/>
<path d="M90.6483 44.4094C97.5807 47.3612 102.696 53.108 106.329 58.9193C112.159 68.2544 106.848 80.6243 96.0329 82.875C89.3045 84.2771 81.603 84.5631 74.6614 81.6113C67.0525 78.3735 56.7282 69.6842 47.5623 60.9948C33.9386 48.0622 38.1462 38.2752 56.9506 39.1515C69.5919 39.7418 83.0395 41.1716 90.6483 44.4094Z" fill="#F8D00C" stroke="#EEA620" stroke-width="3" stroke-miterlimit="10"/>
<path d="M118.313 36.1813C121.121 43.155 120.648 50.8112 119.091 57.4712C116.589 68.1807 104.031 73.1803 94.7911 67.166C89.0358 63.4209 83.3917 58.1999 80.5836 51.2355C77.5067 43.5885 76.376 30.1855 76.0701 17.585C75.616 -1.14973 85.5511 -5.10699 98.2202 8.74802C106.737 18.0646 115.227 28.5435 118.304 36.1813H118.313Z" fill="#F8D00C" stroke="#EEA620" stroke-width="3" stroke-miterlimit="10"/>
<path d="M112.289 113.509C134.206 113.509 151.974 95.8251 151.974 74.0105C151.974 52.1959 134.206 34.5117 112.289 34.5117C90.3715 34.5117 72.604 52.1959 72.604 74.0105C72.604 95.8251 90.3715 113.509 112.289 113.509Z" fill="#6D441D" stroke="#472116" stroke-width="3" stroke-miterlimit="10"/>
<path d="M131.149 169.492C131.149 169.492 164.606 141.45 180.778 158.395C180.778 158.395 173.892 186.096 131.149 169.492Z" fill="#808C43" stroke="#595E2F" stroke-width="2" stroke-miterlimit="10"/>
<path d="M72.6875 153.866C72.6875 153.866 79.5735 181.567 122.317 164.963C122.317 164.963 88.8598 136.921 72.6875 153.866Z" fill="#808C43" stroke="#595E2F" stroke-width="2" stroke-miterlimit="10"/>
</g>
<defs>
<clipPath id="clip0_4_2651">
<rect width="271" height="452" fill="white"/>
</clipPath>
</defs>
</svg>
