<?xml version="1.0" encoding="UTF-8" standalone="no"?>
<svg
   xmlns:dc="http://purl.org/dc/elements/1.1/"
   xmlns:cc="http://creativecommons.org/ns#"
   xmlns:rdf="http://www.w3.org/1999/02/22-rdf-syntax-ns#"
   xmlns:svg="http://www.w3.org/2000/svg"
   xmlns="http://www.w3.org/2000/svg"
   viewBox="0 0 816 1056"
   height="1056"
   width="816"
   xml:space="preserve"
   id="svg2"
   version="1.1"><metadata
     id="metadata8"><rdf:RDF><cc:Work
         rdf:about=""><dc:format>image/svg+xml</dc:format><dc:type
           rdf:resource="http://purl.org/dc/dcmitype/StillImage" /></cc:Work></rdf:RDF></metadata><defs
     id="defs6"><clipPath
       id="clipPath18"
       clipPathUnits="userSpaceOnUse"><path
         id="path16"
         d="M 0,792 H 612 V 0 H 0 Z" /></clipPath></defs><g
     transform="matrix(1.3333333,0,0,-1.3333333,0,1056)"
     id="g10"><g
       id="g12"><g
         clip-path="url(#clipPath18)"
         id="g14"><g
           transform="translate(178.7213,249.8954)"
           id="g20"><path
             id="path22"
             style="fill:#9c5f38;fill-opacity:1;fill-rule:nonzero;stroke:none"
             d="m 0,0 34.843,-180.448 c 0,-9.494 41.79,-17.19 93.342,-17.19 51.552,0 93.342,7.696 93.342,17.19 l 32.741,178.642 z" /></g><g
           transform="translate(178.7213,249.8954)"
           id="g24"><path
             id="path26"
             style="fill:none;stroke:#7f5036;stroke-width:2;stroke-linecap:butt;stroke-linejoin:miter;stroke-miterlimit:10;stroke-dasharray:none;stroke-opacity:1"
             d="m 0,0 34.843,-180.448 c 0,-9.494 41.79,-17.19 93.342,-17.19 51.552,0 93.342,7.696 93.342,17.19 l 32.741,178.642 z" /></g><g
           transform="translate(451.2056,292.2217)"
           id="g28"><path
             id="path30"
             style="fill:#9c5f38;fill-opacity:1;fill-rule:nonzero;stroke:none"
             d="m 0,0 c 0,-48.538 -65.011,-87.886 -145.206,-87.886 -80.194,0 -145.205,39.348 -145.205,87.886 0,48.538 65.011,87.886 145.205,87.886 C -65.011,87.886 0,48.538 0,0" /></g><g
           transform="translate(451.2056,292.2217)"
           id="g32"><path
             id="path34"
             style="fill:none;stroke:#7f5036;stroke-width:2;stroke-linecap:butt;stroke-linejoin:miter;stroke-miterlimit:10;stroke-dasharray:none;stroke-opacity:1"
             d="m 0,0 c 0,-48.538 -65.011,-87.886 -145.206,-87.886 -80.194,0 -145.205,39.348 -145.205,87.886 0,48.538 65.011,87.886 145.205,87.886 C -65.011,87.886 0,48.538 0,0 Z" /></g><g
           transform="translate(444.13,300.6623)"
           id="g36"><path
             id="path38"
             style="fill:#624537;fill-opacity:1;fill-rule:nonzero;stroke:none"
             d="m 0,0 c 0,-32.763 -62.023,-59.323 -138.532,-59.323 -76.51,0 -138.533,26.56 -138.533,59.323 0,32.763 62.023,59.323 138.533,59.323 C -62.023,59.323 0,32.763 0,0" /></g><g
           transform="translate(444.13,300.6623)"
           id="g40"><path
             id="path42"
             style="fill:none;stroke:#463731;stroke-width:2;stroke-linecap:butt;stroke-linejoin:miter;stroke-miterlimit:10;stroke-dasharray:none;stroke-opacity:1"
             d="m 0,0 c 0,-32.763 -62.023,-59.323 -138.532,-59.323 -76.51,0 -138.533,26.56 -138.533,59.323 0,32.763 62.023,59.323 138.533,59.323 C -62.023,59.323 0,32.763 0,0 Z" /></g><g
           transform="translate(322.0382,281.7603)"
           id="g44"><path
             id="path46"
             style="fill:#636341;fill-opacity:1;fill-rule:nonzero;stroke:#424136;stroke-width:2;stroke-linecap:butt;stroke-linejoin:miter;stroke-miterlimit:10;stroke-dasharray:none;stroke-opacity:1"
             d="m 0,0 c 0,0 112.011,-58.039 105.738,16.767 0,0 -76.369,26.385 -117.873,-1.402" /></g><g
           transform="translate(305.0343,284.8236)"
           id="g48"><path
             id="path50"
             style="fill:#636341;fill-opacity:1;fill-rule:nonzero;stroke:#424136;stroke-width:2;stroke-linecap:butt;stroke-linejoin:miter;stroke-miterlimit:10;stroke-dasharray:none;stroke-opacity:1"
             d="m 0,0 c 0,0 -109.544,-55.065 -94.894,20.363 0,0 70.334,32.295 99.763,-8.061" /></g><g
           transform="translate(321.0664,284.8236)"
           id="g52"><path
             id="path54"
             style="fill:#636341;fill-opacity:1;fill-rule:nonzero;stroke:none"
             d="m 0,0 c 0,0 7.545,163.724 94.612,261.542 l -11.066,4.012 c 0,0 -61.592,-25.5 -99.578,-265.554 z" /></g><g
           transform="translate(321.0664,284.8236)"
           id="g56"><path
             id="path58"
             style="fill:none;stroke:#424136;stroke-width:2;stroke-linecap:butt;stroke-linejoin:miter;stroke-miterlimit:10;stroke-dasharray:none;stroke-opacity:1"
             d="m 0,0 c 0,0 7.545,163.724 94.612,261.542 l -11.066,4.012 c 0,0 -61.592,-25.5 -99.578,-265.554 z" /></g><g
           transform="translate(479.7193,495.0242)"
           id="g60"><path
             id="path62"
             style="fill:#d0a9b4;fill-opacity:1;fill-rule:nonzero;stroke:#c65779;stroke-width:3;stroke-linecap:butt;stroke-linejoin:miter;stroke-miterlimit:10;stroke-dasharray:none;stroke-opacity:1"
             d="m 0,0 c -38.085,-22.294 -79.348,-22.618 -92.164,-0.725 -12.815,21.894 7.67,57.714 45.755,80.008" /></g><g
           transform="translate(465.5691,489.4311)"
           id="g64"><path
             id="path66"
             style="fill:#b49da5;fill-opacity:1;fill-rule:nonzero;stroke:none"
             d="m 0,0 c -44.063,-2.434 -80.918,16.127 -82.316,41.457 -1.399,25.33 33.187,47.837 77.25,50.27 C 38.997,94.161 77.25,50.27 77.25,50.27 77.25,50.27 44.063,2.434 0,0" /></g><g
           transform="translate(465.5691,489.4311)"
           id="g68"><path
             id="path70"
             style="fill:none;stroke:#a65e77;stroke-width:3;stroke-linecap:butt;stroke-linejoin:miter;stroke-miterlimit:10;stroke-dasharray:none;stroke-opacity:1"
             d="m 0,0 c -44.063,-2.434 -80.918,16.127 -82.316,41.457 -1.399,25.33 33.187,47.837 77.25,50.27 C 38.997,94.161 77.25,50.27 77.25,50.27 77.25,50.27 44.063,2.434 0,0 Z" /></g><g
           transform="translate(458.5851,460.2607)"
           id="g72"><path
             id="path74"
             style="fill:#b49da5;fill-opacity:1;fill-rule:nonzero;stroke:none"
             d="M 0,0 C -43.918,4.319 -77.509,28.286 -75.026,53.533 -72.544,78.779 -34.928,95.745 8.99,91.426 52.909,87.107 84.017,37.893 84.017,37.893 84.017,37.893 43.919,-4.319 0,0" /></g><g
           transform="translate(458.5851,460.2607)"
           id="g76"><path
             id="path78"
             style="fill:none;stroke:#a65e77;stroke-width:3;stroke-linecap:butt;stroke-linejoin:miter;stroke-miterlimit:10;stroke-dasharray:none;stroke-opacity:1"
             d="M 0,0 C -43.918,4.319 -77.509,28.286 -75.026,53.533 -72.544,78.779 -34.928,95.745 8.99,91.426 52.909,87.107 84.017,37.893 84.017,37.893 84.017,37.893 43.919,-4.319 0,0 Z" /></g><g
           transform="translate(425.5893,488.8933)"
           id="g80"><path
             id="path82"
             style="fill:#413035;fill-opacity:1;fill-rule:nonzero;stroke:none"
             d="m 0,0 c 0,0 5.413,6.759 4.408,14.036 -1.004,7.278 -8.046,12.317 -8.046,12.317 0,0 -0.341,-0.426 -0.836,-1.179 C -2.663,14.641 0,0 0,0" /></g><g
           transform="translate(425.5893,488.8933)"
           id="g84"><path
             id="path86"
             style="fill:none;stroke:#cb5875;stroke-width:2;stroke-linecap:butt;stroke-linejoin:miter;stroke-miterlimit:10;stroke-dasharray:none;stroke-opacity:1"
             d="m 0,0 c 0,0 5.413,6.759 4.408,14.036 -1.004,7.278 -8.046,12.317 -8.046,12.317 0,0 -0.341,-0.426 -0.836,-1.179 C -2.663,14.641 0,0 0,0 Z" /></g><g
           transform="translate(442.6299,495.6403)"
           id="g88"><path
             id="path90"
             style="fill:#d19560;fill-opacity:1;fill-rule:nonzero;stroke:none"
             d="m 0,0 c -2.869,-0.548 -6.197,1.76 -7.433,5.156 -1.236,3.396 0.088,6.593 2.957,7.141 2.869,0.548 6.197,-1.76 7.433,-5.156 C 4.193,3.745 2.869,0.548 0,0" /></g><g
           transform="translate(442.6299,495.6403)"
           id="g92"><path
             id="path94"
             style="fill:none;stroke:#b17a58;stroke-width:2;stroke-linecap:butt;stroke-linejoin:miter;stroke-miterlimit:10;stroke-dasharray:none;stroke-opacity:1"
             d="m 0,0 c -2.869,-0.548 -6.197,1.76 -7.433,5.156 -1.236,3.396 0.088,6.593 2.957,7.141 2.869,0.548 6.197,-1.76 7.433,-5.156 C 4.193,3.745 2.869,0.548 0,0 Z" /></g><g
           transform="translate(306.0352,267.2784)"
           id="g96"><path
             id="path98"
             style="fill:#b49da5;fill-opacity:1;fill-rule:nonzero;stroke:none"
             d="M 0,0 C -16.779,2.219 -29.347,11.838 -28.071,21.484 -26.796,31.129 -12.159,37.149 4.62,34.93 21.4,32.71 32.692,13.446 32.692,13.446 32.692,13.446 16.779,-2.219 0,0" /></g><g
           transform="translate(306.0352,267.2784)"
           id="g100"><path
             id="path102"
             style="fill:none;stroke:#a65e77;stroke-width:3;stroke-linecap:butt;stroke-linejoin:miter;stroke-miterlimit:10;stroke-dasharray:none;stroke-opacity:1"
             d="M 0,0 C -16.779,2.219 -29.347,11.838 -28.071,21.484 -26.796,31.129 -12.159,37.149 4.62,34.93 21.4,32.71 32.692,13.446 32.692,13.446 32.692,13.446 16.779,-2.219 0,0 Z" /></g><g
           transform="translate(395.0844,285.0811)"
           id="g104"><path
             id="path106"
             style="fill:#b49da5;fill-opacity:1;fill-rule:nonzero;stroke:none"
             d="M 0,0 C -16.779,2.219 -29.347,11.838 -28.071,21.484 -26.796,31.129 -12.159,37.149 4.62,34.93 21.4,32.71 32.692,13.446 32.692,13.446 32.692,13.446 16.779,-2.219 0,0" /></g><g
           transform="translate(395.0844,285.0811)"
           id="g108"><path
             id="path110"
             style="fill:none;stroke:#a65e77;stroke-width:3;stroke-linecap:butt;stroke-linejoin:miter;stroke-miterlimit:10;stroke-dasharray:none;stroke-opacity:1"
             d="M 0,0 C -16.779,2.219 -29.347,11.838 -28.071,21.484 -26.796,31.129 -12.159,37.149 4.62,34.93 21.4,32.71 32.692,13.446 32.692,13.446 32.692,13.446 16.779,-2.219 0,0 Z" /></g><g
           transform="translate(351.4259,295.8471)"
           id="g112"><path
             id="path114"
             style="fill:#b49da5;fill-opacity:1;fill-rule:nonzero;stroke:none"
             d="M 0,0 C 14.748,8.305 30.573,8.166 35.348,-0.312 40.122,-8.79 32.037,-22.395 17.289,-30.7 c -14.747,-8.306 -35.347,0.312 -35.347,0.312 0,0 3.31,22.083 18.058,30.388" /></g><g
           transform="translate(351.4259,295.8471)"
           id="g116"><path
             id="path118"
             style="fill:none;stroke:#a65e77;stroke-width:3;stroke-linecap:butt;stroke-linejoin:miter;stroke-miterlimit:10;stroke-dasharray:none;stroke-opacity:1"
             d="M 0,0 C 14.748,8.305 30.573,8.166 35.348,-0.312 40.122,-8.79 32.037,-22.395 17.289,-30.7 c -14.747,-8.306 -35.347,0.312 -35.347,0.312 0,0 3.31,22.083 18.058,30.388 z" /></g><g
           transform="translate(483.5724,511.7384)"
           id="g120"><path
             id="path122"
             style="fill:#292929;fill-opacity:1;fill-rule:nonzero;stroke:none"
             d="m 0,0 c 1.261,1.199 -3.764,5.68 -11.546,10.473 6.426,6.5 10.247,12.044 8.738,12.91 -1.509,0.866 -7.836,-3.239 -14.774,-9.445 -8.209,4.387 -15.328,6.877 -16.589,5.678 -1.261,-1.199 3.764,-5.68 11.545,-10.473 -6.425,-6.5 -10.246,-12.043 -8.737,-12.91 1.509,-0.866 7.836,3.239 14.773,9.445 C -8.38,1.291 -1.261,-1.199 0,0" /></g><g
           transform="translate(483.5724,511.7384)"
           id="g124"><path
             id="path126"
             style="fill:none;stroke:#3e3e3d;stroke-width:2;stroke-linecap:butt;stroke-linejoin:miter;stroke-miterlimit:10;stroke-dasharray:none;stroke-opacity:1"
             d="m 0,0 c 1.261,1.199 -3.764,5.68 -11.546,10.473 6.426,6.5 10.247,12.044 8.738,12.91 -1.509,0.866 -7.836,-3.239 -14.774,-9.445 -8.209,4.387 -15.328,6.877 -16.589,5.678 -1.261,-1.199 3.764,-5.68 11.545,-10.473 -6.425,-6.5 -10.246,-12.043 -8.737,-12.91 1.509,-0.866 7.836,3.239 14.773,9.445 C -8.38,1.291 -1.261,-1.199 0,0 Z" /></g><g
           transform="translate(483.4711,473.3467)"
           id="g128"><path
             id="path130"
             style="fill:#292929;fill-opacity:1;fill-rule:nonzero;stroke:none"
             d="m 0,0 c 1.261,1.199 -3.764,5.68 -11.546,10.473 6.426,6.5 10.247,12.044 8.738,12.91 -1.509,0.866 -7.836,-3.239 -14.774,-9.445 -8.209,4.387 -15.328,6.877 -16.589,5.678 -1.261,-1.199 3.764,-5.68 11.545,-10.473 -6.425,-6.5 -10.246,-12.043 -8.737,-12.91 1.509,-0.866 7.836,3.239 14.773,9.445 C -8.38,1.291 -1.261,-1.199 0,0" /></g><g
           transform="translate(483.4711,473.3467)"
           id="g132"><path
             id="path134"
             style="fill:none;stroke:#3e3e3d;stroke-width:2;stroke-linecap:butt;stroke-linejoin:miter;stroke-miterlimit:10;stroke-dasharray:none;stroke-opacity:1"
             d="m 0,0 c 1.261,1.199 -3.764,5.68 -11.546,10.473 6.426,6.5 10.247,12.044 8.738,12.91 -1.509,0.866 -7.836,-3.239 -14.774,-9.445 -8.209,4.387 -15.328,6.877 -16.589,5.678 -1.261,-1.199 3.764,-5.68 11.545,-10.473 -6.425,-6.5 -10.246,-12.043 -8.737,-12.91 1.509,-0.866 7.836,3.239 14.773,9.445 C -8.38,1.291 -1.261,-1.199 0,0 Z" /></g><g
           transform="translate(444.9137,62.7855)"
           id="g136"><path
             id="path138"
             style="fill:#b49da5;fill-opacity:1;fill-rule:nonzero;stroke:none"
             d="M 0,0 C -16.779,2.219 -29.868,7.903 -29.234,12.694 -28.6,17.485 -14.484,19.57 2.295,17.35 19.074,15.131 31.529,4.656 31.529,4.656 31.529,4.656 16.779,-2.219 0,0" /></g><g
           transform="translate(444.9137,62.7855)"
           id="g140"><path
             id="path142"
             style="fill:none;stroke:#a65e77;stroke-width:3;stroke-linecap:butt;stroke-linejoin:miter;stroke-miterlimit:10;stroke-dasharray:none;stroke-opacity:1"
             d="M 0,0 C -16.779,2.219 -29.868,7.903 -29.234,12.694 -28.6,17.485 -14.484,19.57 2.295,17.35 19.074,15.131 31.529,4.656 31.529,4.656 31.529,4.656 16.779,-2.219 0,0 Z" /></g><g
           transform="translate(416.0395,270.7965)"
           id="g144"><path
             id="path146"
             style="fill:#b49da5;fill-opacity:1;fill-rule:nonzero;stroke:none"
             d="m 0,0 c -12.007,-11.93 -27.299,-16.005 -34.157,-9.103 -6.857,6.902 -2.684,22.168 9.323,34.097 12.007,11.93 34.157,9.103 34.157,9.103 C 9.323,34.097 12.007,11.93 0,0" /></g><g
           transform="translate(416.0395,270.7965)"
           id="g148"><path
             id="path150"
             style="fill:none;stroke:#a65e77;stroke-width:3;stroke-linecap:butt;stroke-linejoin:miter;stroke-miterlimit:10;stroke-dasharray:none;stroke-opacity:1"
             d="m 0,0 c -12.007,-11.93 -27.299,-16.005 -34.157,-9.103 -6.857,6.902 -2.684,22.168 9.323,34.097 12.007,11.93 34.157,9.103 34.157,9.103 C 9.323,34.097 12.007,11.93 0,0 Z" /></g></g></g></g></svg>