<?xml version="1.0" encoding="UTF-8"?>
<svg id="Layer_1" data-name="Layer 1" xmlns="http://www.w3.org/2000/svg" viewBox="0 0 292.41 689.49">
  <defs>
    <style>
      .cls-1 {
        fill: #fff;
      }

      .cls-1, .cls-2, .cls-3, .cls-4, .cls-5, .cls-6, .cls-7, .cls-8 {
        stroke-miterlimit: 10;
      }

      .cls-1, .cls-2, .cls-3, .cls-4, .cls-5, .cls-7, .cls-8 {
        stroke-width: 2px;
      }

      .cls-1, .cls-6, .cls-7 {
        stroke: #ef4267;
      }

      .cls-2 {
        fill: #798034;
        stroke: #5a5c27;
      }

      .cls-3 {
        fill: #5a3723;
        stroke: #382217;
      }

      .cls-4 {
        fill: #995724;
        stroke: #7a4521;
      }

      .cls-5 {
        fill: #f4a857;
        stroke: #ce7f48;
      }

      .cls-6 {
        fill: #f59caf;
        stroke-width: 3px;
      }

      .cls-7 {
        fill: #471423;
      }

      .cls-8 {
        stroke: #2d2d2d;
      }
    </style>
  </defs>
  <g>
    <path class="cls-4" d="M18.93,490.85l34.84,180.45c0,9.49,41.79,17.19,93.34,17.19s93.34-7.7,93.34-17.19l32.74-178.64-254.27-1.81Z"/>
    <ellipse class="cls-4" cx="146.21" cy="448.52" rx="145.21" ry="87.89"/>
    <ellipse class="cls-3" cx="145.8" cy="440.08" rx="138.53" ry="59.32"/>
  </g>
  <g>
    <path class="cls-2" d="M157.82,455.92s73.3-122.78,2.87-181.93c0,0,18.52,134.32-17.5,168.92"/>
    <path class="cls-2" d="M128.56,455.92s-73.3-122.78-2.87-181.93c0,0-18.52,134.32,17.5,168.92"/>
    <path class="cls-2" d="M95.12,129.26s84.48,235.69,33.69,326.66h29.01s22.34-129.11-46.67-326.66h-16.03Z"/>
  </g>
  <g>
    <path class="cls-6" d="M120.18,64.48c24.52,36.69,27.31,77.86,6.22,91.96-21.09,14.1-58.07-4.22-82.59-40.91-24.52-36.69-6.22-91.96-6.22-91.96,0,0,58.07,4.22,82.59,40.91Z"/>
    <path class="cls-6" d="M143.48,73.11c8.09,43.38-5.58,82.32-30.52,86.97s-51.71-26.75-59.8-70.14C45.08,46.56,83.68,2.98,83.68,2.98c0,0,51.71,26.75,59.8,70.14Z"/>
    <path class="cls-6" d="M131.85,68.31c15.84,41.19,9.49,81.96-14.19,91.07-23.68,9.11-55.71-16.9-71.55-58.09C30.26,60.1,60.29,10.22,60.29,10.22c0,0,55.71,16.9,71.55,58.09Z"/>
    <path class="cls-6" d="M107.17,63.56c29.86,32.49,38.92,72.75,20.24,89.92-18.68,17.16-58.03,4.74-87.89-27.76C9.67,93.23,19.29,35.8,19.29,35.8c0,0,58.03-4.74,87.89,27.76Z"/>
    <path class="cls-6" d="M156.14,83.51c-1.69,44.1-23.62,79.06-48.97,78.08-25.35-.97-44.53-37.51-42.83-81.61C66.04,35.89,113.31,1.9,113.31,1.9c0,0,44.53,37.51,42.83,81.61Z"/>
  </g>
  <ellipse class="cls-5" cx="124.59" cy="94.03" rx="7.81" ry="6.88" transform="translate(-28.29 62.54) rotate(-25.41)"/>
  <g>
    <g>
      <ellipse class="cls-1" cx="90.04" cy="73.71" rx="14.77" ry="25.14" transform="translate(-20.54 37.49) rotate(-21.17)"/>
      <path class="cls-8" d="M87.48,57.86c-3.36,1.54-4.63,6.3-3.53,11.66l10.03-1-5.01,11.08c3.19,3.57,7.14,5.22,10.19,3.83,4.32-1.98,5.21-9.3,1.99-16.36-3.23-7.06-9.35-11.18-13.67-9.2Z"/>
    </g>
    <g>
      <ellipse class="cls-1" cx="128.39" cy="58.86" rx="14.77" ry="25.14" transform="translate(-12.59 50.34) rotate(-21.17)"/>
      <path class="cls-8" d="M125.39,42.15c-3.36,1.54-4.63,6.3-3.53,11.66l10.03-1-5.01,11.08c3.19,3.57,7.14,5.22,10.19,3.83,4.32-1.98,5.21-9.3,1.99-16.36-3.23-7.06-9.35-11.18-13.67-9.2Z"/>
    </g>
  </g>
  <path class="cls-7" d="M148.36,114.44s-1.85,13.81-8.85,16.04-16.5-7.97-16.5-7.97c0,0,1.85-13.81,8.85-16.04,7-2.23,16.5,7.97,16.5,7.97Z"/>
</svg>