<?xml version="1.0" encoding="UTF-8" standalone="no"?>
<svg
   xmlns:dc="http://purl.org/dc/elements/1.1/"
   xmlns:cc="http://creativecommons.org/ns#"
   xmlns:rdf="http://www.w3.org/1999/02/22-rdf-syntax-ns#"
   xmlns:svg="http://www.w3.org/2000/svg"
   xmlns="http://www.w3.org/2000/svg"
   viewBox="0 0 816 1056"
   height="1056"
   width="816"
   xml:space="preserve"
   id="svg2"
   version="1.1"><metadata
     id="metadata8"><rdf:RDF><cc:Work
         rdf:about=""><dc:format>image/svg+xml</dc:format><dc:type
           rdf:resource="http://purl.org/dc/dcmitype/StillImage" /></cc:Work></rdf:RDF></metadata><defs
     id="defs6"><clipPath
       id="clipPath18"
       clipPathUnits="userSpaceOnUse"><path
         id="path16"
         d="M 0,792 H 612 V 0 H 0 Z" /></clipPath></defs><g
     transform="matrix(1.3333333,0,0,-1.3333333,0,1056)"
     id="g10"><g
       id="g12"><g
         clip-path="url(#clipPath18)"
         id="g14"><g
           transform="translate(178.7213,249.8954)"
           id="g20"><path
             id="path22"
             style="fill:#9c5f38;fill-opacity:1;fill-rule:nonzero;stroke:none"
             d="m 0,0 34.843,-180.448 c 0,-9.494 41.79,-17.19 93.342,-17.19 51.552,0 93.342,7.696 93.342,17.19 l 32.741,178.642 z" /></g><g
           transform="translate(178.7213,249.8954)"
           id="g24"><path
             id="path26"
             style="fill:none;stroke:#7f5036;stroke-width:2;stroke-linecap:butt;stroke-linejoin:miter;stroke-miterlimit:10;stroke-dasharray:none;stroke-opacity:1"
             d="m 0,0 34.843,-180.448 c 0,-9.494 41.79,-17.19 93.342,-17.19 51.552,0 93.342,7.696 93.342,17.19 l 32.741,178.642 z" /></g><g
           transform="translate(451.2056,292.2217)"
           id="g28"><path
             id="path30"
             style="fill:#9c5f38;fill-opacity:1;fill-rule:nonzero;stroke:none"
             d="m 0,0 c 0,-48.538 -65.011,-87.886 -145.206,-87.886 -80.194,0 -145.205,39.348 -145.205,87.886 0,48.538 65.011,87.886 145.205,87.886 C -65.011,87.886 0,48.538 0,0" /></g><g
           transform="translate(451.2056,292.2217)"
           id="g32"><path
             id="path34"
             style="fill:none;stroke:#7f5036;stroke-width:2;stroke-linecap:butt;stroke-linejoin:miter;stroke-miterlimit:10;stroke-dasharray:none;stroke-opacity:1"
             d="m 0,0 c 0,-48.538 -65.011,-87.886 -145.206,-87.886 -80.194,0 -145.205,39.348 -145.205,87.886 0,48.538 65.011,87.886 145.205,87.886 C -65.011,87.886 0,48.538 0,0 Z" /></g><g
           transform="translate(444.13,300.6623)"
           id="g36"><path
             id="path38"
             style="fill:#624537;fill-opacity:1;fill-rule:nonzero;stroke:none"
             d="m 0,0 c 0,-32.763 -62.023,-59.323 -138.532,-59.323 -76.51,0 -138.533,26.56 -138.533,59.323 0,32.763 62.023,59.323 138.533,59.323 C -62.023,59.323 0,32.763 0,0" /></g><g
           transform="translate(444.13,300.6623)"
           id="g40"><path
             id="path42"
             style="fill:none;stroke:#463731;stroke-width:2;stroke-linecap:butt;stroke-linejoin:miter;stroke-miterlimit:10;stroke-dasharray:none;stroke-opacity:1"
             d="m 0,0 c 0,-32.763 -62.023,-59.323 -138.532,-59.323 -76.51,0 -138.533,26.56 -138.533,59.323 0,32.763 62.023,59.323 138.533,59.323 C -62.023,59.323 0,32.763 0,0 Z" /></g><g
           transform="translate(322.0382,281.7603)"
           id="g44"><path
             id="path46"
             style="fill:#757845;fill-opacity:1;fill-rule:nonzero;stroke:#56563a;stroke-width:2;stroke-linecap:butt;stroke-linejoin:miter;stroke-miterlimit:10;stroke-dasharray:none;stroke-opacity:1"
             d="m 0,0 c 0,0 89.28,70.962 83.006,145.768 0,0 -53.637,-102.616 -95.141,-130.403" /></g><g
           transform="translate(305.0343,284.8236)"
           id="g48"><path
             id="path50"
             style="fill:#757845;fill-opacity:1;fill-rule:nonzero;stroke:#56563a;stroke-width:2;stroke-linecap:butt;stroke-linejoin:miter;stroke-miterlimit:10;stroke-dasharray:none;stroke-opacity:1"
             d="m 0,0 c 0,0 -63.047,77.469 -48.397,152.896 0,0 23.837,-100.238 53.266,-140.594" /></g><g
           transform="translate(321.0664,284.8236)"
           id="g52"><path
             id="path54"
             style="fill:#757845;fill-opacity:1;fill-rule:nonzero;stroke:none"
             d="m 0,0 c 0,0 7.545,163.724 94.612,261.542 l -11.066,4.012 c 0,0 -61.592,-25.5 -99.578,-265.554 z" /></g><g
           transform="translate(321.0664,284.8236)"
           id="g56"><path
             id="path58"
             style="fill:none;stroke:#56563a;stroke-width:2;stroke-linecap:butt;stroke-linejoin:miter;stroke-miterlimit:10;stroke-dasharray:none;stroke-opacity:1"
             d="m 0,0 c 0,0 7.545,163.724 94.612,261.542 l -11.066,4.012 c 0,0 -61.592,-25.5 -99.578,-265.554 z" /></g><g
           transform="translate(447.0695,576.3361)"
           id="g60"><path
             id="path62"
             style="fill:#d0a9b4;fill-opacity:1;fill-rule:nonzero;stroke:none"
             d="m 0,0 c -9.36,-43.126 -37.046,-73.725 -61.837,-68.344 -24.791,5.381 -37.3,44.703 -27.94,87.83 9.361,43.126 61.837,68.344 61.837,68.344 0,0 37.3,-44.704 27.94,-87.83" /></g><g
           transform="translate(447.0695,576.3361)"
           id="g64"><path
             id="path66"
             style="fill:none;stroke:#c65779;stroke-width:3;stroke-linecap:butt;stroke-linejoin:miter;stroke-miterlimit:10;stroke-dasharray:none;stroke-opacity:1"
             d="m 0,0 c -9.36,-43.126 -37.046,-73.725 -61.837,-68.344 -24.791,5.381 -37.3,44.703 -27.94,87.83 9.361,43.126 61.837,68.344 61.837,68.344 0,0 37.3,-44.704 27.94,-87.83 z" /></g><g
           transform="translate(457.0418,553.5857)"
           id="g68"><path
             id="path70"
             style="fill:#d0a9b4;fill-opacity:1;fill-rule:nonzero;stroke:none"
             d="m 0,0 c -25.594,-35.95 -63.095,-53.167 -83.761,-38.454 -20.667,14.713 -16.672,55.783 8.923,91.734 C -49.244,89.23 8.923,91.734 8.923,91.734 8.923,91.734 25.594,35.95 0,0" /></g><g
           transform="translate(457.0418,553.5857)"
           id="g72"><path
             id="path74"
             style="fill:none;stroke:#c65779;stroke-width:3;stroke-linecap:butt;stroke-linejoin:miter;stroke-miterlimit:10;stroke-dasharray:none;stroke-opacity:1"
             d="m 0,0 c -25.594,-35.95 -63.095,-53.167 -83.761,-38.454 -20.667,14.713 -16.672,55.783 8.923,91.734 C -49.244,89.23 8.923,91.734 8.923,91.734 8.923,91.734 25.594,35.95 0,0 Z" /></g><g
           transform="translate(452.4189,565.2864)"
           id="g76"><path
             id="path78"
             style="fill:#d0a9b4;fill-opacity:1;fill-rule:nonzero;stroke:none"
             d="m 0,0 c -18.629,-40.005 -52.374,-63.755 -75.372,-53.045 -22.997,10.709 -26.537,51.821 -7.908,91.826 18.63,40.006 75.372,53.046 75.372,53.046 0,0 26.537,-51.822 7.908,-91.827" /></g><g
           transform="translate(452.4189,565.2864)"
           id="g80"><path
             id="path82"
             style="fill:none;stroke:#c65779;stroke-width:3;stroke-linecap:butt;stroke-linejoin:miter;stroke-miterlimit:10;stroke-dasharray:none;stroke-opacity:1"
             d="m 0,0 c -18.629,-40.005 -52.374,-63.755 -75.372,-53.045 -22.997,10.709 -26.537,51.821 -7.908,91.826 18.63,40.006 75.372,53.046 75.372,53.046 0,0 26.537,-51.822 7.908,-91.827 z" /></g><g
           transform="translate(438.6967,586.3362)"
           id="g84"><path
             id="path86"
             style="fill:#d0a9b4;fill-opacity:1;fill-rule:nonzero;stroke:none"
             d="m 0,0 c -2.637,-44.052 -25.302,-78.534 -50.625,-77.018 -25.323,1.516 -43.714,38.455 -41.078,82.506 2.637,44.052 50.625,77.019 50.625,77.019 0,0 43.715,-38.455 41.078,-82.507" /></g><g
           transform="translate(438.6967,586.3362)"
           id="g88"><path
             id="path90"
             style="fill:none;stroke:#c65779;stroke-width:3;stroke-linecap:butt;stroke-linejoin:miter;stroke-miterlimit:10;stroke-dasharray:none;stroke-opacity:1"
             d="m 0,0 c -2.637,-44.052 -25.302,-78.534 -50.625,-77.018 -25.323,1.516 -43.714,38.455 -41.078,82.506 2.637,44.052 50.625,77.019 50.625,77.019 0,0 43.715,-38.455 41.078,-82.507 z" /></g><g
           transform="translate(458.3613,537.251)"
           id="g92"><path
             id="path94"
             style="fill:#d0a9b4;fill-opacity:1;fill-rule:nonzero;stroke:none"
             d="m 0,0 c -32.901,-29.411 -73.278,-37.922 -90.185,-19.009 -16.907,18.913 -3.942,58.087 28.959,87.499 32.9,29.411 90.185,19.009 90.185,19.009 0,0 3.942,-58.087 -28.959,-87.499" /></g><g
           transform="translate(458.3613,537.251)"
           id="g96"><path
             id="path98"
             style="fill:none;stroke:#c65779;stroke-width:3;stroke-linecap:butt;stroke-linejoin:miter;stroke-miterlimit:10;stroke-dasharray:none;stroke-opacity:1"
             d="m 0,0 c -32.901,-29.411 -73.278,-37.922 -90.185,-19.009 -16.907,18.913 -3.942,58.087 28.959,87.499 32.9,29.411 90.185,19.009 90.185,19.009 0,0 3.942,-58.087 -28.959,-87.499 z" /></g><g
           transform="translate(415.4556,541.502)"
           id="g100"><path
             id="path102"
             style="fill:#d19560;fill-opacity:1;fill-rule:nonzero;stroke:none"
             d="m 0,0 c -1.704,-2.373 -5.707,-2.989 -8.941,-1.377 -3.234,1.612 -4.475,4.843 -2.771,7.215 1.704,2.373 5.707,2.99 8.941,1.377 C 0.463,5.603 1.704,2.373 0,0" /></g><g
           transform="translate(415.4556,541.502)"
           id="g104"><path
             id="path106"
             style="fill:none;stroke:#b17a58;stroke-width:2;stroke-linecap:butt;stroke-linejoin:miter;stroke-miterlimit:10;stroke-dasharray:none;stroke-opacity:1"
             d="m 0,0 c -1.704,-2.373 -5.707,-2.989 -8.941,-1.377 -3.234,1.612 -4.475,4.843 -2.771,7.215 1.704,2.373 5.707,2.99 8.941,1.377 C 0.463,5.603 1.704,2.373 0,0 Z" /></g><g
           transform="translate(424.8741,571.3117)"
           id="g108"><path
             id="path110"
             style="fill:#ffffff;fill-opacity:1;fill-rule:nonzero;stroke:none"
             d="m 0,0 c -8.694,-7.04 -19.765,-9.297 -24.729,-5.041 -4.964,4.255 -1.94,13.412 6.753,20.451 8.694,7.04 19.765,9.297 24.729,5.042 C 11.717,16.196 8.694,7.04 0,0" /></g><g
           transform="translate(424.8741,571.3117)"
           id="g112"><path
             id="path114"
             style="fill:none;stroke:#b95870;stroke-width:2;stroke-linecap:butt;stroke-linejoin:miter;stroke-miterlimit:10;stroke-dasharray:none;stroke-opacity:1"
             d="m 0,0 c -8.694,-7.04 -19.765,-9.297 -24.729,-5.041 -4.964,4.255 -1.94,13.412 6.753,20.451 8.694,7.04 19.765,9.297 24.729,5.042 C 11.717,16.196 8.694,7.04 0,0 Z" /></g><g
           transform="translate(427.7548,585.2393)"
           id="g116"><path
             id="path118"
             style="fill:#292929;fill-opacity:1;fill-rule:nonzero;stroke:none"
             d="m 0,0 c -2.381,1.813 -6.646,1.311 -10.576,-0.953 l 4.228,-6.434 -10.614,0.201 c -1.779,-3.153 -1.76,-6.264 0.403,-7.911 3.065,-2.333 9.256,-0.846 13.829,3.323 C 1.843,-7.605 3.065,-2.334 0,0" /></g><g
           transform="translate(427.7548,585.2393)"
           id="g120"><path
             id="path122"
             style="fill:none;stroke:#3e3e3d;stroke-width:2;stroke-linecap:butt;stroke-linejoin:miter;stroke-miterlimit:10;stroke-dasharray:none;stroke-opacity:1"
             d="m 0,0 c -2.381,1.813 -6.646,1.311 -10.576,-0.953 l 4.228,-6.434 -10.614,0.201 c -1.779,-3.153 -1.76,-6.264 0.403,-7.911 3.065,-2.333 9.256,-0.846 13.829,3.323 C 1.843,-7.605 3.065,-2.334 0,0 Z" /></g><g
           transform="translate(449.9086,549.85)"
           id="g124"><path
             id="path126"
             style="fill:#ffffff;fill-opacity:1;fill-rule:nonzero;stroke:none"
             d="m 0,0 c -8.694,-7.04 -19.765,-9.297 -24.729,-5.041 -4.964,4.255 -1.94,13.412 6.753,20.451 8.694,7.04 19.765,9.297 24.729,5.041 C 11.717,16.196 8.694,7.04 0,0" /></g><g
           transform="translate(449.9086,549.85)"
           id="g128"><path
             id="path130"
             style="fill:none;stroke:#b95870;stroke-width:2;stroke-linecap:butt;stroke-linejoin:miter;stroke-miterlimit:10;stroke-dasharray:none;stroke-opacity:1"
             d="m 0,0 c -8.694,-7.04 -19.765,-9.297 -24.729,-5.041 -4.964,4.255 -1.94,13.412 6.753,20.451 8.694,7.04 19.765,9.297 24.729,5.041 C 11.717,16.196 8.694,7.04 0,0 Z" /></g><g
           transform="translate(453.3192,564.3195)"
           id="g132"><path
             id="path134"
             style="fill:#292929;fill-opacity:1;fill-rule:nonzero;stroke:none"
             d="m 0,0 c -2.381,1.813 -6.646,1.311 -10.576,-0.953 l 4.228,-6.434 -10.614,0.201 c -1.779,-3.153 -1.76,-6.264 0.403,-7.911 3.065,-2.333 9.256,-0.846 13.829,3.323 C 1.843,-7.605 3.065,-2.334 0,0" /></g><g
           transform="translate(453.3192,564.3195)"
           id="g136"><path
             id="path138"
             style="fill:none;stroke:#3e3e3d;stroke-width:2;stroke-linecap:butt;stroke-linejoin:miter;stroke-miterlimit:10;stroke-dasharray:none;stroke-opacity:1"
             d="m 0,0 c -2.381,1.813 -6.646,1.311 -10.576,-0.953 l 4.228,-6.434 -10.614,0.201 c -1.779,-3.153 -1.76,-6.264 0.403,-7.911 3.065,-2.333 9.256,-0.846 13.829,3.323 C 1.843,-7.605 3.065,-2.334 0,0 Z" /></g><g
           transform="translate(407.7402,524.8774)"
           id="g140"><path
             id="path142"
             style="fill:#413035;fill-opacity:1;fill-rule:nonzero;stroke:none"
             d="m 0,0 c 0,0 -0.727,8.629 -6.465,13.216 -5.739,4.586 -14.315,3.394 -14.315,3.394 0,0 0.046,-0.544 0.205,-1.431 C -12.01,8.786 0,0 0,0" /></g><g
           transform="translate(407.7402,524.8774)"
           id="g144"><path
             id="path146"
             style="fill:none;stroke:#cb5875;stroke-width:2;stroke-linecap:butt;stroke-linejoin:miter;stroke-miterlimit:10;stroke-dasharray:none;stroke-opacity:1"
             d="m 0,0 c 0,0 -0.727,8.629 -6.465,13.216 -5.739,4.586 -14.315,3.394 -14.315,3.394 0,0 0.046,-0.544 0.205,-1.431 C -12.01,8.786 0,0 0,0 Z" /></g><g
           transform="translate(306.0352,267.2784)"
           id="g148"><path
             id="path150"
             style="fill:#d0a9b4;fill-opacity:1;fill-rule:nonzero;stroke:none"
             d="M 0,0 C -16.779,2.219 -29.347,11.838 -28.071,21.484 -26.796,31.129 -12.159,37.149 4.62,34.93 21.4,32.71 32.692,13.446 32.692,13.446 32.692,13.446 16.779,-2.219 0,0" /></g><g
           transform="translate(306.0352,267.2784)"
           id="g152"><path
             id="path154"
             style="fill:none;stroke:#c65779;stroke-width:3;stroke-linecap:butt;stroke-linejoin:miter;stroke-miterlimit:10;stroke-dasharray:none;stroke-opacity:1"
             d="M 0,0 C -16.779,2.219 -29.347,11.838 -28.071,21.484 -26.796,31.129 -12.159,37.149 4.62,34.93 21.4,32.71 32.692,13.446 32.692,13.446 32.692,13.446 16.779,-2.219 0,0 Z" /></g><g
           transform="translate(395.0844,285.0811)"
           id="g156"><path
             id="path158"
             style="fill:#d0a9b4;fill-opacity:1;fill-rule:nonzero;stroke:none"
             d="M 0,0 C -16.779,2.219 -29.347,11.838 -28.071,21.484 -26.796,31.129 -12.159,37.149 4.62,34.93 21.4,32.71 32.692,13.446 32.692,13.446 32.692,13.446 16.779,-2.219 0,0" /></g><g
           transform="translate(395.0844,285.0811)"
           id="g160"><path
             id="path162"
             style="fill:none;stroke:#c65779;stroke-width:3;stroke-linecap:butt;stroke-linejoin:miter;stroke-miterlimit:10;stroke-dasharray:none;stroke-opacity:1"
             d="M 0,0 C -16.779,2.219 -29.347,11.838 -28.071,21.484 -26.796,31.129 -12.159,37.149 4.62,34.93 21.4,32.71 32.692,13.446 32.692,13.446 32.692,13.446 16.779,-2.219 0,0 Z" /></g><g
           transform="translate(351.4259,295.8471)"
           id="g164"><path
             id="path166"
             style="fill:#d0a9b4;fill-opacity:1;fill-rule:nonzero;stroke:none"
             d="M 0,0 C 14.748,8.305 30.573,8.166 35.348,-0.312 40.122,-8.79 32.037,-22.395 17.289,-30.7 c -14.747,-8.306 -35.347,0.312 -35.347,0.312 0,0 3.31,22.083 18.058,30.388" /></g><g
           transform="translate(351.4259,295.8471)"
           id="g168"><path
             id="path170"
             style="fill:none;stroke:#c65779;stroke-width:3;stroke-linecap:butt;stroke-linejoin:miter;stroke-miterlimit:10;stroke-dasharray:none;stroke-opacity:1"
             d="M 0,0 C 14.748,8.305 30.573,8.166 35.348,-0.312 40.122,-8.79 32.037,-22.395 17.289,-30.7 c -14.747,-8.306 -35.347,0.312 -35.347,0.312 0,0 3.31,22.083 18.058,30.388 z" /></g></g></g></g></svg>