<svg width="369" height="509" viewBox="0 0 369 509" fill="none" xmlns="http://www.w3.org/2000/svg">
<g clip-path="url(#clip0_4_2359)">
<mask id="mask0_4_2359" style="mask-type:luminance" maskUnits="userSpaceOnUse" x="-151" y="-195" width="582" height="754">
<path d="M-150.974 -195H430.967V558.98H-150.974V-195Z" fill="white"/>
</mask>
<g mask="url(#mask0_4_2359)">
<path d="M18.9697 321.081L52.1014 492.866C52.1014 501.904 91.8388 509.231 140.859 509.231C189.879 509.231 229.616 501.904 229.616 492.866L260.749 322.8L18.9697 321.081Z" fill="#9C5F38"/>
<path d="M18.9697 321.081L52.1014 492.866C52.1014 501.904 91.8388 509.231 140.859 509.231C189.879 509.231 229.616 501.904 229.616 492.866L260.749 322.8L18.9697 321.081Z" stroke="#7F5036" stroke-width="2.66667" stroke-miterlimit="10"/>
<path d="M278.071 280.786C278.071 326.994 216.253 364.453 139.996 364.453C63.7413 364.453 1.92334 326.994 1.92334 280.786C1.92334 234.578 63.7413 197.119 139.996 197.119C216.253 197.119 278.071 234.578 278.071 280.786Z" fill="#9C5F38"/>
<path d="M278.071 280.786C278.071 326.994 216.253 364.453 139.996 364.453C63.7413 364.453 1.92334 326.994 1.92334 280.786C1.92334 234.578 63.7413 197.119 139.996 197.119C216.253 197.119 278.071 234.578 278.071 280.786Z" stroke="#7F5036" stroke-width="2.66667" stroke-miterlimit="10"/>
<path d="M271.342 272.751C271.342 303.941 212.366 329.226 139.615 329.226C66.8624 329.226 7.88574 303.941 7.88574 272.751C7.88574 241.561 66.8624 216.276 139.615 216.276C212.366 216.276 271.342 241.561 271.342 272.751Z" fill="#624537"/>
<path d="M271.342 272.751C271.342 303.941 212.366 329.226 139.615 329.226C66.8624 329.226 7.88574 303.941 7.88574 272.751C7.88574 241.561 66.8624 216.276 139.615 216.276C212.366 216.276 271.342 241.561 271.342 272.751Z" stroke="#463731" stroke-width="2.66667" stroke-miterlimit="10"/>
<path d="M155.247 290.746C155.247 290.746 261.757 345.998 255.792 274.783C255.792 274.783 183.174 249.665 143.708 276.118" fill="#636341"/>
<path d="M155.247 290.746C155.247 290.746 261.757 345.998 255.792 274.783C255.792 274.783 183.174 249.665 143.708 276.118" stroke="#424136" stroke-width="2.66667" stroke-miterlimit="10"/>
<path d="M139.078 287.829C139.078 287.829 34.9149 340.251 48.8453 268.444C48.8453 268.444 115.725 237.699 143.708 276.118" fill="#636341"/>
<path d="M139.078 287.829C139.078 287.829 34.9149 340.251 48.8453 268.444C48.8453 268.444 115.725 237.699 143.708 276.118" stroke="#424136" stroke-width="2.66667" stroke-miterlimit="10"/>
<path d="M154.323 287.829C154.323 287.829 161.498 131.965 244.288 38.8426L233.766 35.0232C233.766 35.0232 175.199 59.299 139.079 287.829H154.323Z" fill="#636341"/>
<path d="M154.323 287.829C154.323 287.829 161.498 131.965 244.288 38.8426L233.766 35.0232C233.766 35.0232 175.199 59.299 139.079 287.829H154.323Z" stroke="#424136" stroke-width="2.66667" stroke-miterlimit="10"/>
<path d="M305.184 87.7193C268.969 108.943 229.733 109.252 217.546 88.4095C205.361 67.5665 224.84 33.4661 261.054 12.2423" fill="#D0A9B4"/>
<path d="M305.184 87.7193C268.969 108.943 229.733 109.252 217.546 88.4095C205.361 67.5665 224.84 33.4661 261.054 12.2423" stroke="#C65779" stroke-width="4" stroke-miterlimit="10"/>
<path d="M291.728 93.0439C249.83 95.361 214.785 77.691 213.455 53.577C212.125 29.463 245.012 8.03645 286.911 5.72025C328.81 3.40309 365.184 45.1871 365.184 45.1871C365.184 45.1871 333.627 90.7267 291.728 93.0439Z" fill="#B49DA5"/>
<path d="M291.728 93.0439C249.83 95.361 214.785 77.691 213.455 53.577C212.125 29.463 245.012 8.03645 286.911 5.72024C328.81 3.40309 365.184 45.1871 365.184 45.1871C365.184 45.1871 333.627 90.7267 291.728 93.0439Z" stroke="#A65E77" stroke-width="4" stroke-miterlimit="10"/>
<path d="M285.087 120.814C243.327 116.702 211.385 93.886 213.746 69.851C216.107 45.8169 251.875 29.6654 293.636 33.777C335.398 37.8887 364.978 84.7402 364.978 84.7402C364.978 84.7402 326.849 124.926 285.087 120.814Z" fill="#B49DA5"/>
<path d="M285.087 120.814C243.327 116.702 211.385 93.886 213.746 69.851C216.107 45.8169 251.875 29.6654 293.636 33.777C335.398 37.8887 364.978 84.7402 364.978 84.7402C364.978 84.7402 326.849 124.926 285.087 120.814Z" stroke="#A65E77" stroke-width="4" stroke-miterlimit="10"/>
<path d="M253.712 93.5559C253.712 93.5559 258.859 87.1214 257.904 80.1937C256.949 73.2651 250.253 68.468 250.253 68.468C250.253 68.468 249.929 68.8735 249.458 69.5904C251.18 79.6178 253.712 93.5559 253.712 93.5559Z" fill="#413035"/>
<path d="M253.712 93.5559C253.712 93.5559 258.859 87.1214 257.904 80.1937C256.949 73.2651 250.253 68.468 250.253 68.468C250.253 68.468 249.929 68.8735 249.458 69.5904C251.18 79.6178 253.712 93.5559 253.712 93.5559Z" stroke="#CB5875" stroke-width="2.66667" stroke-miterlimit="10"/>
<path d="M269.916 87.1328C267.188 87.6545 264.023 85.4573 262.848 82.2244C261.673 78.9914 262.932 75.9479 265.66 75.4262C268.388 74.9045 271.552 77.1017 272.728 80.3346C273.903 83.5676 272.644 86.6111 269.916 87.1328Z" fill="#D19560"/>
<path d="M269.916 87.1328C267.188 87.6545 264.023 85.4573 262.848 82.2244C261.673 78.9914 262.932 75.9479 265.66 75.4262C268.388 74.9045 271.552 77.1017 272.728 80.3346C273.903 83.5676 272.644 86.6111 269.916 87.1328Z" stroke="#B17A58" stroke-width="2.66667" stroke-miterlimit="10"/>
<path d="M140.03 304.532C124.076 302.42 112.125 293.262 113.338 284.079C114.551 274.897 128.469 269.166 144.424 271.279C160.379 273.392 171.117 291.732 171.117 291.732C171.117 291.732 155.985 306.645 140.03 304.532Z" fill="#B49DA5"/>
<path d="M140.03 304.532C124.076 302.42 112.125 293.262 113.338 284.079C114.551 274.897 128.469 269.166 144.424 271.279C160.379 273.392 171.117 291.732 171.117 291.732C171.117 291.732 155.985 306.645 140.03 304.532Z" stroke="#A65E77" stroke-width="4" stroke-miterlimit="10"/>
<path d="M224.706 287.584C208.751 285.472 196.8 276.314 198.014 267.131C199.226 257.949 213.144 252.218 229.099 254.331C245.055 256.444 255.792 274.784 255.792 274.784C255.792 274.784 240.661 289.697 224.706 287.584Z" fill="#B49DA5"/>
<path d="M224.706 287.584C208.751 285.472 196.8 276.314 198.014 267.131C199.226 257.949 213.144 252.218 229.099 254.331C245.055 256.444 255.792 274.784 255.792 274.784C255.792 274.784 240.661 289.697 224.706 287.584Z" stroke="#A65E77" stroke-width="4" stroke-miterlimit="10"/>
<path d="M183.192 277.335C197.215 269.429 212.263 269.561 216.803 277.632C221.343 285.703 213.655 298.655 199.631 306.561C185.609 314.468 166.021 306.264 166.021 306.264C166.021 306.264 169.168 285.241 183.192 277.335Z" fill="#B49DA5"/>
<path d="M183.192 277.335C197.215 269.428 212.263 269.561 216.803 277.632C221.343 285.703 213.655 298.655 199.631 306.561C185.609 314.468 166.021 306.264 166.021 306.264C166.021 306.264 169.168 285.241 183.192 277.335Z" stroke="#A65E77" stroke-width="4" stroke-miterlimit="10"/>
<path d="M308.848 71.8074C310.047 70.666 305.268 66.4001 297.869 61.8372C303.979 55.6492 307.612 50.3714 306.177 49.5469C304.743 48.7225 298.726 52.6304 292.129 58.5385C284.323 54.3621 277.554 51.9916 276.355 53.1331C275.156 54.2745 279.934 58.5404 287.333 63.1033C281.223 69.2913 277.59 74.5682 279.025 75.3936C280.46 76.218 286.476 72.3101 293.072 66.402C300.879 70.5784 307.648 72.9489 308.848 71.8074Z" fill="#292929"/>
<path d="M308.848 71.8074C310.047 70.666 305.268 66.4001 297.869 61.8372C303.979 55.6492 307.612 50.3714 306.177 49.5469C304.743 48.7225 298.726 52.6304 292.129 58.5385C284.323 54.3621 277.554 51.9916 276.355 53.1331C275.156 54.2745 279.934 58.5404 287.333 63.1033C281.223 69.2913 277.59 74.5682 279.025 75.3936C280.46 76.218 286.476 72.3101 293.072 66.402C300.879 70.5784 307.648 72.9489 308.848 71.8074Z" stroke="#3E3E3D" stroke-width="2.66667" stroke-miterlimit="10"/>
<path d="M308.751 108.356C309.95 107.215 305.172 102.949 297.772 98.386C303.883 92.198 307.516 86.9202 306.081 86.0958C304.646 85.2713 298.63 89.1793 292.033 95.0873C284.227 90.9109 277.458 88.5405 276.259 89.6819C275.06 90.8234 279.838 95.0892 287.237 99.6522C281.127 105.84 277.494 111.117 278.929 111.942C280.364 112.767 286.38 108.859 292.976 102.951C300.783 107.127 307.552 109.498 308.751 108.356Z" fill="#292929"/>
<path d="M308.751 108.356C309.95 107.215 305.172 102.949 297.772 98.386C303.883 92.198 307.516 86.9202 306.081 86.0958C304.646 85.2713 298.63 89.1793 292.033 95.0873C284.227 90.9109 277.458 88.5405 276.259 89.6819C275.06 90.8234 279.838 95.0892 287.237 99.6522C281.127 105.84 277.494 111.117 278.929 111.942C280.364 112.767 286.38 108.859 292.976 102.951C300.783 107.127 307.552 109.498 308.751 108.356Z" stroke="#3E3E3D" stroke-width="2.66667" stroke-miterlimit="10"/>
<path d="M272.088 499.208C256.133 497.096 243.687 491.685 244.29 487.124C244.892 482.563 258.315 480.578 274.27 482.691C290.225 484.804 302.068 494.776 302.068 494.776C302.068 494.776 288.043 501.321 272.088 499.208Z" fill="#B49DA5"/>
<path d="M272.088 499.208C256.133 497.096 243.687 491.685 244.29 487.124C244.892 482.563 258.315 480.578 274.27 482.691C290.225 484.804 302.068 494.776 302.068 494.776C302.068 494.776 288.043 501.321 272.088 499.208Z" stroke="#A65E77" stroke-width="4" stroke-miterlimit="10"/>
<path d="M244.632 301.183C233.214 312.54 218.673 316.42 212.152 309.849C205.632 303.278 209.6 288.745 221.017 277.389C232.435 266.031 253.497 268.723 253.497 268.723C253.497 268.723 256.049 289.826 244.632 301.183Z" fill="#B49DA5"/>
<path d="M244.632 301.183C233.214 312.54 218.673 316.42 212.152 309.849C205.632 303.278 209.6 288.745 221.017 277.389C232.435 266.031 253.497 268.723 253.497 268.723C253.497 268.723 256.049 289.826 244.632 301.183Z" stroke="#A65E77" stroke-width="4" stroke-miterlimit="10"/>
</g>
</g>
<defs>
<clipPath id="clip0_4_2359">
<rect width="369" height="509" fill="white"/>
</clipPath>
</defs>
</svg>
