<svg width="276" height="414" viewBox="0 0 276 414" fill="none" xmlns="http://www.w3.org/2000/svg">
<g clip-path="url(#clip0_4_1862)">
<path d="M17.4201 225.224L50.3511 396.446C50.3511 405.451 89.8512 412.757 138.577 412.757C187.302 412.757 226.802 405.451 226.802 396.446L257.748 226.941L17.4106 225.224H17.4201Z" fill="#995724" stroke="#7A4521" stroke-width="2" stroke-miterlimit="10"/>
<path d="M137.726 268.463C213.529 268.463 274.979 231.126 274.979 185.068C274.979 139.009 213.529 101.672 137.726 101.672C61.9231 101.672 0.472656 139.009 0.472656 185.068C0.472656 231.126 61.9231 268.463 137.726 268.463Z" fill="#995724" stroke="#7A4521" stroke-width="2" stroke-miterlimit="10"/>
<path d="M137.338 233.346C209.654 233.346 268.278 208.145 268.278 177.059C268.278 145.973 209.654 120.773 137.338 120.773C65.0225 120.773 6.39893 145.973 6.39893 177.059C6.39893 208.145 65.0225 233.346 137.338 233.346Z" fill="#5A3723" stroke="#382217" stroke-width="2" stroke-miterlimit="10"/>
<path d="M98.8872 62.2848C98.8872 62.2848 132.329 155.938 112.224 192.089H123.708C123.708 192.089 132.555 140.784 105.239 62.2848H98.8967H98.8872Z" fill="#798034" stroke="#5A5C27" stroke-width="2" stroke-miterlimit="10"/>
<path d="M111.251 28.9702C118.066 46.7613 115.334 64.3723 105.145 68.3006C94.9554 72.2289 81.1743 61.0038 74.3594 43.2126C67.5444 25.4214 80.4654 3.8822 80.4654 3.8822C80.4654 3.8822 104.436 11.179 111.251 28.9702Z" fill="#D8E69D" stroke="#ACD141" stroke-width="3" stroke-miterlimit="10"/>
</g>
<defs>
<clipPath id="clip0_4_1862">
<rect width="276" height="414" fill="white"/>
</clipPath>
</defs>
</svg>
