<svg width="315" height="591" viewBox="0 0 315 591" fill="none" xmlns="http://www.w3.org/2000/svg">
<g clip-path="url(#clip0_4_2254)">
<mask id="mask0_4_2254" style="mask-type:luminance" maskUnits="userSpaceOnUse" x="-152" y="-113" width="585" height="754">
<path d="M-151.355 -113H432.038V640.98H-151.355V-113Z" fill="white"/>
</mask>
<g mask="url(#mask0_4_2254)">
<path d="M19.0122 403.081L52.2265 574.866C52.2265 583.904 92.0631 591.231 141.205 591.231C190.348 591.231 230.184 583.904 230.184 574.866L261.395 404.8L19.0122 403.081Z" fill="#9C5F38"/>
<path d="M19.0122 403.081L52.2265 574.866C52.2265 583.904 92.0631 591.231 141.205 591.231C190.348 591.231 230.184 583.904 230.184 574.866L261.395 404.8L19.0122 403.081Z" stroke="#7F5036" stroke-width="2.66667" stroke-miterlimit="10"/>
<path d="M278.76 362.786C278.76 408.994 216.787 446.453 140.341 446.453C63.8955 446.453 1.92334 408.994 1.92334 362.786C1.92334 316.578 63.8955 279.119 140.341 279.119C216.787 279.119 278.76 316.578 278.76 362.786Z" fill="#9C5F38"/>
<path d="M278.76 362.786C278.76 408.994 216.787 446.453 140.341 446.453C63.8955 446.453 1.92334 408.994 1.92334 362.786C1.92334 316.578 63.8955 279.119 140.341 279.119C216.787 279.119 278.76 316.578 278.76 362.786Z" stroke="#7F5036" stroke-width="2.66667" stroke-miterlimit="10"/>
<path d="M272.015 354.751C272.015 385.941 212.891 411.226 139.958 411.226C67.0247 411.226 7.90088 385.941 7.90088 354.751C7.90088 323.561 67.0247 298.276 139.958 298.276C212.891 298.276 272.015 323.561 272.015 354.751Z" fill="#624537"/>
<path d="M272.015 354.751C272.015 385.941 212.891 411.226 139.958 411.226C67.0247 411.226 7.90088 385.941 7.90088 354.751C7.90088 323.561 67.0247 298.276 139.958 298.276C212.891 298.276 272.015 323.561 272.015 354.751Z" stroke="#463731" stroke-width="2.66667" stroke-miterlimit="10"/>
<path d="M155.63 372.745C155.63 372.745 240.737 305.19 234.756 233.975C234.756 233.975 183.626 331.665 144.062 358.118" fill="#757845"/>
<path d="M155.63 372.745C155.63 372.745 240.737 305.19 234.756 233.975C234.756 233.975 183.626 331.665 144.062 358.118" stroke="#56563A" stroke-width="2.66667" stroke-miterlimit="10"/>
<path d="M139.421 369.829C139.421 369.829 79.3207 296.079 93.2859 224.273C93.2859 224.273 116.009 319.699 144.062 358.118" fill="#757845"/>
<path d="M139.421 369.829C139.421 369.829 79.3207 296.079 93.2859 224.273C93.2859 224.273 116.009 319.699 144.062 358.118" stroke="#56563A" stroke-width="2.66667" stroke-miterlimit="10"/>
<path d="M154.704 369.829C154.704 369.829 161.896 213.965 244.893 120.843L234.344 117.023C234.344 117.023 175.631 141.299 139.421 369.829H154.704Z" fill="#757845"/>
<path d="M154.704 369.829C154.704 369.829 161.896 213.965 244.893 120.843L234.344 117.023C234.344 117.023 175.631 141.299 139.421 369.829H154.704Z" stroke="#56563A" stroke-width="2.66667" stroke-miterlimit="10"/>
<path d="M274.817 92.3108C265.894 133.367 239.502 162.497 215.87 157.374C192.238 152.251 180.314 114.817 189.236 73.7603C198.159 32.7046 248.183 8.69717 248.183 8.69717C248.183 8.69717 283.739 51.2551 274.817 92.3108Z" fill="#D0A9B4"/>
<path d="M274.817 92.3108C265.894 133.367 239.502 162.497 215.87 157.374C192.238 152.251 180.314 114.817 189.236 73.7603C198.159 32.7046 248.183 8.69717 248.183 8.69717C248.183 8.69717 283.739 51.2551 274.817 92.3108Z" stroke="#C65779" stroke-width="4" stroke-miterlimit="10"/>
<path d="M284.323 113.969C259.925 148.193 224.177 164.584 204.477 150.577C184.776 136.57 188.585 97.472 212.983 63.2468C237.381 29.0226 292.829 26.6388 292.829 26.6388C292.829 26.6388 308.721 79.7449 284.323 113.969Z" fill="#D0A9B4"/>
<path d="M284.323 113.969C259.925 148.193 224.177 164.584 204.477 150.577C184.776 136.57 188.585 97.472 212.983 63.2468C237.381 29.0226 292.829 26.6388 292.829 26.6388C292.829 26.6388 308.721 79.7449 284.323 113.969Z" stroke="#C65779" stroke-width="4" stroke-miterlimit="10"/>
<path d="M279.916 102.83C262.158 140.915 229.991 163.524 208.068 153.329C186.145 143.134 182.771 103.995 200.529 65.9108C218.288 27.8253 272.378 15.4113 272.378 15.4113C272.378 15.4113 297.675 64.7455 279.916 102.83Z" fill="#D0A9B4"/>
<path d="M279.916 102.83C262.158 140.915 229.991 163.524 208.068 153.329C186.145 143.134 182.771 103.995 200.529 65.9108C218.288 27.8253 272.378 15.4113 272.378 15.4113C272.378 15.4113 297.675 64.7455 279.916 102.83Z" stroke="#C65779" stroke-width="4" stroke-miterlimit="10"/>
<path d="M266.835 82.7909C264.322 124.728 242.716 157.555 218.577 156.112C194.437 154.668 176.906 119.503 179.419 77.5664C181.933 35.6291 227.677 4.24471 227.677 4.24471C227.677 4.24471 269.349 40.8537 266.835 82.7909Z" fill="#D0A9B4"/>
<path d="M266.835 82.7909C264.322 124.728 242.716 157.555 218.577 156.112C194.437 154.668 176.906 119.503 179.419 77.5664C181.933 35.6291 227.677 4.24471 227.677 4.24471C227.677 4.24471 269.349 40.8537 266.835 82.7909Z" stroke="#C65779" stroke-width="4" stroke-miterlimit="10"/>
<path d="M285.581 129.52C254.218 157.519 215.728 165.621 199.611 147.616C183.495 129.611 195.854 92.3178 227.217 64.3177C258.579 36.3186 313.186 46.2212 313.186 46.2212C313.186 46.2212 316.944 101.52 285.581 129.52Z" fill="#D0A9B4"/>
<path d="M285.581 129.52C254.218 157.519 215.728 165.621 199.611 147.616C183.495 129.611 195.854 92.3178 227.217 64.3177C258.579 36.3186 313.186 46.2212 313.186 46.2212C313.186 46.2212 316.944 101.52 285.581 129.52Z" stroke="#C65779" stroke-width="4" stroke-miterlimit="10"/>
<path d="M244.681 125.473C243.056 127.732 239.24 128.318 236.158 126.784C233.075 125.249 231.892 122.173 233.516 119.915C235.141 117.656 238.956 117.069 242.039 118.604C245.122 120.139 246.305 123.214 244.681 125.473Z" fill="#D19560"/>
<path d="M244.681 125.473C243.056 127.732 239.24 128.318 236.158 126.784C233.075 125.249 231.892 122.173 233.516 119.915C235.141 117.656 238.956 117.069 242.039 118.604C245.122 120.139 246.305 123.214 244.681 125.473Z" stroke="#B17A58" stroke-width="2.66667" stroke-miterlimit="10"/>
<path d="M253.659 97.0942C245.371 103.796 234.818 105.945 230.086 101.893C225.354 97.8424 228.236 89.125 236.523 82.4239C244.811 75.7219 255.364 73.5732 260.096 77.624C264.828 81.6757 261.946 90.3921 253.659 97.0942Z" fill="white"/>
<path d="M253.659 97.0942C245.371 103.796 234.818 105.945 230.086 101.893C225.354 97.8424 228.236 89.125 236.523 82.4239C244.811 75.7219 255.364 73.5732 260.096 77.624C264.828 81.6757 261.946 90.3921 253.659 97.0942Z" stroke="#B95870" stroke-width="2.66667" stroke-miterlimit="10"/>
<path d="M256.405 83.8351C254.135 82.1091 250.07 82.587 246.323 84.7423L250.354 90.8674L240.236 90.6761C238.54 93.6777 238.558 96.6394 240.62 98.2073C243.542 100.428 249.443 99.0127 253.803 95.0438C258.162 91.075 259.327 86.057 256.405 83.8351Z" fill="#292929"/>
<path d="M256.405 83.8351C254.135 82.1091 250.07 82.587 246.323 84.7423L250.354 90.8674L240.236 90.6761C238.54 93.6777 238.558 96.6394 240.62 98.2073C243.542 100.428 249.443 99.0127 253.803 95.0438C258.162 91.075 259.327 86.057 256.405 83.8351Z" stroke="#3E3E3D" stroke-width="2.66667" stroke-miterlimit="10"/>
<path d="M277.523 117.526C269.236 124.228 258.682 126.376 253.95 122.325C249.218 118.274 252.101 109.556 260.387 102.855C268.675 96.1533 279.229 94.0046 283.96 98.0563C288.692 102.107 285.811 110.824 277.523 117.526Z" fill="white"/>
<path d="M277.523 117.526C269.236 124.228 258.682 126.376 253.95 122.325C249.218 118.274 252.101 109.556 260.387 102.855C268.675 96.1533 279.228 94.0046 283.96 98.0563C288.692 102.107 285.811 110.824 277.523 117.526Z" stroke="#B95870" stroke-width="2.66667" stroke-miterlimit="10"/>
<path d="M280.775 103.751C278.505 102.025 274.439 102.503 270.693 104.658L274.723 110.783L264.605 110.592C262.91 113.593 262.928 116.555 264.99 118.123C267.911 120.344 273.813 118.928 278.172 114.959C282.531 110.99 283.696 105.973 280.775 103.751Z" fill="#292929"/>
<path d="M280.775 103.751C278.505 102.025 274.439 102.503 270.693 104.658L274.723 110.783L264.605 110.592C262.91 113.593 262.928 116.555 264.99 118.123C267.911 120.344 273.813 118.928 278.172 114.959C282.531 110.99 283.696 105.973 280.775 103.751Z" stroke="#3E3E3D" stroke-width="2.66667" stroke-miterlimit="10"/>
<path d="M237.326 141.299C237.326 141.299 236.633 133.085 231.163 128.718C225.692 124.352 217.517 125.487 217.517 125.487C217.517 125.487 217.561 126.005 217.713 126.849C225.877 132.935 237.326 141.299 237.326 141.299Z" fill="#413035"/>
<path d="M237.326 141.299C237.326 141.299 236.633 133.085 231.163 128.718C225.692 124.352 217.517 125.487 217.517 125.487C217.517 125.487 217.561 126.005 217.713 126.849C225.877 132.935 237.326 141.299 237.326 141.299Z" stroke="#CB5875" stroke-width="2.66667" stroke-miterlimit="10"/>
<path d="M140.375 386.532C124.38 384.42 112.4 375.262 113.616 366.079C114.832 356.897 128.784 351.166 144.779 353.279C160.775 355.392 171.539 373.732 171.539 373.732C171.539 373.732 156.37 388.645 140.375 386.532Z" fill="#D0A9B4"/>
<path d="M140.375 386.532C124.38 384.42 112.4 375.262 113.616 366.079C114.832 356.897 128.784 351.166 144.779 353.279C160.775 355.392 171.539 373.732 171.539 373.732C171.539 373.732 156.37 388.645 140.375 386.532Z" stroke="#C65779" stroke-width="4" stroke-miterlimit="10"/>
<path d="M225.262 369.584C209.267 367.472 197.287 358.314 198.503 349.131C199.718 339.949 213.671 334.218 229.666 336.331C245.662 338.444 256.426 356.784 256.426 356.784C256.426 356.784 241.257 371.697 225.262 369.584Z" fill="#D0A9B4"/>
<path d="M225.262 369.584C209.267 367.472 197.287 358.314 198.503 349.131C199.718 339.949 213.671 334.218 229.666 336.331C245.662 338.444 256.426 356.784 256.426 356.784C256.426 356.784 241.257 371.697 225.262 369.584Z" stroke="#C65779" stroke-width="4" stroke-miterlimit="10"/>
<path d="M183.644 359.335C197.703 351.429 212.788 351.561 217.34 359.632C221.891 367.703 214.184 380.655 200.125 388.561C186.067 396.468 166.43 388.264 166.43 388.264C166.43 388.264 169.585 367.241 183.644 359.335Z" fill="#D0A9B4"/>
<path d="M183.644 359.335C197.703 351.428 212.788 351.561 217.34 359.632C221.891 367.703 214.184 380.655 200.125 388.561C186.067 396.468 166.43 388.264 166.43 388.264C166.43 388.264 169.585 367.241 183.644 359.335Z" stroke="#C65779" stroke-width="4" stroke-miterlimit="10"/>
</g>
</g>
<defs>
<clipPath id="clip0_4_2254">
<rect width="315" height="591" fill="white"/>
</clipPath>
</defs>
</svg>
