<svg width="282" height="495" viewBox="0 0 282 495" fill="none" xmlns="http://www.w3.org/2000/svg">
<g clip-path="url(#clip0_4_2454)">
<mask id="mask0_4_2454" style="mask-type:luminance" maskUnits="userSpaceOnUse" x="-150" y="-209" width="582" height="754">
<path d="M-149.977 -209H431.977V544.98H-149.977V-209Z" fill="white"/>
</mask>
<g mask="url(#mask0_4_2454)">
<path d="M19.9702 306.705L53.1026 478.491C53.1026 487.529 92.8409 494.856 141.862 494.856C190.883 494.856 230.621 487.529 230.621 478.491L261.755 308.425L19.9702 306.705Z" fill="#985724" stroke="#7A4521" stroke-width="2.66667" stroke-miterlimit="10"/>
</g>
<mask id="mask1_4_2454" style="mask-type:luminance" maskUnits="userSpaceOnUse" x="-150" y="-209" width="582" height="754">
<path d="M-149.977 -209H431.977V544.98H-149.977V-209Z" fill="white"/>
</mask>
<g mask="url(#mask1_4_2454)">
<path d="M279.077 266.411C279.077 312.619 217.258 350.078 141 350.078C64.7431 350.078 2.92383 312.619 2.92383 266.411C2.92383 220.203 64.7431 182.744 141 182.744C217.258 182.744 279.077 220.203 279.077 266.411Z" fill="#985724" stroke="#7A4521" stroke-width="2.66667" stroke-miterlimit="10"/>
</g>
<mask id="mask2_4_2454" style="mask-type:luminance" maskUnits="userSpaceOnUse" x="-150" y="-209" width="582" height="754">
<path d="M-149.977 -209H431.977V544.98H-149.977V-209Z" fill="white"/>
</mask>
<g mask="url(#mask2_4_2454)">
<path d="M272.349 258.375C272.349 289.566 213.371 314.851 140.618 314.851C67.8642 314.851 8.88623 289.566 8.88623 258.375C8.88623 227.185 67.8642 201.9 140.618 201.9C213.371 201.9 272.349 227.185 272.349 258.375Z" fill="#5A3723" stroke="#382217" stroke-width="2.66667" stroke-miterlimit="10"/>
</g>
<mask id="mask3_4_2454" style="mask-type:luminance" maskUnits="userSpaceOnUse" x="-150" y="-209" width="582" height="754">
<path d="M-149.977 -209H431.977V544.98H-149.977V-209Z" fill="white"/>
</mask>
<g mask="url(#mask3_4_2454)">
<path d="M130.461 273.454C130.461 273.454 181.126 222.535 161.706 185.662C161.706 185.662 143.437 244.534 121.585 265.55" fill="#6B6D35"/>
<path d="M130.461 273.454C130.461 273.454 181.126 222.535 161.706 185.662C161.706 185.662 143.437 244.534 121.585 265.55" stroke="#474824" stroke-width="2.66667" stroke-miterlimit="10"/>
</g>
<mask id="mask4_4_2454" style="mask-type:luminance" maskUnits="userSpaceOnUse" x="-150" y="-209" width="582" height="754">
<path d="M-149.977 -209H431.977V544.98H-149.977V-209Z" fill="white"/>
</mask>
<g mask="url(#mask4_4_2454)">
<path d="M112.71 273.454C112.71 273.454 61.2575 221.194 82.0167 185.662C82.0167 185.662 99.734 244.534 121.585 265.55" fill="#6B6D35"/>
<path d="M112.71 273.454C112.71 273.454 61.2575 221.194 82.0167 185.662C82.0167 185.662 99.734 244.534 121.585 265.55" stroke="#474824" stroke-width="2.66667" stroke-miterlimit="10"/>
</g>
<mask id="mask5_4_2454" style="mask-type:luminance" maskUnits="userSpaceOnUse" x="-150" y="-209" width="582" height="754">
<path d="M-149.977 -209H431.977V544.98H-149.977V-209Z" fill="white"/>
</mask>
<g mask="url(#mask5_4_2454)">
<path d="M150.75 77.13C150.75 77.13 80.0087 195.718 112.239 273.454H129.301C129.301 273.454 87.8261 206.622 161.706 76.3836L150.75 77.13Z" fill="#6B6D35" stroke="#474824" stroke-width="2.66667" stroke-miterlimit="10"/>
</g>
<mask id="mask6_4_2454" style="mask-type:luminance" maskUnits="userSpaceOnUse" x="-150" y="-209" width="582" height="754">
<path d="M-149.977 -209H431.977V544.98H-149.977V-209Z" fill="white"/>
</mask>
<g mask="url(#mask6_4_2454)">
<path d="M205.274 80.7407C180.897 96.6448 153.732 98.1641 144.601 84.1346C135.468 70.1051 147.828 45.8387 172.205 29.9356C196.583 14.0316 232.879 26.5418 232.879 26.5418C232.879 26.5418 229.651 64.8367 205.274 80.7407Z" fill="#D99DAD" stroke="#D05375" stroke-width="4" stroke-miterlimit="10"/>
</g>
<mask id="mask7_4_2454" style="mask-type:luminance" maskUnits="userSpaceOnUse" x="-150" y="-209" width="582" height="754">
<path d="M-149.977 -209H431.977V544.98H-149.977V-209Z" fill="white"/>
</mask>
<g mask="url(#mask7_4_2454)">
<path d="M204.939 64.1578C188.098 87.9129 163.389 99.3131 149.749 89.6208C136.109 79.9295 138.703 52.8157 155.544 29.0606C172.384 5.30549 210.734 3.59666 210.734 3.59666C210.734 3.59666 221.779 40.4027 204.939 64.1578Z" fill="#D99DAD" stroke="#D05375" stroke-width="4" stroke-miterlimit="10"/>
</g>
<mask id="mask8_4_2454" style="mask-type:luminance" maskUnits="userSpaceOnUse" x="-150" y="-209" width="582" height="754">
<path d="M-149.977 -209H431.977V544.98H-149.977V-209Z" fill="white"/>
</mask>
<g mask="url(#mask8_4_2454)">
<path d="M198.82 98.5199C170.153 103.505 144.593 94.173 141.729 77.675C138.866 61.1769 159.785 43.7602 188.452 38.7746C217.12 33.789 245.542 59.6194 245.542 59.6194C245.542 59.6194 227.487 93.5343 198.82 98.5199Z" fill="#D99DAD" stroke="#D05375" stroke-width="4" stroke-miterlimit="10"/>
</g>
</g>
<defs>
<clipPath id="clip0_4_2454">
<rect width="282" height="495" fill="white"/>
</clipPath>
</defs>
</svg>
