<svg width="280" height="614" viewBox="0 0 280 614" fill="none" xmlns="http://www.w3.org/2000/svg">
<g clip-path="url(#clip0_4_1935)">
<mask id="mask0_4_1935" style="mask-type:luminance" maskUnits="userSpaceOnUse" x="-151" y="-90" width="582" height="754">
<path d="M-150.977 -90H430.977V663.98H-150.977V-90Z" fill="white"/>
</mask>
<g mask="url(#mask0_4_1935)">
<path d="M18.9702 426.081L52.1026 597.866C52.1026 606.904 91.8409 614.231 140.862 614.231C189.883 614.231 229.621 606.904 229.621 597.866L260.755 427.8L18.9702 426.081Z" fill="#9C5F38"/>
<path d="M18.9702 426.081L52.1026 597.866C52.1026 606.904 91.8409 614.231 140.862 614.231C189.883 614.231 229.621 606.904 229.621 597.866L260.755 427.8L18.9702 426.081Z" stroke="#7F5036" stroke-width="2.66667" stroke-miterlimit="10"/>
<path d="M278.077 385.786C278.077 431.994 216.258 469.453 140 469.453C63.7431 469.453 1.92383 431.994 1.92383 385.786C1.92383 339.578 63.7431 302.119 140 302.119C216.258 302.119 278.077 339.578 278.077 385.786Z" fill="#9C5F38"/>
<path d="M278.077 385.786C278.077 431.994 216.258 469.453 140 469.453C63.7431 469.453 1.92383 431.994 1.92383 385.786C1.92383 339.578 63.7431 302.119 140 302.119C216.258 302.119 278.077 339.578 278.077 385.786Z" stroke="#7F5036" stroke-width="2.66667" stroke-miterlimit="10"/>
<path d="M271.349 377.751C271.349 408.941 212.371 434.226 139.618 434.226C66.8642 434.226 7.88623 408.941 7.88623 377.751C7.88623 346.561 66.8642 321.276 139.618 321.276C212.371 321.276 271.349 346.561 271.349 377.751Z" fill="#624537"/>
<path d="M271.349 377.751C271.349 408.941 212.371 434.226 139.618 434.226C66.8642 434.226 7.88623 408.941 7.88623 377.751C7.88623 346.561 66.8642 321.276 139.618 321.276C212.371 321.276 271.349 346.561 271.349 377.751Z" stroke="#463731" stroke-width="2.66667" stroke-miterlimit="10"/>
<path d="M155.251 395.745C155.251 395.745 244.249 292.831 188.125 225.682C188.125 225.682 183.178 354.665 143.712 381.118" fill="#757845"/>
<path d="M155.251 395.745C155.251 395.745 244.249 292.831 188.125 225.682C188.125 225.682 183.178 354.665 143.712 381.118" stroke="#56563A" stroke-width="2.66667" stroke-miterlimit="10"/>
<path d="M127.856 390.885C127.856 390.885 79.5973 263.622 155.35 219.868C155.35 219.868 115.728 342.699 143.712 381.118" fill="#757845"/>
<path d="M127.856 390.885C127.856 390.885 79.5973 263.622 155.35 219.868C155.35 219.868 115.728 342.699 143.712 381.118" stroke="#56563A" stroke-width="2.66667" stroke-miterlimit="10"/>
<path d="M154.327 392.829C154.327 392.829 150.153 193.8 198.448 107.202L185.252 107.809C185.252 107.809 137.134 166.626 139.082 392.829H154.327Z" fill="#757845"/>
<path d="M154.327 392.829C154.327 392.829 150.153 193.8 198.448 107.202L185.252 107.809C185.252 107.809 137.134 166.626 139.082 392.829H154.327Z" stroke="#56563A" stroke-width="2.66667" stroke-miterlimit="10"/>
<path d="M215.218 72.3697C226.171 112.925 216.174 150.912 192.887 157.216C169.6 163.519 141.843 135.753 130.89 95.1985C119.936 54.6426 153.221 10.352 153.221 10.352C153.221 10.352 204.265 31.8147 215.218 72.3697Z" fill="#E6A4B5"/>
<path d="M215.218 72.3697C226.171 112.925 216.174 150.912 192.887 157.216C169.6 163.519 141.843 135.753 130.89 95.1985C119.936 54.6426 153.221 10.352 153.221 10.352C153.221 10.352 204.265 31.8147 215.218 72.3697Z" stroke="#DF5074" stroke-width="4" stroke-miterlimit="10"/>
<path d="M233.586 87.2369C227.695 128.832 203.556 159.804 179.672 156.413C155.788 153.022 141.203 116.553 147.095 74.9571C152.987 33.3616 201.009 5.78134 201.009 5.78134C201.009 5.78134 239.478 45.6414 233.586 87.2369Z" fill="#E6A4B5"/>
<path d="M233.586 87.2369C227.695 128.832 203.556 159.804 179.672 156.413C155.788 153.022 141.203 116.553 147.095 74.9571C152.987 33.3616 201.009 5.78134 201.009 5.78134C201.009 5.78134 239.478 45.6414 233.586 87.2369Z" stroke="#DF5074" stroke-width="4" stroke-miterlimit="10"/>
<path d="M224.566 79.3689C226.328 121.343 208.218 156.193 184.117 157.207C160.015 158.221 139.049 125.016 137.287 83.0408C135.525 41.0664 177.736 5.20287 177.736 5.20287C177.736 5.20287 222.804 37.3946 224.566 79.3689Z" fill="#E6A4B5"/>
<path d="M224.566 79.3689C226.328 121.343 208.218 156.193 184.117 157.207C160.015 158.221 139.049 125.016 137.287 83.0408C135.525 41.0664 177.736 5.20287 177.736 5.20287C177.736 5.20287 222.804 37.3946 224.566 79.3689Z" stroke="#DF5074" stroke-width="4" stroke-miterlimit="10"/>
<path d="M203.775 67.5813C220.811 105.975 216.75 145.048 194.705 154.853C172.659 164.656 140.977 141.48 123.941 103.086C106.906 64.692 133.012 15.8147 133.012 15.8147C133.012 15.8147 186.74 29.1873 203.775 67.5813Z" fill="#E6A4B5"/>
<path d="M203.775 67.5813C220.811 105.975 216.75 145.048 194.705 154.853C172.659 164.656 140.977 141.48 123.941 103.086C106.906 64.692 133.012 15.8147 133.012 15.8147C133.012 15.8147 186.74 29.1873 203.775 67.5813Z" stroke="#DF5074" stroke-width="4" stroke-miterlimit="10"/>
<path d="M241.843 100.468C226.923 139.734 196.549 164.605 174.003 156.018C151.456 147.431 145.274 108.638 160.195 69.3711C175.116 30.1051 228.036 13.8212 228.036 13.8212C228.036 13.8212 256.764 61.2011 241.843 100.468Z" fill="#E6A4B5"/>
<path d="M241.843 100.468C226.923 139.734 196.549 164.605 174.003 156.018C151.456 147.431 145.274 108.638 160.195 69.3711C175.116 30.1051 228.036 13.8212 228.036 13.8212C228.036 13.8212 256.764 61.2011 241.843 100.468Z" stroke="#DF5074" stroke-width="4" stroke-miterlimit="10"/>
<path d="M220.445 112.816C220.871 116.408 217.913 119.714 213.838 120.198C209.763 120.683 206.113 118.164 205.687 114.571C205.261 110.979 208.219 107.674 212.293 107.188C216.369 106.704 220.019 109.223 220.445 112.816Z" fill="#F3AB5F"/>
<path d="M220.445 112.816C220.871 116.408 217.913 119.714 213.838 120.198C209.763 120.683 206.113 118.164 205.687 114.571C205.261 110.979 208.219 107.674 212.293 107.188C216.369 106.704 220.019 109.223 220.445 112.816Z" stroke="#CF8453" stroke-width="2.66667" stroke-miterlimit="10"/>
<path d="M204.754 75.6685C202.884 88.7508 195.144 98.464 187.467 97.3635C179.789 96.263 175.082 84.7657 176.954 71.6834C178.824 58.6021 186.565 48.8889 194.241 49.9884C201.919 51.0889 206.625 62.5862 204.754 75.6685Z" fill="white"/>
<path d="M204.754 75.6685C202.884 88.7508 195.144 98.464 187.467 97.3635C179.789 96.263 175.082 84.7657 176.954 71.6834C178.824 58.6021 186.565 48.8889 194.241 49.9884C201.919 51.0889 206.625 62.5862 204.754 75.6685Z" stroke="#EF4D6D" stroke-width="2.66667" stroke-miterlimit="10"/>
<path d="M196.114 59.3254C192.615 59.034 189.339 62.3946 187.76 67.3573L196.542 71.2043L187.233 78.0673C188.219 82.5178 190.718 85.727 193.898 85.9917C198.404 86.3668 202.552 80.7014 203.164 73.3378C203.775 65.9741 200.619 59.7004 196.114 59.3254Z" fill="#292929"/>
<path d="M196.114 59.3254C192.615 59.034 189.339 62.3946 187.76 67.3573L196.542 71.2043L187.233 78.0673C188.219 82.5178 190.718 85.727 193.898 85.9917C198.404 86.3668 202.552 80.7014 203.164 73.3378C203.775 65.9741 200.619 59.7004 196.114 59.3254Z" stroke="#3E3E3D" stroke-width="2.66667" stroke-miterlimit="10"/>
<path d="M243.472 81.2178C241.602 94.3001 233.862 104.013 226.185 102.913C218.507 101.812 213.801 90.3151 215.672 77.2327C217.542 64.1504 225.283 54.4382 232.959 55.5377C240.637 56.6382 245.343 68.1355 243.472 81.2178Z" fill="white"/>
<path d="M243.472 81.2178C241.602 94.3001 233.862 104.013 226.185 102.913C218.507 101.812 213.801 90.3151 215.672 77.2327C217.542 64.1504 225.283 54.4382 232.959 55.5377C240.637 56.6382 245.343 68.1355 243.472 81.2178Z" stroke="#EF4D6D" stroke-width="2.66667" stroke-miterlimit="10"/>
<path d="M234.856 63.9604C231.356 63.6691 228.08 67.0296 226.502 71.9923L235.284 75.8394L225.975 82.7023C226.96 87.1529 229.46 90.362 232.64 90.6267C237.145 91.0018 241.294 85.3365 241.906 77.9728C242.517 70.6091 239.361 64.3355 234.856 63.9604Z" fill="#292929"/>
<path d="M234.856 63.9604C231.356 63.6691 228.08 67.0296 226.502 71.9923L235.284 75.8394L225.975 82.7023C226.96 87.1529 229.46 90.362 232.64 90.6267C237.145 91.0018 241.294 85.3365 241.906 77.9728C242.517 70.6091 239.361 64.3355 234.856 63.9604Z" stroke="#3E3E3D" stroke-width="2.66667" stroke-miterlimit="10"/>
<path d="M222.86 131.967C222.86 131.967 217.096 137.856 210.112 137.738C203.127 137.619 197.566 131.54 197.566 131.54C197.566 131.54 203.329 125.652 210.313 125.77C217.299 125.888 222.86 131.967 222.86 131.967Z" fill="#522F37"/>
<path d="M222.86 131.967C222.86 131.967 217.096 137.856 210.112 137.738C203.127 137.619 197.566 131.54 197.566 131.54C197.566 131.54 203.329 125.652 210.313 125.77C217.299 125.888 222.86 131.967 222.86 131.967Z" stroke="#EF4D6D" stroke-width="2.66667" stroke-miterlimit="10"/>
</g>
</g>
<defs>
<clipPath id="clip0_4_1935">
<rect width="280" height="614" fill="white"/>
</clipPath>
</defs>
</svg>
