<svg width="280" height="406" viewBox="0 0 280 406" fill="none" xmlns="http://www.w3.org/2000/svg">
<g clip-path="url(#clip0_4_2337)">
<mask id="mask0_4_2337" style="mask-type:luminance" maskUnits="userSpaceOnUse" x="-151" y="-298" width="582" height="754">
<path d="M-150.977 -298H430.977V455.98H-150.977V-298Z" fill="white"/>
</mask>
<g mask="url(#mask0_4_2337)">
<path d="M18.9702 217.705L52.1026 389.491C52.1026 398.529 91.8409 405.856 140.862 405.856C189.883 405.856 229.621 398.529 229.621 389.491L260.755 219.425L18.9702 217.705Z" fill="#985724" stroke="#7A4521" stroke-width="2.66667" stroke-miterlimit="10"/>
</g>
<mask id="mask1_4_2337" style="mask-type:luminance" maskUnits="userSpaceOnUse" x="-151" y="-298" width="582" height="754">
<path d="M-150.977 -298H430.977V455.98H-150.977V-298Z" fill="white"/>
</mask>
<g mask="url(#mask1_4_2337)">
<path d="M278.077 177.411C278.077 223.619 216.258 261.078 140 261.078C63.7431 261.078 1.92383 223.619 1.92383 177.411C1.92383 131.203 63.7431 93.7438 140 93.7438C216.258 93.7438 278.077 131.203 278.077 177.411Z" fill="#985724" stroke="#7A4521" stroke-width="2.66667" stroke-miterlimit="10"/>
</g>
<mask id="mask2_4_2337" style="mask-type:luminance" maskUnits="userSpaceOnUse" x="-151" y="-298" width="582" height="754">
<path d="M-150.977 -298H430.977V455.98H-150.977V-298Z" fill="white"/>
</mask>
<g mask="url(#mask2_4_2337)">
<path d="M271.349 169.375C271.349 200.566 212.371 225.851 139.618 225.851C66.8642 225.851 7.88623 200.566 7.88623 169.375C7.88623 138.185 66.8642 112.9 139.618 112.9C212.371 112.9 271.349 138.185 271.349 169.375Z" fill="#5A3723" stroke="#382217" stroke-width="2.66667" stroke-miterlimit="10"/>
</g>
<mask id="mask3_4_2337" style="mask-type:luminance" maskUnits="userSpaceOnUse" x="-151" y="-298" width="582" height="754">
<path d="M-150.977 -298H430.977V455.98H-150.977V-298Z" fill="white"/>
</mask>
<g mask="url(#mask3_4_2337)">
<path d="M135.568 51.3182C135.568 51.3182 84.9729 145.658 114.347 184.454H125.899C125.899 184.454 93.1954 149.457 144.422 54.2237L135.568 51.3182Z" fill="#6B6D35" stroke="#4C4C29" stroke-width="2.66667" stroke-miterlimit="10"/>
</g>
<mask id="mask4_4_2337" style="mask-type:luminance" maskUnits="userSpaceOnUse" x="-151" y="-298" width="582" height="754">
<path d="M-150.977 -298H430.977V455.98H-150.977V-298Z" fill="white"/>
</mask>
<g mask="url(#mask4_4_2337)">
<path d="M172.952 43.4016C161.157 58.4431 144.594 65.1347 135.956 58.346C127.319 51.5583 129.88 33.8607 141.675 18.8192C153.47 3.77673 178.671 3.87479 178.671 3.87479C178.671 3.87479 184.747 28.3601 172.952 43.4016Z" fill="#C6CE99" stroke="#9EB545" stroke-width="4" stroke-miterlimit="10"/>
</g>
</g>
<defs>
<clipPath id="clip0_4_2337">
<rect width="280" height="406" fill="white"/>
</clipPath>
</defs>
</svg>
