<?xml version="1.0" encoding="UTF-8" standalone="no"?>
<svg
   xmlns:dc="http://purl.org/dc/elements/1.1/"
   xmlns:cc="http://creativecommons.org/ns#"
   xmlns:rdf="http://www.w3.org/1999/02/22-rdf-syntax-ns#"
   xmlns:svg="http://www.w3.org/2000/svg"
   xmlns="http://www.w3.org/2000/svg"
   viewBox="0 0 816 1056"
   height="1056"
   width="816"
   xml:space="preserve"
   id="svg2"
   version="1.1"><metadata
     id="metadata8"><rdf:RDF><cc:Work
         rdf:about=""><dc:format>image/svg+xml</dc:format><dc:type
           rdf:resource="http://purl.org/dc/dcmitype/StillImage" /></cc:Work></rdf:RDF></metadata><defs
     id="defs6"><clipPath
       id="clipPath18"
       clipPathUnits="userSpaceOnUse"><path
         id="path16"
         d="M 0,792 H 612 V 0 H 0 Z" /></clipPath></defs><g
     transform="matrix(1.3333333,0,0,-1.3333333,0,1056)"
     id="g10"><g
       id="g12"><g
         clip-path="url(#clipPath18)"
         id="g14"><g
           transform="translate(178.7213,249.8954)"
           id="g20"><path
             id="path22"
             style="fill:#9c5f38;fill-opacity:1;fill-rule:nonzero;stroke:none"
             d="m 0,0 34.843,-180.448 c 0,-9.494 41.79,-17.19 93.342,-17.19 51.552,0 93.342,7.696 93.342,17.19 l 32.741,178.642 z" /></g><g
           transform="translate(178.7213,249.8954)"
           id="g24"><path
             id="path26"
             style="fill:none;stroke:#7f5036;stroke-width:2;stroke-linecap:butt;stroke-linejoin:miter;stroke-miterlimit:10;stroke-dasharray:none;stroke-opacity:1"
             d="m 0,0 34.843,-180.448 c 0,-9.494 41.79,-17.19 93.342,-17.19 51.552,0 93.342,7.696 93.342,17.19 l 32.741,178.642 z" /></g><g
           transform="translate(451.2056,292.2217)"
           id="g28"><path
             id="path30"
             style="fill:#9c5f38;fill-opacity:1;fill-rule:nonzero;stroke:none"
             d="m 0,0 c 0,-48.538 -65.011,-87.886 -145.206,-87.886 -80.194,0 -145.205,39.348 -145.205,87.886 0,48.538 65.011,87.886 145.205,87.886 C -65.011,87.886 0,48.538 0,0" /></g><g
           transform="translate(451.2056,292.2217)"
           id="g32"><path
             id="path34"
             style="fill:none;stroke:#7f5036;stroke-width:2;stroke-linecap:butt;stroke-linejoin:miter;stroke-miterlimit:10;stroke-dasharray:none;stroke-opacity:1"
             d="m 0,0 c 0,-48.538 -65.011,-87.886 -145.206,-87.886 -80.194,0 -145.205,39.348 -145.205,87.886 0,48.538 65.011,87.886 145.205,87.886 C -65.011,87.886 0,48.538 0,0 Z" /></g><g
           transform="translate(444.13,300.6623)"
           id="g36"><path
             id="path38"
             style="fill:#624537;fill-opacity:1;fill-rule:nonzero;stroke:none"
             d="m 0,0 c 0,-32.763 -62.023,-59.323 -138.532,-59.323 -76.51,0 -138.533,26.56 -138.533,59.323 0,32.763 62.023,59.323 138.533,59.323 C -62.023,59.323 0,32.763 0,0" /></g><g
           transform="translate(444.13,300.6623)"
           id="g40"><path
             id="path42"
             style="fill:none;stroke:#463731;stroke-width:2;stroke-linecap:butt;stroke-linejoin:miter;stroke-miterlimit:10;stroke-dasharray:none;stroke-opacity:1"
             d="m 0,0 c 0,-32.763 -62.023,-59.323 -138.532,-59.323 -76.51,0 -138.533,26.56 -138.533,59.323 0,32.763 62.023,59.323 138.533,59.323 C -62.023,59.323 0,32.763 0,0 Z" /></g><g
           transform="translate(322.0382,281.7603)"
           id="g44"><path
             id="path46"
             style="fill:#757845;fill-opacity:1;fill-rule:nonzero;stroke:#56563a;stroke-width:2;stroke-linecap:butt;stroke-linejoin:miter;stroke-miterlimit:10;stroke-dasharray:none;stroke-opacity:1"
             d="m 0,0 c 0,0 93.593,108.104 34.571,178.639 0,0 -5.202,-135.487 -46.706,-163.274" /></g><g
           transform="translate(293.2282,286.8652)"
           id="g48"><path
             id="path50"
             style="fill:#757845;fill-opacity:1;fill-rule:nonzero;stroke:#56563a;stroke-width:2;stroke-linecap:butt;stroke-linejoin:miter;stroke-miterlimit:10;stroke-dasharray:none;stroke-opacity:1"
             d="m 0,0 c 0,0 -50.75,133.681 28.914,179.641 0,0 -41.668,-129.025 -12.239,-169.381" /></g><g
           transform="translate(321.0664,284.8236)"
           id="g52"><path
             id="path54"
             style="fill:#757845;fill-opacity:1;fill-rule:nonzero;stroke:none"
             d="m 0,0 c 0,0 -4.389,209.065 46.399,300.03 l -13.877,-0.637 c 0,0 -50.603,-61.783 -48.554,-299.393 z" /></g><g
           transform="translate(321.0664,284.8236)"
           id="g56"><path
             id="path58"
             style="fill:none;stroke:#56563a;stroke-width:2;stroke-linecap:butt;stroke-linejoin:miter;stroke-miterlimit:10;stroke-dasharray:none;stroke-opacity:1"
             d="m 0,0 c 0,0 -4.389,209.065 46.399,300.03 l -13.877,-0.637 c 0,0 -50.603,-61.783 -48.554,-299.393 z" /></g><g
           transform="translate(385.101,621.4426)"
           id="g60"><path
             id="path62"
             style="fill:#e6a4b5;fill-opacity:1;fill-rule:nonzero;stroke:none"
             d="m 0,0 c 11.519,-42.6 1.005,-82.503 -23.484,-89.125 -24.489,-6.621 -53.679,22.545 -65.198,65.145 -11.519,42.601 23.484,89.125 23.484,89.125 0,0 53.679,-22.545 65.198,-65.145" /></g><g
           transform="translate(385.101,621.4426)"
           id="g64"><path
             id="path66"
             style="fill:none;stroke:#df5074;stroke-width:3;stroke-linecap:butt;stroke-linejoin:miter;stroke-miterlimit:10;stroke-dasharray:none;stroke-opacity:1"
             d="m 0,0 c 11.519,-42.6 1.005,-82.503 -23.484,-89.125 -24.489,-6.621 -53.679,22.545 -65.198,65.145 -11.519,42.601 23.484,89.125 23.484,89.125 0,0 53.679,-22.545 65.198,-65.145 z" /></g><g
           transform="translate(404.418,605.8259)"
           id="g68"><path
             id="path70"
             style="fill:#e6a4b5;fill-opacity:1;fill-rule:nonzero;stroke:none"
             d="m 0,0 c -6.196,-43.693 -31.581,-76.226 -56.698,-72.664 -25.117,3.562 -40.455,41.87 -34.259,85.563 6.196,43.693 56.698,72.664 56.698,72.664 0,0 40.455,-41.87 34.259,-85.563" /></g><g
           transform="translate(404.418,605.8259)"
           id="g72"><path
             id="path74"
             style="fill:none;stroke:#df5074;stroke-width:3;stroke-linecap:butt;stroke-linejoin:miter;stroke-miterlimit:10;stroke-dasharray:none;stroke-opacity:1"
             d="m 0,0 c -6.196,-43.693 -31.581,-76.226 -56.698,-72.664 -25.117,3.562 -40.455,41.87 -34.259,85.563 6.196,43.693 56.698,72.664 56.698,72.664 0,0 40.455,-41.87 34.259,-85.563 z" /></g><g
           transform="translate(394.9324,614.0903)"
           id="g76"><path
             id="path78"
             style="fill:#e6a4b5;fill-opacity:1;fill-rule:nonzero;stroke:none"
             d="m 0,0 c 1.853,-44.091 -17.192,-80.698 -42.538,-81.763 -25.346,-1.065 -47.395,33.814 -49.248,77.906 -1.853,44.091 42.538,81.763 42.538,81.763 0,0 47.395,-33.815 49.248,-77.906" /></g><g
           transform="translate(394.9324,614.0903)"
           id="g80"><path
             id="path82"
             style="fill:none;stroke:#df5074;stroke-width:3;stroke-linecap:butt;stroke-linejoin:miter;stroke-miterlimit:10;stroke-dasharray:none;stroke-opacity:1"
             d="m 0,0 c 1.853,-44.091 -17.192,-80.698 -42.538,-81.763 -25.346,-1.065 -47.395,33.814 -49.248,77.906 -1.853,44.091 42.538,81.763 42.538,81.763 0,0 47.395,-33.815 49.248,-77.906 z" /></g><g
           transform="translate(373.0675,626.4725)"
           id="g84"><path
             id="path86"
             style="fill:#e6a4b5;fill-opacity:1;fill-rule:nonzero;stroke:none"
             d="m 0,0 c 17.915,-40.33 13.645,-81.373 -9.539,-91.672 -23.184,-10.298 -56.502,14.047 -74.417,54.377 -17.915,40.33 9.539,91.672 9.539,91.672 0,0 56.502,-14.047 74.417,-54.377" /></g><g
           transform="translate(373.0675,626.4725)"
           id="g88"><path
             id="path90"
             style="fill:none;stroke:#df5074;stroke-width:3;stroke-linecap:butt;stroke-linejoin:miter;stroke-miterlimit:10;stroke-dasharray:none;stroke-opacity:1"
             d="m 0,0 c 17.915,-40.33 13.645,-81.373 -9.539,-91.672 -23.184,-10.298 -56.502,14.047 -74.417,54.377 -17.915,40.33 9.539,91.672 9.539,91.672 0,0 56.502,-14.047 74.417,-54.377 z" /></g><g
           transform="translate(413.1011,591.9274)"
           id="g92"><path
             id="path94"
             style="fill:#e6a4b5;fill-opacity:1;fill-rule:nonzero;stroke:none"
             d="m 0,0 c -15.691,-41.246 -47.633,-67.371 -71.343,-58.351 -23.711,9.02 -30.212,49.769 -14.521,91.016 15.692,41.246 71.344,58.351 71.344,58.351 0,0 30.211,-49.769 14.52,-91.016" /></g><g
           transform="translate(413.1011,591.9274)"
           id="g96"><path
             id="path98"
             style="fill:none;stroke:#df5074;stroke-width:3;stroke-linecap:butt;stroke-linejoin:miter;stroke-miterlimit:10;stroke-dasharray:none;stroke-opacity:1"
             d="m 0,0 c -15.691,-41.246 -47.633,-67.371 -71.343,-58.351 -23.711,9.02 -30.212,49.769 -14.521,91.016 15.692,41.246 71.344,58.351 71.344,58.351 0,0 30.211,-49.769 14.52,-91.016 z" /></g><g
           transform="translate(390.5974,578.9572)"
           id="g100"><path
             id="path102"
             style="fill:#f3ab5f;fill-opacity:1;fill-rule:nonzero;stroke:none"
             d="m 0,0 c 0.448,-3.774 -2.662,-7.246 -6.948,-7.755 -4.285,-0.509 -8.123,2.137 -8.571,5.911 -0.449,3.773 2.662,7.245 6.947,7.755 C -4.286,6.42 -0.448,3.774 0,0" /></g><g
           transform="translate(390.5974,578.9572)"
           id="g104"><path
             id="path106"
             style="fill:none;stroke:#cf8453;stroke-width:2;stroke-linecap:butt;stroke-linejoin:miter;stroke-miterlimit:10;stroke-dasharray:none;stroke-opacity:1"
             d="m 0,0 c 0.448,-3.774 -2.662,-7.246 -6.948,-7.755 -4.285,-0.509 -8.123,2.137 -8.571,5.911 -0.449,3.773 2.662,7.245 6.947,7.755 C -4.286,6.42 -0.448,3.774 0,0 Z" /></g><g
           transform="translate(374.0975,617.9776)"
           id="g108"><path
             id="path110"
             style="fill:#ffffff;fill-opacity:1;fill-rule:nonzero;stroke:none"
             d="m 0,0 c -1.967,-13.742 -10.107,-23.945 -18.18,-22.789 -8.074,1.156 -13.024,13.233 -11.056,26.975 1.967,13.741 10.107,23.944 18.18,22.789 C -2.982,25.819 1.967,13.742 0,0" /></g><g
           transform="translate(374.0975,617.9776)"
           id="g112"><path
             id="path114"
             style="fill:none;stroke:#ef4d6d;stroke-width:2;stroke-linecap:butt;stroke-linejoin:miter;stroke-miterlimit:10;stroke-dasharray:none;stroke-opacity:1"
             d="m 0,0 c -1.967,-13.742 -10.107,-23.945 -18.18,-22.789 -8.074,1.156 -13.024,13.233 -11.056,26.975 1.967,13.741 10.107,23.944 18.18,22.789 C -2.982,25.819 1.967,13.742 0,0 Z" /></g><g
           transform="translate(365.011,635.1449)"
           id="g116"><path
             id="path118"
             style="fill:#292929;fill-opacity:1;fill-rule:nonzero;stroke:none"
             d="m 0,0 c -3.68,0.306 -7.125,-3.224 -8.785,-8.437 l 9.235,-4.041 -9.789,-7.209 c 1.036,-4.675 3.665,-8.046 7.009,-8.324 4.738,-0.394 9.101,5.557 9.744,13.292 C 8.057,-6.984 4.738,-0.394 0,0" /></g><g
           transform="translate(365.011,635.1449)"
           id="g120"><path
             id="path122"
             style="fill:none;stroke:#3e3e3d;stroke-width:2;stroke-linecap:butt;stroke-linejoin:miter;stroke-miterlimit:10;stroke-dasharray:none;stroke-opacity:1"
             d="m 0,0 c -3.68,0.306 -7.125,-3.224 -8.785,-8.437 l 9.235,-4.041 -9.789,-7.209 c 1.036,-4.675 3.665,-8.046 7.009,-8.324 4.738,-0.394 9.101,5.557 9.744,13.292 C 8.057,-6.984 4.738,-0.394 0,0 Z" /></g><g
           transform="translate(414.8142,612.1483)"
           id="g124"><path
             id="path126"
             style="fill:#ffffff;fill-opacity:1;fill-rule:nonzero;stroke:none"
             d="m 0,0 c -1.967,-13.742 -10.107,-23.945 -18.18,-22.789 -8.074,1.156 -13.023,13.233 -11.056,26.975 1.967,13.742 10.107,23.944 18.18,22.789 C -2.982,25.819 1.967,13.742 0,0" /></g><g
           transform="translate(414.8142,612.1483)"
           id="g128"><path
             id="path130"
             style="fill:none;stroke:#ef4d6d;stroke-width:2;stroke-linecap:butt;stroke-linejoin:miter;stroke-miterlimit:10;stroke-dasharray:none;stroke-opacity:1"
             d="m 0,0 c -1.967,-13.742 -10.107,-23.945 -18.18,-22.789 -8.074,1.156 -13.023,13.233 -11.056,26.975 1.967,13.742 10.107,23.944 18.18,22.789 C -2.982,25.819 1.967,13.742 0,0 Z" /></g><g
           transform="translate(405.7527,630.276)"
           id="g132"><path
             id="path134"
             style="fill:#292929;fill-opacity:1;fill-rule:nonzero;stroke:none"
             d="m 0,0 c -3.68,0.306 -7.125,-3.224 -8.785,-8.437 l 9.235,-4.041 -9.789,-7.209 c 1.036,-4.675 3.665,-8.046 7.009,-8.324 4.738,-0.394 9.101,5.557 9.744,13.292 C 8.057,-6.984 4.738,-0.394 0,0" /></g><g
           transform="translate(405.7527,630.276)"
           id="g136"><path
             id="path138"
             style="fill:none;stroke:#3e3e3d;stroke-width:2;stroke-linecap:butt;stroke-linejoin:miter;stroke-miterlimit:10;stroke-dasharray:none;stroke-opacity:1"
             d="m 0,0 c -3.68,0.306 -7.125,-3.224 -8.785,-8.437 l 9.235,-4.041 -9.789,-7.209 c 1.036,-4.675 3.665,-8.046 7.009,-8.324 4.738,-0.394 9.101,5.557 9.744,13.292 C 8.057,-6.984 4.738,-0.394 0,0 Z" /></g><g
           transform="translate(393.1375,558.8395)"
           id="g140"><path
             id="path142"
             style="fill:#522f37;fill-opacity:1;fill-rule:nonzero;stroke:none"
             d="m 0,0 c 0,0 -6.061,-6.185 -13.406,-6.061 -7.345,0.124 -13.193,6.51 -13.193,6.51 0,0 6.06,6.185 13.405,6.061 C -5.848,6.386 0,0 0,0" /></g><g
           transform="translate(393.1375,558.8395)"
           id="g144"><path
             id="path146"
             style="fill:none;stroke:#ef4d6d;stroke-width:2;stroke-linecap:butt;stroke-linejoin:miter;stroke-miterlimit:10;stroke-dasharray:none;stroke-opacity:1"
             d="m 0,0 c 0,0 -6.061,-6.185 -13.406,-6.061 -7.345,0.124 -13.193,6.51 -13.193,6.51 0,0 6.06,6.185 13.405,6.061 C -5.848,6.386 0,0 0,0 Z" /></g></g></g></g></svg>