<?xml version="1.0" encoding="UTF-8"?>
<svg id="Layer_1" data-name="Layer 1" xmlns="http://www.w3.org/2000/svg" viewBox="0 0 292.41 530.06">
  <defs>
    <style>
      .cls-1 {
        fill: #798034;
        stroke: #5a5c27;
      }

      .cls-1, .cls-2, .cls-3 {
        stroke-width: 2px;
      }

      .cls-1, .cls-2, .cls-3, .cls-4 {
        stroke-miterlimit: 10;
      }

      .cls-2 {
        fill: #5a3723;
        stroke: #382217;
      }

      .cls-3 {
        fill: #995724;
        stroke: #7a4521;
      }

      .cls-4 {
        fill: #f59caf;
        stroke: #ef4267;
        stroke-width: 3px;
      }
    </style>
  </defs>
  <g>
    <path class="cls-3" d="M18.93,331.42l34.84,180.45c0,9.49,41.79,17.19,93.34,17.19s93.34-7.7,93.34-17.19l32.74-178.64-254.27-1.81Z"/>
    <ellipse class="cls-3" cx="146.21" cy="289.1" rx="145.21" ry="87.89"/>
    <ellipse class="cls-2" cx="145.8" cy="280.66" rx="138.53" ry="59.32"/>
  </g>
  <g>
    <g>
      <path class="cls-1" d="M135.12,296.5s46.76-78.33,1.83-116.07c0,0,11.81,85.69-11.17,107.77"/>
      <path class="cls-1" d="M116.45,296.5s-46.76-78.33-1.83-116.07c0,0-11.81,85.69,11.17,107.77"/>
      <path class="cls-1" d="M95.12,94.45s52.25,145.79,20.84,202.05h17.94s13.82-79.86-28.87-202.05h-9.92Z"/>
    </g>
    <g>
      <path class="cls-4" d="M119.16,47.95c10.98,28.56,6.58,56.83-9.84,63.14s-38.63-11.72-49.61-40.28c-10.98-28.56,9.84-63.14,9.84-63.14,0,0,38.63,11.72,49.61,40.28Z"/>
      <path class="cls-4" d="M102.05,44.65c20.7,22.53,26.99,50.44,14.04,62.35-12.95,11.9-40.24,3.28-60.94-19.25-20.7-22.53-14.04-62.35-14.04-62.35,0,0,40.24-3.28,60.94,19.25Z"/>
      <path class="cls-4" d="M136,58.49c-1.17,30.58-16.38,54.82-33.95,54.14-17.58-.68-30.87-26.01-29.7-56.59S106.3,1.9,106.3,1.9c0,0,30.87,26.01,29.7,56.59Z"/>
    </g>
  </g>
</svg>