<?xml version="1.0" encoding="UTF-8"?>
<svg id="Layer_1" data-name="Layer 1" xmlns="http://www.w3.org/2000/svg" viewBox="0 0 292.41 433.69">
  <defs>
    <style>
      .cls-1 {
        fill: #798034;
        stroke: #5a5c27;
      }

      .cls-1, .cls-2, .cls-3 {
        stroke-width: 2px;
      }

      .cls-1, .cls-2, .cls-3, .cls-4 {
        stroke-miterlimit: 10;
      }

      .cls-2 {
        fill: #5a3723;
        stroke: #382217;
      }

      .cls-3 {
        fill: #995724;
        stroke: #7a4521;
      }

      .cls-4 {
        fill: #d8e69d;
        stroke: #acd141;
        stroke-width: 3px;
      }
    </style>
  </defs>
  <g>
    <path class="cls-3" d="M18.93,235.05l34.84,180.45c0,9.49,41.79,17.19,93.34,17.19s93.34-7.7,93.34-17.19l32.74-178.64-254.27-1.81Z"/>
    <ellipse class="cls-3" cx="146.21" cy="192.73" rx="145.21" ry="87.89"/>
    <ellipse class="cls-2" cx="145.8" cy="184.29" rx="138.53" ry="59.32"/>
  </g>
  <g>
    <path class="cls-1" d="M105.12,63.33s35.38,98.7,14.11,136.8h12.15s9.36-54.07-19.54-136.8h-6.71Z"/>
    <path class="cls-4" d="M118.2,28.22c7.21,18.75,4.32,37.31-6.46,41.45s-25.36-7.69-32.57-26.44c-7.21-18.75,6.46-41.45,6.46-41.45,0,0,25.36,7.69,32.57,26.44Z"/>
  </g>
</svg>