<svg width="282" height="358" viewBox="0 0 282 358" fill="none" xmlns="http://www.w3.org/2000/svg">
<g clip-path="url(#clip0_4_1870)">
<mask id="mask0_4_1870" style="mask-type:luminance" maskUnits="userSpaceOnUse" x="-150" y="-346" width="582" height="754">
<path d="M-149.977 -346H431.977V407.98H-149.977V-346Z" fill="white"/>
</mask>
<g mask="url(#mask0_4_1870)">
<path d="M19.9702 169.705L53.1026 341.491C53.1026 350.529 92.8409 357.856 141.862 357.856C190.883 357.856 230.621 350.529 230.621 341.491L261.755 171.425L19.9702 169.705Z" fill="#9C5F38"/>
<path d="M19.9702 169.705L53.1026 341.491C53.1026 350.529 92.8409 357.856 141.862 357.856C190.883 357.856 230.621 350.529 230.621 341.491L261.755 171.425L19.9702 169.705Z" stroke="#7F5036" stroke-width="2.66667" stroke-miterlimit="10"/>
<path d="M279.077 129.411C279.077 175.619 217.258 213.078 141 213.078C64.7431 213.078 2.92383 175.619 2.92383 129.411C2.92383 83.2029 64.7431 45.7438 141 45.7438C217.258 45.7438 279.077 83.2029 279.077 129.411Z" fill="#9C5F38"/>
<path d="M279.077 129.411C279.077 175.619 217.258 213.078 141 213.078C64.7431 213.078 2.92383 175.619 2.92383 129.411C2.92383 83.2028 64.7431 45.7438 141 45.7438C217.258 45.7438 279.077 83.2028 279.077 129.411Z" stroke="#7F5036" stroke-width="2.66667" stroke-miterlimit="10"/>
<path d="M272.349 121.375C272.349 152.566 213.371 177.851 140.618 177.851C67.8642 177.851 8.88623 152.566 8.88623 121.375C8.88623 90.1852 67.8642 64.9002 140.618 64.9002C213.371 64.9002 272.349 90.1852 272.349 121.375Z" fill="#624537"/>
<path d="M272.349 121.375C272.349 152.566 213.371 177.851 140.618 177.851C67.8642 177.851 8.88623 152.566 8.88623 121.375C8.88623 90.1852 67.8642 64.9002 140.618 64.9002C213.371 64.9002 272.349 90.1852 272.349 121.375Z" stroke="#463731" stroke-width="2.66667" stroke-miterlimit="10"/>
<path d="M191.108 7.20773C191.108 7.20773 99.8876 10.9158 115.347 136.453H126.899C126.899 136.453 106.211 36.8757 187.308 14.3172L191.108 7.20773Z" fill="#5A5943"/>
<path d="M191.108 7.20773C191.108 7.20773 99.8876 10.9158 115.347 136.453H126.899C126.899 136.453 106.211 36.8757 187.308 14.3172L191.108 7.20773Z" stroke="#3E3D36" stroke-width="2.66667" stroke-miterlimit="10"/>
<path d="M200.009 46.1406C187.034 32.1053 183.049 14.6743 191.108 7.20779C199.167 -0.259655 216.218 5.06485 229.192 19.1001C242.167 33.1354 238.093 58.0329 238.093 58.0329C238.093 58.0329 212.983 60.1758 200.009 46.1406Z" fill="#B1B299"/>
<path d="M200.008 46.1406C187.034 32.1053 183.049 14.6743 191.108 7.20779C199.167 -0.259654 216.218 5.06485 229.192 19.1001C242.167 33.1354 238.093 58.0329 238.093 58.0329C238.093 58.0329 212.983 60.1758 200.008 46.1406Z" stroke="#858B55" stroke-width="4" stroke-miterlimit="10"/>
</g>
</g>
<defs>
<clipPath id="clip0_4_1870">
<rect width="282" height="358" fill="white"/>
</clipPath>
</defs>
</svg>
