<svg width="282" height="449" viewBox="0 0 282 449" fill="none" xmlns="http://www.w3.org/2000/svg">
<g clip-path="url(#clip0_4_2534)">
<mask id="mask0_4_2534" style="mask-type:luminance" maskUnits="userSpaceOnUse" x="-150" y="-255" width="582" height="754">
<path d="M-149.977 -255H431.977V498.98H-149.977V-255Z" fill="white"/>
</mask>
<g mask="url(#mask0_4_2534)">
<path d="M19.9702 260.705L53.1026 432.491C53.1026 441.529 92.8409 448.856 141.862 448.856C190.883 448.856 230.621 441.529 230.621 432.491L261.755 262.425L19.9702 260.705Z" fill="#985724" stroke="#7A4521" stroke-width="2.66667" stroke-miterlimit="10"/>
</g>
<mask id="mask1_4_2534" style="mask-type:luminance" maskUnits="userSpaceOnUse" x="-150" y="-255" width="582" height="754">
<path d="M-149.977 -255H431.977V498.98H-149.977V-255Z" fill="white"/>
</mask>
<g mask="url(#mask1_4_2534)">
<path d="M279.077 220.411C279.077 266.619 217.258 304.078 141 304.078C64.7431 304.078 2.92383 266.619 2.92383 220.411C2.92383 174.203 64.7431 136.744 141 136.744C217.258 136.744 279.077 174.203 279.077 220.411Z" fill="#985724" stroke="#7A4521" stroke-width="2.66667" stroke-miterlimit="10"/>
</g>
<mask id="mask2_4_2534" style="mask-type:luminance" maskUnits="userSpaceOnUse" x="-150" y="-255" width="582" height="754">
<path d="M-149.977 -255H431.977V498.98H-149.977V-255Z" fill="white"/>
</mask>
<g mask="url(#mask2_4_2534)">
<path d="M272.349 212.375C272.349 243.566 213.371 268.851 140.618 268.851C67.8642 268.851 8.88623 243.566 8.88623 212.375C8.88623 181.185 67.8642 155.9 140.618 155.9C213.371 155.9 272.349 181.185 272.349 212.375Z" fill="#5A3723" stroke="#382217" stroke-width="2.66667" stroke-miterlimit="10"/>
</g>
<mask id="mask3_4_2534" style="mask-type:luminance" maskUnits="userSpaceOnUse" x="-150" y="-255" width="582" height="754">
<path d="M-149.977 -255H431.977V498.98H-149.977V-255Z" fill="white"/>
</mask>
<g mask="url(#mask3_4_2534)">
<path d="M130.461 227.454C130.461 227.454 150.382 190.696 167.732 165.874C167.732 165.874 128.223 183.239 121.585 219.55" fill="#5C5C34"/>
<path d="M130.461 227.454C130.461 227.454 150.382 190.696 167.732 165.874C167.732 165.874 128.223 183.239 121.585 219.55" stroke="#33321F" stroke-width="2.66667" stroke-miterlimit="10"/>
</g>
<mask id="mask4_4_2534" style="mask-type:luminance" maskUnits="userSpaceOnUse" x="-150" y="-255" width="582" height="754">
<path d="M-149.977 -255H431.977V498.98H-149.977V-255Z" fill="white"/>
</mask>
<g mask="url(#mask4_4_2534)">
<path d="M112.71 227.454C112.71 227.454 86.0352 183.558 65.8428 165.874C65.8428 165.874 100.768 170.501 121.585 219.55" fill="#5C5C34"/>
<path d="M112.71 227.454C112.71 227.454 86.0352 183.558 65.8428 165.874C65.8428 165.874 100.768 170.501 121.585 219.55" stroke="#33321F" stroke-width="2.66667" stroke-miterlimit="10"/>
</g>
<mask id="mask5_4_2534" style="mask-type:luminance" maskUnits="userSpaceOnUse" x="-150" y="-255" width="582" height="754">
<path d="M-149.977 -255H431.977V498.98H-149.977V-255Z" fill="white"/>
</mask>
<g mask="url(#mask5_4_2534)">
<path d="M187.822 24.3501C187.822 24.3501 77.0829 41.7544 112.239 227.453H129.301C129.301 227.453 72.6422 94.0732 187.822 33.7358V24.3501Z" fill="#5C5C34" stroke="#33321F" stroke-width="2.66667" stroke-miterlimit="10"/>
</g>
<mask id="mask6_4_2534" style="mask-type:luminance" maskUnits="userSpaceOnUse" x="-150" y="-255" width="582" height="754">
<path d="M-149.977 -255H431.977V498.98H-149.977V-255Z" fill="white"/>
</mask>
<g mask="url(#mask6_4_2534)">
<path d="M224.035 57.1197C198.885 57.9432 178.114 46.8781 177.641 32.404C177.168 17.9308 197.173 5.52921 222.321 4.70574C247.471 3.88131 268.716 29.4205 268.716 29.4205C268.716 29.4205 249.184 56.2962 224.035 57.1197Z" fill="#BF939F" stroke="#B75B78" stroke-width="4" stroke-miterlimit="10"/>
</g>
<mask id="mask7_4_2534" style="mask-type:luminance" maskUnits="userSpaceOnUse" x="-150" y="-255" width="582" height="754">
<path d="M-149.977 -255H431.977V498.98H-149.977V-255Z" fill="white"/>
</mask>
<g mask="url(#mask7_4_2534)">
<path d="M186.338 237.279C171.918 230.578 162.2 220.895 164.632 215.65C167.063 210.405 180.724 211.587 195.143 218.288C209.563 224.989 216.85 239.917 216.85 239.917C216.85 239.917 200.757 243.98 186.338 237.279Z" fill="#BF939F" stroke="#B75B78" stroke-width="4" stroke-miterlimit="10"/>
</g>
<mask id="mask8_4_2534" style="mask-type:luminance" maskUnits="userSpaceOnUse" x="-150" y="-255" width="582" height="754">
<path d="M-149.977 -255H431.977V498.98H-149.977V-255Z" fill="white"/>
</mask>
<g mask="url(#mask8_4_2534)">
<path d="M211.302 67.3734C187.868 58.1981 173.142 39.8265 178.41 26.3396C183.678 12.8527 206.947 9.35789 230.381 18.5332C253.816 27.7095 263.274 59.568 263.274 59.568C263.274 59.568 234.736 76.5487 211.302 67.3734Z" fill="#BF939F" stroke="#B75B78" stroke-width="4" stroke-miterlimit="10"/>
</g>
</g>
<defs>
<clipPath id="clip0_4_2534">
<rect width="282" height="449" fill="white"/>
</clipPath>
</defs>
</svg>
