<svg width="280" height="379" viewBox="0 0 280 379" fill="none" xmlns="http://www.w3.org/2000/svg">
<g clip-path="url(#clip0_4_2432)">
<mask id="mask0_4_2432" style="mask-type:luminance" maskUnits="userSpaceOnUse" x="-151" y="-325" width="582" height="754">
<path d="M-150.977 -325H430.977V428.98H-150.977V-325Z" fill="white"/>
</mask>
<g mask="url(#mask0_4_2432)">
<path d="M18.9702 190.705L52.1026 362.491C52.1026 371.529 91.8409 378.856 140.862 378.856C189.883 378.856 229.621 371.529 229.621 362.491L260.755 192.425L18.9702 190.705Z" fill="#985724" stroke="#7A4521" stroke-width="2.66667" stroke-miterlimit="10"/>
</g>
<mask id="mask1_4_2432" style="mask-type:luminance" maskUnits="userSpaceOnUse" x="-151" y="-325" width="582" height="754">
<path d="M-150.977 -325H430.977V428.98H-150.977V-325Z" fill="white"/>
</mask>
<g mask="url(#mask1_4_2432)">
<path d="M278.077 150.411C278.077 196.619 216.258 234.078 140 234.078C63.7431 234.078 1.92383 196.619 1.92383 150.411C1.92383 104.203 63.7431 66.7438 140 66.7438C216.258 66.7438 278.077 104.203 278.077 150.411Z" fill="#985724" stroke="#7A4521" stroke-width="2.66667" stroke-miterlimit="10"/>
</g>
<mask id="mask2_4_2432" style="mask-type:luminance" maskUnits="userSpaceOnUse" x="-151" y="-325" width="582" height="754">
<path d="M-150.977 -325H430.977V428.98H-150.977V-325Z" fill="white"/>
</mask>
<g mask="url(#mask2_4_2432)">
<path d="M271.349 142.375C271.349 173.566 212.371 198.851 139.618 198.851C66.8642 198.851 7.88623 173.566 7.88623 142.375C7.88623 111.185 66.8642 85.9002 139.618 85.9002C212.371 85.9002 271.349 111.185 271.349 142.375Z" fill="#5A3723" stroke="#382217" stroke-width="2.66667" stroke-miterlimit="10"/>
</g>
<mask id="mask3_4_2432" style="mask-type:luminance" maskUnits="userSpaceOnUse" x="-151" y="-325" width="582" height="754">
<path d="M-150.977 -325H430.977V428.98H-150.977V-325Z" fill="white"/>
</mask>
<g mask="url(#mask3_4_2432)">
<path d="M168.249 24.3182C168.249 24.3182 80.5223 74.8853 114.347 157.454H125.899C125.899 157.454 87.5029 94.5983 168.249 35.0425V24.3182Z" fill="#5E5E36" stroke="#3D3C27" stroke-width="2.66667" stroke-miterlimit="10"/>
</g>
<mask id="mask4_4_2432" style="mask-type:luminance" maskUnits="userSpaceOnUse" x="-151" y="-325" width="582" height="754">
<path d="M-150.977 -325H430.977V428.98H-150.977V-325Z" fill="white"/>
</mask>
<g mask="url(#mask4_4_2432)">
<path d="M199.356 43.6797C180.546 47.0117 163.747 40.937 161.834 30.1119C159.922 19.2868 173.619 7.81049 192.428 4.47851C211.237 1.14748 229.949 18.0463 229.949 18.0463C229.949 18.0463 218.166 40.3478 199.356 43.6797Z" fill="#B8BC95" stroke="#8F9A4A" stroke-width="4" stroke-miterlimit="10"/>
</g>
</g>
<defs>
<clipPath id="clip0_4_2432">
<rect width="280" height="379" fill="white"/>
</clipPath>
</defs>
</svg>
