<svg width="282" height="416" viewBox="0 0 282 416" fill="none" xmlns="http://www.w3.org/2000/svg">
<g clip-path="url(#clip0_4_2492)">
<mask id="mask0_4_2492" style="mask-type:luminance" maskUnits="userSpaceOnUse" x="-150" y="-288" width="582" height="754">
<path d="M-149.977 -288H431.977V465.98H-149.977V-288Z" fill="white"/>
</mask>
<g mask="url(#mask0_4_2492)">
<path d="M19.9702 227.705L53.1026 399.491C53.1026 408.529 92.8409 415.856 141.862 415.856C190.883 415.856 230.621 408.529 230.621 399.491L261.755 229.425L19.9702 227.705Z" fill="#985724" stroke="#7A4521" stroke-width="2.66667" stroke-miterlimit="10"/>
</g>
<mask id="mask1_4_2492" style="mask-type:luminance" maskUnits="userSpaceOnUse" x="-150" y="-288" width="582" height="754">
<path d="M-149.977 -288H431.977V465.98H-149.977V-288Z" fill="white"/>
</mask>
<g mask="url(#mask1_4_2492)">
<path d="M279.077 187.411C279.077 233.619 217.258 271.078 141 271.078C64.7431 271.078 2.92383 233.619 2.92383 187.411C2.92383 141.203 64.7431 103.744 141 103.744C217.258 103.744 279.077 141.203 279.077 187.411Z" fill="#985724" stroke="#7A4521" stroke-width="2.66667" stroke-miterlimit="10"/>
</g>
<mask id="mask2_4_2492" style="mask-type:luminance" maskUnits="userSpaceOnUse" x="-150" y="-288" width="582" height="754">
<path d="M-149.977 -288H431.977V465.98H-149.977V-288Z" fill="white"/>
</mask>
<g mask="url(#mask2_4_2492)">
<path d="M272.349 179.375C272.349 210.566 213.371 235.851 140.618 235.851C67.8642 235.851 8.88623 210.566 8.88623 179.375C8.88623 148.185 67.8642 122.9 140.618 122.9C213.371 122.9 272.349 148.185 272.349 179.375Z" fill="#5A3723" stroke="#382217" stroke-width="2.66667" stroke-miterlimit="10"/>
</g>
<mask id="mask3_4_2492" style="mask-type:luminance" maskUnits="userSpaceOnUse" x="-150" y="-288" width="582" height="754">
<path d="M-149.977 -288H431.977V465.98H-149.977V-288Z" fill="white"/>
</mask>
<g mask="url(#mask3_4_2492)">
<path d="M130.461 194.454C130.461 194.454 150.382 157.696 167.732 132.874C167.732 132.874 128.223 150.239 121.585 186.55" fill="#494830"/>
<path d="M130.461 194.454C130.461 194.454 150.382 157.696 167.732 132.874C167.732 132.874 128.223 150.239 121.585 186.55" stroke="#2B2A1C" stroke-width="2.66667" stroke-miterlimit="10"/>
</g>
<mask id="mask4_4_2492" style="mask-type:luminance" maskUnits="userSpaceOnUse" x="-150" y="-288" width="582" height="754">
<path d="M-149.977 -288H431.977V465.98H-149.977V-288Z" fill="white"/>
</mask>
<g mask="url(#mask4_4_2492)">
<path d="M112.71 194.454C112.71 194.454 86.0352 150.558 65.8428 132.874C65.8428 132.874 100.768 137.501 121.585 186.55" fill="#494830"/>
<path d="M112.71 194.454C112.71 194.454 86.0352 150.558 65.8428 132.874C65.8428 132.874 100.768 137.501 121.585 186.55" stroke="#2B2A1C" stroke-width="2.66667" stroke-miterlimit="10"/>
</g>
<mask id="mask5_4_2492" style="mask-type:luminance" maskUnits="userSpaceOnUse" x="-150" y="-288" width="582" height="754">
<path d="M-149.977 -288H431.977V465.98H-149.977V-288Z" fill="white"/>
</mask>
<g mask="url(#mask5_4_2492)">
<path d="M215.679 6.69888C215.679 6.69888 77.0822 8.75426 112.238 194.454H129.3C129.3 194.454 73.3118 42.9718 215.679 14.1444V6.69888Z" fill="#494830" stroke="#2B2A1C" stroke-width="2.66667" stroke-miterlimit="10"/>
</g>
<mask id="mask6_4_2492" style="mask-type:luminance" maskUnits="userSpaceOnUse" x="-150" y="-288" width="582" height="754">
<path d="M-149.977 -288H431.977V465.98H-149.977V-288Z" fill="white"/>
</mask>
<g mask="url(#mask6_4_2492)">
<path d="M225.203 154.789C239.95 157.139 251.29 162.907 250.532 167.671C249.775 172.436 237.206 174.393 222.46 172.043C207.713 169.693 197.13 159.161 197.13 159.161C197.13 159.161 210.456 152.438 225.203 154.789Z" fill="#A28B92"/>
</g>
<mask id="mask7_4_2492" style="mask-type:luminance" maskUnits="userSpaceOnUse" x="-150" y="-288" width="582" height="754">
<path d="M-149.977 -288H431.977V465.98H-149.977V-288Z" fill="white"/>
</mask>
<g mask="url(#mask7_4_2492)">
<path d="M225.203 154.789C239.95 157.139 251.29 162.907 250.532 167.671C249.775 172.436 237.206 174.393 222.46 172.043C207.713 169.693 197.13 159.161 197.13 159.161C197.13 159.161 210.456 152.438 225.203 154.789Z" stroke="#9A5F74" stroke-width="4" stroke-miterlimit="10"/>
</g>
<mask id="mask8_4_2492" style="mask-type:luminance" maskUnits="userSpaceOnUse" x="-150" y="-288" width="582" height="754">
<path d="M-149.977 -288H431.977V465.98H-149.977V-288Z" fill="white"/>
</mask>
<g mask="url(#mask8_4_2492)">
<path d="M186.338 204.279C171.918 197.578 162.2 187.895 164.632 182.65C167.063 177.405 180.724 178.587 195.143 185.288C209.563 191.989 216.85 206.917 216.85 206.917C216.85 206.917 200.757 210.98 186.338 204.279Z" fill="#A28B92" stroke="#9A5F74" stroke-width="4" stroke-miterlimit="10"/>
</g>
<mask id="mask9_4_2492" style="mask-type:luminance" maskUnits="userSpaceOnUse" x="-150" y="-288" width="582" height="754">
<path d="M-149.977 -288H431.977V465.98H-149.977V-288Z" fill="white"/>
</mask>
<g mask="url(#mask9_4_2492)">
<path d="M219.505 48.6491C207.918 32.1491 206.205 13.3672 215.679 6.69946C225.153 0.0307312 242.227 8.00083 253.813 24.5008C265.401 41.0008 257.639 66.4504 257.639 66.4504C257.639 66.4504 231.092 65.1491 219.505 48.6491Z" fill="#A28B92" stroke="#9A5F74" stroke-width="4" stroke-miterlimit="10"/>
</g>
</g>
<defs>
<clipPath id="clip0_4_2492">
<rect width="282" height="416" fill="white"/>
</clipPath>
</defs>
</svg>
