<svg width="276" height="506" viewBox="0 0 276 506" fill="none" xmlns="http://www.w3.org/2000/svg">
<g clip-path="url(#clip0_4_1897)">
<path d="M17.8678 316.751L50.7526 488.67C50.7526 497.711 90.1974 505.047 138.854 505.047C187.511 505.047 226.956 497.711 226.956 488.67L257.859 318.476L17.8584 316.751H17.8678Z" fill="#995724" stroke="#7A4521" stroke-width="2" stroke-miterlimit="10"/>
<path d="M138.005 360.167C213.701 360.167 275.066 322.677 275.066 276.432C275.066 230.187 213.701 192.697 138.005 192.697C62.3081 192.697 0.943848 230.187 0.943848 276.432C0.943848 322.677 62.3081 360.167 138.005 360.167Z" fill="#995724" stroke="#7A4521" stroke-width="2" stroke-miterlimit="10"/>
<path d="M137.618 324.906C209.832 324.906 268.373 299.604 268.373 268.391C268.373 237.178 209.832 211.875 137.618 211.875C65.4031 211.875 6.86182 237.178 6.86182 268.391C6.86182 299.604 65.4031 324.906 137.618 324.906Z" fill="#5A3723" stroke="#382217" stroke-width="2" stroke-miterlimit="10"/>
<path d="M127.537 283.482C127.537 283.482 171.673 208.855 129.264 172.9C129.264 172.9 140.412 254.538 118.721 275.575" fill="#798034"/>
<path d="M127.537 283.482C127.537 283.482 171.673 208.855 129.264 172.9C129.264 172.9 140.412 254.538 118.721 275.575" stroke="#5A5C27" stroke-width="2" stroke-miterlimit="10"/>
<path d="M109.915 283.482C109.915 283.482 65.7789 208.855 108.187 172.9C108.187 172.9 97.0402 254.538 118.731 275.575" fill="#798034"/>
<path d="M109.915 283.482C109.915 283.482 65.7789 208.855 108.187 172.9C108.187 172.9 97.0402 254.538 118.731 275.575" stroke="#5A5C27" stroke-width="2" stroke-miterlimit="10"/>
<path d="M89.7819 90.9846C89.7819 90.9846 139.1 229.882 109.452 283.482H126.386C126.386 283.482 139.43 207.398 99.1358 90.9846H89.7725H89.7819Z" fill="#798034" stroke="#5A5C27" stroke-width="2" stroke-miterlimit="10"/>
<path d="M112.473 46.683C122.837 73.8928 118.683 100.826 103.185 106.838C87.6864 112.85 66.7229 95.672 56.3591 68.4623C45.9952 41.2525 65.6468 8.30737 65.6468 8.30737C65.6468 8.30737 102.109 19.4733 112.473 46.683Z" fill="#F59CAF" stroke="#EF4267" stroke-width="3" stroke-miterlimit="10"/>
<path d="M96.3231 43.5389C115.861 65.0037 121.798 91.5942 109.575 102.941C97.3519 114.279 71.5934 106.066 52.0551 84.6012C32.5168 63.1364 38.803 25.199 38.803 25.199C38.803 25.199 76.7848 22.074 96.3231 43.5389Z" fill="#F59CAF" stroke="#EF4267" stroke-width="3" stroke-miterlimit="10"/>
<path d="M128.368 56.7246C127.263 85.8589 112.907 108.953 96.3231 108.305C79.7297 107.657 67.1855 83.5247 68.2898 54.3904C69.3942 25.2562 100.335 2.81006 100.335 2.81006C100.335 2.81006 129.472 27.5904 128.368 56.7246Z" fill="#F59CAF" stroke="#EF4267" stroke-width="3" stroke-miterlimit="10"/>
</g>
<defs>
<clipPath id="clip0_4_1897">
<rect width="276" height="506" fill="white"/>
</clipPath>
</defs>
</svg>
